<?xml version="1.0" encoding="utf-8"?>
<!-- Generator: Adobe Illustrator 18.0.0, SVG Export Plug-In . SVG Version: 6.00 Build 0)  -->
<!DOCTYPE svg PUBLIC "-//W3C//DTD SVG 1.1//EN" "http://www.w3.org/Graphics/SVG/1.1/DTD/svg11.dtd">
<svg version="1.1"
	 id="Layer_1" sodipodi:docname="language.c#.svg" inkscape:version="0.91 r13725" xmlns:cc="http://creativecommons.org/ns#" xmlns:sodipodi="http://sodipodi.sourceforge.net/DTD/sodipodi-0.dtd" xmlns:inkscape="http://www.inkscape.org/namespaces/inkscape" xmlns:svg="http://www.w3.org/2000/svg" xmlns:rdf="http://www.w3.org/1999/02/22-rdf-syntax-ns#" xmlns:dc="http://purl.org/dc/elements/1.1/"
	 xmlns="http://www.w3.org/2000/svg" xmlns:xlink="http://www.w3.org/1999/xlink" x="0px" y="0px" viewBox="0 0 1000 1000"
	 enable-background="new 0 0 1000 1000" xml:space="preserve">
<sodipodi:namedview  inkscape:bbox-paths="false" inkscape:snap-bbox="true" inkscape:window-height="1017" inkscape:window-y="-8" inkscape:current-layer="g27" inkscape:window-x="1912" inkscape:pageshadow="2" inkscape:window-maximized="1" inkscape:window-width="1920" fit-margin-right="0" inkscape:pageopacity="0" fit-margin-bottom="0" pagecolor="#ffffff" borderopacity="1" borderlayer="true" showgrid="false" inkscape:zoom="0.70710678" inkscape:cx="742.214" fit-margin-top="0" inkscape:cy="492.30669" fit-margin-left="0" objecttolerance="10" gridtolerance="10" guidetolerance="10" id="namedview77" bordercolor="#666666" inkscape:snap-intersection-paths="false" inkscape:snap-bbox-edge-midpoints="false" inkscape:object-paths="false" inkscape:snap-smooth-nodes="false" inkscape:snap-nodes="true" inkscape:snap-midpoints="false" inkscape:object-nodes="true" inkscape:bbox-nodes="false" inkscape:snap-bbox-midpoints="false" inkscape:snap-global="false">
	<inkscape:grid  type="xygrid" originx="-144.93044" originy="-329.43114" id="grid3345"></inkscape:grid>
</sodipodi:namedview>
<path id="path4169-7-5-7-8" sodipodi:nodetypes="ccscccssccsccscscccccccsccccccccccccccscscccccsccscccc" inkscape:connector-curvature="0" fill="none" stroke="#3C3C3C" stroke-width="0.8" stroke-linecap="round" stroke-linejoin="round" stroke-opacity="0.3922" d="
	M494.9,38.6c-18.8,1-22,2.5-66,27.7c-18.9,10.8-37.5,21.3-41.2,23.4c-3.8,2.1-12.7,7.2-19.9,11.4c-7.1,4.2-15.2,9-18.2,10.7
	c-4.9,2.7-30.5,17.4-118.3,67.9c-16.8,9.7-32.5,18.8-35.1,20.2c-2.5,1.4-17.9,10.2-34.3,19.7c-16.4,9.5-32.3,18.6-35.6,20.4
	c-9.7,5.3-24.1,20.6-29.6,31.5c-10.1,20.1-9.4,7.4-9.4,227.4c0,193.9,0.1,206,4.3,217.1c7.2,18.7,16.2,30.6,30.7,40.5
	c4.9,3.3,9.2,6.2,9.6,6.2c0.4,0,8.2,4.3,17.6,9.7c9.4,5.5,17.3,9.9,17.6,9.9c0.3,0,5,2.8,10.3,6c5.3,3.2,12.7,7.6,16.5,9.7
	c8.7,4.9,35.9,20.5,42,24c2.5,1.5,11.5,6.6,19.9,11.4c8.4,4.8,17.2,10,19.7,11.4c5.4,3.2,42.8,24.6,52.7,30.2
	c3.8,2.1,11.2,6.5,16.5,9.7c5.3,3.2,10,5.8,10.3,5.8c0.3,0,6.2,3.4,13.1,7.5c6.9,4.1,15.7,9.1,19.5,11.2
	c3.8,2.1,21.7,12.2,39.7,22.7c39.3,22.8,42.6,24.4,57.9,27.9c10.8,2.5,14.3,2.7,25.3,0.8c8.6-1.5,24-6.7,27.4-9.2
	c1.6-1.2,15.6-9.3,29.4-17.1c4.5-2.5,22.4-12.8,39.7-22.9c17.3-10.1,34.5-20,38.2-22.1c6.1-3.4,60.5-34.6,72.5-41.6
	c8.6-5,35-20.2,41.8-24c3.7-2.1,10.2-5.9,14.4-8.4c9.1-5.4,15.9-9.2,25.3-14.4c3.8-2.1,12.7-7.2,19.9-11.4
	c7.1-4.2,16.8-9.8,21.4-12.4c4.6-2.5,11.9-6.8,16.3-9.6c4.4-2.8,8.4-5.1,8.8-5.1c2.8,0,18.4-12,25.1-19.3
	c9.6-10.5,15.7-23.1,18.9-38.4c3.5-16.7,3.7-394,0.2-410.9c-3-14.3-9.7-27.8-18.6-37.7c-9.5-10.6-14.5-13.9-57-37.9
	c-3.8-2.1-15.1-8.6-25.1-14.4c-15.3-8.9-90-52-105.3-60.7c-2.5-1.4-12.8-7.3-22.9-13.1c-10.1-5.9-21.3-12.5-25.1-14.6
	s-23.4-13.2-43.5-24.7c-20.1-11.6-47.1-27-59.8-34.3C524.3,40.2,515.8,37.4,494.9,38.6L494.9,38.6z"/>
<path id="path4169-7-5-7" sodipodi:nodetypes="ccscccssccsccscscccccccsccccccccccccccscscccccsccscccc" inkscape:connector-curvature="0" fill="none" stroke="#FFFFFF" stroke-width="0.5" stroke-linecap="round" stroke-linejoin="round" d="
	M494.9,39.2c-18.8,1-22,2.5-66,27.7c-18.9,10.8-37.5,21.3-41.2,23.4c-3.8,2.1-12.7,7.2-19.9,11.4c-7.1,4.2-15.2,9-18.2,10.7
	c-4.9,2.7-30.5,17.4-118.3,67.9c-16.8,9.7-32.5,18.8-35.1,20.2c-2.5,1.4-17.9,10.2-34.3,19.7c-16.4,9.5-32.3,18.6-35.6,20.4
	c-9.7,5.3-24.1,20.6-29.6,31.5c-10.1,20.1-9.4,7.4-9.4,227.4c0,193.9,0.1,206,4.3,217.1c7.2,18.7,16.2,30.6,30.7,40.5
	c4.9,3.3,9.2,6.2,9.6,6.2c0.4,0,8.2,4.3,17.6,9.7c9.4,5.5,17.3,9.9,17.6,9.9s5,2.8,10.3,6c5.3,3.2,12.7,7.6,16.5,9.7
	c8.7,4.9,35.9,20.5,42,24c2.5,1.5,11.5,6.6,19.9,11.4c8.4,4.8,17.2,10,19.7,11.4c5.4,3.2,42.8,24.6,52.7,30.2
	c3.8,2.1,11.2,6.5,16.5,9.7c5.3,3.2,10,5.8,10.3,5.8c0.3,0,6.2,3.4,13.1,7.5c6.9,4.1,15.7,9.1,19.5,11.2
	c3.8,2.1,21.7,12.2,39.7,22.7c39.3,22.8,42.6,24.4,57.9,27.9c10.8,2.5,14.3,2.7,25.3,0.8c8.6-1.5,24-6.7,27.4-9.2
	c1.6-1.2,15.6-9.3,29.4-17.1c4.5-2.5,22.4-12.8,39.7-22.9c17.3-10.1,34.5-20,38.2-22.1c6.1-3.4,60.5-34.6,72.5-41.6
	c8.6-5,35-20.2,41.8-24c3.7-2.1,10.2-5.9,14.4-8.4c9.1-5.4,15.9-9.2,25.3-14.4c3.8-2.1,12.7-7.2,19.9-11.4
	c7.1-4.2,16.8-9.8,21.4-12.4c4.6-2.5,11.9-6.8,16.3-9.6c4.4-2.8,8.4-5.1,8.8-5.1c2.8,0,18.4-12,25.1-19.3
	c9.6-10.5,15.7-23.1,18.9-38.4c3.5-16.7,3.7-394,0.2-410.9c-3-14.3-9.7-27.8-18.6-37.7c-9.5-10.6-14.5-13.9-57-37.9
	c-3.8-2.1-15.1-8.6-25.1-14.4c-15.3-8.9-90-52-105.3-60.7c-2.5-1.4-12.8-7.3-22.9-13.1c-10.1-5.9-21.3-12.5-25.1-14.6
	s-23.4-13.2-43.5-24.7c-20.1-11.6-47.1-27-59.8-34.3C524.3,40.8,515.9,38.1,494.9,39.2L494.9,39.2z"/>
<g>
	
		<path id="path4169-7-5" sodipodi:nodetypes="ccscccssccsccscscccccccsccccccccccccccscscccccsccscccc" inkscape:connector-curvature="0" fill="#297BC0" d="
		M494.9,38.3c-18.8,1-22,2.5-66,27.7c-18.9,10.8-37.5,21.3-41.2,23.4c-3.8,2.1-12.7,7.2-19.9,11.4c-7.1,4.2-15.2,9-18.2,10.7
		c-4.9,2.7-30.5,17.4-118.3,67.9c-16.8,9.7-32.5,18.8-35.1,20.2c-2.5,1.4-17.9,10.2-34.3,19.7c-16.4,9.5-32.3,18.6-35.6,20.4
		c-9.7,5.3-24.1,20.6-29.6,31.5c-10.1,20.1-9.4,7.4-9.4,227.4c0,193.9,0.1,206,4.3,217.1c7.2,18.7,16.2,30.6,30.7,40.5
		c4.9,3.3,9.2,6.2,9.6,6.2c0.4,0,8.2,4.3,17.6,9.7c9.4,5.5,17.3,9.9,17.6,9.9c0.3,0,5,2.8,10.3,6c5.3,3.2,12.7,7.6,16.5,9.7
		c8.7,4.9,35.9,20.5,42,24c2.5,1.5,11.5,6.6,19.9,11.4c8.4,4.8,17.2,10,19.7,11.4c5.4,3.2,42.8,24.6,52.7,30.2
		c3.8,2.1,11.2,6.5,16.5,9.7c5.3,3.2,10,5.8,10.3,5.8c0.3,0,6.2,3.4,13.1,7.5c6.9,4.1,15.7,9.1,19.5,11.2
		c3.8,2.1,21.7,12.2,39.7,22.7c39.3,22.8,42.6,24.4,57.9,27.9c10.8,2.5,14.3,2.7,25.3,0.8c8.6-1.5,24-6.7,27.4-9.2
		c1.6-1.2,15.6-9.3,29.4-17.1c4.5-2.5,22.4-12.8,39.7-22.9c17.3-10.1,34.5-20,38.2-22.1c6.1-3.4,60.5-34.6,72.5-41.6
		c8.6-5,35-20.2,41.8-24c3.7-2.1,10.2-5.9,14.4-8.4c9.1-5.4,15.9-9.2,25.3-14.4c3.8-2.1,12.7-7.2,19.9-11.4
		c7.1-4.2,16.8-9.8,21.4-12.4c4.6-2.5,11.9-6.8,16.3-9.6c4.4-2.8,8.4-5.1,8.8-5.1c2.8,0,18.4-12,25.1-19.3
		c9.6-10.5,15.7-23.1,18.9-38.4c3.5-16.7,3.7-394,0.2-410.9c-3-14.3-9.7-27.8-18.6-37.7c-9.5-10.6-14.5-13.9-57-37.9
		c-3.8-2.1-15.1-8.6-25.1-14.4c-15.3-8.9-90-52-105.3-60.7c-2.5-1.4-12.8-7.3-22.9-13.1c-10.1-5.9-21.3-12.5-25.1-14.6
		s-23.4-13.2-43.5-24.7c-20.1-11.6-47.1-27-59.8-34.3C524.3,40,515.8,37.2,494.9,38.3L494.9,38.3z"/>
	
		<path id="path4169-7-58" sodipodi:nodetypes="cccccccccccccccccccccccccccccccc" inkscape:connector-curvature="0" inkscape:transform-center-x="-0.061628969" inkscape:transform-center-y="1.2029797" fill="#4E99CC" d="
		M102.1,735.8c10.3,15.8,15,15.5,58.9,41c18.8,10.9,37.2,21.8,40.9,24c3.7,2.2,12.6,7.4,19.8,11.5c7.2,4.1,15.4,8.7,18.3,10.4
		c4.8,2.8,30.3,17.8,117.9,68.5c16.7,9.7,32.6,18.8,35.1,20.2c2.5,1.5,17.8,10.4,34.2,19.9c16.4,9.4,32.3,18.7,35.5,20.6
		c9.4,5.8,29.9,10.6,42.1,9.9c22.4-1.3,11.1,4.4,201.6-105.6C874.4,759.3,884.9,753.1,892.3,744c12.6-15.6,18.4-29.4,19.7-46.9
		c0.4-5.9,0.8-11,0.6-11.4c-0.2-0.3-0.4-9.3-0.4-20.1c0-10.9-0.1-20-0.2-20.2c-0.1-0.3-0.1-5.7,0-11.9c0.1-6.2,0.2-14.8,0.2-19.2
		c-0.1-10-0.3-41.4-0.2-48.4c0-2.9,0-13.2,0-22.9c0-9.7,0-19.8,0.1-22.8c0-6.3-0.1-49.4-0.2-60.7c0-4.3,0.1-12.9,0.2-19.2
		c0.1-6.2,0-11.6-0.1-11.8c-0.1-0.3-0.1-7.1-0.1-15.1c0.1-8.1,0.1-18.2,0-22.5c-0.1-4.3-0.3-24.9-0.2-45.8
		c0.1-45.4-0.2-49.1-4.8-64.1c-1.9-6.1-4.8-9.3-7-12.9L100.2,731.1C101.1,732.7,101.1,734.1,102.1,735.8L102.1,735.8z"/>
	<path id="path4169-7" sodipodi:nodetypes="cccccccccccccc" inkscape:connector-curvature="0" opacity="0.6" fill="#297BC0" d="
		M903,727.5c8.5-16.8,8.9-20.2,9-71c0-21.8,0.3-43.1,0.3-47.4c0.1-4.3,0.1-14.7,0-22.9c-0.1-8.3-0.2-17.7-0.2-21.1
		c0.1-5.6,0.2-35.1,0.4-136.4c0-19.4,0-37.6,0-40.5c0-2.9,0.1-20.7,0.1-39.5c0-18.9,0-37.3,0.1-41.1c0.3-10.5-6.3-28.8-12.7-39.4
		L500,500l399.9,231.6C900.7,730,901.9,729.3,903,727.5L903,727.5z"/>
	<path id="path4212" inkscape:connector-curvature="0" fill="#FFFFFF" d="M482,226.6v0.2c-36.2,2.5-71.7,11.7-102.7,27.6
		c-107.7,55.1-166.6,168.1-149.4,286.4c5.3,36.8,20.1,76,40.1,106.5c3.9,6,7.5,11.2,7.9,11.6c0.4,0.4,3.9,4.9,7.7,9.9
		c9.4,12.6,33.3,36.5,48,48c41.4,32.4,95.7,53.1,149.6,57.2c11.5,0.9,47.3-0.7,59.4-2.4c5.9-0.9,13-2,15.9-2.8
		c2.9-0.8,8.7-2.2,12.9-3.2c49.1-11.6,99.7-42.4,136.3-82.9c9.8-10.8,22.9-28.1,28.3-37.5l3.9-6.9l-56.8-32.8
		c-31.2-18-57.8-33-59-33.2c-1.4-0.2-4.6,3.1-7.7,7.7c-15.1,22.4-41.4,42.3-67.9,51.2c-19.2,6.4-24.2,7.1-46.5,7.1
		c-24.6,0-38.1-2.8-57.5-11.6c-14.5-6.6-23.9-13.1-38.2-26.4c-24.8-23.1-40-55.5-42.4-90.4c-4.6-67,38.3-126.1,104.2-144
		c16-4.4,51.1-4.9,66-1c13.2,3.6,28,9.4,37.9,15c16.5,9.4,37,28.7,45.9,43.1c1.8,3,4.3,5.3,5.2,5.3c1,0,5.2-1.9,9.4-4.3
		c8.2-4.6,35.2-20.2,42.7-24.6c2.5-1.5,11.3-6.6,19.7-11.4c8.4-4.8,18-10.4,21.4-12.4c3.4-2,10.2-5.8,15-8.4
		c4.8-2.6,8.6-5.2,8.6-5.8s-3.7-6.8-8.4-13.9c-33.5-50.1-84.8-89.1-141.9-108C555.3,228.2,518.2,224,482,226.6L482,226.6z
		 M738.4,433.1v17.4H721v35.1h17.4v34.9H721v35.1h17.4V573h35.1v-17.4h34.9V573h35.1v-17.4h17.4v-35.1h-17.4v-34.9h17.4v-35.1h-17.4
		v-17.4h-35.1v17.4h-34.9v-17.4H738.4z M773.5,485.6h34.9v34.9h-34.9V485.6z"/>
</g>
</svg>
