<?xml version="1.0" encoding="iso-8859-1"?>
<!-- Generator: Adobe Illustrator 19.1.1, SVG Export Plug-In . SVG Version: 6.00 Build 0)  -->
<svg xmlns="http://www.w3.org/2000/svg" xmlns:xlink="http://www.w3.org/1999/xlink" version="1.1" id="Layer_1" x="0px" y="0px" viewBox="0 0 40 40" style="enable-background:new 0 0 40 40;" xml:space="preserve" width="40px" height="40px">
<g>
	<path style="fill:#DCD5F2;" d="M20,30.5C9.248,30.5,0.5,25.79,0.5,20S9.248,9.5,20,9.5S39.5,14.21,39.5,20S30.752,30.5,20,30.5z"/>
	<path style="fill:#8B75A1;" d="M20,10c10.299,0,19,4.579,19,10s-8.701,10-19,10S1,25.421,1,20S9.701,10,20,10 M20,9   C8.954,9,0,13.925,0,20s8.954,11,20,11s20-4.925,20-11S31.046,9,20,9L20,9z"/>
</g>
<path style="fill:#36404D;" d="M12.556,17c0.863,0,1.607,0.311,2.042,0.853c0.375,0.467,0.49,1.085,0.334,1.789  C14.511,21.537,13.698,22,10.785,22h-2.07l0.875-5H12.556 M12.556,16H8.75L7,26h1l0.528-3h2.257c2.931,0,4.526-0.453,5.123-3.142  C16.421,17.548,14.718,16,12.556,16L12.556,16z"/>
<path style="fill:#36404D;" d="M30.556,17c0.863,0,1.607,0.311,2.042,0.853c0.375,0.467,0.49,1.085,0.334,1.789  C32.511,21.537,31.698,22,28.785,22h-2.07l0.875-5H30.556 M30.556,16H26.75L25,26h1l0.528-3h2.257c2.931,0,4.526-0.453,5.123-3.142  C34.421,17.548,32.718,16,30.556,16L30.556,16z"/>
<g>
	<path style="fill:#36404D;" d="M24.536,16.606C24.097,16.174,23.322,16,22.167,16h-2.769L20,13h-1.05L17,23h0.995l1.194-6h0.209   h2.769c1.169,0,1.547,0.2,1.668,0.318c0.172,0.169,0.212,0.613,0.109,1.181L23.06,23h1.053l0.813-4.315   C25.099,17.731,24.968,17.031,24.536,16.606z"/>
</g>
</svg>
