<?xml version="1.0" encoding="iso-8859-1"?>
<!-- Generator: Adobe Illustrator 19.0.0, SVG Export Plug-In . SVG Version: 6.00 Build 0)  -->
<svg version="1.1" id="Capa_1" xmlns="http://www.w3.org/2000/svg" xmlns:xlink="http://www.w3.org/1999/xlink" x="0px" y="0px"
	 viewBox="0 0 512.001 512.001" style="enable-background:new 0 0 512.001 512.001;" xml:space="preserve">
<path style="fill:#BEE8FF;" d="M473.561,387.268H38.44c-8.316,0-15.059-6.742-15.059-15.059v-258.3
	c0-32.78,26.669-59.45,59.449-59.45h346.342c32.78,0,59.45,26.669,59.45,59.45v258.3
	C488.62,380.525,481.878,387.268,473.561,387.268z"/>
<path style="fill:#54CBFF;" d="M429.171,54.46h-173.17v332.808h217.561c8.316,0,15.059-6.742,15.059-15.059v-258.3
	C488.62,81.129,461.951,54.46,429.171,54.46z"/>
<path style="fill:#0053AD;" d="M455.108,457.541H56.892C25.521,457.541,0,432.02,0,400.65v-28.441
	c0-8.316,6.742-15.059,15.059-15.059h481.883c8.316,0,15.059,6.742,15.059,15.059v28.441
	C512,432.02,486.479,457.541,455.108,457.541z"/>
<g>
	<path style="fill:#18A7FC;" d="M256,289.157c-23.178,0-42.036-18.856-42.036-42.035v-52.516c0-23.178,18.857-42.035,42.036-42.035
		s42.035,18.856,42.035,42.035v52.516C298.036,270.299,279.178,289.157,256,289.157z M256,182.689
		c-6.572,0-11.918,5.346-11.918,11.917v52.516c0,6.572,5.347,11.917,11.918,11.917s11.917-5.346,11.917-11.917v-52.516
		C267.918,188.035,262.572,182.689,256,182.689z"/>
	<path style="fill:#18A7FC;" d="M173.916,152.572c-8.316,0-15.059,6.742-15.059,15.059v38.175h-23.836V167.63
		c0-8.316-6.742-15.059-15.059-15.059s-15.059,6.742-15.059,15.059v53.233c0,8.316,6.742,15.059,15.059,15.059h38.894v38.175
		c0,8.316,6.742,15.059,15.059,15.059c8.316,0,15.059-6.742,15.059-15.059V167.63C188.975,159.314,182.233,152.572,173.916,152.572z
		"/>
</g>
<g>
	<path style="fill:#0074F0;" d="M392.038,152.572c-8.316,0-15.059,6.742-15.059,15.059v38.175h-23.836V167.63
		c0-8.316-6.742-15.059-15.059-15.059c-8.316,0-15.059,6.742-15.059,15.059v53.233c0,8.316,6.742,15.059,15.059,15.059h38.895
		v38.175c0,8.316,6.742,15.059,15.059,15.059c8.316,0,15.059-6.742,15.059-15.059V167.63
		C407.096,159.314,400.354,152.572,392.038,152.572z"/>
	<path style="fill:#0074F0;" d="M256.001,152.572v30.117c6.572,0,11.917,5.346,11.917,11.917v52.516
		c0,6.572-5.346,11.917-11.917,11.917v30.117c23.178,0,42.035-18.856,42.035-42.035v-52.516
		C298.036,171.428,279.178,152.572,256.001,152.572z"/>
</g>
<path style="fill:#003773;" d="M496.941,357.15h-240.94v100.391h199.108c31.37,0,56.892-25.521,56.892-56.892v-28.441
	C512,363.893,505.259,357.15,496.941,357.15z"/>
<g>
</g>
<g>
</g>
<g>
</g>
<g>
</g>
<g>
</g>
<g>
</g>
<g>
</g>
<g>
</g>
<g>
</g>
<g>
</g>
<g>
</g>
<g>
</g>
<g>
</g>
<g>
</g>
<g>
</g>
</svg>
