<?xml version="1.0" encoding="iso-8859-1"?>
<!-- Generator: Adobe Illustrator 19.0.0, SVG Export Plug-In . SVG Version: 6.00 Build 0)  -->
<svg version="1.1" id="Capa_1" xmlns="http://www.w3.org/2000/svg" xmlns:xlink="http://www.w3.org/1999/xlink" x="0px" y="0px"
	 viewBox="0 0 512 512" style="enable-background:new 0 0 512 512;" xml:space="preserve">
<path style="fill:#384949;" d="M512,436v15c0,24.899-20.099,45-45,45H45c-24.901,0-45-20.101-45-45v-15l65.7-30h401L512,436z"/>
<path style="fill:#293939;" d="M512,436v15c0,24.899-20.099,45-45,45H256v-90h210.7L512,436z"/>
<g>
	<path style="fill:#3E5959;" d="M512,153.999V436H0V153.999l30.901,8.401C35.4,231.4,93.1,286,163.001,286H349
		c69.6,0,127.301-54.3,132.1-123.001L512,153.999z"/>
	<path style="fill:#3E5959;" d="M391,91v30c0,8.399-6.599,15-15,15s-15-6.601-15-15V91c0-24.901-20.099-45-45-45H196
		c-24.901,0-45,20.099-45,45v30c0,8.399-6.599,15-15,15s-15-6.601-15-15V91c0-41.4,33.6-75,75-75h120C357.4,16,391,49.6,391,91z"/>
</g>
<g>
	<path style="fill:#384949;" d="M316,46h-60V16h60c41.4,0,75,33.6,75,75v30c0,8.399-6.599,15-15,15s-15-6.601-15-15V91
		C361,66.099,340.901,46,316,46z"/>
	<path style="fill:#384949;" d="M512,153.999V436H256V286h92.999c69.6,0,127.301-54.3,132.1-123.001L512,153.999z"/>
</g>
<path style="fill:#73BCFF;" d="M467,106H45c-24.901,0-45,20.099-45,45v2.999C0,243.399,73.599,316,163.001,316H349
	c89.401,0,163-72.601,163-162.001V151C512,126.099,491.901,106,467,106z"/>
<path style="fill:#3AAAFF;" d="M512,151v2.999C512,243.399,438.401,316,348.999,316H256V106h211C491.901,106,512,126.099,512,151z"
	/>
<path style="fill:#EDE9E8;" d="M286,256h-60c-8.401,0-15,6.599-15,15v60c0,8.399,6.599,15,15,15h60c8.401,0,15-6.601,15-15v-60
	C301,262.599,294.401,256,286,256z"/>
<path style="fill:#DFD7D5;" d="M286,346h-30v-90h30c8.401,0,15,6.599,15,15v60C301,339.399,294.401,346,286,346z"/>
<g>
</g>
<g>
</g>
<g>
</g>
<g>
</g>
<g>
</g>
<g>
</g>
<g>
</g>
<g>
</g>
<g>
</g>
<g>
</g>
<g>
</g>
<g>
</g>
<g>
</g>
<g>
</g>
<g>
</g>
</svg>
