<svg height="512pt" viewBox="0 0 512 512" width="512pt" xmlns="http://www.w3.org/2000/svg"><path d="m507.605469 132.925781-128.53125-128.53125c-2.8125-2.816406-6.628907-4.394531-10.605469-4.394531h-224.9375c-3.976562 0-7.792969 1.578125-10.605469 4.394531l-128.53125 128.53125c-2.816406 2.8125-4.394531 6.628907-4.394531 10.605469v144.601562c0 3.980469 1.578125 7.796876 4.394531 10.605469l128.53125 128.535157c2.8125 2.8125 6.628907 4.390624 10.605469 4.390624h313.304688c30.417968 0 55.164062-24.746093 55.164062-55.164062v-232.96875c0-3.976562-1.578125-7.792969-4.394531-10.605469zm0 0" fill="#fff4f4"/><path d="m507.605469 132.925781-128.53125-128.53125c-2.8125-2.816406-6.628907-4.394531-10.605469-4.394531h-112.46875v431.664062h200.835938c30.417968 0 55.164062-24.746093 55.164062-55.164062v-232.96875c0-3.976562-1.578125-7.792969-4.394531-10.605469zm0 0" fill="#d5eded"/><g fill="#005183"><path d="m352.398438 110.332031h-192.796876c-8.285156 0-15-6.714843-15-15 0-8.28125 6.714844-15 15-15h192.796876c8.285156 0 15 6.71875 15 15 0 8.285157-6.714844 15-15 15zm0 0"/><path d="m400.601562 190.664062h-289.203124c-8.28125 0-15-6.714843-15-15 0-8.28125 6.71875-15 15-15h289.203124c8.285157 0 15 6.71875 15 15 0 8.285157-6.714843 15-15 15zm0 0"/><path d="m256.003906 271h-144.605468c-8.28125 0-15-6.714844-15-15s6.71875-15 15-15h144.605468c8.28125 0 15 6.714844 15 15s-6.71875 15-15 15zm0 0"/></g><path d="m143.53125 0h-88.363281c-30.421875 0-55.167969 24.746094-55.167969 55.164062v88.367188c0 6.066406 3.652344 11.535156 9.261719 13.859375 1.851562.769531 3.804687 1.140625 5.734375 1.140625 3.902344 0 7.742187-1.523438 10.609375-4.390625l128.535156-128.535156c4.289063-4.289063 5.574219-10.742188 3.25-16.347657-2.320313-5.605468-7.789063-9.257812-13.859375-9.257812zm0 0" fill="#ff9100"/><path d="m25.605469 277.527344c-4.289063-4.289063-10.742188-5.574219-16.347657-3.253906-5.605468 2.324218-9.257812 7.792968-9.257812 13.859374v88.367188c0 30.417969 24.746094 55.164062 55.167969 55.164062h88.363281c6.066406 0 11.539062-3.652343 13.859375-9.257812s1.039063-12.058594-3.25-16.347656zm0 0" fill="#ff9100"/><path d="m456.835938 0h-88.367188c-6.066406 0-11.535156 3.652344-13.859375 9.261719-2.320313 5.601562-1.035156 12.054687 3.253906 16.34375l128.53125 128.535156c2.871094 2.871094 6.707031 4.394531 10.609375 4.394531 1.933594 0 3.882813-.375 5.734375-1.144531 5.605469-2.320313 9.261719-7.789063 9.261719-13.855469v-88.371094c0-30.417968-24.746094-55.164062-55.164062-55.164062zm0 0" fill="#ff4b00"/><path d="m416.667969 337.398438c-8.285157 0-15 6.71875-15 15h-98.53125c0-8.28125-6.71875-15-15-15-8.285157 0-15 6.71875-15 15v144.601562c0 5.199219 2.691406 10.027344 7.113281 12.761719 2.40625 1.488281 5.144531 2.238281 7.886719 2.238281 2.292969 0 4.589843-.523438 6.707031-1.585938l57.558594-28.777343 57.558594 28.777343c4.648437 2.324219 10.171874 2.078126 14.59375-.652343 4.421874-2.734375 7.113281-7.5625 7.113281-12.761719v-144.601562c0-8.28125-6.714844-15-15-15zm0 0" fill="#0065a3"/><path d="m352.398438 273.132812c-43.707032 0-79.265626 35.558594-79.265626 79.269532 0 43.707031 35.558594 79.265625 79.265626 79.265625 43.710937 0 79.269531-35.558594 79.269531-79.265625 0-43.710938-35.558594-79.269532-79.269531-79.269532zm0 0" fill="#ff9f04"/><path d="m367.398438 95.332031c0-8.28125-6.714844-15-15-15h-96.398438v30h96.398438c8.285156 0 15-6.714843 15-15zm0 0" fill="#00215a"/><path d="m400.601562 160.664062h-144.601562v30h144.601562c8.285157 0 15-6.714843 15-15 0-8.28125-6.714843-15-15-15zm0 0" fill="#00215a"/></svg>