<?xml version="1.0" encoding="iso-8859-1"?>
<!-- Generator: Adobe Illustrator 19.0.0, SVG Export Plug-In . SVG Version: 6.00 Build 0)  -->
<svg xmlns="http://www.w3.org/2000/svg" xmlns:xlink="http://www.w3.org/1999/xlink" version="1.1" id="Layer_1" x="0px" y="0px" viewBox="0 0 512 512" style="enable-background:new 0 0 512 512;" xml:space="preserve" width="512" height="512">
<g>
	<circle style="fill:#FF641A;" cx="256" cy="256" r="256"/>
	<path style="fill:#F03800;" d="M512,256c0-22.912-3.027-45.114-8.673-66.246L401.986,88.413l-76.621,76.621L248.5,330.5   L88.114,396.368l108.755,108.755C215.852,509.612,235.646,512,256,512C397.385,512,512,397.385,512,256z"/>
	<g>
		<g>
			<g>
				<path style="fill:#FFDA2D;" d="M256,405c-27.176,0-54.073-5.133-78.202-14.891c-4.268,3.24-8.863,6.008-13.708,8.238l0,0      c-14.545,6.729-30.454,8.373-46.104,4.778L88,396.339l17.614-12.708c8.911-6.652,15.592-16.16,19.168-27.147      C101.432,333.94,88,305.281,88,276.375c0-70.56,75.724-127.969,168-127.969c16.659,0,33.088,1.855,48.834,5.518      C375.721,170.362,424,219.572,424,276.375C424,346.935,348.276,405,256,405z"/>
			</g>
		</g>
		<path style="fill:#FDBF00;" d="M424,276.375c0-56.803-48.279-106.013-119.166-122.451c-15.746-3.663-32.175-5.518-48.834-5.518    V405C348.276,405,424,346.935,424,276.375z"/>
		<g>
			<g>
				<path style="fill:#3E5959;" d="M177.25,305.906c-16.284,0-29.531-13.247-29.531-29.531s13.247-29.531,29.531-29.531      s29.531,13.247,29.531,29.531S193.534,305.906,177.25,305.906z"/>
			</g>
			<g>
				<g>
					<path style="fill:#3E5959;" d="M256,305.906c-16.284,0-29.531-13.247-29.531-29.531s13.247-29.531,29.531-29.531       s29.531,13.247,29.531,29.531S272.284,305.906,256,305.906z"/>
				</g>
			</g>
			<path style="fill:#293939;" d="M256,246.844c-0.012,0-0.022,0.004-0.034,0.004v59.055c0.012,0,0.022,0.004,0.034,0.004     c16.284,0,29.531-13.247,29.531-29.531S272.284,246.844,256,246.844z"/>
			<g>
				<g>
					<path style="fill:#293939;" d="M334.75,305.906c-16.284,0-29.531-13.247-29.531-29.531s13.247-29.531,29.531-29.531       s29.531,13.247,29.531,29.531S351.034,305.906,334.75,305.906z"/>
				</g>
			</g>
		</g>
		<polygon style="fill:#00AB94;" points="339.869,111.197 267.222,183.646 246.353,246.253 309.156,225.384 389.08,145.46     355.363,113.297   "/>
		<polygon style="fill:#95A8CE;" points="382.656,69 353.65,97.415 355.668,113.338 355.363,113.297 389.08,145.46 424,110.344       "/>
		<polygon style="fill:#293939;" points="423.344,166.913 353.65,236.409 339.672,222.627 395.388,166.913 381.606,152.934     339.869,111.197 353.65,97.415 395.388,139.152   "/>
	</g>
</g>















</svg>
