<?xml version="1.0" encoding="iso-8859-1"?>
<!-- Generator: Adobe Illustrator 19.0.0, SVG Export Plug-In . SVG Version: 6.00 Build 0)  -->
<svg version="1.1" id="Capa_1" xmlns="http://www.w3.org/2000/svg" xmlns:xlink="http://www.w3.org/1999/xlink" x="0px" y="0px"
	 viewBox="0 0 512 512" style="enable-background:new 0 0 512 512;" xml:space="preserve">
<rect x="201" y="426.98" style="fill:#063E8B;" width="110" height="70"/>
<g>
	<rect x="256" y="426.98" style="fill:#032E68;" width="55" height="70"/>
	<rect x="416" y="426.98" style="fill:#032E68;" width="30" height="35"/>
	<rect x="356" y="426.98" style="fill:#032E68;" width="30" height="35"/>
</g>
<path style="fill:#0A4EAF;" d="M512,441.981H0v-340h512V441.981z"/>
<path style="fill:#063E8B;" d="M512,441.981H256v-340h256V441.981z"/>
<rect x="30" y="131.98" style="fill:#E6F9FF;" width="452" height="280"/>
<rect x="256" y="131.98" style="fill:#CCEFFF;" width="226" height="280"/>
<rect x="156" y="481.98" style="fill:#0A4EAF;" width="200" height="30"/>
<rect x="256" y="481.98" style="fill:#063E8B;" width="100" height="30"/>
<g>
	<path style="fill:#ACE3FC;" d="M256,226.981c-24.813,0-45,20.187-45,45s20.187,45,45,45s45-20.187,45-45
		S280.813,226.981,256,226.981z M256,286.981c-8.271,0-15-6.729-15-15s6.729-15,15-15s15,6.729,15,15S264.271,286.981,256,286.981z"
		/>
	<path style="fill:#ACE3FC;" d="M136,226.981c-24.813,0-45,20.187-45,45s20.187,45,45,45s45-20.187,45-45
		S160.813,226.981,136,226.981z M136,286.981c-8.271,0-15-6.729-15-15s6.729-15,15-15s15,6.729,15,15S144.271,286.981,136,286.981z"
		/>
</g>
<path style="fill:#66E26F;" d="M376,226.981c-24.813,0-45,20.187-45,45s20.187,45,45,45s45-20.187,45-45
	S400.813,226.981,376,226.981z"/>
<path style="fill:#7D8AFF;" d="M154.871,51.28l10.6-18.359l-25.98-15l-10.578,18.322c-6.035-2.314-12.362-4.031-18.912-5.074V0.019
	H80v31.15c-6.55,1.043-12.878,2.76-18.912,5.074L50.509,17.921l-25.98,15l10.6,18.359C13.709,68.714,0,95.275,0,124.981
	c0,52.383,42.617,95,95,95s95-42.617,95-95C190,95.275,176.291,68.714,154.871,51.28z"/>
<path style="fill:#E6F9FF;" d="M95,189.981c-35.841,0-65-29.159-65-65s29.159-65,65-65s65,29.159,65,65S130.841,189.981,95,189.981z
	"/>
<rect x="80" y="85.02" style="fill:#0C61C6;" width="30" height="54.962"/>
<path style="fill:#86D6F2;" d="M256,226.981v30c8.271,0,15,6.729,15,15s-6.729,15-15,15v30c24.813,0,45-20.187,45-45
	S280.813,226.981,256,226.981z"/>
<g>
</g>
<g>
</g>
<g>
</g>
<g>
</g>
<g>
</g>
<g>
</g>
<g>
</g>
<g>
</g>
<g>
</g>
<g>
</g>
<g>
</g>
<g>
</g>
<g>
</g>
<g>
</g>
<g>
</g>
</svg>
