<?xml version="1.0"?>
<svg xmlns="http://www.w3.org/2000/svg" height="512px" viewBox="0 0 512 512" width="512px"><path d="m504.5 0h-497c-4.144531 0-7.5 3.355469-7.5 7.5v312.167969c0 4.140625 3.355469 7.5 7.5 7.5s7.5-3.359375 7.5-7.5v-224.667969h233.5v272.46875h-19.070312c-12.585938 0-24.15625 6.554688-30.699219 17.03125h-81.039063c-5.058594 0-9.914062.886719-14.425781 2.5h-88.265625v-35c0-4.144531-3.355469-7.5-7.5-7.5s-7.5 3.355469-7.5 7.5v42.5c0 4.144531 3.355469 7.5 7.5 7.5h75.5625c-5.375 7.242188-8.5625 16.21875-8.5625 25.929688 0 8.199218 6.648438 14.871093 14.820312 14.871093h123.910157c16.648437 0 33.136719 4.289063 47.6875 12.402344 8.382812 4.667969 17.328125 8.257813 26.597656 10.664063 9.269531 2.410156 18.824219 3.632812 28.394531 3.632812h.964844l21.007812 38.585938c1.3125 2.414062 3.839844 3.914062 6.585938 3.914062h71.863281c4.144531 0 7.5-3.355469 7.5-7.5s-3.355469-7.5-7.5-7.5h-67.40625l-16.078125-29.53125 99.527344-18.710938c.039062-.007812.082031-.015624.121094-.023437l7.414062-1.394531 29.613282 49.660156h-21.523438c-4.144531 0-7.5 3.355469-7.5 7.5s3.355469 7.5 7.5 7.5h34.730469c2.699219 0 5.1875-1.449219 6.519531-3.796875 1.335938-2.347656 1.304688-5.226563-.078125-7.546875l-39.0625-65.5c-1.609375-2.699219-4.738281-4.109375-7.828125-3.527344l-4.648438.875c-1.890624-11.417968-6-21.730468-12.148437-30.503906h79.015625c4.144531 0 7.5-3.355469 7.5-7.5v-266.75c0-4.144531-3.355469-7.5-7.5-7.5s-7.5 3.355469-7.5 7.5v259.25h-85.925781c-16.902344-12.964844-40.910157-19.53125-71.554688-19.53125h-76.019531v-272.46875h233.5v1c0 4.144531 3.355469 7.5 7.5 7.5s7.5-3.355469 7.5-7.5v-88.5c0-4.144531-3.355469-7.5-7.5-7.5zm-101.027344 400.082031c.132813.117188.265625.230469.40625.339844 11.785156 9.871094 17.09375 22.574219 19.035156 34.847656l-102.285156 19.230469h-4.71875c-8.296875 0-16.582031-1.058594-24.625-3.148438-8.035156-2.089843-15.796875-5.199218-23.0625-9.25-16.773437-9.355468-35.792968-14.300781-54.992187-14.300781h-123.730469c.070312-15.617187 12.6875-28.300781 28.191406-28.300781h75.773438c-.15625 1.378906-.246094 2.773438-.246094 4.179688 0 3.367187 1.289062 6.5625 3.65625 9.03125 2.363281 2.4375 5.546875 3.835937 8.949219 3.925781 41.371093 1.132812 73.640625 5.269531 82.222656 10.554687 3.929687 2.414063 8.769531 6.140625 12.988281 9.46875 3.25 2.5625 7.964844 2.011719 10.53125-1.246094 2.566406-3.25 2.011719-7.964843-1.242187-10.53125-4.789063-3.777343-9.851563-7.660156-14.421875-10.46875-14.878906-9.160156-60.355469-11.894531-87.59375-12.710937.214844-2.296875.800781-4.523437 1.753906-6.652344 3.402344-7.640625 11.003906-12.578125 19.367188-12.578125h110.089843c31.195313-.003906 51.257813 7.179688 63.953125 17.609375zm-388.472656-320.082031v-65h482v65zm0 0" fill="#006DF0"/><path d="m53.5 24.5c-12.40625 0-22.5 10.09375-22.5 22.5s10.09375 22.5 22.5 22.5 22.5-10.09375 22.5-22.5-10.09375-22.5-22.5-22.5zm0 30c-4.136719 0-7.5-3.363281-7.5-7.5s3.363281-7.5 7.5-7.5 7.5 3.363281 7.5 7.5-3.363281 7.5-7.5 7.5zm0 0" fill="#006DF0"/><path d="m113.5 24.5c-12.40625 0-22.5 10.09375-22.5 22.5s10.09375 22.5 22.5 22.5 22.5-10.09375 22.5-22.5-10.09375-22.5-22.5-22.5zm0 30c-4.136719 0-7.5-3.363281-7.5-7.5s3.363281-7.5 7.5-7.5 7.5 3.363281 7.5 7.5-3.363281 7.5-7.5 7.5zm0 0" fill="#006DF0"/><path d="m173.5 24.5c-12.40625 0-22.5 10.09375-22.5 22.5s10.09375 22.5 22.5 22.5 22.5-10.09375 22.5-22.5-10.09375-22.5-22.5-22.5zm0 30c-4.136719 0-7.5-3.363281-7.5-7.5s3.363281-7.5 7.5-7.5 7.5 3.363281 7.5 7.5-3.363281 7.5-7.5 7.5zm0 0" fill="#006DF0"/><path d="m465.914062 225.425781h-172c-4.144531 0-7.5 3.355469-7.5 7.5s3.355469 7.5 7.5 7.5h172c4.140626 0 7.5-3.355469 7.5-7.5s-3.359374-7.5-7.5-7.5zm0 0" fill="#006DF0"/><path d="m293.914062 198.082031h86c4.140626 0 7.5-3.355469 7.5-7.5 0-4.140625-3.359374-7.5-7.5-7.5h-86c-4.144531 0-7.5 3.359375-7.5 7.5 0 4.144531 3.355469 7.5 7.5 7.5zm0 0" fill="#006DF0"/><path d="m465.914062 261.253906h-172c-4.144531 0-7.5 3.359375-7.5 7.5 0 4.144532 3.355469 7.5 7.5 7.5h172c4.140626 0 7.5-3.355468 7.5-7.5 0-4.140625-3.359374-7.5-7.5-7.5zm0 0" fill="#006DF0"/><path d="m465.914062 297.082031h-172c-4.144531 0-7.5 3.359375-7.5 7.5 0 4.144531 3.355469 7.5 7.5 7.5h172c4.140626 0 7.5-3.355469 7.5-7.5 0-4.140625-3.359374-7.5-7.5-7.5zm0 0" fill="#006DF0"/><path d="m52.257812 303.585938v.101562c0 18.257812 14.851563 33.109375 33.109376 33.109375h92.78125c18.253906 0 33.109374-14.851563 33.109374-33.109375v-.101562c0-33.1875-20.449218-61.679688-49.40625-73.566407 14.777344-9.792969 24.546876-26.5625 24.546876-45.578125 0-30.128906-24.511719-54.640625-54.644532-54.640625-30.128906 0-54.640625 24.511719-54.640625 54.640625 0 19.015625 9.769531 35.785156 24.546875 45.578125-28.953125 11.886719-49.402344 40.375-49.402344 73.566407zm39.855469-119.144532c0-21.859375 17.785157-39.644531 39.644531-39.644531 21.859376 0 39.644532 17.785156 39.644532 39.644531s-17.785156 39.644532-39.644532 39.644532c-21.859374 0-39.644531-17.785157-39.644531-39.644532zm39.644531 54.644532c35.5625 0 64.5 28.933593 64.5 64.5v.101562c0 9.988281-8.125 18.109375-18.109374 18.109375h-92.78125c-9.984376 0-18.109376-8.121094-18.109376-18.109375v-.101562c0-35.566407 28.933594-64.5 64.5-64.5zm0 0" fill="#006DF0"/><path d="m159.6875 195.023438c-1.996094-3.628907-6.558594-4.953126-10.1875-2.953126-.082031.042969-8.308594 4.425782-17.742188 4.425782-9.421874 0-17.648437-4.375-17.765624-4.4375-3.628907-1.980469-8.171876-.65625-10.164063 2.964844-1.996094 3.628906-.675781 8.1875 2.953125 10.1875.464844.257812 11.574219 6.285156 24.976562 6.285156 13.398438 0 24.507813-6.027344 24.976563-6.285156 3.625-1.996094 4.949219-6.558594 2.953125-10.1875zm0 0" fill="#006DF0"/><path d="m125.914062 171.5625c0 3.546875-2.878906 6.425781-6.429687 6.425781-3.546875 0-6.425781-2.878906-6.425781-6.425781 0-3.550781 2.878906-6.429688 6.425781-6.429688 3.550781 0 6.429687 2.878907 6.429687 6.429688zm0 0" fill="#006DF0"/><path d="m150.457031 171.5625c0 3.550781-2.878906 6.425781-6.429687 6.425781-3.550782 0-6.425782-2.875-6.425782-6.425781s2.875-6.429688 6.425782-6.429688c3.550781 0 6.429687 2.878907 6.429687 6.429688zm0 0" fill="#006DF0"/></svg>
