<?xml version="1.0" encoding="iso-8859-1"?>
<!-- Generator: Adobe Illustrator 19.0.0, SVG Export Plug-In . SVG Version: 6.00 Build 0)  -->
<svg version="1.1" id="Layer_1" xmlns="http://www.w3.org/2000/svg" xmlns:xlink="http://www.w3.org/1999/xlink" x="0px" y="0px"
	 viewBox="0 0 511.997 511.997" style="enable-background:new 0 0 511.997 511.997;" xml:space="preserve">
<path style="fill:#D6D5D8;" d="M349.091,46.545H186.182H23.273c-7.23,0-13.689,3.297-17.959,8.468
	c-1.898,2.299-3.362,4.968-4.268,7.883C0.366,65.084,0,67.408,0,69.817v93.088l0,0v139.639c0,12.851,10.42,23.273,23.273,23.273
	h162.909v-23.273c0-7.902,0.577-15.67,1.669-23.273c0.307-2.133,0.662-4.251,1.05-6.36c0.132-0.707,0.285-1.407,0.424-2.112
	c0.279-1.401,0.562-2.8,0.875-4.188c0.182-0.808,0.383-1.61,0.579-2.416c0.309-1.274,0.624-2.546,0.963-3.807
	c0.223-0.839,0.461-1.673,0.698-2.507c0.178-0.625,0.34-1.261,0.526-1.884c0.163-0.549,0.354-1.089,0.524-1.637
	c0.293-0.953,0.597-1.902,0.909-2.845c0.371-1.122,0.757-2.236,1.151-3.347c0.324-0.915,0.652-1.829,0.993-2.737
	c0.431-1.151,0.884-2.295,1.342-3.435c0.338-0.841,0.675-1.683,1.026-2.518c0.504-1.198,1.032-2.382,1.564-3.565
	c0.348-0.77,0.687-1.544,1.046-2.307c0.137-0.292,0.261-0.591,0.4-0.881c0.531-1.114,1.092-2.208,1.646-3.308
	c0.228-0.451,0.444-0.909,0.678-1.358c0.967-1.874,1.966-3.73,3.002-5.561c0.002-0.005,0.005-0.009,0.006-0.014
	c1.016-1.794,2.073-3.562,3.154-5.312c0.306-0.496,0.628-0.985,0.942-1.48c0.796-1.255,1.598-2.503,2.425-3.734
	c0.391-0.582,0.793-1.157,1.192-1.735c0.787-1.137,1.584-2.268,2.397-3.385c0.424-0.582,0.852-1.159,1.282-1.735
	c0.839-1.12,1.694-2.226,2.56-3.325c0.417-0.529,0.832-1.061,1.257-1.584c0.973-1.202,1.969-2.386,2.974-3.559
	c0.334-0.388,0.658-0.784,0.995-1.168c2.749-3.146,5.62-6.187,8.602-9.117c0.057-0.056,0.112-0.116,0.171-0.174
	c0.765-0.749,1.55-1.482,2.33-2.217c0.799-0.749,1.603-1.493,2.417-2.228c0.83-0.751,1.66-1.503,2.506-2.236
	c0.596-0.517,1.202-1.021,1.806-1.528c0.737-0.621,1.472-1.24,2.222-1.848c0.624-0.507,1.255-1.007,1.888-1.507
	c0.754-0.596,1.516-1.187,2.281-1.769c0.627-0.478,1.257-0.953,1.89-1.421c0.815-0.602,1.64-1.193,2.467-1.778
	c0.599-0.425,1.193-0.855,1.797-1.271c1.008-0.697,2.034-1.376,3.058-2.05c0.436-0.287,0.864-0.582,1.303-0.864
	c1.353-0.872,2.72-1.724,4.099-2.555c0.084-0.05,0.169-0.098,0.253-0.149c0.396-0.236,0.796-0.465,1.193-0.698
	c1.057-0.621,2.119-1.233,3.191-1.832c0.51-0.285,1.021-0.568,1.533-0.849c1.255-0.681,2.518-1.351,3.79-2.001
	c0.451-0.231,0.906-0.458,1.361-0.683c1.17-0.583,2.346-1.154,3.53-1.71c0.596-0.281,1.193-0.554,1.794-0.827
	c1.001-0.455,2.006-0.897,3.018-1.331c0.546-0.234,1.091-0.478,1.642-0.707c1.392-0.58,2.799-1.139,4.211-1.682
	c0.676-0.261,1.356-0.509,2.037-0.76c0.897-0.332,1.797-0.655,2.7-0.97c0.715-0.25,1.429-0.501,2.149-0.742
	c1.389-0.464,2.785-0.912,4.191-1.337c0.746-0.227,1.502-0.436,2.254-0.653c0.842-0.242,1.688-0.483,2.537-0.711
	c0.824-0.223,1.649-0.441,2.476-0.652c0.863-0.219,1.73-0.422,2.597-0.627c1.32-0.31,2.645-0.605,3.977-0.883
	c0.839-0.175,1.676-0.351,2.52-0.514c0.886-0.169,1.776-0.33,2.669-0.487c0.782-0.137,1.567-0.265,2.354-0.391
	c6.524-1.044,13.171-1.721,19.928-1.966c1.963-0.074,3.939-0.11,5.922-0.11c7.902,0,15.669,0.577,23.273,1.669V69.817
	C372.364,56.965,361.944,46.545,349.091,46.545z"/>
<path style="fill:#B6E892;" d="M418.909,155.377c-7.463-3.556-15.239-6.555-23.273-8.954c-7.543-2.254-15.317-3.973-23.273-5.117
	c-7.604-1.092-15.371-1.671-23.273-1.671c-1.983,0-3.959,0.037-5.924,0.107c-5.866,0.216-11.653,0.743-17.349,1.562
	c-0.864,0.124-1.719,0.267-2.579,0.403c-0.787,0.126-1.572,0.254-2.354,0.391c-0.892,0.158-1.781,0.318-2.669,0.487
	c-0.842,0.163-1.68,0.338-2.52,0.514c-1.33,0.279-2.656,0.573-3.977,0.883c-0.867,0.205-1.735,0.41-2.597,0.627
	c-0.827,0.211-1.651,0.428-2.476,0.652c-0.849,0.228-1.694,0.469-2.537,0.711c-0.753,0.216-1.508,0.425-2.254,0.653
	c-1.406,0.427-2.804,0.874-4.191,1.337c-0.72,0.239-1.434,0.49-2.149,0.742c-0.903,0.315-1.803,0.638-2.7,0.97
	c-0.68,0.25-1.361,0.5-2.037,0.76c-1.412,0.543-2.818,1.102-4.211,1.682c-0.549,0.23-1.094,0.473-1.641,0.707
	c-1.012,0.434-2.019,0.877-3.018,1.331c-0.6,0.273-1.198,0.548-1.794,0.827c-1.185,0.555-2.36,1.126-3.53,1.71
	c-0.455,0.227-0.909,0.453-1.361,0.683c-1.272,0.65-2.537,1.32-3.79,2.001c-0.512,0.281-1.022,0.565-1.533,0.849
	c-1.071,0.6-2.135,1.21-3.191,1.832c-0.397,0.233-0.797,0.462-1.193,0.698c-1.465,0.88-2.918,1.78-4.354,2.704
	c-0.439,0.282-0.867,0.579-1.303,0.864c-1.024,0.675-2.048,1.353-3.058,2.05c-0.604,0.417-1.199,0.846-1.797,1.271
	c-0.827,0.586-1.651,1.178-2.467,1.778c-0.633,0.469-1.263,0.943-1.89,1.421c-0.765,0.582-1.525,1.173-2.281,1.769
	c-0.633,0.498-1.264,0.999-1.888,1.507c-0.748,0.61-1.485,1.227-2.222,1.848c-0.604,0.507-1.21,1.012-1.806,1.528
	c-0.846,0.734-1.676,1.485-2.506,2.236c-0.813,0.735-1.618,1.477-2.417,2.228c-0.839,0.791-1.679,1.584-2.501,2.391
	c-2.982,2.929-5.851,5.97-8.602,9.117c-0.337,0.385-0.661,0.78-0.995,1.168c-1.005,1.173-2.001,2.357-2.974,3.559
	c-0.424,0.524-0.839,1.057-1.257,1.584c-0.867,1.097-1.721,2.205-2.56,3.325c-0.43,0.574-0.858,1.153-1.282,1.735
	c-0.813,1.117-1.61,2.247-2.397,3.385c-0.399,0.577-0.801,1.153-1.192,1.735c-0.827,1.232-1.631,2.481-2.425,3.734
	c-0.312,0.495-0.635,0.984-0.942,1.48c-1.081,1.75-2.138,3.519-3.154,5.312c-0.002,0.005-0.005,0.009-0.006,0.014
	c-1.038,1.831-2.037,3.686-3.002,5.561c-0.233,0.448-0.45,0.908-0.678,1.358c-0.7,1.387-1.386,2.78-2.046,4.189
	c-0.358,0.763-0.698,1.538-1.046,2.307c-0.532,1.182-1.06,2.368-1.564,3.565c-0.352,0.835-0.687,1.677-1.026,2.518
	c-0.459,1.139-0.909,2.284-1.342,3.435c-0.341,0.908-0.669,1.821-0.993,2.737c-0.396,1.111-0.78,2.226-1.151,3.347
	c-0.312,0.943-0.616,1.894-0.909,2.845c-0.363,1.168-0.714,2.341-1.05,3.52c-0.237,0.833-0.475,1.668-0.698,2.507
	c-0.34,1.261-0.655,2.534-0.964,3.807c-0.195,0.805-0.397,1.606-0.579,2.416c-0.313,1.389-0.597,2.787-0.875,4.188
	c-0.14,0.704-0.292,1.404-0.424,2.112c-0.388,2.107-0.743,4.225-1.05,6.36c-1.092,7.602-1.669,15.372-1.669,23.273
	c0,1.79,0.037,3.575,0.096,5.351c0.014,0.408,0.029,0.813,0.047,1.221c0.067,1.66,0.154,3.319,0.27,4.966
	c0.006,0.093,0.012,0.186,0.019,0.279c0.281,3.855,0.695,7.675,1.238,11.455c11.328,78.842,79.312,139.636,161.24,139.636
	c89.828,0,162.909-73.083,162.909-162.909C512,237.688,473.899,181.568,418.909,155.377z M415.195,284.868l-66.104,66.104
	l-3.714,3.716c-4.543,4.541-10.499,6.814-16.455,6.814s-11.913-2.273-16.455-6.816l-31.03-31.03c-9.089-9.09-9.089-23.827,0-32.915
	c9.087-9.087,23.824-9.087,32.912,0l14.575,14.573l20.17-20.17l33.193-33.19c9.087-9.087,23.824-9.087,32.912,0
	C424.285,261.043,424.285,275.778,415.195,284.868z"/>
<path style="fill:#5286F9;" d="M349.091,46.545H186.182H23.273C10.42,46.545,0,56.965,0,69.817v93.088
	c0,12.853,10.42,23.273,23.273,23.273h23.273h139.636h49.025c0.765-0.749,1.55-1.482,2.33-2.217
	c0.799-0.749,1.603-1.493,2.417-2.228c0.83-0.751,1.66-1.503,2.506-2.236c0.596-0.517,1.202-1.021,1.806-1.528
	c0.737-0.621,1.472-1.24,2.222-1.848c0.624-0.507,1.255-1.007,1.888-1.507c0.754-0.596,1.516-1.187,2.281-1.769
	c0.627-0.478,1.257-0.953,1.89-1.421c0.815-0.602,1.64-1.193,2.467-1.778c0.599-0.425,1.193-0.855,1.797-1.271
	c1.008-0.697,2.034-1.376,3.058-2.05c0.436-0.287,0.864-0.582,1.303-0.864c1.353-0.872,2.72-1.724,4.099-2.555
	c0.084-0.05,0.169-0.098,0.253-0.149c0.396-0.236,0.796-0.465,1.193-0.698c1.057-0.621,2.119-1.233,3.191-1.832
	c0.51-0.285,1.021-0.568,1.533-0.849c1.255-0.681,2.518-1.351,3.79-2.001c0.451-0.231,0.906-0.458,1.361-0.683
	c1.17-0.583,2.346-1.154,3.53-1.71c0.596-0.281,1.193-0.554,1.794-0.827c1.001-0.455,2.006-0.897,3.018-1.331
	c0.546-0.234,1.091-0.478,1.641-0.707c1.392-0.58,2.799-1.139,4.211-1.682c0.676-0.261,1.356-0.509,2.037-0.76
	c0.897-0.332,1.797-0.655,2.7-0.97c0.715-0.25,1.429-0.501,2.149-0.742c1.389-0.464,2.785-0.912,4.191-1.337
	c0.746-0.227,1.502-0.436,2.254-0.653c0.842-0.242,1.688-0.483,2.537-0.711c0.824-0.223,1.649-0.441,2.476-0.652
	c0.863-0.219,1.73-0.422,2.597-0.627c1.32-0.31,2.645-0.605,3.977-0.883c0.839-0.175,1.676-0.351,2.52-0.514
	c0.886-0.169,1.776-0.33,2.669-0.487c0.782-0.137,1.567-0.265,2.354-0.391c6.524-1.044,13.171-1.721,19.928-1.966
	c1.96-0.074,3.936-0.11,5.919-0.11c7.902,0,15.669,0.577,23.273,1.669V69.817C372.364,56.965,361.944,46.545,349.091,46.545z"/>
<path style="fill:#4E901E;" d="M415.195,251.956c-9.087-9.087-23.824-9.087-32.912,0l-33.192,33.19l-20.17,20.168l-14.575-14.573
	c-9.087-9.087-23.824-9.087-32.912,0c-9.089,9.087-9.089,23.823,0,32.915l31.03,31.03c4.544,4.543,10.501,6.816,16.457,6.816
	s11.913-2.273,16.455-6.816l3.714-3.716l66.104-66.102C424.285,275.778,424.285,261.043,415.195,251.956z"/>
<path style="fill:#7ED63E;" d="M345.377,354.686c-4.543,4.543-10.499,6.816-16.455,6.816s-11.913-2.273-16.455-6.816l-31.03-31.03
	c-9.089-9.09-9.089-23.827,0-32.915c9.087-9.087,23.824-9.087,32.912,0l14.575,14.573l20.17-20.17V139.636
	c-1.983,0-3.959,0.037-5.924,0.107c-5.866,0.216-11.653,0.743-17.349,1.562c-0.864,0.124-1.719,0.267-2.579,0.403
	c-0.787,0.126-1.572,0.254-2.354,0.391c-0.892,0.158-1.781,0.318-2.669,0.487c-0.842,0.163-1.68,0.338-2.52,0.514
	c-1.33,0.279-2.656,0.573-3.977,0.883c-0.867,0.205-1.735,0.41-2.597,0.627c-0.827,0.211-1.651,0.428-2.476,0.652
	c-0.849,0.228-1.694,0.469-2.537,0.711c-0.752,0.216-1.508,0.425-2.254,0.653c-1.406,0.427-2.804,0.874-4.191,1.337
	c-0.72,0.239-1.434,0.49-2.149,0.742c-0.903,0.315-1.803,0.638-2.7,0.97c-0.68,0.25-1.361,0.5-2.037,0.76
	c-1.412,0.543-2.818,1.102-4.211,1.682c-0.551,0.23-1.094,0.473-1.642,0.707c-1.012,0.434-2.019,0.877-3.018,1.331
	c-0.6,0.273-1.198,0.548-1.794,0.827c-1.185,0.555-2.36,1.126-3.53,1.71c-0.455,0.227-0.909,0.453-1.361,0.683
	c-1.272,0.65-2.537,1.32-3.79,2.001c-0.512,0.281-1.022,0.565-1.533,0.849c-1.071,0.6-2.135,1.21-3.191,1.832
	c-0.397,0.233-0.797,0.462-1.193,0.698c-1.465,0.88-2.918,1.78-4.354,2.704c-0.439,0.282-0.867,0.579-1.303,0.864
	c-1.024,0.675-2.048,1.353-3.058,2.05c-0.604,0.417-1.198,0.846-1.797,1.271c-0.827,0.586-1.651,1.178-2.467,1.78
	c-0.633,0.469-1.261,0.943-1.89,1.421c-0.765,0.582-1.525,1.173-2.281,1.769c-0.633,0.498-1.264,0.999-1.888,1.507
	c-0.748,0.61-1.485,1.227-2.222,1.848c-0.604,0.507-1.21,1.012-1.806,1.528c-0.846,0.734-1.676,1.485-2.506,2.236
	c-0.813,0.735-1.618,1.477-2.417,2.228c-0.839,0.791-1.679,1.584-2.501,2.391c-2.982,2.929-5.851,5.97-8.602,9.117
	c-0.337,0.385-0.661,0.78-0.995,1.168c-1.005,1.173-2.001,2.355-2.974,3.559c-0.424,0.524-0.839,1.057-1.258,1.584
	c-0.867,1.097-1.721,2.205-2.56,3.325c-0.43,0.574-0.858,1.153-1.282,1.735c-0.813,1.117-1.61,2.247-2.397,3.385
	c-0.399,0.577-0.801,1.153-1.192,1.735c-0.827,1.232-1.631,2.481-2.425,3.734c-0.312,0.495-0.635,0.984-0.94,1.48
	c-1.081,1.75-2.138,3.519-3.154,5.312c-0.002,0.005-0.005,0.009-0.006,0.014c-1.038,1.831-2.037,3.686-3.004,5.561
	c-0.233,0.448-0.45,0.908-0.678,1.358c-0.7,1.387-1.387,2.78-2.046,4.189c-0.357,0.763-0.698,1.538-1.046,2.307
	c-0.532,1.182-1.06,2.368-1.564,3.565c-0.352,0.835-0.687,1.677-1.026,2.518c-0.459,1.139-0.909,2.284-1.342,3.435
	c-0.341,0.908-0.669,1.821-0.993,2.737c-0.396,1.111-0.78,2.226-1.151,3.347c-0.312,0.943-0.614,1.894-0.909,2.845
	c-0.363,1.168-0.714,2.341-1.05,3.52c-0.237,0.833-0.475,1.668-0.698,2.507c-0.34,1.263-0.655,2.534-0.964,3.807
	c-0.195,0.805-0.397,1.606-0.579,2.416c-0.313,1.389-0.597,2.787-0.875,4.188c-0.14,0.704-0.292,1.404-0.425,2.112
	c-0.388,2.107-0.743,4.225-1.05,6.36c-1.092,7.602-1.669,15.372-1.669,23.273c0,1.79,0.037,3.575,0.096,5.351
	c0.014,0.408,0.031,0.813,0.047,1.221c0.067,1.66,0.154,3.319,0.27,4.966c0.006,0.093,0.012,0.186,0.019,0.279
	c0.281,3.856,0.695,7.675,1.238,11.455l0,0c11.328,78.842,79.312,139.636,161.24,139.636V350.971L345.377,354.686z"/>
<polygon style="fill:#A6D864;" points="345.377,354.686 349.091,350.972 349.091,350.972 "/>
<path style="fill:#B4DE7C;" d="M349.091,350.972l66.104-66.104L349.091,350.972z"/>
<g>
	<path style="fill:#D6D5D8;" d="M186.596,314.085c-0.115-1.649-0.203-3.306-0.27-4.966c-0.017-0.408-0.033-0.813-0.047-1.221
		c-0.059-1.778-0.098-3.562-0.098-5.353v23.273h1.669c-0.545-3.779-0.96-7.596-1.238-11.455
		C186.607,314.271,186.601,314.176,186.596,314.085z"/>
	<path style="fill:#D6D5D8;" d="M186.326,309.117c0.067,1.66,0.155,3.319,0.27,4.966
		C186.478,312.436,186.393,310.779,186.326,309.117z"/>
	<path style="fill:#D6D5D8;" d="M186.613,314.363c0.278,3.857,0.694,7.675,1.238,11.455l0,0
		C187.31,322.038,186.894,318.218,186.613,314.363z"/>
	<path style="fill:#D6D5D8;" d="M186.182,302.545c0,1.79,0.039,3.575,0.096,5.351C186.219,306.119,186.182,304.335,186.182,302.545z
		"/>
</g>
<path style="fill:#C3C3C7;" d="M186.182,186.178H46.545H23.273C10.42,186.178,0,175.758,0,162.905v139.639
	c0,12.851,10.42,23.273,23.273,23.273h162.909v-23.273V186.178z"/>
<g>
	<path style="fill:#D6D5D8;" d="M195.553,248.17c-0.394,1.111-0.78,2.226-1.151,3.347
		C194.773,250.397,195.157,249.281,195.553,248.17z"/>
	<path style="fill:#D6D5D8;" d="M213.777,211.959c-0.827,1.232-1.631,2.481-2.425,3.734
		C212.146,214.44,212.95,213.191,213.777,211.959z"/>
	<path style="fill:#D6D5D8;" d="M210.41,217.176c-1.081,1.75-2.138,3.519-3.154,5.312
		C208.272,220.693,209.329,218.926,210.41,217.176z"/>
	<path style="fill:#D6D5D8;" d="M207.25,222.5c-1.038,1.831-2.037,3.686-3.004,5.561C205.214,226.187,206.212,224.331,207.25,222.5z
		"/>
	<path style="fill:#D6D5D8;" d="M226.433,195.468c2.749-3.146,5.62-6.187,8.602-9.117
		C232.052,189.281,229.184,192.322,226.433,195.468z"/>
	<path style="fill:#D6D5D8;" d="M190.202,266.613c-0.313,1.389-0.597,2.787-0.875,4.188C189.604,269.4,189.888,268,190.202,266.613z
		"/>
	<path style="fill:#D6D5D8;" d="M188.902,272.912c-0.388,2.107-0.743,4.226-1.05,6.36
		C188.157,277.137,188.514,275.021,188.902,272.912z"/>
	<path style="fill:#D6D5D8;" d="M201.523,233.608c0.661-1.409,1.347-2.804,2.046-4.189c-0.554,1.1-1.117,2.194-1.648,3.308
		C201.784,233.018,201.66,233.316,201.523,233.608z"/>
	<path style="fill:#D6D5D8;" d="M200.477,235.916c-0.532,1.184-1.06,2.366-1.564,3.565
		C199.418,238.284,199.945,237.097,200.477,235.916z"/>
	<path style="fill:#D6D5D8;" d="M192.442,257.883c0.337-1.179,0.686-2.352,1.05-3.52c-0.169,0.548-0.36,1.086-0.524,1.637
		C192.782,256.621,192.621,257.258,192.442,257.883z"/>
	<path style="fill:#D6D5D8;" d="M197.888,242c-0.458,1.139-0.911,2.284-1.342,3.435C196.979,244.282,197.429,243.139,197.888,242z"
		/>
	<path style="fill:#D6D5D8;" d="M191.744,260.39c-0.34,1.263-0.655,2.534-0.963,3.807
		C191.089,262.924,191.404,261.653,191.744,260.39z"/>
	<path style="fill:#D6D5D8;" d="M217.366,206.839c-0.813,1.117-1.61,2.247-2.397,3.385
		C215.755,209.088,216.551,207.957,217.366,206.839z"/>
	<path style="fill:#D6D5D8;" d="M225.44,196.637c-1.005,1.173-2.001,2.355-2.974,3.559
		C223.438,198.993,224.433,197.81,225.44,196.637z"/>
	<path style="fill:#D6D5D8;" d="M221.207,201.782c-0.867,1.098-1.721,2.205-2.56,3.325
		C219.487,203.986,220.342,202.878,221.207,201.782z"/>
</g>
<path style="fill:#3D6DEB;" d="M23.273,186.178h23.273h139.636V46.545H23.273C10.42,46.545,0,56.965,0,69.817v93.088
	C0,175.758,10.42,186.178,23.273,186.178z"/>
<g>
	<path style="fill:#5286F9;" d="M304.114,145.974c-0.753,0.217-1.508,0.425-2.254,0.653
		C302.606,146.399,303.36,146.189,304.114,145.974z"/>
	<path style="fill:#5286F9;" d="M309.125,144.611c-0.827,0.211-1.651,0.428-2.476,0.652
		C307.475,145.04,308.298,144.822,309.125,144.611z"/>
	<path style="fill:#5286F9;" d="M266.713,162.058c-0.397,0.233-0.797,0.462-1.193,0.698
		C265.917,162.52,266.316,162.292,266.713,162.058z"/>
	<path style="fill:#5286F9;" d="M297.667,147.964c-0.72,0.239-1.434,0.49-2.149,0.742
		C296.235,148.456,296.949,148.203,297.667,147.964z"/>
	<path style="fill:#5286F9;" d="M261.168,165.462c-0.439,0.282-0.867,0.577-1.303,0.864
		C260.301,166.041,260.729,165.743,261.168,165.462z"/>
	<path style="fill:#5286F9;" d="M271.438,159.379c-0.512,0.281-1.022,0.563-1.533,0.849
		C270.415,159.943,270.926,159.658,271.438,159.379z"/>
	<path style="fill:#5286F9;" d="M281.913,154.156c-0.6,0.273-1.198,0.548-1.794,0.827
		C280.716,154.704,281.313,154.429,281.913,154.156z"/>
	<path style="fill:#5286F9;" d="M286.573,152.118c-0.551,0.23-1.094,0.473-1.642,0.708
		C285.479,152.591,286.023,152.347,286.573,152.118z"/>
	<path style="fill:#5286F9;" d="M315.698,143.1c-1.33,0.279-2.656,0.573-3.977,0.883C313.043,143.674,314.368,143.379,315.698,143.1
		z"/>
	<path style="fill:#5286F9;" d="M276.589,156.693c-0.455,0.227-0.909,0.451-1.361,0.683
		C275.681,157.146,276.134,156.919,276.589,156.693z"/>
	<path style="fill:#5286F9;" d="M292.819,149.675c-0.68,0.251-1.361,0.5-2.037,0.76
		C291.458,150.175,292.139,149.925,292.819,149.675z"/>
	<path style="fill:#5286F9;" d="M244.264,177.969c-0.604,0.507-1.21,1.012-1.806,1.528
		C243.054,178.98,243.662,178.476,244.264,177.969z"/>
	<path style="fill:#5286F9;" d="M256.807,168.374c-0.604,0.417-1.198,0.846-1.797,1.271
		C255.609,169.22,256.205,168.792,256.807,168.374z"/>
	<path style="fill:#5286F9;" d="M239.953,181.734c-0.813,0.735-1.618,1.477-2.417,2.228
		C238.334,183.211,239.14,182.468,239.953,181.734z"/>
	<path style="fill:#5286F9;" d="M320.886,142.099c-0.892,0.158-1.781,0.318-2.669,0.487
		C319.105,142.417,319.994,142.256,320.886,142.099z"/>
	<path style="fill:#5286F9;" d="M248.374,174.614c-0.633,0.498-1.264,0.999-1.888,1.507
		C247.11,175.612,247.741,175.113,248.374,174.614z"/>
	<path style="fill:#5286F9;" d="M325.818,141.305c5.696-0.818,11.481-1.347,17.349-1.562c-6.757,0.244-13.404,0.922-19.928,1.966
		C324.099,141.572,324.954,141.429,325.818,141.305z"/>
	<path style="fill:#5286F9;" d="M252.543,171.425c-0.633,0.469-1.261,0.943-1.89,1.421
		C251.282,172.369,251.91,171.893,252.543,171.425z"/>
</g>
<g>
</g>
<g>
</g>
<g>
</g>
<g>
</g>
<g>
</g>
<g>
</g>
<g>
</g>
<g>
</g>
<g>
</g>
<g>
</g>
<g>
</g>
<g>
</g>
<g>
</g>
<g>
</g>
<g>
</g>
</svg>
