<svg height="512pt" viewBox="0 0 512 512" width="512pt" xmlns="http://www.w3.org/2000/svg"><path d="m512 256c0 65.902344-24.910156 126.003906-65.828125 171.375-46.855469 51.960938-114.699219 84.625-190.171875 84.625s-143.316406-32.664062-190.171875-84.625c-40.917969-45.371094-65.828125-105.472656-65.828125-171.375s24.910156-126.003906 65.828125-171.375c9.277344-10.300781 19.382813-19.832031 30.21875-28.503906 3.34375-2.683594 6.75-5.285156 10.230469-7.792969 23.21875-16.773437 49.351562-29.738281 77.5-37.992187 22.902344-6.730469 47.132812-10.335938 72.222656-10.335938s49.320312 3.605469 72.222656 10.335938c46.027344 13.5 86.675782 39.589843 117.949219 74.289062 40.917969 45.371094 65.828125 105.472656 65.828125 171.375zm0 0" fill="#66baed"/><path d="m402.914062 10.335938h-293.816406c-23.898437 0-43.269531 19.371093-43.269531 43.257812v373.78125c46.855469 51.960938 114.699219 84.625 190.171875 84.625s143.316406-32.664062 190.171875-84.625v-373.78125c0-23.886719-19.363281-43.257812-43.257813-43.257812zm-289.886718 78.082031c-11.390625 0-20.617188-9.226563-20.617188-20.613281 0-4.335938 1.339844-8.371094 3.636719-11.683594 2.464844-3.582032 6.039063-6.351563 10.230469-7.792969 2.109375-.742187 4.386718-1.140625 6.75-1.140625 11.386718 0 20.613281 9.226562 20.613281 20.617188 0 11.386718-9.226563 20.613281-20.613281 20.613281zm0 0" fill="#dde8ed"/><path d="m389.714844 195.59375c0 73.847656-59.867188 133.710938-133.714844 133.710938s-133.710938-59.863282-133.710938-133.710938 59.863282-133.714844 133.710938-133.714844 133.714844 59.867188 133.714844 133.714844zm0 0" fill="#fcf9f4"/><path d="m120.839844 68.332031c-.082032 1.296875-2.222656 32.152344-9.484375 67.21875-10.011719 48.359375-24.535157 79.765625-43.167969 93.371094-7.21875 5.277344-14.992188 7.921875-23.195312 7.921875-3.261719 0-6.582032-.417969-9.96875-1.253906-10.238282-2.519532-14.460938-8.933594-16.207032-13.867188-6.332031-17.941406 8.601563-49.945312 47.011719-100.6875v26.511719c-33.773437 47.742187-33.992187 63.976563-32.234375 68.960937.5 1.402344 1.503906 2.957032 5.179688 3.867188 7.316406 1.808594 13.910156.460938 20.179687-4.105469 10.574219-7.734375 25.597656-28.558593 37.050781-83.894531 7.054688-34.035156 9.183594-64.796875 9.207032-65.097656.292968-4.328125 4.03125-7.585938 8.335937-7.292969 4.328125.292969 7.585937 4.023437 7.292969 8.347656zm0 0" fill="#f74f4f"/><path d="m113.722656 380.613281h284.546875v20.371094h-284.546875zm0 0" fill="#3d4159"/><path d="m113.722656 432.855469h284.546875v20.375h-284.546875zm0 0" fill="#3d4159"/><path d="m196.90625 222.203125c0 10.113281-7.386719 18.496094-17.058594 20.054687-1.058594.171876-2.144531.257813-3.253906.257813-11.226562 0-20.316406-9.089844-20.316406-20.316406 0-11.222657 9.089844-20.316407 20.316406-20.316407 1.109375 0 2.195312.089844 3.253906.261719 9.671875 1.558594 17.058594 9.945313 17.058594 20.058594zm0 0" fill="#f6caae"/><path d="m196.90625 222.203125c0 10.113281-7.386719 18.496094-17.058594 20.054687-1.757812-6.390624-2.695312-13.117187-2.695312-20.054687 0-6.941406.9375-13.667969 2.695312-20.054687 9.671875 1.554687 17.058594 9.941406 17.058594 20.054687zm0 0" fill="#eab599"/><path d="m183.851562 222.203125c0 4.007813-3.25 7.257813-7.257812 7.257813-4.011719 0-7.261719-3.25-7.261719-7.257813 0-4.011719 3.25-7.261719 7.261719-7.261719 4.007812 0 7.257812 3.25 7.257812 7.261719zm0 0" fill="#eab599"/><path d="m316.757812 222.203125c0 10.113281 7.386719 18.496094 17.0625 20.054687 1.058594.171876 2.144532.257813 3.253907.257813 11.222656 0 20.316406-9.089844 20.316406-20.316406 0-11.222657-9.09375-20.316407-20.316406-20.316407-1.109375 0-2.195313.089844-3.253907.261719-9.675781 1.558594-17.0625 9.945313-17.0625 20.058594zm0 0" fill="#f6caae"/><g fill="#eab599"><path d="m316.757812 222.203125c0 10.113281 7.386719 18.496094 17.0625 20.054687 1.757813-6.390624 2.695313-13.117187 2.695313-20.054687 0-6.941406-.9375-13.667969-2.695313-20.054687-9.675781 1.554687-17.0625 9.941406-17.0625 20.054687zm0 0"/><path d="m332.421875 182.625v28.78125c0 37.613281-27.480469 68.820312-63.457031 74.609375-.125.019531-.25.039063-.371094.058594-3.828125.613281-7.753906.914062-11.761719.914062-41.742187 0-75.585937-33.839843-75.585937-75.582031v-28.785156c0-8.789063 1.5-17.234375 4.269531-25.082032 10.339844-29.417968 38.367187-50.507812 71.316406-50.507812h.003907c4 0 7.9375.308594 11.769531.914062 36.15625 5.652344 63.816406 36.9375 63.816406 74.679688zm0 0"/><path d="m344.335938 222.203125c0 4.007813-3.25 7.257813-7.261719 7.257813-4.007813 0-7.261719-3.25-7.261719-7.257813 0-4.011719 3.253906-7.261719 7.261719-7.261719 4.011719 0 7.261719 3.25 7.261719 7.261719zm0 0"/></g><path d="m332.421875 182.625v28.78125c0 37.613281-27.480469 68.820312-63.457031 74.609375-.125.019531-.25.039063-.371094.058594-36.15625-5.648438-63.808594-36.933594-63.808594-74.667969v-28.78125c0-37.742188 27.660156-69.027344 63.820313-74.675781 36.15625 5.648437 63.816406 36.933593 63.816406 74.675781zm0 0" fill="#f6caae"/><path d="m240.734375 207.003906c0 4.734375-3.835937 8.574219-8.574219 8.574219-4.734375 0-8.574218-3.839844-8.574218-8.574219s3.839843-8.574218 8.574218-8.574218c4.738282 0 8.574219 3.839843 8.574219 8.574218zm0 0" fill="#3d4159"/><path d="m290.082031 207.003906c0 4.734375-3.839843 8.574219-8.574219 8.574219-4.738281 0-8.578124-3.839844-8.578124-8.574219s3.839843-8.574218 8.578124-8.574218c4.734376 0 8.574219 3.839843 8.574219 8.574218zm0 0" fill="#3d4159"/><path d="m238.988281 205.492188c0 2.027343-1.644531 3.671874-3.675781 3.671874-2.027344 0-3.671875-1.644531-3.671875-3.671874 0-2.03125 1.644531-3.675782 3.671875-3.675782 2.03125 0 3.675781 1.644532 3.675781 3.675782zm0 0" fill="#fff"/><path d="m288.753906 205.492188c0 2.027343-1.644531 3.671874-3.675781 3.671874-2.027344 0-3.671875-1.644531-3.671875-3.671874 0-2.03125 1.644531-3.675782 3.671875-3.675782 2.03125 0 3.675781 1.644532 3.675781 3.675782zm0 0" fill="#fff"/><path d="m265.410156 225.230469h-17.152344c-2.042968 0-3.699218-1.65625-3.699218-3.699219s1.65625-3.699219 3.699218-3.699219h17.152344c2.039063 0 3.695313 1.65625 3.695313 3.699219s-1.65625 3.699219-3.695313 3.699219zm0 0" fill="#eab599"/><path d="m256.832031 248.632812c-6.328125 0-12.65625-1.585937-18.425781-4.757812-1.628906-.894531-2.222656-2.941406-1.328125-4.566406.894531-1.628906 2.941406-2.222656 4.566406-1.328125 9.511719 5.230469 20.867188 5.230469 30.378907 0 1.625-.894531 3.671874-.300781 4.566406 1.328125.894531 1.625.300781 3.671875-1.328125 4.566406-5.769531 3.171875-12.097657 4.757812-18.429688 4.757812zm0 0" fill="#eab599"/><path d="m332.421875 156.5v29.484375h-14.070313v-23.089844l-101.546874-18.867187-21.488282-3.996094v45.953125h-14.066406v-29.484375c0-33.613281 27.242188-60.855469 60.847656-60.855469h29.476563c.800781 0 1.601562.015625 2.398437.054688 32.488282 1.25 58.449219 27.988281 58.449219 60.800781zm0 0" fill="#dd3033"/><path d="m332.421875 156.5v29.484375h-14.070313v-23.089844l-101.546874-18.867187c5.59375-26.875 28.910156-47.238282 57.167968-48.328125 32.488282 1.25 58.449219 27.988281 58.449219 60.800781zm0 0" fill="#f74f4f"/></svg>