<?xml version="1.0"?>
<svg xmlns="http://www.w3.org/2000/svg" height="512px" viewBox="0 -17 511.99968 511" width="512px"><path d="m58.449219 106.324219c-.648438 0-1.308594-.070313-1.949219-.199219-.640625-.132812-1.269531-.320312-1.871094-.570312-.609375-.25-1.1875-.5625-1.730468-.921876-.546876-.359374-1.058594-.777343-1.519532-1.238281-1.859375-1.859375-2.929687-4.441406-2.929687-7.070312 0-.648438.070312-1.308594.199219-1.960938.121093-.628906.320312-1.257812.570312-1.871093.25-.597657.5625-1.179688.921875-1.71875.359375-.550782.777344-1.058594 1.238281-1.519532.460938-.460937.972656-.878906 1.519532-1.25.542968-.359375 1.121093-.671875 1.722656-.921875.609375-.25 1.238281-.4375 1.878906-.566406 1.289062-.261719 2.609375-.261719 3.898438 0 .640624.128906 1.269531.316406 1.871093.566406.609375.25 1.191407.5625 1.730469.921875.550781.371094 1.058594.789063 1.519531 1.25.460938.460938.878907.96875 1.25 1.519532.359375.539062.671875 1.121093.921875 1.71875.25.613281.4375 1.242187.566406 1.871093.132813.652344.191407 1.3125.191407 1.960938 0 2.628906-1.070313 5.210937-2.929688 7.070312-.460937.460938-.96875.878907-1.519531 1.238281-.539062.359376-1.121094.671876-1.730469.921876-.601562.25-1.230469.4375-1.871093.570312-.640626.128906-1.296876.199219-1.949219.199219zm0 0" fill="#006DF0"/><path d="m428.351562 424.03125c-.652343 0-1.3125-.066406-1.953124-.199219-.640626-.128906-1.269532-.316406-1.867188-.566406-.613281-.25-1.191406-.5625-1.730469-.921875-.550781-.359375-1.0625-.78125-1.519531-1.238281-.460938-.460938-.882812-.972657-1.242188-1.523438-.359374-.539062-.667968-1.117187-.917968-1.726562-.25-.601563-.441406-1.230469-.570313-1.871094-.132812-.640625-.199219-1.300781-.199219-1.949219 0-.648437.066407-1.3125.199219-1.949218.128907-.640626.320313-1.273438.570313-1.871094.25-.609375.558594-1.191406.917968-1.730469.359376-.550781.78125-1.058594 1.242188-1.519531.457031-.460938.96875-.878906 1.519531-1.25.539063-.359375 1.117188-.671875 1.730469-.921875.597656-.25 1.226562-.4375 1.867188-.566407 1.292968-.261718 2.621093-.261718 3.910156 0 .632812.128907 1.261718.316407 1.871094.566407.601562.25 1.179687.5625 1.71875.921875.550781.371094 1.0625.789062 1.519531 1.25.460937.460937.882812.96875 1.25 1.519531.363281.539063.671875 1.121094.921875 1.730469.25.601562.441406 1.230468.570312 1.871094.128906.640624.191406 1.300781.191406 1.949218 0 .648438-.0625 1.308594-.191406 1.949219s-.320312 1.269531-.570312 1.871094c-.25.609375-.558594 1.1875-.921875 1.726562-.367188.550781-.789063 1.0625-1.25 1.523438-.457031.457031-.96875.878906-1.519531 1.238281-.539063.359375-1.117188.671875-1.71875.921875-.609376.25-1.238282.4375-1.878907.566406-.640625.128907-1.300781.199219-1.949219.199219zm0 0" fill="#006DF0"/><path d="m385.351562 424.03125h-215.40625c-5.523437 0-10-4.476562-10-10 0-5.519531 4.476563-10 10-10h215.40625c5.523438 0 10 4.480469 10 10 0 5.523438-4.476562 10-10 10zm0 0" fill="#006DF0"/><path d="m362.910156 141.972656c-.660156 0-1.308594-.058594-1.960937-.191406-.640625-.128906-1.269531-.316406-1.871094-.566406-.597656-.25-1.179687-.5625-1.726563-.921875-.542968-.359375-1.0625-.777344-1.523437-1.238281-.457031-.460938-.878906-.980469-1.238281-1.519532-.359375-.550781-.671875-1.132812-.921875-1.730468-.25-.601563-.4375-1.230469-.566407-1.871094-.132812-.648438-.191406-1.300782-.191406-1.960938 0-2.628906 1.058594-5.207031 2.917969-7.070312.460937-.457032.980469-.867188 1.523437-1.238282.546876-.359374 1.128907-.671874 1.726563-.921874.601563-.25 1.230469-.4375 1.871094-.566407 3.25-.652343 6.699219.410157 9.03125 2.730469 1.859375 1.859375 2.929687 4.4375 2.929687 7.070312 0 .660157-.070312 1.308594-.199218 1.957032-.132813.640625-.320313 1.269531-.570313 1.871094-.25.601562-.5625 1.179687-.921875 1.730468-.367188.539063-.777344 1.0625-1.238281 1.519532-1.859375 1.859374-4.441407 2.917968-7.070313 2.917968zm0 0" fill="#006DF0"/><path d="m500.90625 61.867188h-95.953125l-27.785156-55.824219c-1.6875-3.394531-5.15625-5.542969-8.953125-5.542969h-10.625c-3.792969 0-7.261719 2.148438-8.949219 5.542969l-27.785156 55.824219h-43.246094v-51.367188c0-5.523438-4.476563-10-10-10h-74.359375c-5.523438 0-10 4.476562-10 10v51.367188h-74.554688c-9.980468-17.953126-29.144531-30.132813-51.101562-30.132813-15.605469 0-30.773438 6.417969-41.605469 17.609375-10.746093 11.09375-16.410156 25.640625-15.9648435 40.96875v325.5c-.03125 1.101562-.02734375 2.207031.0039063 3.320312-.3164058 15.320313 5.5273442 29.910157 16.4648442 41.089844 11.261718 11.519532 26.949218 18.125 43.03125 18.125h442.476562c5.523438 0 10-4.480468 10-10v-395.390625c0-6.113281-4.976562-11.089843-11.09375-11.089843zm-112.140625 211.859374h-15.859375v-98.75c0-5.519531-4.480469-10-10-10-5.523438 0-10 4.480469-10 10v98.75h-15.863281v-175.472656h51.722656zm-51.722656 20h51.722656v16.246094h-51.722656zm51.722656-219.5v4.027344h-51.722656v-4.027344l10.714843-21.527343h30.292969zm-51.722656 255.746094h51.722656v38.175782h-51.722656zm25.863281-307.703125 5.1875 10.429688h-10.378906zm-159.65625-1.769531h54.359375v52.480469h-9.953125c-5.523438 0-10 4.476562-10 10 0 5.519531 4.476562 10 10 10h9.953125v57.65625h-9.953125c-5.523438 0-10 4.476562-10 10 0 5.519531 4.476562 10 10 10h9.953125v57.65625h-9.953125c-5.523438 0-10 4.476562-10 10 0 5.523437 4.476562 10 10 10h9.953125v57.65625h-9.953125c-5.523438 0-10 4.476562-10 10 0 5.523437 4.476562 10 10 10h9.953125v42.195312h-54.359375zm-172.898438 42.757812c7.195313-7.429687 16.867188-11.523437 27.242188-11.523437 21.1875 0 38.425781 17.238281 38.425781 38.425781v284.894532c-7.683593-6.726563-17.144531-11.472657-27.570312-13.4375v-225.574219c0-5.523438-4.476563-10-10-10-5.523438 0-10 4.476562-10 10v225.296875c-10.453125 1.6875-20.34375 6.222656-28.425781 13.089844v-284.269532c0-.105468 0-.210937-.003907-.320312-.320312-9.929688 3.351563-19.371094 10.332031-26.582032zm461.648438 395.089844h-432.476562c-10.738282 0-21.207032-4.414062-28.734376-12.109375-7.164062-7.324219-10.988281-16.824219-10.765624-26.75 0-.109375 0-.214843-.003907-.324219.003907-.042968.003907-.089843.003907-.136718v-2.851563c.328124-8.996093 3.941406-17.457031 10.328124-24.050781 7.195313-7.429688 16.867188-11.523438 27.242188-11.523438 21.1875 0 38.425781 17.238282 38.425781 38.425782 0 5.523437 4.476563 10 10 10 5.523438 0 10-4.476563 10-10v-328.867188c0-2.8125-.203125-5.582031-.59375-8.292968h67.824219v296.277343c0 5.523438 4.476562 10 10 10h74.359375c5.523437 0 10-4.476562 10-10v-296.277343h39.433594v296.277343c0 5.523438 4.480469 10 10 10h71.722656c5.523437 0 10-4.476562 10-10v-296.277343h83.234375zm0 0" fill="#006DF0"/></svg>
