<?xml version="1.0" encoding="iso-8859-1"?>
<!-- Generator: Adobe Illustrator 19.0.0, SVG Export Plug-In . SVG Version: 6.00 Build 0)  -->
<svg version="1.1" id="Capa_1" xmlns="http://www.w3.org/2000/svg" xmlns:xlink="http://www.w3.org/1999/xlink" x="0px" y="0px"
	 viewBox="0 0 512 512" style="enable-background:new 0 0 512 512;" xml:space="preserve">
<rect y="54.595" style="fill:#D1FEFB;" width="512" height="332"/>
<rect x="256" y="54.595" style="fill:#77FEF6;" width="256" height="332"/>
<polygon style="fill:#FF623F;" points="444.498,383.735 444.498,457.405 403.219,445.62 361.932,457.405 361.932,383.735 "/>
<path style="fill:#FFB74D;" d="M458.982,333.145c0,30.791-24.962,55.762-55.762,55.762s-55.771-24.971-55.771-55.762
	c0-30.801,24.971-55.771,55.771-55.771C434.02,277.373,458.982,302.344,458.982,333.145z"/>
<g>
	<rect x="71.67" y="128.95" style="fill:#7FC8F1;" width="357.33" height="30"/>
	<rect x="71.67" y="200.51" style="fill:#7FC8F1;" width="357.33" height="30"/>
	<rect x="71.67" y="271.72" style="fill:#7FC8F1;" width="223.64" height="30"/>
</g>
<polygon style="fill:#E70020;" points="444.498,383.735 444.498,457.405 403.219,445.62 403.219,383.735 "/>
<path style="fill:#FF9A00;" d="M458.982,333.145c0,30.791-24.962,55.762-55.762,55.762V277.373
	C434.02,277.373,458.982,302.344,458.982,333.145z"/>
<path style="fill:#FF8900;" d="M403.219,263.753c-38.264,0-69.392,31.127-69.392,69.383c0,38.264,31.127,69.392,69.392,69.392
	c38.255,0,69.383-31.127,69.383-69.392C472.602,294.88,441.475,263.753,403.219,263.753z M403.219,375.286
	c-23.245,0-42.151-18.905-42.151-42.151c0-23.237,18.905-42.142,42.151-42.142c23.237,0,42.142,18.905,42.142,42.142
	C445.361,356.381,426.456,375.286,403.219,375.286z"/>
<path style="fill:#E57500;" d="M472.602,333.135c0,38.264-31.127,69.392-69.383,69.392v-27.241
	c23.237,0,42.142-18.905,42.142-42.151c0-23.237-18.905-42.142-42.142-42.142v-27.241
	C441.475,263.753,472.602,294.88,472.602,333.135z"/>
<g>
	<rect x="256" y="271.72" style="fill:#00ACEA;" width="39.31" height="30"/>
	<rect x="256" y="128.95" style="fill:#00ACEA;" width="173" height="30"/>
	<rect x="256" y="200.51" style="fill:#00ACEA;" width="173" height="30"/>
</g>
<g>
</g>
<g>
</g>
<g>
</g>
<g>
</g>
<g>
</g>
<g>
</g>
<g>
</g>
<g>
</g>
<g>
</g>
<g>
</g>
<g>
</g>
<g>
</g>
<g>
</g>
<g>
</g>
<g>
</g>
</svg>
