<?xml version="1.0" encoding="iso-8859-1"?>
<!-- Generator: Adobe Illustrator 19.0.0, SVG Export Plug-In . SVG Version: 6.00 Build 0)  -->
<svg version="1.1" id="Capa_1" xmlns="http://www.w3.org/2000/svg" xmlns:xlink="http://www.w3.org/1999/xlink" x="0px" y="0px"
	 viewBox="0 0 512 512" style="enable-background:new 0 0 512 512;" xml:space="preserve">
<g>
	<circle style="fill:#3B97D3;" cx="70.621" cy="441.379" r="70.621"/>
	<circle style="fill:#E6E7E8;" cx="70.621" cy="432.552" r="26.483"/>
	<path style="fill:#F29C1F;" d="M105.931,489.225v13.241c-21.824,12.712-48.797,12.712-70.621,0v-13.241
		c1.514-18.036,17.258-31.497,35.31-30.19c9.101-0.126,17.942,3.04,24.894,8.916C101.987,473.132,105.807,480.934,105.931,489.225z"
		/>
	<circle style="fill:#3B97D3;" cx="247.173" cy="344.276" r="70.621"/>
	<circle style="fill:#E6E7E8;" cx="247.173" cy="335.448" r="26.483"/>
	<path style="fill:#81CCB8;" d="M282.483,392.121v13.241c-21.824,12.712-48.797,12.712-70.621,0v-13.241
		c1.514-18.036,17.258-31.497,35.31-30.19c9.101-0.126,17.942,3.04,24.894,8.916C278.539,376.029,282.359,383.831,282.483,392.121z"
		/>
	<circle style="fill:#3B97D3;" cx="441.379" cy="441.379" r="70.621"/>
	<circle style="fill:#E6E7E8;" cx="441.379" cy="432.552" r="26.483"/>
	<path style="fill:#CC4B4C;" d="M476.69,489.225v13.241c-21.824,12.712-48.797,12.712-70.621,0v-13.241
		c1.514-18.036,17.258-31.497,35.31-30.19c9.101-0.126,17.942,3.04,24.894,8.916C472.746,473.132,476.566,480.934,476.69,489.225z"
		/>
	<path style="fill:#AF8066;" d="M449.854,12.447c-25.529,0.05-51.034-1.542-76.359-4.767C345.777,4.149,310.025,0,295.283,0
		c-25.335,0-76.182,74.77-88.894,112.11c-8.298,24.541-19.95,65.059-21.01,90.13c-0.129,5.861,2.13,11.523,6.259,15.685
		c4.129,4.162,9.772,6.467,15.634,6.384c13.418,0,20.568-13.153,24.452-24.011c0-0.088,0.088-0.177,0.088-0.353
		c0.177,5.208,3.001,45.55,47.139,26.13c1.236-0.53,2.472-1.059,3.708-1.677l1.235-0.706c0.477,0.942,1.008,1.856,1.59,2.737
		c1.077,1.465,2.257,2.852,3.531,4.149c10.614,10.328,27.521,10.328,38.135,0l19.068-18.714
		c15.095-14.83,57.114-45.462,77.859-61.352c30.685-0.848,60.765-8.731,87.923-23.04V12.447H449.854z M346.218,137.092
		l-49.964,48.993c4.149-38.223,24.805-85.009,33.28-103.283c5.609-2.999,10.444-7.26,14.124-12.447
		c11.808,10.232,20.624,23.471,25.512,38.312C362.202,118.674,354.532,128.173,346.218,137.092z"/>
	<path style="fill:#7F5B53;" d="M329.534,82.803c-8.475,18.273-29.131,65.059-33.28,103.283l-7.239,7.151
		c-5.064,4.867-7.905,11.602-7.857,18.626c-0.019,4.102,0.918,8.152,2.737,11.829l-1.235,0.706
		c-1.236,0.618-2.472,1.148-3.708,1.677c-44.138,19.421-46.963-20.921-47.139-26.13v-0.088
		c6.709-17.92,22.157-64.971,53.054-101.164c15.785-2.214,30.953-7.621,44.579-15.89H329.534z"/>
</g>
<g>
</g>
<g>
</g>
<g>
</g>
<g>
</g>
<g>
</g>
<g>
</g>
<g>
</g>
<g>
</g>
<g>
</g>
<g>
</g>
<g>
</g>
<g>
</g>
<g>
</g>
<g>
</g>
<g>
</g>
</svg>
