<?xml version="1.0" encoding="iso-8859-1"?>
<!-- Generator: Adobe Illustrator 19.0.0, SVG Export Plug-In . SVG Version: 6.00 Build 0)  -->
<svg xmlns="http://www.w3.org/2000/svg" xmlns:xlink="http://www.w3.org/1999/xlink" version="1.1" id="Capa_1" x="0px" y="0px" viewBox="0 0 480 480" style="enable-background:new 0 0 480 480;" xml:space="preserve" width="512px" height="512px">
<g>
	<g>
		<path d="M112,296h-8.208c5.294-6.883,8.179-15.316,8.208-24v-16c0-22.091-17.909-40-40-40s-40,17.909-40,40v16    c0.029,8.684,2.914,17.117,8.208,24H32c-17.673,0-32,14.327-32,32v72c0,4.418,3.582,8,8,8h24v46.112l-7.16,14.312    c-1.975,3.952-0.372,8.757,3.58,10.732c1.112,0.555,2.337,0.844,3.58,0.844h80c4.418,0.002,8.002-3.578,8.004-7.996    c0.001-1.243-0.288-2.468-0.844-3.58L112,454.112V408h24c4.418,0,8-3.582,8-8v-72C144,310.327,129.673,296,112,296z M48,256    c0-13.255,10.745-24,24-24s24,10.745,24,24v16c0,13.255-10.745,24-24,24s-24-10.745-24-24V256z M32,392H16v-16h16V392z M128,392    h-16v-16h16V392z M128,360h-16v-32H96v128c-0.001,1.241,0.286,2.465,0.84,3.576L99.056,464H80v-72H64v72H44.944l2.216-4.424    c0.554-1.111,0.841-2.335,0.84-3.576V328H32v32H16v-32c0-8.837,7.163-16,16-16h80c8.837,0,16,7.163,16,16V360z" fill="#006DF0"/>
	</g>
</g>
<g>
	<g>
		<path d="M448,296h-8.208c5.294-6.883,8.179-15.316,8.208-24v-16c0-22.091-17.909-40-40-40c-22.091,0-40,17.909-40,40v16    c0.029,8.684,2.914,17.117,8.208,24H368c-17.673,0-32,14.327-32,32v72c0,4.418,3.582,8,8,8h24v46.112l-7.2,14.312    c-1.975,3.952-0.372,8.757,3.58,10.732c1.124,0.562,2.364,0.851,3.62,0.844h80c4.418,0.024,8.02-3.538,8.044-7.956    c0.007-1.256-0.282-2.496-0.844-3.62l-7.2-14.312V408h24c4.418,0,8-3.582,8-8v-72C480,310.327,465.673,296,448,296z M384,256    c0-13.255,10.745-24,24-24s24,10.745,24,24v16c0,13.255-10.745,24-24,24s-24-10.745-24-24V256z M368,392h-16v-16h16V392z M464,392    h-16v-16h16V392z M464,360h-16v-32h-16v128c-0.014,1.238,0.26,2.462,0.8,3.576l2.216,4.424H416v-72h-16v72h-19.056l2.216-4.424    c0.554-1.111,0.841-2.335,0.84-3.576V328h-16v32h-16v-32c0-8.837,7.163-16,16-16h80c8.837,0,16,7.163,16,16V360z" fill="#006DF0"/>
	</g>
</g>
<g>
	<g>
		<path d="M312,0v192c0.014,4.393-1.793,8.596-4.992,11.608c-3.199,3.011-7.483,4.596-11.872,4.392    c-8.805-0.945-15.4-8.508-15.136-17.36V136c0-22.091-17.909-40-40-40c-22.091,0-40,17.909-40,40v56    c0.014,4.393-1.793,8.596-4.992,11.608c-3.197,3.014-7.483,4.6-11.872,4.392c-8.805-0.945-15.4-8.508-15.136-17.36V51.312    L219.312,0h-22.624l-42.344,42.344l-47.96,48l-56.568,56c-13.066,13.058-13.073,34.236-0.015,47.303    c5.823,5.826,13.591,9.299,21.815,9.753c0.616,0,1.232,0.056,1.856,0.056c8.834,0.003,17.311-3.492,23.576-9.72l6.952-6.784V192    c-0.086,17.598,14.11,31.934,31.707,32.02c9.399,0.046,18.339-4.06,24.429-11.22c10.266,12.324,28.204,14.856,41.48,5.856    c1.336,4.824,3.573,9.352,6.592,13.344H200c-17.673,0-32,14.327-32,32v72c0,4.418,3.582,8,8,8h24v46.112l-7.16,14.312    c-1.975,3.952-0.372,8.757,3.58,10.732c1.112,0.555,2.337,0.844,3.58,0.844h80c4.418,0.024,8.02-3.538,8.044-7.956    c0.007-1.256-0.282-2.496-0.844-3.62l-7.2-14.312V344h24c4.418,0,8-3.582,8-8v-72c0-17.673-14.327-32-32-32h-8.208    c3.064-4.05,5.321-8.65,6.648-13.552c4.669,3.271,10.157,5.177,15.848,5.504c0.584,0,1.168,0.048,1.744,0.048    c8.192,0.017,16.073-3.137,21.992-8.8c6.353-6.047,9.957-14.429,9.976-23.2V0H312z M104,164.624l-18.2,17.72    c-6.806,6.815-17.848,6.823-24.664,0.017c-0.462-0.461-0.897-0.947-1.304-1.457c-5.555-6.923-5.014-16.917,1.256-23.2L104,115.2    V164.624z M152,190.64V192c0,8.837-7.163,16-16,16s-16-7.163-16-16V99.312l32-32V190.64z M216,136c0-13.255,10.745-24,24-24    s24,10.745,24,24v24.208c-14.13-10.941-33.87-10.941-48,0V136z M216,192c0-13.255,10.745-24,24-24s24,10.745,24,24v16    c0,13.255-10.745,24-24,24s-24-10.745-24-24V192z M200,328h-16v-16h16V328z M296,328h-16v-16h16V328z M280,248    c8.837,0,16,7.163,16,16v32h-16v-32h-16v128c-0.014,1.238,0.26,2.462,0.8,3.576l2.216,4.424H248v-72h-16v72h-19.056l2.216-4.424    c0.554-1.111,0.841-2.335,0.84-3.576V264h-16v32h-16v-32c0-8.837,7.163-16,16-16H280z" fill="#006DF0"/>
	</g>
</g>
<g>
</g>
<g>
</g>
<g>
</g>
<g>
</g>
<g>
</g>
<g>
</g>
<g>
</g>
<g>
</g>
<g>
</g>
<g>
</g>
<g>
</g>
<g>
</g>
<g>
</g>
<g>
</g>
<g>
</g>
</svg>
