<svg height="496pt" viewBox="0 -84 496 496" width="496pt" xmlns="http://www.w3.org/2000/svg"><path d="m376 151.921875c-30.960938 0-56-25.042969-56-55.921875 0 0 16 32 56 32s56-32 56-32c0 30.878906-25.039062 55.921875-56 55.921875zm0 0" fill="#eac6bb"/><path d="m408 8v24c13.28125 0 24 10.71875 24 24v40s-16 32-56 32-56-32-56-32v-40c0-26.558594 21.441406-48 48-48zm0 0" fill="#965353"/><path d="m408 32v-24h-32v40c13.28125 0 24 10.71875 24 24v24c0 11.246094-3.472656 21.625-9.191406 30.390625 29.167968-6.445313 41.191406-30.390625 41.191406-30.390625v-40c0-13.28125-10.71875-24-24-24zm0 0" fill="#844747"/><path d="m390.808594 126.390625c-7.167969 10.96875-17.953125 19.371094-30.808594 23.183594 2.273438.683593 4.632812 1.167969 7.015625 1.5625.503906.078125 1.007813.160156 1.511719.222656 2.449218.335937 4.929687.550781 7.472656.550781 30.960938 0 56-25.039062 56-55.917968 0 .007812-12.023438 23.953124-41.191406 30.398437zm0 0" fill="#d3b1a9"/><path d="m280 208v24h-280v-24zm0 0" fill="#ffd2a6"/><path d="m472 216h24v24h-24zm0 0" fill="#ffd2a6"/><path d="m472 240v88h-192v-160c0-13.28125 10.71875-24 24-24h144c13.28125 0 24 10.71875 24 24zm0 0" fill="#656d78"/><path d="m448 144h-32c13.28125 0 24 10.71875 24 24v160h32v-160c0-13.28125-10.71875-24-24-24zm0 0" fill="#434a54"/><path d="m232 60v10.960938c-13.761719-17.921876-22.078125-21.199219-32-19.121094l16-32.488282c9.921875 10.648438 16 24.96875 16 40.648438zm0 0" fill="#edab37"/><path d="m120 65.121094c-2.558594-.320313-5.199219-.632813-8-1.121094v-4c0-33.121094 26.878906-60 60-60 17.441406 0 33.121094 7.441406 44 19.359375l-16 32.488281c-14.960938 3.113282-33.519531 18.640625-80 13.273438zm0 0" fill="#ffce54"/><path d="m172 0c-2.625 0-5.199219.207031-7.726562.550781-.378907.050781-.738282.121094-1.105469.167969-2.449219.386719-4.847657.867188-7.183594 1.511719 0 0-.007813 0-.015625 0 10.917969 3.027343 20.605469 8.992187 28.03125 17.128906 8.199219 8.800781 13.710938 20.128906 15.398438 32.632813.195312-.039063.410156-.113282.601562-.152344l16-32.488282c-10.878906-11.910156-26.558594-19.351562-44-19.351562zm0 0" fill="#f6bb42"/><path d="m120 65.121094c46.480469 5.367187 65.039062-10.160156 80-13.273438 9.921875-2.085937 18.238281 1.191406 32 19.121094v17.039062c0 22.320313-13.039062 41.601563-32 50.488282-7.28125 3.511718-15.359375 5.441406-24 5.441406s-16.71875-1.921875-24-5.441406c-18.960938-8.878906-32-28.167969-32-50.488282zm0 0" fill="#eac6bb"/><path d="m200 51.839844v36.160156c0 22.320312-13.039062 41.601562-32 50.488281-2.558594 1.230469-5.246094 2.191407-8 3.023438 5.0625 1.527343 10.398438 2.417969 16 2.417969 8.640625 0 16.71875-1.921876 24-5.441407 18.960938-8.878906 32-28.167969 32-50.488281v-17.039062c-13.761719-17.921876-22.078125-21.199219-32-19.121094zm0 0" fill="#d3b1a9"/><path d="m200 138.558594v21.441406l-8 8-16-8-16 8-8-8v-21.519531c7.28125 3.511719 15.359375 5.441406 24 5.441406s16.71875-1.921875 24-5.441406zm0 0" fill="#f5f7fa"/><path d="m248 208h-144v-24c0-13.28125 10.71875-24 24-24h24l8 8 16-8 16 8 8-8h24c13.28125 0 24 10.71875 24 24zm0 0" fill="#e6e9ed"/><path d="m224 160h-24l-1.121094 1.121094c9.898438 2.957031 17.121094 12.015625 17.121094 22.878906v24h32v-24c0-13.28125-10.71875-24-24-24zm0 0" fill="#ccd1d9"/><path d="m88 120h-24v-24zm0 0" fill="#f5f7fa"/><path d="m88 120v72h-72v-96h48v24zm0 0" fill="#e6e9ed"/><path d="m24 232h32v96h-32zm0 0" fill="#f7c292"/><path d="m56 232h224v96h-224zm0 0" fill="#eab081"/><g fill="#434a54"><path d="m424 216h-96c-4.425781 0-8-3.574219-8-8s3.574219-8 8-8h96c4.425781 0 8 3.574219 8 8s-3.574219 8-8 8zm0 0"/><path d="m424 264h-96c-4.425781 0-8-3.574219-8-8s3.574219-8 8-8h96c4.425781 0 8 3.574219 8 8s-3.574219 8-8 8zm0 0"/><path d="m424 312h-96c-4.425781 0-8-3.574219-8-8s3.574219-8 8-8h96c4.425781 0 8 3.574219 8 8s-3.574219 8-8 8zm0 0"/></g></svg>