<?xml version="1.0" encoding="iso-8859-1"?>
<!-- Generator: Adobe Illustrator 19.0.0, SVG Export Plug-In . SVG Version: 6.00 Build 0)  -->
<svg version="1.1" id="Layer_1" xmlns="http://www.w3.org/2000/svg" xmlns:xlink="http://www.w3.org/1999/xlink" x="0px" y="0px"
	 viewBox="0 0 512 512" style="enable-background:new 0 0 512 512;" xml:space="preserve">
<path d="M469.28,396.8V102.4c0-7.04-5.76-12.8-12.8-12.8H55.52c-7.04,0-12.8,5.76-12.8,12.8v294.4
	C42.72,396.8,470.32,396.8,469.28,396.8z"/>
<rect y="396.8" style="fill:#D8D8D8;" width="512" height="8.56"/>
<polygon style="fill:#999999;" points="486.4,422.4 25.6,422.4 0,405.36 512,405.36 "/>
<g>
	<circle style="fill:#FFFFFF;" cx="162.16" cy="124.08" r="8.56"/>
	<circle style="fill:#FFFFFF;" cx="128" cy="124.08" r="8.56"/>
	<circle style="fill:#FFFFFF;" cx="93.92" cy="124.08" r="8.56"/>
</g>
<rect x="187.76" y="119.84" style="fill:#999999;" width="238.96" height="8.56"/>
<g>
	<rect x="375.44" y="303.28" style="fill:#FFFFFF;" width="34.16" height="8.56"/>
	<rect x="320.88" y="303.28" style="fill:#FFFFFF;" width="34.16" height="8.56"/>
	<rect x="266.24" y="303.28" style="fill:#FFFFFF;" width="34.16" height="8.56"/>
	<rect x="211.6" y="303.28" style="fill:#FFFFFF;" width="34.16" height="8.56"/>
	<rect x="157.04" y="303.28" style="fill:#FFFFFF;" width="34.16" height="8.56"/>
	<rect x="102.4" y="303.28" style="fill:#FFFFFF;" width="34.16" height="8.56"/>
	<circle style="fill:#FFFFFF;" cx="145.04" cy="226.48" r="12.96"/>
</g>
<g>
	<path style="fill:#FF6600;" d="M187.76,232.88v-12.8l-13.04-1.28c-0.72-2.72-1.92-5.28-3.36-7.68l8.4-10.24l-9.04-9.04l-10.64,8.72
		c-2.24-1.2-4.64-2.08-7.12-2.64l-1.44-14.08h-6.4h-0.08h-6.4l-1.44,14.08c-2.56,0.56-4.96,1.44-7.12,2.64l-10.64-8.72l-9.04,8.96
		l8.4,10.24c-1.44,2.32-2.56,4.96-3.36,7.68L102.4,220v12.8l13.04,1.28c0.72,2.72,1.84,5.28,3.36,7.68L110.4,252l9.04,9.04
		l10.64-8.72c2.24,1.2,4.64,2.08,7.12,2.64l1.44,14.08h6.4h0.08h6.4l1.44-14.08c2.56-0.56,4.96-1.44,7.12-2.64l10.64,8.72l9.04-9.04
		l-8.4-10.24c1.44-2.32,2.56-4.96,3.36-7.68L187.76,232.88z M145.04,245.68c-10.64,0-19.28-8.64-19.28-19.28s8.64-19.28,19.28-19.28
		s19.28,8.64,19.28,19.28C164.32,237.12,155.68,245.68,145.04,245.68z"/>
	<rect x="207.52" y="183.84" style="fill:#FF6600;" width="202.08" height="8.56"/>
</g>
<g>
	<rect x="207.52" y="209.44" style="fill:#999999;" width="202.08" height="8.56"/>
	<rect x="207.52" y="235.04" style="fill:#999999;" width="202.08" height="8.56"/>
	<rect x="207.52" y="260.64" style="fill:#999999;" width="202.08" height="8.56"/>
</g>
<rect x="102.4" y="337.44" style="fill:#FF6600;" width="307.2" height="8.56"/>
<path style="opacity:0.2;fill:#FFFFFF;enable-background:new    ;" d="M340.64,89.6H54.48c-7.04,0-12.8,5.76-12.8,12.8v138.8
	L340.64,89.6z"/>
<g>
</g>
<g>
</g>
<g>
</g>
<g>
</g>
<g>
</g>
<g>
</g>
<g>
</g>
<g>
</g>
<g>
</g>
<g>
</g>
<g>
</g>
<g>
</g>
<g>
</g>
<g>
</g>
<g>
</g>
</svg>
