<?xml version="1.0" encoding="iso-8859-1"?>
<!-- Generator: Adobe Illustrator 19.0.0, SVG Export Plug-In . SVG Version: 6.00 Build 0)  -->
<svg version="1.1" id="Capa_1" xmlns="http://www.w3.org/2000/svg" xmlns:xlink="http://www.w3.org/1999/xlink" x="0px" y="0px"
	 viewBox="0 0 512 512" style="enable-background:new 0 0 512 512;" xml:space="preserve">
<path style="fill:#51FAFF;" d="M512,85.669v286.532c0,22.193-18.06,40.253-40.263,40.253H40.253C18.06,412.454,0,394.393,0,372.201
	V85.669c0-22.203,18.06-40.263,40.253-40.263h431.484C493.94,45.406,512,63.466,512,85.669z"/>
<path style="fill:#00E7F0;" d="M512,85.669v286.532c0,22.193-18.06,40.253-40.263,40.253H254.964V45.406h216.773
	C493.94,45.406,512,63.466,512,85.669z"/>
<path style="fill:#615AD3;" d="M471.307,397.445v40.023c0,8.295-6.724,15.008-15.008,15.008H254.964c-100.677,0-201.334,0-201.334,0
	c-8.295,0-15.008-6.714-15.008-15.008v-40.023c0-8.285,6.714-15.008,15.008-15.008c0,0,100.657,0,201.334,0h201.334
	C464.583,382.437,471.307,389.16,471.307,397.445z"/>
<path style="fill:#554CCF;" d="M471.307,397.445v40.023c0,8.295-6.724,15.008-15.008,15.008H254.964v-70.04h201.334
	C464.583,382.437,471.307,389.16,471.307,397.445z"/>
<g>
	<path style="fill:#7C75DA;" d="M512,334.96v37.241c0,22.193-18.06,40.253-40.263,40.253H40.253C18.06,412.454,0,394.393,0,372.201
		V334.96H512z"/>
	<path style="fill:#7C75DA;" d="M512,446.603c0,28.126-22.883,51.009-51.009,51.009H50.999C22.883,497.612,0,474.729,0,446.603
		c0-13.308,10.826-24.144,24.144-24.144h463.713C501.164,422.459,512,433.295,512,446.603z"/>
</g>
<path style="fill:#FF4949;" d="M184.374,33.699V176.79c0,6.784-4.092,12.757-10.416,15.219c-1.951,0.75-3.962,1.121-5.953,1.121
	c-4.483,0-8.835-1.851-12.007-5.323l-0.01-0.01l-32.328-35.38l-32.328,35.38c-4.593,5.023-11.647,6.674-17.97,4.212
	c-6.324-2.461-10.416-8.435-10.416-15.219V33.699c0-10.646,8.665-19.311,19.311-19.311h82.807
	C175.71,14.388,184.374,23.053,184.374,33.699z"/>
<g>
	<path style="fill:#FFFFFF;" d="M323.143,141.599h104.822c8.289,0,15.009-6.72,15.009-15.008s-6.72-15.008-15.009-15.008H323.143
		c-8.289,0-15.008,6.72-15.008,15.008S314.854,141.599,323.143,141.599z"/>
	<path style="fill:#FFFFFF;" d="M427.965,163.1h-167.13c-8.289,0-15.008,6.72-15.008,15.008c0,8.289,6.72,15.009,15.008,15.009
		h167.13c8.289,0,15.009-6.72,15.009-15.009C442.974,169.82,436.254,163.1,427.965,163.1z"/>
	<path style="fill:#FFFFFF;" d="M427.965,217.835h-89.87c-8.289,0-15.009,6.72-15.009,15.008c0,8.289,6.72,15.008,15.009,15.008
		h89.87c8.289,0,15.009-6.72,15.009-15.008C442.974,224.555,436.254,217.835,427.965,217.835z"/>
	<path style="fill:#FFFFFF;" d="M159.227,247.852h129.688c8.289,0,15.009-6.72,15.009-15.008c0-8.289-6.72-15.008-15.009-15.008
		H159.227c-8.289,0-15.008,6.72-15.008,15.008C144.219,241.133,150.938,247.852,159.227,247.852z"/>
	<path style="fill:#FFFFFF;" d="M77.954,247.852h31.378c8.289,0,15.008-6.72,15.008-15.008c0-8.289-6.72-15.008-15.008-15.008
		H77.954c-8.289,0-15.008,6.72-15.008,15.008C62.946,241.133,69.665,247.852,77.954,247.852z"/>
	<path style="fill:#FFFFFF;" d="M167.825,270.404H77.954c-8.289,0-15.008,6.72-15.008,15.009s6.72,15.008,15.008,15.008h89.87
		c8.289,0,15.008-6.72,15.008-15.008S176.114,270.404,167.825,270.404z"/>
	<path style="fill:#FFFFFF;" d="M346.693,270.404H217.005c-8.289,0-15.008,6.72-15.008,15.009s6.72,15.008,15.008,15.008h129.688
		c8.289,0,15.008-6.72,15.008-15.008S354.982,270.404,346.693,270.404z"/>
	<path style="fill:#FFFFFF;" d="M427.965,270.404h-31.378c-8.289,0-15.009,6.72-15.009,15.009s6.72,15.008,15.009,15.008h31.378
		c8.289,0,15.009-6.72,15.009-15.008S436.254,270.404,427.965,270.404z"/>
</g>
<g>
	<path style="fill:#615AD3;" d="M512,446.603c0,28.126-22.883,51.009-51.009,51.009H254.964v-75.153h232.892
		C501.164,422.459,512,433.295,512,446.603z"/>
	<path style="fill:#615AD3;" d="M512,334.96v37.241c0,22.193-18.06,40.253-40.263,40.253H254.964V334.96L512,334.96L512,334.96z"/>
</g>
<path style="fill:#F30051;" d="M184.374,33.699V176.79c0,6.784-4.092,12.757-10.416,15.219c-1.951,0.75-3.962,1.121-5.953,1.121
	c-4.483,0-8.835-1.851-12.007-5.323l-0.01-0.01l-32.328-35.38V14.388h41.403C175.71,14.388,184.374,23.053,184.374,33.699z"/>
<g>
</g>
<g>
</g>
<g>
</g>
<g>
</g>
<g>
</g>
<g>
</g>
<g>
</g>
<g>
</g>
<g>
</g>
<g>
</g>
<g>
</g>
<g>
</g>
<g>
</g>
<g>
</g>
<g>
</g>
</svg>
