<?xml version="1.0" encoding="iso-8859-1"?>
<!-- Generator: Adobe Illustrator 19.0.0, SVG Export Plug-In . SVG Version: 6.00 Build 0)  -->
<svg version="1.1" id="Capa_1" xmlns="http://www.w3.org/2000/svg" xmlns:xlink="http://www.w3.org/1999/xlink" x="0px" y="0px"
	 viewBox="0 0 512 512" style="enable-background:new 0 0 512 512;" xml:space="preserve">
<path style="fill:#EBEEF2;" d="M317.254,42.771H85.201c-12.975,0-23.53,10.556-23.53,23.531v326.825
	c0,12.976,10.556,23.531,23.53,23.531h232.054c12.976,0,23.531-10.556,23.531-23.531V66.303
	C340.786,53.327,330.23,42.771,317.254,42.771z"/>
<path style="fill:#D1D6DE;" d="M317.254,42.771h-27.332c12.976,0,23.531,10.556,23.531,23.531v326.825
	c0,12.976-10.556,23.531-23.531,23.531h27.332c12.976,0,23.531-10.556,23.531-23.531V66.303
	C340.786,53.327,330.23,42.771,317.254,42.771z"/>
<path style="fill:#444966;" d="M231.309,45.081h-60.162c-4.143,0-7.5-3.357-7.5-7.5C163.647,16.858,180.505,0,201.228,0
	s37.581,16.858,37.581,37.581C238.809,41.724,235.452,45.081,231.309,45.081z M179.927,30.081h42.602
	C219.43,21.306,211.051,15,201.228,15S183.026,21.306,179.927,30.081z"/>
<path style="fill:#ED5575;" d="M443.959,367.44l-20.9-3.2c-1.29-3.78-2.82-7.47-4.57-11.05L431,336.15c2.2-2.98,1.88-7.12-0.74-9.74
	l-28.43-28.43c-2.62-2.62-6.75-2.93-9.74-0.74l-17.04,12.51c-3.57-1.75-7.27-3.28-11.05-4.57l-3.2-20.9
	c-0.56-3.66-3.71-6.37-7.41-6.37h-40.21c-3.7,0-6.85,2.71-7.41,6.37l-3.2,20.9c-3.78,1.29-7.48,2.82-11.05,4.57l-17.04-12.51
	c-2.98-2.19-7.12-1.88-9.74,0.74l-28.43,28.43c-2.62,2.62-2.94,6.76-0.74,9.74l12.51,17.04c-1.75,3.58-3.28,7.27-4.57,11.05
	l-20.9,3.2c-3.66,0.56-6.37,3.71-6.37,7.41v40.21c0,3.7,2.71,6.85,6.37,7.41l20.9,3.2c1.29,3.78,2.82,7.48,4.57,11.05l-12.51,17.04
	c-2.2,2.99-1.88,7.12,0.74,9.74l28.43,28.43c2.62,2.62,6.76,2.94,9.74,0.75l17.04-12.52c3.57,1.75,7.27,3.28,11.05,4.57l3.2,20.9
	c0.56,3.67,3.71,6.37,7.41,6.37h40.21c3.7,0,6.85-2.7,7.41-6.37l3.2-20.9c3.78-1.29,7.48-2.82,11.05-4.57l17.04,12.52
	c2.99,2.19,7.12,1.87,9.74-0.75l28.43-28.43c2.62-2.62,2.94-6.75,0.74-9.74l-12.51-17.04c1.75-3.57,3.28-7.27,4.57-11.05l20.9-3.2
	c3.66-0.56,6.37-3.71,6.37-7.41v-40.21C450.329,371.15,447.62,368,443.959,367.44z M380.12,394.96c0,25.86-20.97,46.83-46.83,46.83
	c-25.87,0-46.84-20.97-46.84-46.83c0-25.87,20.97-46.84,46.84-46.84C359.148,348.12,380.12,369.09,380.12,394.96z"/>
<path style="fill:#CC3A60;" d="M333.285,330.575c-35.556,0-64.38,28.824-64.38,64.38s28.824,64.38,64.38,64.38
	s64.38-28.824,64.38-64.38S368.841,330.575,333.285,330.575z M333.29,441.79c-25.87,0-46.84-20.97-46.84-46.83
	c0-25.87,20.97-46.84,46.84-46.84c25.86,0,46.83,20.97,46.83,46.84C380.12,420.82,359.148,441.79,333.29,441.79z"/>
<path style="fill:#F9C295;" d="M201.228,116.333L201.228,116.333c-21.353,0-38.663,17.31-38.663,38.663v18.64
	c0,21.353,17.31,38.663,38.663,38.663l0,0c21.353,0,38.663-17.31,38.663-38.663v-18.64
	C239.89,133.643,222.58,116.333,201.228,116.333z"/>
<path style="fill:#5C9CEE;" d="M258.47,270.141c-16.323,11.08-36.025,17.552-57.242,17.552s-40.919-6.472-57.242-17.552
	c1.865-15.982,12.926-29.134,27.736-34.083l-0.016-0.025c2.994-0.998,4.66-1.228,4.767-1.282c8.288-1.69,12.804-0.326,41.248-0.837
	c2.941,0,5.628,0.3,8.262,0.837c0.119,0.059,1.826,0.302,4.767,1.282l-0.016,0.025C245.544,241.007,256.605,254.159,258.47,270.141z
	"/>
<g>
	<path style="fill:#444966;" d="M226.383,125.654c0-0.002,0.001-0.003,0.001-0.005c-24.618-21.094-63.819-4.143-63.819,29.346v3.574
		c5.693,2.512,11.984,3.917,18.607,3.917c13.6,0,25.819-5.889,34.265-15.249c5.341,8.23,14.201,13.964,24.453,15.056
		C239.348,159.236,243.168,140.047,226.383,125.654z"/>
	<path style="fill:#444966;" d="M373.148,146.658h-85.481c-4.143,0-7.5-3.357-7.5-7.5s3.357-7.5,7.5-7.5h85.481
		c4.143,0,7.5,3.357,7.5,7.5S377.292,146.658,373.148,146.658z"/>
	<path style="fill:#444966;" d="M373.148,234.586h-85.481c-4.143,0-7.5-3.357-7.5-7.5s3.357-7.5,7.5-7.5h85.481
		c4.143,0,7.5,3.357,7.5,7.5S377.292,234.586,373.148,234.586z"/>
</g>
<g>
	<path style="fill:#9FD479;" d="M392.417,112.391c-14.76,0-26.768,12.008-26.768,26.768s12.008,26.768,26.768,26.768
		s26.768-12.008,26.768-26.768S407.176,112.391,392.417,112.391z"/>
	<path style="fill:#9FD479;" d="M392.417,200.318c-14.76,0-26.768,12.008-26.768,26.768s12.008,26.768,26.768,26.768
		s26.768-12.008,26.768-26.768S407.176,200.318,392.417,200.318z"/>
</g>
<path style="fill:#F2DF33;" d="M248.524,30.081h-94.593c-8.155,0-14.79,6.635-14.79,14.79v23.423c0,8.155,6.635,14.79,14.79,14.79
	h94.593c8.155,0,14.79-6.635,14.79-14.79V44.871C263.314,36.716,256.678,30.081,248.524,30.081z"/>
<path style="fill:#D9B92C;" d="M248.524,30.081h-14.5c8.155,0,14.79,6.635,14.79,14.79v23.423c0,8.155-6.635,14.79-14.79,14.79h14.5
	c8.155,0,14.79-6.635,14.79-14.79V44.871C263.314,36.716,256.678,30.081,248.524,30.081z"/>
<g>
</g>
<g>
</g>
<g>
</g>
<g>
</g>
<g>
</g>
<g>
</g>
<g>
</g>
<g>
</g>
<g>
</g>
<g>
</g>
<g>
</g>
<g>
</g>
<g>
</g>
<g>
</g>
<g>
</g>
</svg>
