<?xml version="1.0" encoding="iso-8859-1"?>
<!-- Generator: Adobe Illustrator 19.0.0, SVG Export Plug-In . SVG Version: 6.00 Build 0)  -->
<svg version="1.1" id="Capa_1" xmlns="http://www.w3.org/2000/svg" xmlns:xlink="http://www.w3.org/1999/xlink" x="0px" y="0px"
	 viewBox="0 0 512 512" style="enable-background:new 0 0 512 512;" xml:space="preserve">
<path style="fill:#6B77E8;" d="M371,512H51V0h320V512z"/>
<rect x="211" style="fill:#3A4DE2;" width="160" height="512"/>
<path style="fill:#C3C8F6;" d="M371,412H51V90h320V412z"/>
<rect x="211" y="90" style="fill:#979FEF;" width="160" height="322"/>
<g>
	<rect x="177" y="45" style="fill:#FFDB2D;" width="68" height="30"/>
	<circle style="fill:#FFDB2D;" cx="211" cy="447" r="15"/>
	<path style="fill:#FFDB2D;" d="M358,484.252L255,425.73V308.271l103-58.522l103,58.522V425.73L358,484.252z"/>
	<path style="fill:#FFDB2D;" d="M185.147,197.939v42.725c0,2.795-0.664,5.413-1.99,7.854c-1.328,2.445-3.109,4.643-5.34,6.596
		c2.095,1.957,3.839,4.157,5.236,6.598c1.394,2.445,2.095,5.063,2.095,7.854v45.027h11.518V337h-32.042
		c-0.978,0-2.026-0.419-3.141-1.256c-1.119-0.837-1.676-2.513-1.676-5.026v-51.939c0-3.628-1.047-6.735-3.141-9.319
		c-2.095-2.582-4.539-4.153-7.33-4.712V245.06c1.394,0,2.755-0.419,4.084-1.256c1.325-0.837,2.441-1.954,3.351-3.351
		c0.906-1.394,1.64-2.861,2.199-4.398c0.556-1.535,0.837-3.069,0.837-4.608v-49.635c0-2.65,0.628-4.362,1.885-5.131
		c1.256-0.765,2.232-1.151,2.932-1.151h32.042v22.408L185.147,197.939L185.147,197.939z"/>
</g>
<g>
	<rect x="211" y="45" style="fill:#FFB64C;" width="34" height="30"/>
	<path style="fill:#FFB64C;" d="M211,432v30c8.284,0,15-6.716,15-15S219.284,432,211,432z"/>
	<polygon style="fill:#FFB64C;" points="358,249.748 358,484.252 461,425.729 461,308.271 	"/>
</g>
<g>
	<path style="fill:#FF52A0;" d="M300.201,365.16l33.92-20.641v16.16l-11.841,7.601l11.841,6.96v16.96l-33.92-20V365.16z"/>
	<path style="fill:#FF52A0;" d="M342.68,389v-14.72H355V389H342.68z"/>
</g>
<g>
	<path style="fill:#FF318E;" d="M363,389v-14.72h12.32V389H363z"/>
	<path style="fill:#FF318E;" d="M417.801,372.2l-33.921,20v-16.96l11.841-6.96l-11.841-7.601v-16.16l33.921,20.641V372.2z"/>
</g>
<path style="fill:#FF52A0;" d="M358,262.252L255,203.73V86.271l103-58.522l103,58.522V203.73L358,262.252z"/>
<polygon style="fill:#FF318E;" points="358,27.748 358,262.252 461,203.729 461,86.271 "/>
<path style="fill:#FFDBA9;" d="M403,145c0-2.808-0.271-5.552-0.766-8.219l15.228-8.791l-15-25.98l-15.249,8.803
	c-4.155-3.556-8.959-6.37-14.213-8.233V85h-30v17.58c-5.254,1.864-10.058,4.677-14.213,8.233l-15.249-8.803l-15,25.98l15.228,8.791
	C313.271,139.448,313,142.192,313,145s0.271,5.552,0.766,8.219l-15.228,8.791l15,25.98l15.249-8.803
	c4.155,3.556,8.959,6.37,14.213,8.233V205h30v-17.58c5.254-1.864,10.058-4.677,14.213-8.233l15.249,8.803l15-25.98l-15.228-8.791
	C402.729,150.552,403,147.808,403,145z M358,160c-8.271,0-15-6.729-15-15s6.729-15,15-15s15,6.729,15,15S366.271,160,358,160z"/>
<path style="fill:#FFC473;" d="M403,145c0-2.808-0.271-5.552-0.766-8.219l15.228-8.791l-15-25.98l-15.249,8.803
	c-4.155-3.556-8.959-6.37-14.213-8.233V85h-15v45c8.271,0,15,6.729,15,15s-6.729,15-15,15v45h15v-17.58
	c5.254-1.864,10.058-4.677,14.213-8.233l15.249,8.803l15-25.98l-15.228-8.791C402.729,150.552,403,147.808,403,145z"/>
<g>
</g>
<g>
</g>
<g>
</g>
<g>
</g>
<g>
</g>
<g>
</g>
<g>
</g>
<g>
</g>
<g>
</g>
<g>
</g>
<g>
</g>
<g>
</g>
<g>
</g>
<g>
</g>
<g>
</g>
</svg>
