<?xml version="1.0" encoding="iso-8859-1"?>
<!-- Generator: Adobe Illustrator 19.0.0, SVG Export Plug-In . SVG Version: 6.00 Build 0)  -->
<svg version="1.1" id="Capa_1" xmlns="http://www.w3.org/2000/svg" xmlns:xlink="http://www.w3.org/1999/xlink" x="0px" y="0px"
	 viewBox="0 0 409.6 409.6" style="enable-background:new 0 0 409.6 409.6;" xml:space="preserve">
<rect x="204.268" y="131.036" style="fill:#EBF0F3;" width="9.585" height="95.826"/>
<path style="fill:#2D93BA;" d="M171.287,60.572c35.183-15.284,49.204,7.917,49.204,7.917c39.992-6.118,41.876,27.85,41.876,27.85
	c11.505,4.108,23.251,14.283,23.251,26.184c0,15.534-13.874,28.127-30.988,28.127h-88.647
	c-10.085-1.523-30.988-12.593-30.988-28.127c0-11.901,6.781-25.994,18.285-30.102C153.28,92.42,152.233,68.849,171.287,60.572z"/>
<path style="fill:#27A2DB;" d="M254.63,150.649c17.114,0,30.988-12.593,30.988-28.127c0-11.901-11.746-22.075-23.251-26.184
	c0,0-1.884-33.968-41.876-27.85c0,0-5.858-9.694-19.504-12.422v94.582H254.63z"/>
<g>
	<rect x="19.471" y="337.664" style="fill:#EBF0F3;" width="10.02" height="6.682"/>
	<rect x="102.963" y="337.664" style="fill:#EBF0F3;" width="10.02" height="6.682"/>
</g>
<path style="fill:#3EA69B;" d="M130.206,252.389c0-1.885-1.528-3.414-3.414-3.414H11.237c-1.885,0-3.414,1.528-3.414,3.414v71.023
	h122.383V252.389z"/>
<path style="fill:#31978C;" d="M7.823,321.368v15.012c0,2.115,1.528,3.829,3.414,3.829h115.555c1.885,0,3.414-1.714,3.414-3.829
	v-15.012H7.823z"/>
<rect x="14.5" y="255.652" style="fill:#D5D6DB;" width="109.03" height="75.423"/>
<path style="fill:#44C4A1;" d="M138.029,339.677v8.309c0,3.454-3.169,6.253-7.079,6.253H7.079c-3.909,0-7.079-2.8-7.079-6.253
	v-8.309H138.029z"/>
<g>
	<path style="fill:#EBF0F3;" d="M82.322,349.88H55.707c-1.105,0-2.008-0.904-2.008-2.008v-1.826c0-1.105,0.904-2.008,2.008-2.008
		h26.615c1.105,0,2.008,0.904,2.008,2.008v1.826C84.33,348.976,83.426,349.88,82.322,349.88z"/>
	<circle style="fill:#EBF0F3;" cx="67.379" cy="252.262" r="2.488"/>
</g>
<g>
	<circle style="fill:#D5D6DB;" cx="67.379" cy="252.262" r="1.51"/>
	<path style="fill:#D5D6DB;" d="M75.973,349.88H62.056c-1.105,0-2.008-0.904-2.008-2.008v-1.826c0-1.105,0.904-2.008,2.008-2.008
		h13.916c1.105,0,2.008,0.904,2.008,2.008v1.826C77.981,348.976,77.077,349.88,75.973,349.88z"/>
</g>
<rect x="329.83" y="336.077" style="fill:#2F4859;" width="34.852" height="11.049"/>
<path style="fill:#64798A;" d="M409.6,247.806c0-1.92-1.557-3.477-3.477-3.477H288.435c-1.92,0-3.477,1.557-3.477,3.477v72.334
	H409.6V247.806z"/>
<rect x="291.758" y="251.136" style="fill:#D5D6DB;" width="111.043" height="69.012"/>
<path style="fill:#64798A;" d="M284.958,320.141v13.631c0,1.92,1.557,3.477,3.477,3.477h117.688c1.92,0,3.477-1.557,3.477-3.477
	v-13.631H284.958z"/>
<circle style="fill:#D5D6DB;" cx="347.29" cy="328.704" r="4.726"/>
<path style="fill:#64798A;" d="M368.932,346.328h-43.306c-4.369,0-7.912,3.542-7.912,7.912v0h59.129v0
	C376.843,349.87,373.301,346.328,368.932,346.328z"/>
<path style="fill:#F6C358;" d="M241.581,354.24h-55.218c-6.316,0-11.437-5.12-11.437-11.437v-91.06
	c0-6.316,5.12-11.437,11.437-11.437h55.561c2.078,0,3.762,1.684,3.762,3.762v106.066C245.686,352.402,243.849,354.24,241.581,354.24
	z"/>
<path style="fill:#FCD462;" d="M208.157,354.24h-25.887c-4.056,0-7.343-3.656-7.343-8.167v-97.6c0-4.51,3.288-8.167,7.343-8.167
	h25.887"/>
<path style="fill:#D5D6DB;" d="M232.183,251.794H188.43c-3.137,0-5.68,2.543-5.68,5.68v80.644c0,3.136,2.543,5.681,5.68,5.681
	h43.753c3.137,0,5.68-2.545,5.68-5.681v-80.644C237.863,254.337,235.32,251.794,232.183,251.794z"/>
<ellipse style="fill:#FFFFFF;" cx="206.746" cy="348.928" rx="2.99" ry="3.272"/>
<ellipse style="fill:#EBF0F3;" cx="206.746" cy="348.928" rx="2.294" ry="2.509"/>
<path style="fill:#D5D6DB;" d="M207.083,350.528h-0.642c-0.609,0-1.106-0.547-1.106-1.219v-0.722c0-0.672,0.497-1.219,1.106-1.219
	h0.642c0.609,0,1.106,0.547,1.106,1.219v0.722C208.189,349.98,207.692,350.528,207.083,350.528z M206.441,347.775
	c-0.407,0-0.737,0.364-0.737,0.812v0.722c0,0.448,0.33,0.812,0.737,0.812h0.642c0.407,0,0.737-0.364,0.737-0.812v-0.722
	c0-0.448-0.33-0.812-0.737-0.812H206.441z"/>
<path style="fill:#FFFFFF;" d="M216.423,248.136h-15.371c-0.281,0-0.509-0.228-0.509-0.509v-0.463c0-0.281,0.228-0.509,0.509-0.509
	h15.371c0.281,0,0.509,0.228,0.509,0.509v0.463C216.932,247.908,216.704,248.136,216.423,248.136z"/>
<g>
	<polygon style="fill:#EBF0F3;" points="352.071,240.307 342.488,240.307 342.488,211.587 209.322,183.638 211.291,174.261 
		352.071,203.808 	"/>
	<polygon style="fill:#EBF0F3;" points="74.333,240.307 64.75,240.307 64.75,203.808 205.531,174.261 207.499,183.638 
		74.333,211.587 	"/>
</g>
<g>
</g>
<g>
</g>
<g>
</g>
<g>
</g>
<g>
</g>
<g>
</g>
<g>
</g>
<g>
</g>
<g>
</g>
<g>
</g>
<g>
</g>
<g>
</g>
<g>
</g>
<g>
</g>
<g>
</g>
</svg>
