<?xml version="1.0" encoding="iso-8859-1"?>
<!-- Generator: Adobe Illustrator 19.0.0, SVG Export Plug-In . SVG Version: 6.00 Build 0)  -->
<svg version="1.1" id="Capa_1" xmlns="http://www.w3.org/2000/svg" xmlns:xlink="http://www.w3.org/1999/xlink" x="0px" y="0px"
	 viewBox="0 0 512 512" style="enable-background:new 0 0 512 512;" xml:space="preserve">
<polygon style="fill:#29ADFF;" points="502,187 413.734,123.132 98.267,123.132 10,187 98.267,250.868 413.734,250.868 "/>
<path style="fill:#FFFFFF;" d="M64,336.501h384V30c0-11.046-8.954-20-20-20H84c-11.046,0-20,8.954-20,20V336.501z"/>
<path style="fill:#7ACCFF;" d="M10,187v275c0,22.091,17.909,40,40,40h412c22.091,0,40-17.909,40-40V187L260.084,385.461L10,187z"/>
<path style="fill:#C7EAFF;" d="M11.278,472.062C15.74,489.282,31.384,502,50,502h412c18.616,0,34.26-12.718,38.722-29.938
	L279.448,311.953c-13.993-10.125-32.904-10.125-46.897,0L11.278,472.062z"/>
<path d="M299.67,444c-2.63,0-5.21,1.07-7.07,2.93c-1.859,1.86-2.93,4.44-2.93,7.07s1.07,5.21,2.93,7.07
	c1.86,1.86,4.44,2.93,7.07,2.93s5.21-1.07,7.07-2.93c1.859-1.86,2.93-4.44,2.93-7.07s-1.07-5.21-2.93-7.07
	C304.88,445.07,302.3,444,299.67,444z"/>
<path d="M512,187.04V187c0-0.195-0.009-0.367-0.024-0.525c-0.106-2.051-0.832-4.087-2.23-5.8c-0.519-0.635-1.104-1.18-1.731-1.653
	c-0.052-0.041-0.096-0.083-0.153-0.125L458,142.82V30c0-16.542-13.458-30-30-30H84C67.458,0,54,13.458,54,30v112.819l-49.862,36.08
	c-2.701,1.955-4.126,5.008-4.128,8.105C0.006,187.002,0.003,187.001,0,187v275c0,27.57,22.43,50,50,50h412c27.57,0,50-22.43,50-50
	V187.053C512,187.049,512,187.044,512,187.04z M492,453.407L332.698,338.139L492,208.074V453.407z M485.603,187.479L458,210.015
	v-42.509L485.603,187.479z M84,20h344c5.514,0,10,4.486,10,10v196.344l-122.067,99.664l-30.622-22.157
	c-17.532-12.686-41.091-12.685-58.621,0l-30.623,22.158L74,226.345V30C74,24.486,78.486,20,84,20z M20,208.074L179.302,338.14
	L20,453.407V208.074z M54,210.015l-27.603-22.537L54,167.506V210.015z M462,492H50c-11.611,0-21.695-6.635-26.68-16.309
	l215.094-155.637c10.518-7.611,24.654-7.611,35.172,0L444.882,444H345c-5.522,0-10,4.477-10,10s4.478,10,10,10h127.522
	l16.158,11.691C483.695,485.365,473.611,492,462,492z"/>
<path d="M157.73,158.457c17.237,0,31.262-14.024,31.262-31.262V74h11.262c5.522,0,10-4.477,10-10s-4.478-10-10-10H157.73
	c-5.522,0-10,4.477-10,10s4.478,10,10,10h11.262v53.195c0,6.21-5.052,11.262-11.262,11.262s-11.262-5.052-11.262-11.262
	c0-5.523-4.478-10-10-10s-10,4.477-10,10C126.469,144.433,140.493,158.457,157.73,158.457z"/>
<path d="M258.541,158.457c28.799,0,52.229-23.43,52.229-52.229S287.34,54,258.541,54s-52.229,23.429-52.229,52.228
	S229.742,158.457,258.541,158.457z M258.541,74c17.771,0,32.229,14.458,32.229,32.228c0,17.771-14.458,32.229-32.229,32.229
	s-32.229-14.458-32.229-32.229C226.313,88.458,240.771,74,258.541,74z"/>
<path d="M333.008,162h20.523c17.645,0,32-14.355,32-32c0-8.517-3.351-16.26-8.795-22c5.444-5.74,8.795-13.483,8.795-22
	c0-17.645-14.355-32-32-32h-20.523c-5.522,0-10,4.477-10,10v44v44C323.008,157.523,327.485,162,333.008,162z M353.531,142h-10.523
	v-24h10.523c6.617,0,12,5.383,12,12C365.531,136.617,360.148,142,353.531,142z M343.008,74h10.523c6.617,0,12,5.383,12,12
	s-5.383,12-12,12h-10.523V74z"/>
<path d="M348.357,246h-142c-5.522,0-10,4.477-10,10c0,5.523,4.478,10,10,10h142c5.522,0,10-4.477,10-10S353.88,246,348.357,246z"/>
<path d="M163.64,190c-2.63,0-5.21,1.07-7.07,2.93c-1.859,1.86-2.93,4.44-2.93,7.07c0,2.64,1.07,5.21,2.93,7.07
	c1.86,1.86,4.44,2.93,7.07,2.93s5.21-1.07,7.07-2.93c1.87-1.86,2.93-4.44,2.93-7.07s-1.06-5.21-2.93-7.07
	C168.85,191.07,166.279,190,163.64,190z"/>
<path d="M163.64,246c-2.63,0-5.21,1.07-7.07,2.93c-1.859,1.86-2.93,4.44-2.93,7.07s1.07,5.21,2.93,7.07
	c1.86,1.86,4.44,2.93,7.07,2.93s5.21-1.07,7.07-2.93c1.87-1.86,2.93-4.44,2.93-7.07s-1.06-5.21-2.93-7.07
	C168.85,247.07,166.27,246,163.64,246z"/>
<path d="M348.357,190h-142c-5.522,0-10,4.477-10,10s4.478,10,10,10h142c5.522,0,10-4.477,10-10S353.88,190,348.357,190z"/>
<g>
</g>
<g>
</g>
<g>
</g>
<g>
</g>
<g>
</g>
<g>
</g>
<g>
</g>
<g>
</g>
<g>
</g>
<g>
</g>
<g>
</g>
<g>
</g>
<g>
</g>
<g>
</g>
<g>
</g>
</svg>
