<?xml version="1.0" encoding="utf-8"?>
<!-- Generator: Adobe Illustrator 21.0.2, SVG Export Plug-In . SVG Version: 6.00 Build 0)  -->
<svg version="1.1" id="Layer_1" xmlns="http://www.w3.org/2000/svg"  x="0px" y="0px"
	 viewBox="0 0 206 206" style="enable-background:new 0 0 206 206;" xml:space="preserve">
<style type="text/css">
	.st0{fill:#CFF3FF;}
	.st1{filter:url(#Adobe_OpacityMaskFilter);}
	.st2{fill:#FFFFFF;}
	.st3{mask:url(#mask-2_1_);fill:#F0F2A0;}
	.st4{filter:url(#Adobe_OpacityMaskFilter_1_);}
	.st5{mask:url(#mask-2_2_);fill:#FFCFFA;}
	.st6{filter:url(#Adobe_OpacityMaskFilter_2_);}
	.st7{mask:url(#mask-4_1_);fill:#A1EDF8;}
	.st8{fill:#FFCFFA;}
	.st9{fill:#F0F2A0;}
	.st10{fill:#A3EFA3;}
	.st11{fill:#F4A6A6;}
	.st12{fill:#A1EDF8;}
	.st13{filter:url(#Adobe_OpacityMaskFilter_3_);}
	.st14{mask:url(#mask-6_1_);fill:#A1EDF8;}
</style>
<g id="Group-142" transform="translate(323.617021, 113.116565)">
	<defs>
		<filter id="Adobe_OpacityMaskFilter" filterUnits="userSpaceOnUse" x="-143.4" y="4.2" width="12.5" height="27.7">
			<feColorMatrix  type="matrix" values="1 0 0 0 0  0 1 0 0 0  0 0 1 0 0  0 0 0 1 0"/>
		</filter>
	</defs>
	<mask maskUnits="userSpaceOnUse" x="-143.4" y="4.2" width="12.5" height="27.7" id="mask-2_1_">
		<g class="st1">
			<polygon id="path-1_1_" class="st2" points="-145.2,31.1 -143.1,3.9 -129.2,4.9 -131.3,32.2 			"/>
		</g>
	</mask>
	<path id="Fill-140" class="st3" d="M-140.1,4.3L-140.1,4.3c2.3-0.5,4.5,1,5,3.2l4.1,19.3c0.5,2.3-1,4.5-3.2,5c-2.3,0.5-4.5-1-5-3.2
		l-4.1-19.3C-143.8,7-142.4,4.7-140.1,4.3"/>
</g>
<g id="Group-142_1_" transform="translate(323.617021, 113.116565)">
	<defs>
		<filter id="Adobe_OpacityMaskFilter_1_" filterUnits="userSpaceOnUse" x="-294.9" y="48.1" width="25.2" height="18.7">
			<feColorMatrix  type="matrix" values="1 0 0 0 0  0 1 0 0 0  0 0 1 0 0  0 0 0 1 0"/>
		</filter>
	</defs>
	<mask maskUnits="userSpaceOnUse" x="-294.9" y="48.1" width="25.2" height="18.7" id="mask-2_2_">
		<g class="st4">
			<polygon id="path-1_2_" class="st2" points="-286.4,42.6 -268,62.8 -278.3,72.2 -296.7,52 			"/>
		</g>
	</mask>
	<path id="Fill-140_1_" class="st5" d="M-270.3,64.7L-270.3,64.7c-1.2,2-3.8,2.6-5.8,1.4l-16.8-10.3c-2-1.2-2.6-3.8-1.4-5.8
		c1.2-2,3.8-2.6,5.8-1.4l16.8,10.3C-269.8,60.1-269.1,62.7-270.3,64.7"/>
</g>
<g id="Group-147" transform="translate(0.000000, 169.849550)">
	<defs>
		<filter id="Adobe_OpacityMaskFilter_2_" filterUnits="userSpaceOnUse" x="87.4" y="-38.7" width="23" height="21.7">
			<feColorMatrix  type="matrix" values="1 0 0 0 0  0 1 0 0 0  0 0 1 0 0  0 0 0 1 0"/>
		</filter>
	</defs>
	<mask maskUnits="userSpaceOnUse" x="87.4" y="-38.7" width="23" height="21.7" id="mask-4_1_">
		<g class="st6">
			<polygon id="path-3_1_" class="st2" points="108.4,-15.4 87,-17.5 89.2,-40.4 110.7,-38.3 			"/>
		</g>
	</mask>
	<path id="Fill-145" class="st7" d="M109.2-37.3L109.2-37.3c1.6,1.7,1.4,4.4-0.3,5.9L94.4-18.2c-1.7,1.6-4.4,1.4-5.9-0.3
		c-1.6-1.7-1.4-4.4,0.3-5.9l14.5-13.3C105-39.2,107.6-39.1,109.2-37.3"/>
</g>
<path id="Fill-148" class="st8" d="M151.7,103.6c0.8,2.6-0.7,5.3-3.3,6c-2.6,0.8-5.3-0.7-6-3.3c-0.8-2.6,0.7-5.3,3.3-6
	S151,101,151.7,103.6"/>
<path id="Fill-150" class="st9" d="M186.4,56.1L186.4,56.1c0.1,2.3-1.7,4.3-4,4.4l-19.7,0.9c-2.3,0.1-4.3-1.7-4.4-4
	c-0.1-2.3,1.7-4.3,4-4.4l19.7-0.9C184.4,51.9,186.3,53.7,186.4,56.1"/>
<path id="Fill-152" class="st10" d="M35.3,96.8L35.3,96.8c-1.7,1.5-4.4,1.4-5.9-0.4l-13-14.8c-1.5-1.7-1.4-4.4,0.4-5.9
	c1.7-1.5,4.4-1.4,5.9,0.4l13,14.8C37.2,92.7,37,95.3,35.3,96.8"/>
<path id="Fill-154" class="st11" d="M71.1,51.1L71.1,51.1c-1.8-1.4-2.2-4-0.8-5.9l12-15.6c1.4-1.8,4-2.2,5.9-0.8
	c1.8,1.4,2.2,4,0.8,5.9L77,50.3C75.6,52.2,73,52.5,71.1,51.1"/>
<path id="Fill-156" class="st8" d="M29.3,28.8c-2,1.8-5.1,1.7-6.9-0.3c-1.8-2-1.7-5.1,0.3-6.9c2-1.8,5.1-1.7,6.9,0.3
	C31.4,23.9,31.3,27,29.3,28.8"/>
<path id="Fill-158" class="st11" d="M180.5,190.2c-2,1.8-5.1,1.7-6.9-0.3c-1.8-2-1.7-5.1,0.3-6.9c2-1.8,5.1-1.7,6.9,0.3
	C182.7,185.3,182.5,188.4,180.5,190.2"/>
<path id="Fill-160" class="st12" d="M88.4,94.5c1.6,2.1,1.2,5.2-1,6.8c-2.2,1.6-5.2,1.2-6.8-1c-1.6-2.1-1.2-5.2,1-6.8
	C83.8,91.9,86.8,92.3,88.4,94.5"/>
<path id="Fill-160_4_" class="st8" d="M129.1,178.8c1.6,2.1,1.2,5.2-1,6.8c-2.2,1.6-5.2,1.2-6.8-1c-1.6-2.1-1.2-5.2,1-6.8
	C124.4,176.2,127.5,176.7,129.1,178.8"/>
<g id="Group-164" transform="translate(242.712766, 0.551120)">
	<defs>
		<filter id="Adobe_OpacityMaskFilter_3_" filterUnits="userSpaceOnUse" x="-103" y="21.1" width="9.7" height="9.7">
			<feColorMatrix  type="matrix" values="1 0 0 0 0  0 1 0 0 0  0 0 1 0 0  0 0 0 1 0"/>
		</filter>
	</defs>
	<mask maskUnits="userSpaceOnUse" x="-103" y="21.1" width="9.7" height="9.7" id="mask-6_1_">
		<g class="st13">
			<polygon id="path-5_1_" class="st2" points="-103,21.1 -93.3,21.1 -93.3,30.9 -103,30.9 			"/>
		</g>
	</mask>
	<path id="Fill-162" class="st14" d="M-94.9,29.6c-2,1.8-5.1,1.7-6.9-0.3c-1.8-2-1.7-5.1,0.3-6.9c2-1.8,5.1-1.7,6.9,0.3
		C-92.8,24.7-92.9,27.8-94.9,29.6"/>
</g>
</svg>
