<svg height="512pt" viewBox="0 0 512 512.00534" width="512pt" xmlns="http://www.w3.org/2000/svg"><path d="m86.855469 129.28125-86.85156275-86.851562 42.42578175-42.429688 86.851562 86.851562zm0 0" fill="#d8d8fc"/><path d="m86.855469 129.28125-86.85156275-86.851562 21.21093775-21.214844 86.851562 86.851562zm0 0" fill="#a3a3d1"/><path d="m97.460938 161.097656-10.605469 10.609375c-17.574219 17.574219-17.574219 46.066407 0 63.640625l53.03125 53.03125 21.214843-21.214844-53.035156-53.03125c-5.855468-5.855468-5.855468-15.355468 0-21.210937l10.609375-10.609375 9.941407-32.484375zm0 0" fill="#2c3b73"/><path d="m490.789062 512.003906-63.640624-63.636718 21.214843-21.214844 63.640625 63.640625zm0 0" fill="#ffb99c"/><path d="m501.402344 501.394531-10.605469 10.605469-63.640625-63.640625 10.605469-10.605469zm0 0" fill="#ff9468"/><path d="m448.363281 384.722656 31.820313 95.457032-95.460938-31.820313 11.878906-51.757813.636719-3.183593zm0 0" fill="#ffb99c"/><path d="m384.722656 448.359375 11.878906-51.757813 83.582032 83.578126zm0 0" fill="#ff9468"/><path d="m405.9375 342.292969 42.425781 42.429687-63.640625 63.636719-42.425781-42.425781 11.878906-51.757813.636719-3.183593zm0 0" fill="#47568c"/><path d="m342.296875 405.933594 11.878906-51.757813 62.367188 62.363281-31.820313 31.820313zm0 0" fill="#2c3b73"/><path d="m161.101562 97.460938 244.835938 244.832031-63.640625 63.640625-244.835937-244.835938 10.609374-53.03125zm0 0" fill="#0095ff"/><path d="m108.070312 108.066406 266.046876 266.046875-31.820313 31.820313-244.835937-244.835938zm0 0" fill="#006eff"/><path d="m97.460938 161.101562-42.425782-42.425781 63.640625-63.640625 42.425781 42.425782zm0 0" fill="#47568c"/><path d="m97.460938 161.101562-42.425782-42.425781 31.820313-31.820312 42.425781 42.425781zm0 0" fill="#2c3b73"/><path d="m512.003906 63.640625-42.425781 42.425781-52.398437-11.246094-1.484376-.210937-9.757812-52.183594 42.425781-42.425781zm0 0" fill="#f2f2fc"/><path d="m512.003906 63.640625-42.425781 42.425781-52.398437-11.246094 63.003906-63zm0 0" fill="#d8d8fc"/><path d="m469.578125 106.066406-42.429687 42.425782-51.332032-8.910157-.640625-2.757812-11.664062-51.972657 42.425781-42.425781zm0 0" fill="#61729b"/><path d="m469.578125 106.066406-42.429687 42.425782-51.332032-8.910157-.640625-2.757812 62.582031-62.578125zm0 0" fill="#47568c"/><path d="m427.148438 148.492188-310.472657 310.476562-53.03125-10.609375-10.609375-53.03125 310.476563-310.476563zm0 0" fill="#ff641a"/><path d="m395.328125 116.671875 31.820313 31.820313-310.472657 310.476562-53.03125-10.609375zm0 0" fill="#f03800"/><path d="m116.675781 458.96875-116.67187475 53.03125 53.03124975-116.671875zm0 0" fill="#ffcebf"/><path d="m84.855469 427.148438 31.820312 31.820312-116.67187475 53.03125zm0 0" fill="#ffb99c"/></svg>