<?xml version="1.0" encoding="iso-8859-1"?>
<!-- Generator: Adobe Illustrator 19.0.0, SVG Export Plug-In . SVG Version: 6.00 Build 0)  -->
<svg version="1.1" id="Capa_1" xmlns="http://www.w3.org/2000/svg" xmlns:xlink="http://www.w3.org/1999/xlink" x="0px" y="0px"
	 viewBox="0 0 512.002 512.002" style="enable-background:new 0 0 512.002 512.002;" xml:space="preserve">
<g>
	<path style="fill:#95A5A5;" d="M312.586,428.932l52.966,52.966c4.479,4.44,6.24,10.938,4.617,17.032
		c-1.624,6.095-6.384,10.855-12.478,12.478c-6.095,1.624-12.592-0.138-17.032-4.617l-52.966-52.966L312.586,428.932z"/>
	<path style="fill:#3F5C6C;" d="M181.143,370.759H26.484c-7.027,0.009-13.768-2.778-18.737-7.746
		c-4.969-4.969-7.756-11.71-7.746-18.737V26.483c-0.009-7.027,2.778-13.768,7.746-18.737S19.457-0.009,26.484,0h459.034
		c7.027-0.009,13.768,2.778,18.737,7.746s7.756,11.71,7.746,18.737v317.793c0.009,7.027-2.778,13.768-7.746,18.737
		c-4.969,4.969-11.71,7.756-18.737,7.746H330.859"/>
	<path style="fill:#2FA8CC;" d="M305.789,335.448h144.772c4.68-0.001,8.473-3.795,8.474-8.474V43.785
		c-0.001-4.68-3.795-8.473-8.474-8.474H61.441c-4.68,0.001-8.473,3.795-8.474,8.474v283.189c0.001,4.68,3.795,8.473,8.474,8.474
		h144.772"/>
	<g>
		<path style="fill:#E6E7E8;" d="M141.242,264.828h35.31c4.875,0,8.828-3.952,8.828-8.828c0-4.875-3.952-8.828-8.828-8.828h-35.31
			c-4.875,0-8.828,3.952-8.828,8.828C132.415,260.875,136.367,264.828,141.242,264.828z"/>
		<path style="fill:#E6E7E8;" d="M335.449,264.828h35.31c4.875,0,8.828-3.952,8.828-8.828c0-4.875-3.952-8.828-8.828-8.828h-35.31
			c-4.875,0-8.828,3.952-8.828,8.828C326.622,260.875,330.574,264.828,335.449,264.828z"/>
		<path style="fill:#E6E7E8;" d="M211.863,282.483H105.932c-4.875,0-8.828,3.952-8.828,8.828s3.952,8.828,8.828,8.828h105.931
			c4.875,0,8.828-3.952,8.828-8.828S216.738,282.483,211.863,282.483z"/>
		<path style="fill:#E6E7E8;" d="M406.07,282.483H300.139c-4.875,0-8.828,3.952-8.828,8.828s3.952,8.828,8.828,8.828H406.07
			c4.875,0,8.828-3.952,8.828-8.828S410.945,282.483,406.07,282.483z"/>
	</g>
	<path style="fill:#35495E;" d="M512.001,176.552v17.655h-17.655c-4.875,0-8.828-3.952-8.828-8.828s3.952-8.828,8.828-8.828H512.001
		z"/>
	<circle style="fill:#41767F;" cx="256.001" cy="397.241" r="79.448"/>
	<circle style="fill:#B0D3F0;" cx="256.001" cy="397.241" r="44.138"/>
	<circle style="fill:#41767F;" cx="158.898" cy="150.069" r="70.621"/>
	<circle style="fill:#E6E7E8;" cx="158.898" cy="141.241" r="26.483"/>
	<path style="fill:#F0C419;" d="M194.208,197.915v13.241c-21.824,12.712-48.797,12.712-70.621,0v-13.241
		c1.514-18.036,17.258-31.497,35.31-30.19c9.101-0.126,17.942,3.04,24.894,8.916C190.264,181.822,194.084,189.624,194.208,197.915z"
		/>
	<circle style="fill:#41767F;" cx="353.105" cy="150.069" r="70.621"/>
	<circle style="fill:#E6E7E8;" cx="353.105" cy="141.241" r="26.483"/>
	<path style="fill:#CC66A1;" d="M388.415,197.915v13.241c-21.824,12.712-48.797,12.712-70.621,0v-13.241
		c1.514-18.036,17.258-31.497,35.31-30.19c9.101-0.126,17.942,3.04,24.894,8.916C384.471,181.822,388.291,189.624,388.415,197.915z"
		/>
</g>
<g>
</g>
<g>
</g>
<g>
</g>
<g>
</g>
<g>
</g>
<g>
</g>
<g>
</g>
<g>
</g>
<g>
</g>
<g>
</g>
<g>
</g>
<g>
</g>
<g>
</g>
<g>
</g>
<g>
</g>
</svg>
