<svg height="464pt" viewBox="0 0 464 464" width="464pt" xmlns="http://www.w3.org/2000/svg"><path d="m448 240h-176c-8.824219.027344-15.972656 7.175781-16 16v104c.027344 8.824219 7.175781 15.972656 16 16h176c8.824219-.027344 15.972656-7.175781 16-16v-104c-.027344-8.824219-7.175781-15.972656-16-16zm0 0" fill="#acabb1"/><path d="m376 376v40h-32v-104h32zm0 0" fill="#787680"/><path d="m464 432v32h-464v-32zm0 0" fill="#787680"/><path d="m184 432h-184v-51.359375c.03125-21.636719 14.5-40.589844 35.359375-46.320313l41.761719-11.359374 34.878906 29.039062 34.878906-29.039062 41.761719 11.359374c20.859375 5.730469 35.328125 24.683594 35.359375 46.320313v51.359375zm0 0" fill="#00ccb3"/><path d="m131.441406 221.839844c2.710938 10.652344 12.285156 18.121094 23.277344 18.160156h5.28125v16c.007812 17.136719-9.144531 32.972656-24 41.519531-14.832031 8.640625-33.167969 8.640625-48 0-3.636719-2.070312-6.972656-4.625-9.921875-7.597656-9.042969-8.964844-14.117187-21.1875-14.078125-33.921875v-16h8c14.550781.015625 28.667969-4.953125 40-14.078125 4.1875-3.375 7.945312-7.242187 11.199219-11.523437l4.800781-6.398438zm0 0" fill="#ffdaaa"/><path d="m146.878906 322.960938-34.878906 29.039062-34.878906-29.039062 10.878906-2.960938v-22.480469c14.832031 8.640625 33.167969 8.640625 48 0v22.480469zm0 0" fill="#ffce8c"/><path d="m64 240c-2.703125.023438-5.394531-.324219-8-1.039062-14.132812-3.625-24.011719-16.371094-24-30.960938v-40c0-4.417969 3.582031-8 8-8h72c30.929688 0 56 25.070312 56 56v24h-13.28125c-10.992188-.039062-20.566406-7.507812-23.277344-18.160156l-3.441406-13.839844-4.800781 6.398438c-3.253907 4.28125-7.011719 8.148437-11.199219 11.523437-11.332031 9.125-25.449219 14.09375-40 14.078125zm0 0" fill="#57565c"/><path d="m464 16v112c-.027344 8.824219-7.175781 15.972656-16 16h-16v-96c-.027344-8.824219-7.175781-15.972656-16-16h-128v-16c.027344-8.824219 7.175781-15.9726562 16-16h144c8.824219.0273438 15.972656 7.175781 16 16zm0 0" fill="#3d9ae2"/><path d="m432 144v16c-.027344 8.824219-7.175781 15.972656-16 16h-144c-8.824219-.027344-15.972656-7.175781-16-16v-96h176zm0 0" fill="#5aaae7"/><path d="m432 48v16h-176v-16c.027344-8.824219 7.175781-15.972656 16-16h144c8.824219.027344 15.972656 7.175781 16 16zm0 0" fill="#ff6243"/><path d="m304 408h112v16h-112zm0 0" fill="#57565c"/><g fill="#1e81ce"><path d="m336 104h16v16h-16zm0 0"/><path d="m368 104h16v16h-16zm0 0"/><path d="m304 104h16v16h-16zm0 0"/></g><path d="m32 384h16v48h-16zm0 0" fill="#00b39d"/><path d="m176 384h16v48h-16zm0 0" fill="#00b39d"/><path d="m40 24h32v16h-32zm0 0" fill="#ff6243"/><path d="m88 24h96v16h-96zm0 0" fill="#ff9811"/><path d="m48 88h32v16h-32zm0 0" fill="#00ccb3"/><path d="m96 88h96v16h-96zm0 0" fill="#ff6243"/><path d="m56 56h32v16h-32zm0 0" fill="#3d9ae2"/><path d="m104 56h96v16h-96zm0 0" fill="#ffb655"/></svg>