<?xml version="1.0"?>
<svg xmlns="http://www.w3.org/2000/svg" height="512px" viewBox="0 -2 512.00104 512" width="512px"><path d="m279.25 242.753906c-.648438 0-1.308594-.070312-1.960938-.199218-.640624-.128907-1.257812-.320313-1.867187-.570313-.601563-.25-1.179687-.558594-1.722656-.921875-.550781-.359375-1.058594-.777344-1.519531-1.238281-.460938-.460938-.878907-.96875-1.25-1.519531-.359376-.539063-.671876-1.128907-.917969-1.730469-.25-.601563-.441407-1.230469-.570313-1.871094-.132812-.640625-.191406-1.296875-.191406-1.949219 0-2.640625 1.0625-5.21875 2.929688-7.070312.460937-.457032.972656-.878906 1.523437-1.25.539063-.359375 1.117187-.667969 1.71875-.917969.609375-.25 1.230469-.441406 1.871094-.570313 1.289062-.261718 2.617187-.261718 3.910156 0 .636719.128907 1.269531.320313 1.867187.570313.609376.25 1.191407.558594 1.730469.917969.550781.371094 1.058594.792968 1.519531 1.25 1.859376 1.863281 2.929688 4.433594 2.929688 7.070312 0 .652344-.066406 1.308594-.199219 1.949219-.128906.640625-.320312 1.273437-.570312 1.871094-.25.601562-.558594 1.191406-.917969 1.730469-.359375.550781-.78125 1.0625-1.242188 1.519531-.457031.460937-.96875.878906-1.519531 1.238281-.539062.363281-1.117187.671875-1.730469.921875-.597656.25-1.226562.441406-1.867187.570313-.640625.128906-1.300781.199218-1.953125.199218zm0 0" fill="#006DF0"/><path d="m509.074219 53.644531-50.71875-50.714843c-3.90625-3.90625-10.234375-3.90625-14.140625 0l-239.898438 239.894531c-1.09375 1.09375-1.917968 2.425781-2.410156 3.890625l-8.445312 25.183594-47.269532-47.09375c-3.902344-3.886719-10.210937-3.886719-14.117187 0l-40.199219 40.054687v-10.824219c0-5.519531-4.480469-10-10-10h-39c-5.523438 0-10 4.480469-10 10v69.601563l-29.933594 29.820312c-2.8671872 2.855469-3.730468 7.160157-2.183594 10.902344 1.546876 3.742187 5.195313 6.183594 9.242188 6.183594h16.066406v128.445312c0 5.523438 4.480469 10 10 10h399.742188c2.871094 0 5.601562-1.230469 7.5-3.382812 1.898437-2.152344 2.78125-5.015625 2.425781-7.863281-2.203125-17.53125-13.75-32.617188-29.558594-39.414063-5.070312-31.332031-31.917969-54.988281-63.835937-54.988281-16.902344 0-33.457032 6.765625-45.753906 18.410156-4.902344-2.179688-10.222657-3.304688-15.730469-3.304688-20.148438 0-36.757813 15.417969-38.65625 35.078126v-82.980469h16.070312c4.046875 0 7.695313-2.441407 9.242188-6.183594s.683593-8.046875-2.1875-10.902344l-35.089844-34.964843 25.050781-8.398438c1.464844-.492188 2.796875-1.316406 3.890625-2.410156l239.898438-239.898438c3.902343-3.902344 3.902343-10.234375 0-14.140625zm-235.386719 221.242188-36.574219-36.574219 148.449219-148.449219 11.214844 11.214844-94.195313 94.195313c-3.902343 3.902343-3.902343 10.234374 0 14.140624 1.953125 1.953126 4.511719 2.929688 7.074219 2.929688 2.558594 0 5.117188-.976562 7.070312-2.929688l94.195313-94.195312 11.214844 11.214844zm-68.316406 24.398437 7.34375 7.34375-11.046875 3.703125zm-152.496094-35.25h19v20.746094l-19 18.929688zm69.175781 224.953125v-52.9375h34.171875v52.9375zm146.09375-16.292969c3.675781-2.289062 5.457031-6.683593 4.421875-10.882812-.363281-1.472656-.546875-3-.546875-4.535156 0-10.386719 8.449219-18.832032 18.835938-18.832032 4.203125 0 8.175781 1.347657 11.488281 3.90625 4.300781 3.316407 10.464844 2.59375 13.882812-1.632812 8.800782-10.882812 22.300782-17.378906 36.113282-17.378906 23.605468 0 43.203125 18.859375 44.613281 42.9375.253906 4.320312 3.261719 7.992187 7.449219 9.089844 7.359375 1.929687 13.707031 7.023437 17.601562 13.621093h-167.394531c2.710937-6.640625 7.5-12.53125 13.535156-16.292969zm-35.945312 16.292969h-55.976563v-62.9375c0-5.523437-4.476562-10-10-10h-54.171875c-5.523437 0-10 4.476563-10 10v62.9375h-55.980469v-118.445312h186.128907zm-197.992188-138.445312 104.929688-104.539063 47.230469 47.054688-6.257813 18.660156c-1.207031 3.597656-.273437 7.566406 2.410156 10.25l7.511719 7.511719c1.90625 1.90625 4.460938 2.929687 7.074219 2.929687 1.0625 0 2.136719-.167968 3.175781-.515625l18.75-6.289062 25.03125 24.9375zm199.6875-51.019531-21.417969-21.417969 7.644532-22.800781 2.851562-2.851563 36.574219 36.574219-2.851563 2.851562zm202.386719-187.230469-36.578125-36.574219 11.488281-11.488281 36.574219 36.574219zm25.628906-25.628907-36.574218-36.574218 25.949218-25.949219 36.574219 36.574219zm0 0" fill="#006DF0"/></svg>
