<?xml version="1.0" encoding="iso-8859-1"?>
<!-- Generator: Adobe Illustrator 19.0.0, SVG Export Plug-In . SVG Version: 6.00 Build 0)  -->
<svg version="1.1" id="Layer_1" xmlns="http://www.w3.org/2000/svg" xmlns:xlink="http://www.w3.org/1999/xlink" x="0px" y="0px"
	 viewBox="0 0 512 512" style="enable-background:new 0 0 512 512;" xml:space="preserve">
<path style="fill:#808285;" d="M396.413,140.329c-6.38-6.381-6.38-16.727,0-23.109l23.257-23.256c6.381-6.381,16.727-6.381,23.109,0
	c6.38,6.381,6.38,16.727,0,23.109l-23.257,23.256C413.142,146.71,402.795,146.713,396.413,140.329z"/>
<g>
	<path style="fill:#A7A9AC;" d="M92.478,140.329l-23.257-23.256c-6.381-6.38-6.381-16.726,0-23.109
		c6.381-6.38,16.727-6.383,23.109,0l23.257,23.256c6.381,6.38,6.381,16.726,0,23.109C109.204,146.711,98.858,146.712,92.478,140.329
		z"/>
	<path style="fill:#A7A9AC;" d="M276.698,0h-41.396c-9.024,0-16.34,7.316-16.34,16.34s7.316,16.34,16.34,16.34h4.357v32.252
		c0,8.388,6.145,15.747,14.482,16.667c9.857,1.087,18.199-6.602,18.199-16.238V32.681h4.357c9.024,0,16.34-7.316,16.34-16.34
		S285.722,0,276.698,0z"/>
</g>
<path style="fill:#808285;" d="M276.698,0H256v81.701c9.024,0,16.34-7.314,16.34-16.339V32.681h4.357
	c9.024,0,16.34-7.316,16.34-16.34S285.722,0,276.698,0z"/>
<path style="fill:#B9F7F9;" d="M256,512C128.356,512,24.511,408.154,24.511,280.511S128.356,49.021,256,49.021
	s231.489,103.846,231.489,231.489S383.644,512,256,512z"/>
<path style="fill:#00D8E0;" d="M256,49.021V512c127.644,0,231.489-103.846,231.489-231.489S383.644,49.021,256,49.021z"/>
<path style="fill:#A7A9AC;" d="M272.34,240.713v-77.309c0-9.636-8.342-17.325-18.199-16.238
	c-8.337,0.919-14.482,8.279-14.482,16.667v76.88c-15.645,6.448-26.689,21.854-26.689,39.798c0,23.726,19.303,43.03,43.03,43.03
	s43.03-19.303,43.03-43.03C299.03,262.567,287.986,247.16,272.34,240.713z"/>
<path style="fill:#808285;" d="M272.34,240.713v-77.309c0-9.024-7.316-16.338-16.34-16.339V323.54
	c23.726,0,43.03-19.303,43.03-43.03C299.03,262.567,287.986,247.16,272.34,240.713z"/>
<g>
</g>
<g>
</g>
<g>
</g>
<g>
</g>
<g>
</g>
<g>
</g>
<g>
</g>
<g>
</g>
<g>
</g>
<g>
</g>
<g>
</g>
<g>
</g>
<g>
</g>
<g>
</g>
<g>
</g>
</svg>
