<?xml version="1.0" encoding="iso-8859-1"?>
<!-- Generator: Adobe Illustrator 19.0.0, SVG Export Plug-In . SVG Version: 6.00 Build 0)  -->
<svg version="1.1" id="Layer_1" xmlns="http://www.w3.org/2000/svg" xmlns:xlink="http://www.w3.org/1999/xlink" x="0px" y="0px"
	 viewBox="0 0 512 512" style="enable-background:new 0 0 512 512;" xml:space="preserve">
<circle style="fill:#FF5B62;" cx="256" cy="256" r="256"/>
<path style="fill:#ED4C54;" d="M256,407.27c100.67,0,182.284,6.434,182.284,14.369c0,7.935-81.609,14.369-182.284,14.369
	c-100.67,0-182.284-6.434-182.284-14.369C73.716,413.703,155.325,407.27,256,407.27z"/>
<path style="fill:#666666;" d="M65.979,67.222h380.037c12.485,0,22.702,10.217,22.702,22.702V324.03H43.282V89.922
	c0-12.485,10.217-22.702,22.702-22.702L65.979,67.222L65.979,67.222z"/>
<path style="fill:#DCE3DB;" d="M58.695,308.617h394.609V89.927c0-3.977-3.308-7.289-7.284-7.289H65.984
	c-3.977,0-7.284,3.307-7.284,7.289v218.69H58.695z"/>
<path style="fill:#FFFFFF;" d="M468.718,324.03v24.826c0,12.49-11.261,22.702-25.024,22.702H68.307
	c-13.764,0-25.024-10.212-25.024-22.702V324.03H468.718z"/>
<circle style="fill:#B6B6B8;" cx="256" cy="346.803" r="7.815"/>
<path style="fill:#C2C2C4;" d="M305.065,407.27l36.096,11.565H170.839l29.121-11.565v-35.712h105.105V407.27z"/>
<path style="fill:#ECF0F1;" d="M199.96,407.27h105.105l36.096,11.565v4.983H256h-85.166v-4.983l29.121-11.565H199.96z"/>
<path style="fill:#919191;" d="M199.96,371.557h105.105v35.712L199.96,371.557z"/>
<path style="fill:#FFFFFF;" d="M149.561,108.342H362.44h31.689c3.839,0,6.983,3.146,6.983,6.983v41.546v151.746H110.896v-0.005
	V156.872v-41.546c0-3.839,3.141-6.983,6.983-6.983h31.689C149.569,108.342,149.561,108.342,149.561,108.342z"/>
<path style="fill:#828282;" d="M117.871,108.342h276.253c3.839,0,6.983,3.141,6.983,6.983v13.963h-290.22v-13.963
	C110.887,111.488,114.028,108.342,117.871,108.342z"/>
<path style="fill:#FFFFFF;" d="M240.093,115.575h140.189c1.035,0,1.875,0.84,1.875,1.875v3.478c0,1.035-0.84,1.875-1.875,1.875
	H240.093c-1.035,0-1.875-0.84-1.875-1.875v-3.478C238.218,116.417,239.058,115.575,240.093,115.575z"/>
<path style="fill:#21D0C3;" d="M124.817,114.333c2.217,0,4.018,1.796,4.018,4.018c0,2.222-1.801,4.018-4.018,4.018
	c-2.222,0-4.023-1.796-4.023-4.018C120.795,116.13,122.596,114.333,124.817,114.333z"/>
<path style="fill:#FAD24D;" d="M140.683,114.333c2.222,0,4.018,1.796,4.018,4.018c0,2.222-1.796,4.018-4.018,4.018
	c-2.222,0-4.018-1.796-4.018-4.018C136.665,116.13,138.467,114.333,140.683,114.333z"/>
<path style="fill:#FF5B62;" d="M156.553,114.333c2.217,0,4.018,1.796,4.018,4.018c0,2.222-1.801,4.018-4.018,4.018
	c-2.222,0-4.023-1.796-4.023-4.018C152.53,116.13,154.332,114.333,156.553,114.333z"/>
<path style="fill:#FAD24D;" d="M126.596,136.965h258.804v85.373H126.596V136.965z"/>
<path style="fill:#FF5B62;" d="M164.997,234.804c9.5,0,17.205,7.704,17.205,17.205c0,9.5-7.704,17.205-17.205,17.205
	c-9.501,0-17.205-7.704-17.205-17.205C147.791,242.508,155.495,234.804,164.997,234.804z"/>
<path style="fill:#21D0C3;" d="M256,234.804c9.5,0,17.205,7.704,17.205,17.205c0,9.5-7.704,17.205-17.205,17.205
	c-9.5,0-17.205-7.704-17.205-17.205C238.795,242.508,246.5,234.804,256,234.804z"/>
<path style="fill:#FAD24D;" d="M347.003,234.804c9.5,0,17.205,7.704,17.205,17.205c0,9.5-7.704,17.205-17.205,17.205
	s-17.205-7.704-17.205-17.205C329.799,242.508,337.503,234.804,347.003,234.804z"/>
<g>
	<path style="fill:#DCE3DB;" d="M140.309,274.951h49.37v2.679h-49.37V274.951z M140.309,291.782h33.163v2.679h-33.163V291.782z
		 M140.309,283.367h49.37v2.675h-49.37V283.367z"/>
	<path style="fill:#DCE3DB;" d="M231.317,274.951h49.37v2.679h-49.37L231.317,274.951L231.317,274.951z M231.317,291.782h33.163
		v2.679h-33.163L231.317,291.782L231.317,291.782z M231.317,283.367h49.37v2.675h-49.37L231.317,283.367L231.317,283.367z"/>
	<path style="fill:#DCE3DB;" d="M322.32,274.951h49.366v2.679H322.32V274.951z M322.32,291.782h33.158v2.679H322.32V291.782z
		 M322.32,283.367h49.366v2.675H322.32V283.367z"/>
</g>
<path style="fill:#ECF0F1;" d="M125.312,227.788h260.092v1.072H125.312C125.312,228.86,125.312,227.788,125.312,227.788z"/>
<g>
	<path style="fill:#FEFEFE;" d="M180.793,161.075l6.808,15.357l16.71,1.728l-12.503,11.219l3.524,16.424l-14.536-8.425
		l-14.531,8.425l3.519-16.424l-12.503-11.219l16.71-1.728l6.804-15.357H180.793z M331.203,161.075l6.808,15.357l16.71,1.728
		l-12.503,11.219l3.519,16.424l-14.536-8.425l-14.531,8.425l3.524-16.424l-12.503-11.219l16.71-1.728l6.804-15.357H331.203z"/>
	<path style="fill:#FEFEFE;" d="M256,144.078l9.395,21.196l23.057,2.383l-17.255,15.482l4.859,22.665l-20.059-11.625l-20.055,11.625
		l4.859-22.669l-17.255-15.482l23.062-2.383l9.39-21.196L256,144.078z"/>
</g>
<g>
</g>
<g>
</g>
<g>
</g>
<g>
</g>
<g>
</g>
<g>
</g>
<g>
</g>
<g>
</g>
<g>
</g>
<g>
</g>
<g>
</g>
<g>
</g>
<g>
</g>
<g>
</g>
<g>
</g>
</svg>
