<?xml version="1.0" encoding="iso-8859-1"?>
<!-- Generator: Adobe Illustrator 19.0.0, SVG Export Plug-In . SVG Version: 6.00 Build 0)  -->
<svg version="1.1" id="Layer_1" xmlns="http://www.w3.org/2000/svg" xmlns:xlink="http://www.w3.org/1999/xlink" x="0px" y="0px"
	 viewBox="0 0 512 512" style="enable-background:new 0 0 512 512;" xml:space="preserve">
<g>
	<path style="fill:#FFC89F;" d="M303.276,381.108h97.962v-14.176c0-17.803,14.519-32.28,32.338-32.211
		c4.101,0.016,7.39,3.417,7.39,7.518v81.101c0,11.326-4.732,22.136-13.052,29.819l-6.369,5.881v25.966h-7.518l0,0h-42.093h-2.429
		l0,0h-53.694v-26.594l-8.153-10.071c-7.674-9.478-11.9-21.414-11.9-33.611v-26.105
		C295.758,384.473,299.123,381.108,303.276,381.108z"/>
	<path style="fill:#FFC89F;" d="M208.723,381.108h-97.961v-14.176c0-17.803-14.519-32.28-32.338-32.211
		c-4.101,0.016-7.39,3.417-7.39,7.518v81.101c0,11.326,4.732,22.136,13.052,29.819l6.369,5.881v25.966h7.518l0,0h42.093h2.429l0,0
		h53.694v-26.594l8.153-10.071c7.674-9.478,11.9-21.414,11.9-33.611v-26.105C216.241,384.473,212.875,381.108,208.723,381.108z"/>
</g>
<g>
	<path style="fill:#F7B081;" d="M125.875,408.637h90.366v-20.011c0-4.153-3.365-7.518-7.518-7.518h-105.45
		C103.273,396.312,113.391,408.637,125.875,408.637z"/>
	<path style="fill:#F7B081;" d="M386.124,408.637h-90.366v-20.011c0-4.153,3.366-7.518,7.518-7.518h105.45
		C408.726,396.312,398.607,408.637,386.124,408.637z"/>
</g>
<path style="fill:#EFE7E4;" d="M408.529,0H103.27c-4.153,0-7.518,3.365-7.518,7.518v381.108c0,4.153,3.365,7.518,7.518,7.518
	h305.259c4.153,0,7.518-3.365,7.518-7.518V7.518C416.046,3.365,412.681,0,408.529,0z"/>
<path style="fill:#D8D1D0;" d="M408.529,0h-20.047v396.143h20.047c4.153,0,7.518-3.365,7.518-7.518V7.518
	C416.046,3.365,412.681,0,408.529,0z"/>
<path style="fill:#546F7A;" d="M340.578,42.942h-167.13c-4.153,0-7.518,3.365-7.518,7.518v182.601c0,4.153,3.365,7.518,7.518,7.518
	h167.13c4.153,0,7.518-3.365,7.518-7.518V50.459C348.096,46.307,344.73,42.942,340.578,42.942z"/>
<path style="fill:#FFC89F;" d="M142.494,485.007H90.455v-25.966l-6.369-5.881c-8.321-7.683-13.052-18.494-13.052-29.819V342.24
	c0-4.101,3.29-7.502,7.39-7.518c17.819-0.069,32.338,14.407,32.338,32.21v21.078c5.616,1.126,14.045,3.276,22.532,7.16
	c20.485,9.373,31.312,24.12,31.312,42.647C164.607,441.969,146.645,485.007,142.494,485.007z"/>
<path style="fill:#68B9D8;" d="M256.744,146.957c-0.068-0.002-0.137-0.002-0.206,0c-37.094,0.507-68.432,30.968-68.432,66.514
	v19.589c0,4.153,3.365,7.518,7.518,7.518h122.033c4.153,0,7.518-3.365,7.518-7.518v-19.589
	C325.176,177.924,293.838,147.464,256.744,146.957z"/>
<path style="fill:#3695B2;" d="M256.744,146.957c-0.068-0.002-0.137-0.002-0.206,0c-4.658,0.063-9.225,0.601-13.651,1.56
	c30.819,6.679,54.782,33.87,54.782,64.954v19.589c0,4.153-3.365,7.518-7.518,7.518h27.508c4.153,0,7.518-3.365,7.518-7.518v-19.589
	C325.176,177.924,293.838,147.464,256.744,146.957z"/>
<path style="fill:#F2464F;" d="M278.992,204.921l-8.122-28.238c-0.927-3.221-3.873-5.44-7.225-5.44h-14.009
	c-3.352,0-6.298,2.219-7.225,5.44l-8.122,28.238c-0.789,2.743,0.044,5.697,2.15,7.623l15.125,13.844
	c1.436,1.316,3.256,1.973,5.076,1.973c1.819,0,3.64-0.658,5.075-1.973l15.126-13.844
	C278.948,210.618,279.781,207.665,278.992,204.921z"/>
<g>
	<path style="fill:#546F7A;" d="M340.578,315.354H172.603c-4.153,0-7.518-3.365-7.518-7.518s3.365-7.518,7.518-7.518h167.975
		c4.153,0,7.518,3.365,7.518,7.518S344.73,315.354,340.578,315.354z"/>
	<path style="fill:#546F7A;" d="M340.578,279.97H172.603c-4.153,0-7.518-3.366-7.518-7.518c0-4.153,3.365-7.518,7.518-7.518h167.975
		c4.153,0,7.518,3.365,7.518,7.518C348.096,276.604,344.73,279.97,340.578,279.97z"/>
	<path style="fill:#546F7A;" d="M288.418,350.738H172.603c-4.153,0-7.518-3.365-7.518-7.518c0-4.153,3.365-7.518,7.518-7.518
		h115.815c4.153,0,7.518,3.365,7.518,7.518C295.936,347.373,292.57,350.738,288.418,350.738z"/>
</g>
<path style="fill:#EFE7E4;" d="M196.025,469.971H88.962c-4.153,0-7.518,3.365-7.518,7.518v26.993c0,4.153,3.365,7.518,7.518,7.518
	h107.063c4.153,0,7.518-3.365,7.518-7.518v-26.993C203.543,473.337,200.177,469.971,196.025,469.971z"/>
<path style="fill:#D8D1D0;" d="M196.025,469.971h-20.047V512h20.047c4.153,0,7.518-3.365,7.518-7.518v-26.993
	C203.543,473.337,200.177,469.971,196.025,469.971z"/>
<path style="fill:#FFC89F;" d="M369.505,485.007h52.039v-25.966l6.369-5.881c8.321-7.683,13.052-18.494,13.052-29.819V342.24
	c0-4.101-3.29-7.502-7.39-7.518c-17.819-0.069-32.338,14.407-32.338,32.21v21.078c-5.616,1.126-14.045,3.276-22.532,7.16
	c-20.484,9.373-31.312,24.12-31.312,42.647C347.392,441.969,365.353,485.007,369.505,485.007z"/>
<path style="fill:#EFE7E4;" d="M315.974,469.971h107.064c4.153,0,7.518,3.365,7.518,7.518v26.993c0,4.153-3.365,7.518-7.518,7.518
	H315.974c-4.152,0-7.518-3.365-7.518-7.518v-26.993C308.456,473.337,311.821,469.971,315.974,469.971z"/>
<path style="fill:#D8D1D0;" d="M315.974,469.971h20.047V512h-20.047c-4.153,0-7.518-3.365-7.518-7.518v-26.993
	C308.456,473.337,311.821,469.971,315.974,469.971z"/>
<path style="fill:#D3333C;" d="M241.757,179.018h29.77l9.556-27.253c-7.605-2.977-15.816-4.691-24.338-4.807
	c-0.068-0.002-0.137-0.002-0.205,0c-8.594,0.117-16.871,1.859-24.529,4.883L241.757,179.018z"/>
<path style="fill:#AF273B;" d="M266.315,147.768l-9.815,31.225l0.007,0.025h15.019l9.556-27.253
	C276.37,149.92,271.423,148.562,266.315,147.768z"/>
<path style="fill:#FFC89F;" d="M256.642,63.592c-20.224,0-36.678,16.454-36.678,36.678v25.093c0,20.224,16.454,36.678,36.678,36.678
	c20.225,0,36.679-16.454,36.679-36.678V100.27C293.32,80.046,276.866,63.592,256.642,63.592z"/>
<path style="fill:#F7B081;" d="M256.642,63.592c-4.787,0-9.358,0.932-13.555,2.607c13.533,5.403,23.123,18.634,23.123,34.071v25.093
	c0,15.437-9.591,28.667-23.123,34.071c4.197,1.676,8.768,2.607,13.555,2.607c20.225,0,36.679-16.454,36.679-36.678V100.27
	C293.32,80.046,276.866,63.592,256.642,63.592z"/>
<path d="M293.32,112.814V100.27c0-20.224-16.454-36.678-36.679-36.678c-20.224,0-36.678,16.454-36.678,36.678v12.547h7.481
	c25.488,0,34.773-17.21,34.773-17.21s6.49,17.127,23.548,17.206H293.32z"/>
<path style="fill:#D3333C;" d="M271.535,178.993l-0.009,0.025h-15.019l7.45,25.904c0.789,2.743-0.044,5.697-2.15,7.623
	l-12.684,11.608l2.443,2.235c1.436,1.316,3.256,1.973,5.076,1.973c1.819,0,3.64-0.658,5.075-1.973l15.126-13.844
	c2.106-1.927,2.939-4.879,2.15-7.623L271.535,178.993z"/>
<g>
</g>
<g>
</g>
<g>
</g>
<g>
</g>
<g>
</g>
<g>
</g>
<g>
</g>
<g>
</g>
<g>
</g>
<g>
</g>
<g>
</g>
<g>
</g>
<g>
</g>
<g>
</g>
<g>
</g>
</svg>
