<svg height="512pt" viewBox="0 0 512.00001 512" width="512pt" xmlns="http://www.w3.org/2000/svg"><path d="m248.84375 285.792969-22.636719-22.636719c-3.125-3.125-8.195312-3.125-11.320312 0l-52.023438 52.023438c-3.125 3.125-3.125 8.191406 0 11.320312l22.636719 22.636719c1.566406 1.5625 3.613281 2.34375 5.660156 2.34375 2.050782 0 4.097656-.78125 5.660156-2.34375l52.027344-52.023438c3.125-3.125 3.125-8.195312-.003906-11.320312zm0 0" fill="#dedae0"/><path d="m343.917969 0c-92.679688 0-168.078125 75.398438-168.078125 168.082031 0 92.679688 75.398437 168.078125 168.078125 168.078125 92.683593 0 168.082031-75.398437 168.082031-168.078125 0-92.683593-75.398438-168.082031-168.082031-168.082031zm0 0" fill="#ada3b2"/><path d="m343.917969 30.015625c-76.128907 0-138.066407 61.933594-138.066407 138.066406 0 76.128907 61.9375 138.066407 138.066407 138.066407 76.132812 0 138.066406-61.9375 138.066406-138.066407 0-76.132812-61.933594-138.066406-138.066406-138.066406zm0 0" fill="#f7f6f7"/><path d="m365.929688 280.132812c-76.128907 0-138.066407-61.933593-138.066407-138.066406 0-27.792968 8.265625-53.691406 22.453125-75.378906-27.320312 25.242188-44.464844 61.351562-44.464844 101.394531 0 76.128907 61.9375 138.066407 138.066407 138.066407 48.335937 0 90.941406-24.972657 115.613281-62.6875-24.621094 22.75-57.515625 36.671874-93.601562 36.671874zm0 0" fill="#dedae0"/><path d="m213.515625 338.101562-39.617187-39.617187c-3.125-3.125-8.195313-3.125-11.320313 0l-152.070313 152.074219c-10.625 10.621094-13.550781 27.242187-7.125 40.839844 1.769532 3.746093 4.195313 7.167968 7.125 10.09375 10.210938 10.214843 26.296876 13.34375 39.589844 7.6875 4.230469-1.800782 8.09375-4.4375 11.34375-7.6875l152.074219-152.070313c3.125-3.125 3.125-8.195313 0-11.320313zm0 0" fill="#887dca"/><path d="m213.515625 338.101562-20.011719-20.007812c3.128906 3.125 3.128906 8.191406 0 11.316406l-152.070312 152.074219c-3.25 3.25-7.113282 5.882813-11.34375 7.683594-8.816406 3.753906-18.851563 3.621093-27.59375.140625.273437.703125.558594 1.402344.886718 2.089844 1.769532 3.746093 4.195313 7.167968 7.125 10.09375 10.210938 10.214843 26.296876 13.34375 39.589844 7.6875 4.230469-1.800782 8.09375-4.4375 11.34375-7.6875l152.074219-152.070313c3.125-3.125 3.125-8.195313 0-11.320313zm0 0" fill="#6a5dbd"/><path d="m344.164062 64.03125c-26.480468 0-48.023437 21.542969-48.023437 48.023438 0 26.480468 21.542969 48.023437 48.023437 48.023437 26.480469 0 48.023438-21.542969 48.023438-48.023437 0-26.480469-21.542969-48.023438-48.023438-48.023438zm0 0" fill="#fef5d1"/><path d="m360.171875 152.074219c-26.480469 0-48.023437-21.542969-48.023437-48.023438 0-15.570312 7.453124-29.425781 18.96875-38.203125-20.15625 5.699219-34.976563 24.25-34.976563 46.207032 0 26.480468 21.542969 48.023437 48.023437 48.023437 10.914063 0 20.980469-3.667969 29.054688-9.820313-4.152344 1.171876-8.523438 1.816407-13.046875 1.816407zm0 0" fill="#feeca2"/><path d="m376.179688 160.078125h-64.03125c-17.652344 0-32.015626 14.359375-32.015626 32.015625v64.027344c0 4.421875 3.585938 8.003906 8.003907 8.003906h112.054687c4.421875 0 8.003906-3.582031 8.003906-8.003906v-64.027344c0-17.65625-14.363281-32.015625-32.015624-32.015625zm0 0" fill="#def1ef"/><path d="m304.144531 256.121094v-64.027344c0-17.65625 14.363281-32.015625 32.015625-32.015625h-24.011718c-17.652344 0-32.015626 14.359375-32.015626 32.015625v64.027344c0 4.421875 3.585938 8.003906 8.003907 8.003906h24.011719c-4.417969 0-8.003907-3.582031-8.003907-8.003906zm0 0" fill="#bde3df"/><path d="m352.167969 184.089844h-16.007813l-8.003906-24.011719h32.015625zm0 0" fill="#7cc6c0"/><path d="m359.480469 248.8125-13.902344 13.898438c-.78125.78125-2.046875.78125-2.828125 0l-13.902344-13.898438c-.433594-.4375-.644531-1.050781-.570312-1.664062l7.882812-63.058594h16.007813l7.882812 63.058594c.078125.613281-.132812 1.226562-.570312 1.664062zm0 0" fill="#5bb8b0"/><path d="m390.90625 88.9375c-3.332031-12.21875-12.484375-27.820312-37.167969-32.753906-43.597656-8.71875-70.78125 25.484375-71.917969 26.941406-1.644531 2.113281-2.121093 4.90625-1.273437 7.449219 4.492187 13.484375 22.789063 21.875 57.582031 26.414062 23.257813 3.035157 45.136719 3.066407 46.054688 3.066407 3.816406 0 7.101562-2.691407 7.851562-6.433594.09375-.480469 2.328125-12-1.128906-24.683594zm0 0" fill="#fdd945"/><path d="m353.492188 108.984375c-34.789063-4.539063-53.089844-12.929687-57.582032-26.414063-.847656-2.539062-.367187-5.335937 1.273438-7.445312.53125-.679688 6.703125-8.453125 17.546875-15.691406-20.300781 7.804687-32.167969 22.738281-32.910157 23.695312-1.644531 2.109375-2.121093 4.90625-1.277343 7.445313 4.496093 13.484375 22.792969 21.875 57.582031 26.414062 23.261719 3.035157 45.136719 3.070313 46.058594 3.070313 3.816406 0 7.101562-2.695313 7.847656-6.433594.019531-.105469.136719-.703125.273438-1.695312-8.484376-.234376-23.339844-.925782-38.8125-2.945313zm0 0" fill="#fab947"/></svg>