<?xml version="1.0" encoding="iso-8859-1"?>
<!-- Generator: Adobe Illustrator 19.0.0, SVG Export Plug-In . SVG Version: 6.00 Build 0)  -->
<svg version="1.1" id="Capa_1" xmlns="http://www.w3.org/2000/svg" xmlns:xlink="http://www.w3.org/1999/xlink" x="0px" y="0px"
	 viewBox="0 0 58 58" style="enable-background:new 0 0 58 58;" xml:space="preserve">
<path style="fill:#ECF0F1;" d="M24.093,48c0.208,0.58,0.758,1,1.407,1h8c0.649,0,1.2-0.42,1.407-1H55V9.067
	C55,7.373,53.627,6,51.933,6H6.067C4.373,6,3,7.373,3,9.067V48H24.093z"/>
<rect x="6" y="9" style="fill:#8697CB;" width="46" height="36"/>
<path style="fill:#F0C419;" d="M29,39c-1.203-0.472-2.367-1.147-3.472-2.015C22.027,34.233,20,30.781,20,26.078V19
	c4.187-0.534,7.096-2.706,9-4c1.904,1.294,4.813,3.466,9,4v7.078c0,4.704-2.027,8.155-5.528,10.907
	C31.367,37.853,30.203,38.528,29,39z"/>
<path style="fill:#556080;" d="M29,40c-0.124,0-0.248-0.023-0.365-0.069c-1.293-0.507-2.547-1.234-3.725-2.161
	C20.934,34.646,19,30.82,19,26.078V19c0-0.503,0.374-0.928,0.873-0.992c3.655-0.466,6.252-2.249,8.148-3.55l0.416-0.285
	c0.34-0.23,0.785-0.23,1.125,0l0.416,0.285c1.896,1.302,4.493,3.084,8.148,3.55C38.626,18.072,39,18.497,39,19v7.078
	c0,4.743-1.934,8.568-5.91,11.693c-1.178,0.926-2.432,1.653-3.725,2.161C29.248,39.977,29.124,40,29,40z M21,19.856v6.222
	c0,4.146,1.635,7.361,5.146,10.121c0.912,0.717,1.87,1.295,2.854,1.72c0.983-0.425,1.941-1.003,2.854-1.72
	C35.365,33.439,37,30.223,37,26.078v-6.222c-3.577-0.66-6.196-2.407-8-3.644C27.196,17.449,24.577,19.196,21,19.856z"/>
<path style="fill:#D1D4D1;" d="M34.907,48c-0.208,0.58-0.758,1-1.407,1h-8c-0.649,0-1.2-0.42-1.407-1H0.578
	C0.259,48,0,48.259,0,48.578v2.844C0,51.741,0.259,52,0.578,52h56.844C57.741,52,58,51.741,58,51.422v-2.844
	C58,48.259,57.741,48,57.422,48H34.907z"/>
<g>
</g>
<g>
</g>
<g>
</g>
<g>
</g>
<g>
</g>
<g>
</g>
<g>
</g>
<g>
</g>
<g>
</g>
<g>
</g>
<g>
</g>
<g>
</g>
<g>
</g>
<g>
</g>
<g>
</g>
</svg>
