<?xml version="1.0" encoding="iso-8859-1"?>
<!-- Generator: Adobe Illustrator 19.0.0, SVG Export Plug-In . SVG Version: 6.00 Build 0)  -->
<svg xmlns="http://www.w3.org/2000/svg" xmlns:xlink="http://www.w3.org/1999/xlink" version="1.1" id="Capa_1" x="0px" y="0px" viewBox="0 0 512 512" style="enable-background:new 0 0 512 512;" xml:space="preserve" width="512px" height="512px">
<g>
	<g>
		<path d="M212.815,38.074h-31.52c-4.142,0-7.5,3.357-7.5,7.5s3.358,7.5,7.5,7.5h31.52c4.142,0,7.5-3.357,7.5-7.5    S216.958,38.074,212.815,38.074z" fill="#006DF0"/>
	</g>
</g>
<g>
	<g>
		<path d="M217.987,441.512h-41.864c-10.386,0-18.834,8.448-18.834,18.834v5.701c0,10.386,8.45,18.835,18.834,18.835h41.864v0    c10.386,0,18.834-8.45,18.834-18.835v-5.701C236.821,449.96,228.372,441.512,217.987,441.512z M221.82,466.047    c0,2.078-1.755,3.834-3.833,3.834h-41.864c-2.078,0-3.833-1.756-3.833-3.834v-5.701c0-2.078,1.755-3.833,3.833-3.833h41.864    c2.078,0,3.833,1.755,3.833,3.833V466.047z" fill="#006DF0"/>
	</g>
</g>
<g>
	<g>
		<path d="M456.85,251.556h-22.718c-1.387-4.401-3.152-8.666-5.281-12.756l16.062-16.062c2.008-2.008,3.114-4.678,3.114-7.518    c0-2.839-1.106-5.509-3.113-7.515l-18.905-18.906c-4.143-4.139-10.884-4.137-15.029,0.002l-16.064,16.064    c-4.09-2.129-8.354-3.894-12.756-5.28v-22.719c0-5.86-4.768-10.629-10.629-10.629h-21.942v-39.665c0-4.143-3.358-7.5-7.5-7.5    s-7.919,3.357-7.919,7.5v47.369v25.644c-4.403,1.387-8.667,3.151-12.756,5.281l-4.211-4.212V88.847    c0-7.521-6.119-13.644-13.645-13.644c-7.31,0-201.426,0-213.003,0c-7.523,0-13.644,6.12-13.644,13.644v326.848    c0,7.522,6.12,13.644,13.644,13.644h213.003c7.523,0,13.644-6.12,13.644-13.644v-65.247l4.211-4.211    c4.09,2.131,8.354,3.896,12.756,5.282c0,24.107-0.143,23.687,0.419,25.644v0.001v103.202c0,9.172-7.461,16.633-16.633,16.633    H214.556c-4.142,0-7.5,3.357-7.5,7.5s3.358,7.5,7.5,7.5h103.398c17.443,0,31.634-14.191,31.634-31.634v-95.499h21.942    c5.86,0,10.629-4.769,10.629-10.63v-22.718c4.402-1.387,8.666-3.151,12.756-5.281l16.064,16.064    c4.144,4.143,10.888,4.143,15.031,0l18.902-18.902c2.008-2.008,3.114-4.677,3.114-7.517c0-2.84-1.106-5.509-3.113-7.516    l-16.063-16.063c2.129-4.09,3.895-8.353,5.281-12.756h22.718c5.86,0,10.629-4.768,10.629-10.629v-26.734    C467.479,256.325,462.711,251.556,456.85,251.556z M135.79,90.206H302.2v32.561H135.79V90.206z M91.91,90.206h28.878v32.561H91.91    V90.206z M91.91,414.338v-276.57c11.084,0,202.407,0,210.289,0v48.859c-3.923-1.764-8.71-0.996-11.882,2.174l-18.903,18.903    c-4.19,4.191-4.113,10.922,0,15.033l16.063,16.063c-0.774,1.486-1.482,3.002-2.159,4.533c-1.186,2.681-2.239,5.42-3.122,8.222    h-22.718c-5.86,0-10.629,4.767-10.629,10.629v5.866H122.3c-4.142,0-7.5,3.357-7.5,7.5s3.358,7.5,7.5,7.5h126.549v5.866    c0,5.859,4.766,10.629,10.629,10.629h22.718c1.286,4.082,2.992,8.358,5.281,12.755l-16.063,16.064    c-4.144,4.145-4.144,10.888,0,15.032l18.903,18.903c3.103,3.101,7.86,3.978,11.882,2.175v49.862H91.91z M452.479,284.546    L452.479,284.546h-24.063c-3.484,0-6.509,2.399-7.303,5.791c-1.6,6.836-4.284,13.32-7.979,19.271    c-1.838,2.96-1.396,6.796,1.068,9.261l17.013,17.013l-12.72,12.721l-17.014-17.014c-2.465-2.462-6.299-2.906-9.261-1.067    c-5.952,3.695-12.436,6.38-19.269,7.979c-3.393,0.793-5.792,3.818-5.792,7.303v24.063h-17.989v-24.063    c0-3.484-2.399-6.51-5.792-7.303c-6.834-1.599-13.318-4.283-19.269-7.979c-2.959-1.838-6.796-1.396-9.261,1.068l-17.013,17.014    l-12.721-12.721l17.013-17.013c2.465-2.465,2.906-6.303,1.068-9.263c-3.697-5.953-6.386-12.462-7.978-19.268    c-0.793-3.393-3.819-5.792-7.303-5.792h-24.062v-17.989h24.062c3.484,0,6.509-2.399,7.303-5.792    c1.535-6.559,4.222-13.221,7.978-19.269c0.689-1.11,1.058-2.343,1.12-3.581c0.103-2.063-0.648-4.14-2.188-5.679l-11.342-11.343    l-5.67-5.671l12.72-12.721l17.013,17.014c2.463,2.464,6.3,2.907,9.261,1.068c5.95-3.695,12.433-6.379,19.269-7.979    c3.393-0.793,5.792-3.818,5.792-7.303v-24.063h17.989V205.3c0,3.484,2.399,6.509,5.792,7.303    c6.835,1.599,13.319,4.283,19.27,7.979c2.959,1.837,6.796,1.395,9.26-1.068l17.014-17.014l12.721,12.721l-17.013,17.014    c-2.464,2.464-2.906,6.3-1.068,9.261c3.695,5.951,6.38,12.435,7.979,19.271c0.793,3.392,3.819,5.791,7.303,5.791h24.062V284.546z" fill="#006DF0"/>
	</g>
</g>
<g>
	<g>
		<path d="M358.164,235.368c-22.157,0-40.184,18.026-40.184,40.184c0,22.158,18.026,40.184,40.184,40.184    c22.157,0,40.183-18.026,40.183-40.184C398.348,253.394,380.321,235.368,358.164,235.368z M358.164,300.735    c-13.886,0-25.184-11.298-25.184-25.184s11.297-25.184,25.184-25.184c13.886,0,25.182,11.298,25.182,25.184    S372.049,300.735,358.164,300.735z" fill="#006DF0"/>
	</g>
</g>
<g>
	<g>
		<path d="M256.349,186.545H122.3c-4.142,0-7.5,3.357-7.5,7.5c0,4.143,3.358,7.5,7.5,7.5h134.049c4.142,0,7.5-3.357,7.5-7.5    C263.85,189.902,260.491,186.545,256.349,186.545z" fill="#006DF0"/>
	</g>
</g>
<g>
	<g>
		<path d="M256.349,227.299H122.3c-4.142,0-7.5,3.357-7.5,7.5c0,4.143,3.358,7.5,7.5,7.5h134.049c4.142,0,7.5-3.357,7.5-7.5    C263.85,230.656,260.491,227.299,256.349,227.299z" fill="#006DF0"/>
	</g>
</g>
<g>
	<g>
		<path d="M256.349,308.804H122.3c-4.142,0-7.5,3.357-7.5,7.5s3.358,7.5,7.5,7.5h134.049c4.142,0,7.5-3.357,7.5-7.5    S260.491,308.804,256.349,308.804z" fill="#006DF0"/>
	</g>
</g>
<g>
	<g>
		<path d="M256.349,349.556H122.3c-4.142,0-7.5,3.357-7.5,7.5s3.358,7.5,7.5,7.5h134.049c4.142,0,7.5-3.357,7.5-7.5    S260.491,349.556,256.349,349.556z" fill="#006DF0"/>
	</g>
</g>
<g>
	<g>
		<path d="M317.955,0H76.156C58.713,0,44.522,14.191,44.522,31.634v448.732c0,17.442,14.191,31.634,31.634,31.634h103.398    c4.142,0,7.5-3.357,7.5-7.5s-3.358-7.5-7.501-7.5H76.156c-9.172,0-16.633-7.461-16.633-16.633V31.634    c0-9.172,7.461-16.633,16.633-16.633h241.799c9.172,0,16.633,7.461,16.633,16.633V91.57c0,4.143,3.358,7.5,7.5,7.5    s7.5-3.357,7.5-7.5V31.634C349.588,14.191,335.397,0,317.955,0z" fill="#006DF0"/>
	</g>
</g>
<g>
</g>
<g>
</g>
<g>
</g>
<g>
</g>
<g>
</g>
<g>
</g>
<g>
</g>
<g>
</g>
<g>
</g>
<g>
</g>
<g>
</g>
<g>
</g>
<g>
</g>
<g>
</g>
<g>
</g>
</svg>
