<?xml version="1.0" encoding="iso-8859-1"?>
<!-- Generator: Adobe Illustrator 19.0.0, SVG Export Plug-In . SVG Version: 6.00 Build 0)  -->
<svg version="1.1" id="Capa_1" xmlns="http://www.w3.org/2000/svg" xmlns:xlink="http://www.w3.org/1999/xlink" x="0px" y="0px"
	 viewBox="0 0 512 512" style="enable-background:new 0 0 512 512;" xml:space="preserve">
<linearGradient id="SVGID_1_" gradientUnits="userSpaceOnUse" x1="0" y1="258" x2="512" y2="258" gradientTransform="matrix(1 0 0 -1 0 514.0001)">
	<stop  offset="0" style="stop-color:#00F2FE"/>
	<stop  offset="0.021" style="stop-color:#03EFFE"/>
	<stop  offset="0.293" style="stop-color:#24D2FE"/>
	<stop  offset="0.554" style="stop-color:#3CBDFE"/>
	<stop  offset="0.796" style="stop-color:#4AB0FE"/>
	<stop  offset="1" style="stop-color:#4FACFE"/>
</linearGradient>
<path style="fill:url(#SVGID_1_);" d="M435.143,129.356c-6.796-6.795-17.463-7.797-25.407-2.384
	c-29.926,20.398-180.03,122.969-196.162,139.1c-23.394,23.395-23.394,61.459,0,84.854c11.697,11.696,27.063,17.545,42.427,17.545
	s30.729-5.849,42.427-17.545c16.131-16.132,118.701-166.236,139.1-196.162C442.939,146.821,441.938,136.153,435.143,129.356z
	 M270.142,322.641c-7.797,7.799-20.486,7.799-28.283,0c-7.798-7.797-7.799-20.482-0.004-28.28
	c6.268-6.194,48.885-36.588,101.319-73.035C306.728,273.76,276.334,316.375,270.142,322.641z M512,308.499
	c0,50.53-14.998,99.674-43.374,142.116c-3.817,5.711-10.137,8.886-16.637,8.886c-2.896,0-5.825-0.629-8.588-1.944l-42-20
	c-9.973-4.749-14.208-16.684-9.459-26.656c4.75-9.974,16.685-14.207,26.656-9.459l25.777,12.275
	C462.494,381.438,472,345.393,472,308.499c0-30.946-6.399-60.813-19.021-88.771c-4.545-10.067-0.068-21.912,9.999-26.457
	c10.071-4.547,21.914-0.067,26.458,10C504.408,236.436,512,271.84,512,308.499z M118.976,410.73
	c4.843,9.928,0.721,21.901-9.207,26.744l-41,20c-2.811,1.371-5.803,2.026-8.757,2.026c-6.498,0-12.817-3.171-16.639-8.886
	C14.998,408.173,0,359.029,0,308.499c0-68.38,26.629-132.667,74.98-181.02c48.353-48.352,112.64-74.98,181.02-74.98
	c36.659,0,72.063,7.592,105.229,22.563c10.068,4.545,14.545,16.39,10,26.458c-4.545,10.065-16.392,14.544-26.457,9.999
	c-21.887-9.88-44.943-15.948-68.771-18.117v30.096c0,11.046-8.954,20-20,20s-20-8.954-20-20V93.417
	c-69.499,6.41-129.566,45.885-164.283,102.505L99.65,209.32c9.96,4.777,14.16,16.724,9.384,26.683
	c-3.439,7.17-10.594,11.355-18.047,11.355c-2.901,0-5.846-0.634-8.636-1.972l-28.291-13.57C44.977,255.657,40,281.508,40,308.499
	c0,36.839,9.475,72.826,27.541,105.068l24.69-12.044C102.159,396.682,114.133,400.803,118.976,410.73z"/>
<g>
</g>
<g>
</g>
<g>
</g>
<g>
</g>
<g>
</g>
<g>
</g>
<g>
</g>
<g>
</g>
<g>
</g>
<g>
</g>
<g>
</g>
<g>
</g>
<g>
</g>
<g>
</g>
<g>
</g>
</svg>
