<svg height="483pt" viewBox="-5 0 483 483.16567" width="483pt" xmlns="http://www.w3.org/2000/svg"><path d="m16.082031 475.164062h48c4.417969 0 8-3.582031 8-8v-144c0-4.417968-3.582031-8-8-8h-48c-4.417969 0-8 3.582032-8 8v144c0 4.417969 3.582031 8 8 8zm0 0" fill="#5aaae7"/><path d="m463.441406 280.445312-11.359375-11.28125c-9.371093-9.355468-24.550781-9.355468-33.917969 0l-82.082031 82.160157v-28.160157c-.027343-8.824218-7.171875-15.972656-16-16h-208l-40 40v112l40-40h224l127.359375-127.359374c3.121094-3.144532 3.121094-8.214844 0-11.359376zm0 0" fill="#ffdaaa"/><path d="m276.570312 33.566406-26.246093-21.863281c-5.933594-4.941406-14.550781-4.941406-20.480469 0l-26.25 21.863281c-7.292969 6.078125-11.511719 15.085938-11.511719 24.582032v137.015624h96v-137.015624c0-9.496094-4.214843-18.503907-11.511719-24.582032zm-36.488281 57.597656c-8.835937 0-16-7.160156-16-16 0-8.835937 7.164063-16 16-16 8.835938 0 16 7.164063 16 16 0 8.839844-7.164062 16-16 16zm0 0" fill="#ff7956"/><path d="m336.082031 195.164062c0-35.34375-12.65625-64-48-64v64zm0 0" fill="#ffe477"/><path d="m144.082031 195.164062h48v-64c-35.34375 0-48 28.65625-48 64zm0 0" fill="#ffe477"/><path d="m256.082031 75.164062c0 8.839844-7.164062 16-16 16-8.835937 0-16-7.160156-16-16 0-8.835937 7.164063-16 16-16 8.835938 0 16 7.164063 16 16zm0 0" fill="#78b9eb"/><g fill="#3e3d42"><path d="m469.082031 274.773438-11.34375-11.265626c-12.664062-12.054687-32.566406-12.054687-45.230469 0l-68.425781 68.496094v-8.839844c0-13.253906-10.746093-24-24-24h-208c-2.121093.003907-4.15625.84375-5.65625 2.34375l-26.34375 26.347657v-4.691407c0-8.835937-7.164062-16-16-16h-48c-8.835937 0-15.9999998 7.164063-15.9999998 16v144c0 8.839844 7.1640628 16 15.9999998 16h48c8.835938 0 16-7.160156 16-16v-4.6875l35.3125-35.3125h220.6875c2.121094 0 4.15625-.84375 5.65625-2.34375l127.367188-127.359374c6.25-6.277344 6.238281-16.425782-.023438-22.6875zm-405 192.390624h-48v-144h48zm268.6875-56h-220.6875c-2.121093.003907-4.15625.84375-5.65625 2.34375l-26.34375 26.347657v-89.378907l35.3125-35.3125h204.6875c4.417969 0 8 3.582032 8 8v24h-104v16h112c4.417969 0 8-3.582031 8-8l79.738281-80.34375c6.246094-6.246093 16.375-6.246093 22.621094 0l11.34375 11.3125zm0 0"/><path d="m144.082031 203.164062h192c4.417969 0 8-3.582031 8-8 0-42.191406-17.390625-67.734374-48-71.46875v-65.539062c.015625-11.875-5.261719-23.140625-14.398437-30.726562l-26.234375-21.863282c-8.898438-7.421875-21.832031-7.421875-30.734375 0l-26.230469 21.855469c-9.136719 7.589844-14.417969 18.855469-14.402344 30.734375v65.539062c-30.605469 3.734376-48 29.277344-48 71.46875 0 4.417969 3.582031 8 8 8zm183.777344-16h-31.777344v-47.367187c19.480469 3.273437 30.136719 19.160156 31.777344 47.367187zm-127.777344-129.007812c-.007812-7.125 3.160157-13.882812 8.640625-18.4375l26.238282-21.875c2.96875-2.46875 7.277343-2.46875 10.242187 0l26.246094 21.875c5.476562 4.554688 8.640625 11.3125 8.632812 18.4375v129.007812h-80zm-16 81.640625v47.367187h-31.773437c1.636718-28.207031 12.292968-44.09375 31.773437-47.367187zm0 0"/><path d="m240.082031 99.164062c13.253907 0 24-10.742187 24-24 0-13.253906-10.746093-24-24-24-13.253906 0-24 10.746094-24 24 0 13.257813 10.746094 24 24 24zm0-32c4.417969 0 8 3.582032 8 8 0 4.417969-3.582031 8-8 8s-8-3.582031-8-8c0-4.417968 3.582031-8 8-8zm0 0"/><path d="m232.082031 219.164062h16v32h-16zm0 0"/><path d="m232.082031 267.164062h16v16h-16zm0 0"/><path d="m264.082031 219.164062h16v16h-16zm0 0"/><path d="m264.082031 251.164062h16v16h-16zm0 0"/><path d="m200.082031 219.164062h16v16h-16zm0 0"/><path d="m200.082031 251.164062h16v16h-16zm0 0"/><path d="m32.082031 75.164062h16v-16h16v-16h-16v-16h-16v16h-16v16h16zm0 0"/><path d="m416.082031 179.164062h16v-16h16v-16h-16v-16h-16v16h-16v16h16zm0 0"/><path d="m64.082031 211.164062v16h-16v16h16v16h16v-16h16v-16h-16v-16zm0 0"/><path d="m360.082031 27.164062h16v16h-16zm0 0"/><path d="m328.082031 83.164062h16v16h-16zm0 0"/><path d="m88.082031 99.164062h16v16h-16zm0 0"/><path d="m16.082031 187.164062h16v16h-16zm0 0"/></g></svg>