<?xml version="1.0" encoding="iso-8859-1"?>
<!-- Generator: Adobe Illustrator 19.0.0, SVG Export Plug-In . SVG Version: 6.00 Build 0)  -->
<svg version="1.1" id="Capa_1" xmlns="http://www.w3.org/2000/svg" xmlns:xlink="http://www.w3.org/1999/xlink" x="0px" y="0px"
	 viewBox="0 0 512 512" style="enable-background:new 0 0 512 512;" xml:space="preserve">
<path style="fill:#783C28;" d="M28.841,446.303c-7.029,0-12.728-5.699-12.728-12.728V304.686c0-7.029,5.699-12.728,12.728-12.728
	s12.728,5.699,12.728,12.728v128.889C41.568,440.605,35.87,446.303,28.841,446.303z"/>
<path style="fill:#5F6E9B;" d="M424.417,426.736c8.31,0,15.609-6.056,16.918-14.523l12.648-81.785
	c1.006-6.506-1.803-13.014-7.229-16.744l-29.722-20.434c-7.8-5.364-18.472-3.386-23.835,4.414c-5.363,7.8-3.387,18.473,4.414,23.835
	l20.848,14.333l-11.002,71.142c-1.447,9.356,4.965,18.113,14.32,19.559C422.664,426.669,423.546,426.736,424.417,426.736z"/>
<path style="fill:#414B82;" d="M355.18,426.736c-8.31,0-15.609-6.056-16.918-14.523l-12.648-81.785
	c-1.006-6.506,1.803-13.014,7.229-16.744l29.722-20.434c7.8-5.364,18.472-3.386,23.835,4.414c5.363,7.8,3.387,18.473-4.414,23.835
	l-20.848,14.333l11.002,71.142c1.447,9.356-4.965,18.113-14.32,19.559C356.934,426.669,356.05,426.736,355.18,426.736z"/>
<path style="fill:#FFB69E;" d="M293.917,82.131l5.119,70.708c0.265,3.656,1.832,7.096,4.415,9.697l10.476,10.542l0,0l34.035,34.248
	c0.396,0.398,0.815,0.767,1.247,1.116v98.61h81.179v-20.203h37.014c5.112,0,9.887-2.548,12.732-6.794
	c2.845-4.246,3.386-9.632,1.442-14.359l-25.828-62.811c-5.416-13.174-18.121-21.686-32.364-21.686h-13.803h-25.024h-19.347
	l-36.012-36.237l-4.708-65.042c-0.611-8.442-7.943-14.796-16.392-14.179C299.654,66.349,293.306,73.689,293.917,82.131z
	 M430.388,256.196v-34.389l6.322,15.374l7.819,19.015H430.388L430.388,256.196z"/>
<path style="fill:#8093CF;" d="M455.748,202.881c-5.416-13.174-18.121-21.686-32.364-21.686h-13.16
	c0.244,10.136-9.19,18.705-19.041,18.705c-10.556,0-18.39-8.538-19.005-18.705h-6.968l-28.679-28.859l-22.603,20.74l34.035,34.248
	c0.396,0.398,0.815,0.767,1.247,1.116v98.61h81.179v-85.245l11.957,29.08l28.969-10.148L455.748,202.881z"/>
<g>
	<path style="fill:#783C28;" d="M483.159,446.303c7.029,0,12.728-5.699,12.728-12.728V304.686c0-7.029-5.699-12.728-12.728-12.728
		s-12.728,5.699-12.728,12.728v128.889C470.433,440.605,476.131,446.303,483.159,446.303z"/>
	<path style="fill:#783C28;" d="M297.952,446.303c7.029,0,12.728-5.699,12.728-12.728V304.686c0-7.029-5.699-12.728-12.728-12.728
		s-12.728,5.699-12.728,12.728v128.889C285.224,440.605,290.923,446.303,297.952,446.303z"/>
</g>
<path style="fill:#A55A3C;" d="M512,304.402c0,9.699-7.862,17.561-17.561,17.561H282.702c-9.699,0-17.561-7.862-17.561-17.561
	c0-9.699,7.862-17.561,17.561-17.561H494.44C504.138,286.841,512,294.703,512,304.402z"/>
<g>
	<path style="fill:#FFB69E;" d="M405.665,256.196h38.862l-2.184-5.31l28.969-10.148l10.262,24.956
		c1.944,4.728,1.403,10.113-1.442,14.359c-2.845,4.246-7.62,6.794-12.732,6.794h-61.735c-8.464,0-15.327-6.861-15.327-15.326
		S397.201,256.196,405.665,256.196z"/>
	<circle style="fill:#FFB69E;" cx="390.598" cy="136.436" r="31.763"/>
	<path style="fill:#FFB69E;" d="M203.904,65.738c-8.449-0.617-15.781,5.737-16.392,14.179l-4.708,65.042l-36.012,36.237h-19.347
		H102.42H88.618c-14.244,0-26.948,8.512-32.364,21.686l-25.828,62.811c-1.944,4.728-1.403,10.113,1.442,14.359
		c2.845,4.246,7.62,6.794,12.732,6.794h37.014v20.203h81.179v-98.61c0.432-0.349,0.851-0.717,1.247-1.116l34.035-34.248l0,0
		l10.476-10.542c2.584-2.6,4.15-6.041,4.415-9.697l5.119-70.708C218.694,73.689,212.346,66.349,203.904,65.738z M67.472,256.196
		l7.819-19.015l6.322-15.374v34.389H67.472z"/>
</g>
<path style="fill:#87AFB9;" d="M198.074,173.077l-22.603-20.74l-28.679,28.859h-19.347H102.42H88.618
	c-14.244,0-26.948,8.512-32.364,21.686l-15.566,37.855l28.969,10.148l11.957-29.08v85.245h81.179v-98.61
	c0.432-0.349,0.851-0.717,1.247-1.116L198.074,173.077z"/>
<path style="fill:#E6EBF0;" d="M320.004,286.841h101.975c4.643,0,8.408-3.765,8.408-8.408v-59.225c0-4.643-3.765-8.408-8.408-8.408
	H320.004c-4.643,0-8.408,3.765-8.408,8.408v59.225C311.596,283.076,315.36,286.841,320.004,286.841z"/>
<circle style="fill:#FFFFFF;" cx="370.995" cy="248.817" r="11.667"/>
<path style="fill:#5F6E9B;" d="M87.584,426.736c-8.31,0-15.609-6.056-16.918-14.523l-12.648-81.785
	c-1.006-6.506,1.803-13.014,7.229-16.744l29.722-20.434c7.8-5.364,18.472-3.386,23.835,4.414c5.363,7.8,3.387,18.473-4.414,23.835
	l-20.848,14.333l11.002,71.142c1.447,9.356-4.965,18.113-14.32,19.559C89.337,426.669,88.454,426.736,87.584,426.736z"/>
<path style="fill:#414B82;" d="M156.821,426.736c8.31,0,15.609-6.056,16.918-14.523l12.648-81.785
	c1.006-6.506-1.803-13.014-7.229-16.744l-29.722-20.434c-7.8-5.364-18.472-3.386-23.835,4.414c-5.363,7.8-3.387,18.473,4.414,23.835
	l20.848,14.333l-11.002,71.142c-1.447,9.356,4.965,18.113,14.32,19.559C155.067,426.669,155.95,426.736,156.821,426.736z"/>
<path style="fill:#783C28;" d="M214.048,446.303c-7.029,0-12.728-5.699-12.728-12.728V304.686c0-7.029,5.699-12.728,12.728-12.728
	s12.728,5.699,12.728,12.728v128.889C226.776,440.605,221.077,446.303,214.048,446.303z"/>
<path style="fill:#A55A3C;" d="M0,304.402c0,9.699,7.862,17.561,17.561,17.561h211.738c9.699,0,17.561-7.862,17.561-17.561
	c0-9.699-7.862-17.561-17.561-17.561H17.561C7.862,286.841,0,294.703,0,304.402z"/>
<g>
	<path style="fill:#FFB69E;" d="M106.335,256.196H67.472l2.184-5.31l-28.969-10.148l-10.262,24.956
		c-1.944,4.728-1.403,10.113,1.442,14.359c2.845,4.246,7.62,6.794,12.732,6.794h61.735c8.464,0,15.327-6.861,15.327-15.326
		S114.799,256.196,106.335,256.196z"/>
	<circle style="fill:#FFB69E;" cx="121.408" cy="158.7" r="31.763"/>
</g>
<g>
</g>
<g>
</g>
<g>
</g>
<g>
</g>
<g>
</g>
<g>
</g>
<g>
</g>
<g>
</g>
<g>
</g>
<g>
</g>
<g>
</g>
<g>
</g>
<g>
</g>
<g>
</g>
<g>
</g>
</svg>
