<?xml version="1.0" encoding="iso-8859-1"?>
<!-- Generator: Adobe Illustrator 19.0.0, SVG Export Plug-In . SVG Version: 6.00 Build 0)  -->
<svg version="1.1" id="Capa_1" xmlns="http://www.w3.org/2000/svg" xmlns:xlink="http://www.w3.org/1999/xlink" x="0px" y="0px"
	 viewBox="0 0 496 496" style="enable-background:new 0 0 496 496;" xml:space="preserve">
<g>
	<rect x="232" y="120" style="fill:#FFA64D;" width="32" height="64"/>
	<path style="fill:#FFA64D;" d="M248,120L248,120c-26.512,0-48-21.488-48-48V8h96v64C296,98.512,274.512,120,248,120z"/>
</g>
<g>
	<path style="fill:#333333;" d="M160,264c-13.232,0-24-10.768-24-24h-16c0,22.056,17.944,40,40,40s40-17.944,40-40h-16
		C184,253.232,173.232,264,160,264z"/>
	<path style="fill:#333333;" d="M336,264c-13.232,0-24-10.768-24-24h-16c0,22.056,17.944,40,40,40s40-17.944,40-40h-16
		C360,253.232,349.232,264,336,264z"/>
	<path style="fill:#333333;" d="M480,240c0-28.152-20.904-51.456-48-55.36V176c0-32.656-89.088-42.976-127.392-45.896l-1.216,15.952
		C382,152.048,416,168.784,416,176c0,10.856-59.296,32-168,32S80,186.856,80,176c0-7.216,34-23.952,112.608-29.944l-1.216-15.952
		C153.088,133.024,64,143.344,64,176v8.64c-27.096,3.904-48,27.208-48,55.36c0,28.224,21,51.568,48.184,55.392
		C66.96,365.048,108.6,424.872,168,453.672V496h16v-35.496C203.944,467.92,225.504,472,248,472s44.056-4.08,64-11.496V496h16
		v-42.328c59.4-28.8,101.04-88.624,103.816-158.288C459,291.568,480,268.224,480,240z M32,240c0-19.312,13.768-35.472,32-39.192
		v78.384C45.768,275.472,32,259.312,32,240z M248,456c-92.64,0-168-75.36-168-168v-90.584C114.856,217.936,198.544,224,248,224
		s133.144-6.064,168-26.584V288C416,380.64,340.64,456,248,456z M432,279.192v-78.384c18.232,3.72,32,19.872,32,39.192
		S450.232,275.472,432,279.192z"/>
	<path style="fill:#333333;" d="M197.416,95.872c5.528,11.664,14.936,21.096,26.584,26.648V176h-32v16h112v-16h-32v-53.48
		c11.648-5.552,21.056-14.992,26.584-26.648C328.256,94.504,352,70.008,352,40V24c0-13.232-10.768-24-24-24h-24h-8h-96h-8h-24
		c-13.232,0-24,10.768-24,24v16C144,70.008,167.744,94.504,197.416,95.872z M256,176h-16v-48.64c2.624,0.376,5.28,0.64,8,0.64
		s5.376-0.264,8-0.64V176z M248,112c-22.056,0-40-17.944-40-40V48h80v24C288,94.056,270.056,112,248,112z M328,16
		c4.408,0,8,3.592,8,8v16c0,19.496-14.04,35.728-32.52,39.248C303.784,76.864,304,74.464,304,72V16H328z M288,16v16h-80V16H288z
		 M160,24c0-4.408,3.592-8,8-8h24v56c0,2.464,0.216,4.864,0.52,7.248C174.04,75.728,160,59.496,160,40V24z"/>
	<rect x="384" style="fill:#333333;" width="16" height="16"/>
	<rect x="384" y="32" style="fill:#333333;" width="16" height="16"/>
	<rect x="400" y="16" style="fill:#333333;" width="16" height="16"/>
	<rect x="368" y="16" style="fill:#333333;" width="16" height="16"/>
	<rect x="80" y="16" style="fill:#333333;" width="16" height="16"/>
	<rect x="80" y="48" style="fill:#333333;" width="16" height="16"/>
	<rect x="96" y="32" style="fill:#333333;" width="16" height="16"/>
	<rect x="64" y="32" style="fill:#333333;" width="16" height="16"/>
	<rect x="400" y="80" style="fill:#333333;" width="16" height="16"/>
	<rect x="400" y="112" style="fill:#333333;" width="16" height="16"/>
	<rect x="416" y="96" style="fill:#333333;" width="16" height="16"/>
	<rect x="384" y="96" style="fill:#333333;" width="16" height="16"/>
	<rect x="112" y="80" style="fill:#333333;" width="16" height="16"/>
	<rect x="112" y="112" style="fill:#333333;" width="16" height="16"/>
	<rect x="128" y="96" style="fill:#333333;" width="16" height="16"/>
	<rect x="96" y="96" style="fill:#333333;" width="16" height="16"/>
</g>
<g>
</g>
<g>
</g>
<g>
</g>
<g>
</g>
<g>
</g>
<g>
</g>
<g>
</g>
<g>
</g>
<g>
</g>
<g>
</g>
<g>
</g>
<g>
</g>
<g>
</g>
<g>
</g>
<g>
</g>
</svg>
