<svg height="512pt" viewBox="0 0 512 512" width="512pt" xmlns="http://www.w3.org/2000/svg"><path d="m512 0v61l-30 30h-452l-30-30v-61zm0 0" fill="#9bfcff"/><path d="m512 0v61l-30 30h-226v-91zm0 0" fill="#25d9f8"/><path d="m512 61v90l-30 30h-452l-30-30v-90zm0 0" fill="#61729b"/><path d="m512 61v90l-30 30h-226v-120zm0 0" fill="#47568c"/><path d="m0 151h512v210h-512zm0 0" fill="#9bfcff"/><path d="m256 151h256v210h-256zm0 0" fill="#25d9f8"/><path d="m181 301h-121v-90h121zm0 0" fill="#ffda2d"/><path d="m211 211h241v30h-241zm0 0" fill="#4bb9ec"/><path d="m331 271h121v30h-121zm0 0" fill="#0095ff"/><path d="m316 422-60 90-60-90h30v-121h60v121zm0 0" fill="#7fe881"/><path d="m286 422h30l-60 90v-211h30zm0 0" fill="#5bc980"/><path d="m256 211h196v30h-196zm0 0" fill="#0095ff"/></svg>