<svg height="512pt" viewBox="0 0 512 512" width="512pt" xmlns="http://www.w3.org/2000/svg"><path d="m367.605469 165.605469-21.210938-21.210938-90.394531 90.390625-90.394531-90.390625-21.210938 21.210938 90.390625 90.394531-90.390625 90.394531 21.210938 21.210938 90.394531-90.390625 90.394531 90.390625 21.210938-21.210938-90.390625-90.394531zm0 0" fill="#266cb2"/><path d="m346.394531 367.605469 21.210938-21.210938-90.390625-90.394531 90.390625-90.394531-21.210938-21.210938-90.394531 90.390625v42.429688zm0 0" fill="#114378"/><path d="m512 512h-170v-170h170zm0 0" fill="#ffc474"/><path d="m490.605469 266.394531-63.605469-63.609375-63.605469 63.609375 21.210938 21.210938 27.394531-27.390625v166.785156h30v-166.785156l27.394531 27.390625zm0 0" fill="#fe3b7f"/><path d="m170 512h-170v-170h170zm0 0" fill="#ffe2ba"/><path d="m245.605469 363.394531-21.210938 21.210938 27.390625 27.394531h-166.785156v30h166.785156l-27.390625 27.394531 21.210938 21.210938 63.609375-63.605469zm0 0" fill="#ff6e84"/><path d="m170 170h-170v-170h170zm0 0" fill="#ffe2ba"/><path d="m512 170h-170v-170h170zm0 0" fill="#ffc474"/><path d="m427 70h-166.785156l27.390625-27.394531-21.210938-21.210938-63.609375 63.605469 63.609375 63.605469 21.210938-21.210938-27.390625-27.394531h166.785156zm0 0" fill="#ff6e84"/><path d="m100 85c0 8.285156-6.714844 15-15 15s-15-6.714844-15-15 6.714844-15 15-15 15 6.714844 15 15zm0 0" fill="#ff6e84"/><g fill="#fe3b7f"><path d="m256 373.785156v106.429688l53.214844-53.214844zm0 0"/><path d="m287.605469 42.605469-21.210938-21.210938-10.394531 10.390625v106.429688l10.394531 10.390625 21.210938-21.210938-27.390625-27.394531h166.785156v-30h-166.785156zm0 0"/></g></svg>