<svg xmlns="http://www.w3.org/2000/svg" width="1440" height="900"><path d="M776,449L776,337L666,338Z" fill="#76add2" stroke="#76add2" stroke-width="1.51"/><path d="M666,338L659,451L776,449Z" fill="#72add1" stroke="#72add1" stroke-width="1.51"/><path d="M776,337L661,224L666,338Z" fill="#89b4d5" stroke="#89b4d5" stroke-width="1.51"/><path d="M666,338L549,338L659,451Z" fill="#85b2d4" stroke="#85b2d4" stroke-width="1.51"/><path d="M667,566L778,564L776,449Z" fill="#5ba2cb" stroke="#5ba2cb" stroke-width="1.51"/><path d="M896,450L891,330L776,337Z" fill="#6da6cd" stroke="#6da6cd" stroke-width="1.51"/><path d="M896,450L776,337L776,449Z" fill="#67a6ce" stroke="#67a6ce" stroke-width="1.51"/><path d="M776,337L780,221L661,224Z" fill="#8bb4d6" stroke="#8bb4d6" stroke-width="1.51"/><path d="M661,224L549,338L666,338Z" fill="#93b6d7" stroke="#93b6d7" stroke-width="1.51"/><path d="M659,451L667,566L776,449Z" fill="#65a7cd" stroke="#65a7cd" stroke-width="1.51"/><path d="M548,560L667,566L659,451Z" fill="#6ca7ce" stroke="#6ca7ce" stroke-width="1.51"/><path d="M891,330L780,221L776,337Z" fill="#80add2" stroke="#80add2" stroke-width="1.51"/><path d="M778,564L896,450L776,449Z" fill="#59a0ca" stroke="#59a0ca" stroke-width="1.51"/><path d="M549,338L547,451L659,451Z" fill="#83b2d4" stroke="#83b2d4" stroke-width="1.51"/><path d="M547,451L548,560L659,451Z" fill="#77acd1" stroke="#77acd1" stroke-width="1.51"/><path d="M661,224L548,224L549,338Z" fill="#9ebbda" stroke="#9ebbda" stroke-width="1.51"/><path d="M549,338L428,446L547,451Z" fill="#8db5d6" stroke="#8db5d6" stroke-width="1.51"/><path d="M547,108L548,224L661,224Z" fill="#a9bfdc" stroke="#a9bfdc" stroke-width="1.51"/><path d="M778,564L892,568L896,450Z" fill="#4f9bc7" stroke="#4f9bc7" stroke-width="1.51"/><path d="M779,684L892,568L778,564Z" fill="#4797c4" stroke="#4797c4" stroke-width="1.51"/><path d="M891,330L897,215L780,221Z" fill="#83aed2" stroke="#83aed2" stroke-width="1.51"/><path d="M780,221L663,108L661,224Z" fill="#9abbd9" stroke="#9abbd9" stroke-width="1.51"/><path d="M1003,331L897,215L891,330Z" fill="#77a7ce" stroke="#77a7ce" stroke-width="1.51"/><path d="M896,450L1003,331L891,330Z" fill="#66a2cb" stroke="#66a2cb" stroke-width="1.51"/><path d="M1010,454L1003,331L896,450Z" fill="#599ec6" stroke="#599ec6" stroke-width="1.51"/><path d="M667,566L663,676L778,564Z" fill="#559ec9" stroke="#559ec9" stroke-width="1.51"/><path d="M548,560L663,676L667,566Z" fill="#62a1cb" stroke="#62a1cb" stroke-width="1.51"/><path d="M773,99L663,108L780,221Z" fill="#9dbbda" stroke="#9dbbda" stroke-width="1.51"/><path d="M1007,567L1010,454L896,450Z" fill="#4999c3" stroke="#4999c3" stroke-width="1.51"/><path d="M663,676L779,684L778,564Z" fill="#4b9ac1" stroke="#4b9ac1" stroke-width="1.51"/><path d="M892,568L1007,567L896,450Z" fill="#4797c4" stroke="#4797c4" stroke-width="1.51"/><path d="M547,451L433,561L548,560Z" fill="#7dacd1" stroke="#7dacd1" stroke-width="1.51"/><path d="M548,560L548,680L663,676Z" fill="#64a1c5" stroke="#64a1c5" stroke-width="1.51"/><path d="M429,332L428,446L549,338Z" fill="#99b9d9" stroke="#99b9d9" stroke-width="1.51"/><path d="M890,103L773,99L780,221Z" fill="#97b7d7" stroke="#97b7d7" stroke-width="1.51"/><path d="M548,224L429,332L549,338Z" fill="#a3bcda" stroke="#a3bcda" stroke-width="1.51"/><path d="M431,224L429,332L548,224Z" fill="#adc0dd" stroke="#adc0dd" stroke-width="1.51"/><path d="M428,446L433,561L547,451Z" fill="#86b1d4" stroke="#86b1d4" stroke-width="1.51"/><path d="M663,108L547,108L661,224Z" fill="#a9c0dd" stroke="#a9c0dd" stroke-width="1.51"/><path d="M545,-6L547,108L663,108Z" fill="#b6c6e0" stroke="#b6c6e0" stroke-width="1.51"/><path d="M896,684L1007,567L892,568Z" fill="#3991c1" stroke="#3991c1" stroke-width="1.51"/><path d="M663,676L663,794L779,684Z" fill="#4a98b5" stroke="#4a98b5" stroke-width="1.51"/><path d="M433,561L548,680L548,560Z" fill="#74a6ce" stroke="#74a6ce" stroke-width="1.51"/><path d="M1009,107L890,103L897,215Z" fill="#8db1d3" stroke="#8db1d3" stroke-width="1.51"/><path d="M897,215L890,103L780,221Z" fill="#8eb2d5" stroke="#8eb2d5" stroke-width="1.51"/><path d="M547,108L431,224L548,224Z" fill="#b2c2de" stroke="#b2c2de" stroke-width="1.51"/><path d="M1003,331L1008,216L897,215Z" fill="#7aa8cc" stroke="#7aa8cc" stroke-width="1.51"/><path d="M1124,333L1008,216L1003,331Z" fill="#6fa3c2" stroke="#6fa3c2" stroke-width="1.51"/><path d="M779,684L896,684L892,568Z" fill="#3f93bc" stroke="#3f93bc" stroke-width="1.51"/><path d="M548,680L663,794L663,676Z" fill="#579bb7" stroke="#579bb7" stroke-width="1.51"/><path d="M779,684L888,793L896,684Z" fill="#3790b0" stroke="#3790b0" stroke-width="1.51"/><path d="M1008,216L1009,107L897,215Z" fill="#85adcf" stroke="#85adcf" stroke-width="1.51"/><path d="M772,-13L664,-9L773,99Z" fill="#a8c2de" stroke="#a8c2de" stroke-width="1.51"/><path d="M1127,217L1009,107L1008,216Z" fill="#80aac6" stroke="#80aac6" stroke-width="1.51"/><path d="M1010,454L1124,444L1003,331Z" fill="#559cbd" stroke="#559cbd" stroke-width="1.51"/><path d="M1123,560L1124,444L1010,454Z" fill="#4295b6" stroke="#4295b6" stroke-width="1.51"/><path d="M1123,560L1010,454L1007,567Z" fill="#3e93b8" stroke="#3e93b8" stroke-width="1.51"/><path d="M772,-13L773,99L894,-13Z" fill="#a2bedb" stroke="#a2bedb" stroke-width="1.51"/><path d="M773,99L664,-9L663,108Z" fill="#a8c1dd" stroke="#a8c1dd" stroke-width="1.51"/><path d="M428,446L320,454L433,561Z" fill="#8eb4d5" stroke="#8eb4d5" stroke-width="1.51"/><path d="M433,561L427,684L548,680Z" fill="#75a6c8" stroke="#75a6c8" stroke-width="1.51"/><path d="M548,680L546,795L663,794Z" fill="#599bb1" stroke="#599bb1" stroke-width="1.51"/><path d="M315,332L320,454L428,446Z" fill="#9dbbda" stroke="#9dbbda" stroke-width="1.51"/><path d="M315,332L428,446L429,332Z" fill="#a1bcdb" stroke="#a1bcdb" stroke-width="1.51"/><path d="M1124,444L1124,333L1003,331Z" fill="#5c9dba" stroke="#5c9dba" stroke-width="1.51"/><path d="M894,-13L773,99L890,103Z" fill="#9bbad8" stroke="#9bbad8" stroke-width="1.51"/><path d="M431,224L315,332L429,332Z" fill="#aec0de" stroke="#aec0de" stroke-width="1.51"/><path d="M547,108L435,100L431,224Z" fill="#bbc7e1" stroke="#bbc7e1" stroke-width="1.51"/><path d="M545,-6L435,100L547,108Z" fill="#bfc9e2" stroke="#bfc9e2" stroke-width="1.51"/><path d="M663,794L778,799L779,684Z" fill="#4094ad" stroke="#4094ad" stroke-width="1.51"/><path d="M896,684L1011,684L1007,567Z" fill="#318eb7" stroke="#318eb7" stroke-width="1.51"/><path d="M1009,792L1011,684L896,684Z" fill="#288baa" stroke="#288baa" stroke-width="1.51"/><path d="M317,219L315,332L431,224Z" fill="#b7c5df" stroke="#b7c5df" stroke-width="1.51"/><path d="M321,680L427,684L433,561Z" fill="#7da9ca" stroke="#7da9ca" stroke-width="1.51"/><path d="M778,799L888,793L779,684Z" fill="#3791ab" stroke="#3791ab" stroke-width="1.51"/><path d="M1125,682L1123,560L1007,567Z" fill="#2d8cb0" stroke="#2d8cb0" stroke-width="1.51"/><path d="M664,-9L545,-6L663,108Z" fill="#b4c6e0" stroke="#b4c6e0" stroke-width="1.51"/><path d="M433,-14L545,-6L550,-125Z" fill="#c9d0e6" stroke="#c9d0e6" stroke-width="1.51"/><path d="M431,791L546,795L548,680Z" fill="#659fb3" stroke="#659fb3" stroke-width="1.51"/><path d="M663,794L665,907L778,799Z" fill="#4391a1" stroke="#4391a1" stroke-width="1.51"/><path d="M314,105L317,219L431,224Z" fill="#c1cae2" stroke="#c1cae2" stroke-width="1.51"/><path d="M1009,107L894,-13L890,103Z" fill="#95b4d6" stroke="#95b4d6" stroke-width="1.51"/><path d="M1009,107L1008,-14L894,-13Z" fill="#96b5d4" stroke="#96b5d4" stroke-width="1.51"/><path d="M1124,333L1127,217L1008,216Z" fill="#72a4bf" stroke="#72a4bf" stroke-width="1.51"/><path d="M1236,222L1127,217L1124,333Z" fill="#6da1b5" stroke="#6da1b5" stroke-width="1.51"/><path d="M1243,330L1124,333L1124,444Z" fill="#579ab1" stroke="#579ab1" stroke-width="1.51"/><path d="M203,449L312,565L320,454Z" fill="#99b9d8" stroke="#99b9d8" stroke-width="1.51"/><path d="M320,454L312,565L433,561Z" fill="#8db3d5" stroke="#8db3d5" stroke-width="1.51"/><path d="M888,793L1009,792L896,684Z" fill="#288aa7" stroke="#288aa7" stroke-width="1.51"/><path d="M1011,684L1125,682L1007,567Z" fill="#2b8cae" stroke="#2b8cae" stroke-width="1.51"/><path d="M889,906L1009,792L888,793Z" fill="#28869b" stroke="#28869b" stroke-width="1.51"/><path d="M312,565L321,680L433,561Z" fill="#84add1" stroke="#84add1" stroke-width="1.51"/><path d="M427,684L431,791L548,680Z" fill="#6da2ba" stroke="#6da2ba" stroke-width="1.51"/><path d="M320,791L431,791L427,684Z" fill="#72a3b6" stroke="#72a3b6" stroke-width="1.51"/><path d="M1123,560L1243,454L1124,444Z" fill="#3c93ad" stroke="#3c93ad" stroke-width="1.51"/><path d="M1120,794L1125,682L1011,684Z" fill="#1d879d" stroke="#1d879d" stroke-width="1.51"/><path d="M1127,217L1124,101L1009,107Z" fill="#83abc2" stroke="#83abc2" stroke-width="1.51"/><path d="M777,-129L660,-124L772,-13Z" fill="#b0c8e1" stroke="#b0c8e1" stroke-width="1.51"/><path d="M1124,101L1008,-14L1009,107Z" fill="#8db1c9" stroke="#8db1c9" stroke-width="1.51"/><path d="M545,-6L433,-14L435,100Z" fill="#c6cde4" stroke="#c6cde4" stroke-width="1.51"/><path d="M435,100L314,105L431,224Z" fill="#c3cae3" stroke="#c3cae3" stroke-width="1.51"/><path d="M550,-125L545,-6L664,-9Z" fill="#bfcde4" stroke="#bfcde4" stroke-width="1.51"/><path d="M660,-124L664,-9L772,-13Z" fill="#b2c8e1" stroke="#b2c8e1" stroke-width="1.51"/><path d="M319,-15L314,105L435,100Z" fill="#ced0e5" stroke="#ced0e5" stroke-width="1.51"/><path d="M200,338L203,449L315,332Z" fill="#aec2de" stroke="#aec2de" stroke-width="1.51"/><path d="M315,332L203,449L320,454Z" fill="#a4bedc" stroke="#a4bedc" stroke-width="1.51"/><path d="M778,799L889,906L888,793Z" fill="#318a9d" stroke="#318a9d" stroke-width="1.51"/><path d="M546,795L665,907L663,794Z" fill="#5094a4" stroke="#5094a4" stroke-width="1.51"/><path d="M547,910L665,907L546,795Z" fill="#55949e" stroke="#55949e" stroke-width="1.51"/><path d="M777,-129L772,-13L887,-130Z" fill="#abc4df" stroke="#abc4df" stroke-width="1.51"/><path d="M200,338L315,332L205,224Z" fill="#bbc7e1" stroke="#bbc7e1" stroke-width="1.51"/><path d="M312,565L206,684L321,680Z" fill="#88aecc" stroke="#88aecc" stroke-width="1.51"/><path d="M665,907L780,914L778,799Z" fill="#3d8d9a" stroke="#3d8d9a" stroke-width="1.51"/><path d="M205,224L315,332L317,219Z" fill="#bec8e1" stroke="#bec8e1" stroke-width="1.51"/><path d="M887,-130L772,-13L894,-13Z" fill="#a5c0dc" stroke="#a5c0dc" stroke-width="1.51"/><path d="M1237,567L1243,454L1123,560Z" fill="#348ea6" stroke="#348ea6" stroke-width="1.51"/><path d="M1127,217L1240,107L1124,101Z" fill="#7ea9b9" stroke="#7ea9b9" stroke-width="1.51"/><path d="M1243,454L1243,330L1124,444Z" fill="#4c96ab" stroke="#4c96ab" stroke-width="1.51"/><path d="M1009,792L1120,794L1011,684Z" fill="#1b869b" stroke="#1b869b" stroke-width="1.51"/><path d="M780,914L889,906L778,799Z" fill="#358998" stroke="#358998" stroke-width="1.51"/><path d="M1243,330L1236,222L1124,333Z" fill="#659eb0" stroke="#659eb0" stroke-width="1.51"/><path d="M314,105L205,224L317,219Z" fill="#c8cde4" stroke="#c8cde4" stroke-width="1.51"/><path d="M1125,682L1237,567L1123,560Z" fill="#278aa7" stroke="#278aa7" stroke-width="1.51"/><path d="M777,-129L550,-125L660,-124Z" fill="#bacee5" stroke="#bacee5" stroke-width="1.51"/><path d="M660,-124L550,-125L664,-9Z" fill="#bdcde4" stroke="#bdcde4" stroke-width="1.51"/><path d="M433,910L547,910L546,795Z" fill="#6097a0" stroke="#6097a0" stroke-width="1.51"/><path d="M662,1022L777,1022L780,914Z" fill="#39818a" stroke="#39818a" stroke-width="1.51"/><path d="M433,910L546,795L431,791Z" fill="#669ba8" stroke="#669ba8" stroke-width="1.51"/><path d="M203,449L205,570L312,565Z" fill="#97b7d8" stroke="#97b7d8" stroke-width="1.51"/><path d="M321,680L320,791L427,684Z" fill="#79a7bd" stroke="#79a7bd" stroke-width="1.51"/><path d="M88,564L205,570L203,449Z" fill="#9cbad9" stroke="#9cbad9" stroke-width="1.51"/><path d="M1003,-128L887,-130L894,-13Z" fill="#a2bedb" stroke="#a2bedb" stroke-width="1.51"/><path d="M1125,682L1234,677L1237,567Z" fill="#1f869d" stroke="#1f869d" stroke-width="1.51"/><path d="M1011,906L1120,794L1009,792Z" fill="#1a818f" stroke="#1a818f" stroke-width="1.51"/><path d="M206,684L320,791L321,680Z" fill="#80aabf" stroke="#80aabf" stroke-width="1.51"/><path d="M1124,101L1126,-10L1008,-14Z" fill="#8eb2c6" stroke="#8eb2c6" stroke-width="1.51"/><path d="M1008,-14L1003,-128L894,-13Z" fill="#9cb9d7" stroke="#9cb9d7" stroke-width="1.51"/><path d="M1233,-16L1126,-10L1124,101Z" fill="#89afbd" stroke="#89afbd" stroke-width="1.51"/><path d="M314,105L198,99L205,224Z" fill="#d0d1e6" stroke="#d0d1e6" stroke-width="1.51"/><path d="M433,-14L319,-15L435,100Z" fill="#cdd1e6" stroke="#cdd1e6" stroke-width="1.51"/><path d="M432,-130L319,-15L433,-14Z" fill="#d4d5e9" stroke="#d4d5e9" stroke-width="1.51"/><path d="M1120,794L1234,677L1125,682Z" fill="#148494" stroke="#148494" stroke-width="1.51"/><path d="M1355,568L1349,447L1243,454Z" fill="#398c9b" stroke="#398c9b" stroke-width="1.51"/><path d="M889,906L1011,906L1009,792Z" fill="#238292" stroke="#238292" stroke-width="1.51"/><path d="M1120,794L1239,800L1234,677Z" fill="#058089" stroke="#058089" stroke-width="1.51"/><path d="M894,1027L1011,906L889,906Z" fill="#267c89" stroke="#267c89" stroke-width="1.51"/><path d="M89,680L206,684L205,570Z" fill="#8fb2ce" stroke="#8fb2ce" stroke-width="1.51"/><path d="M205,570L206,684L312,565Z" fill="#8eb1d4" stroke="#8eb1d4" stroke-width="1.51"/><path d="M662,1022L780,914L665,907Z" fill="#408890" stroke="#408890" stroke-width="1.51"/><path d="M320,791L433,910L431,791Z" fill="#6e9ea9" stroke="#6e9ea9" stroke-width="1.51"/><path d="M312,915L433,910L320,791Z" fill="#709ea3" stroke="#709ea3" stroke-width="1.51"/><path d="M1353,214L1240,107L1236,222Z" fill="#74a1aa" stroke="#74a1aa" stroke-width="1.51"/><path d="M1236,222L1240,107L1127,217Z" fill="#76a5b3" stroke="#76a5b3" stroke-width="1.51"/><path d="M1121,-127L1003,-128L1008,-14Z" fill="#9abacf" stroke="#9abacf" stroke-width="1.51"/><path d="M550,-125L432,-130L433,-14Z" fill="#cfd5e8" stroke="#cfd5e8" stroke-width="1.51"/><path d="M777,-129L432,-130L550,-125Z" fill="#c4d2e7" stroke="#c4d2e7" stroke-width="1.51"/><path d="M887,-130L432,-130L777,-129Z" fill="#b7cde4" stroke="#b7cde4" stroke-width="1.51"/><path d="M198,-11L198,99L314,105Z" fill="#d8d5e8" stroke="#d8d5e8" stroke-width="1.51"/><path d="M205,224L90,330L200,338Z" fill="#c0cae3" stroke="#c0cae3" stroke-width="1.51"/><path d="M198,-11L314,105L319,-15Z" fill="#d8d5e9" stroke="#d8d5e9" stroke-width="1.51"/><path d="M1355,568L1243,454L1237,567Z" fill="#348a9d" stroke="#348a9d" stroke-width="1.51"/><path d="M1243,454L1349,447L1243,330Z" fill="#4a93a2" stroke="#4a93a2" stroke-width="1.51"/><path d="M1243,330L1353,214L1236,222Z" fill="#699da8" stroke="#699da8" stroke-width="1.51"/><path d="M780,914L894,1027L889,906Z" fill="#2f808b" stroke="#2f808b" stroke-width="1.51"/><path d="M662,1022L665,907L547,910Z" fill="#4d8c92" stroke="#4d8c92" stroke-width="1.51"/><path d="M542,1024L662,1022L547,910Z" fill="#50888e" stroke="#50888e" stroke-width="1.51"/><path d="M200,338L81,450L203,449Z" fill="#acc3de" stroke="#acc3de" stroke-width="1.51"/><path d="M89,224L90,330L205,224Z" fill="#c8cee5" stroke="#c8cee5" stroke-width="1.51"/><path d="M1349,447L1354,335L1243,330Z" fill="#5294a0" stroke="#5294a0" stroke-width="1.51"/><path d="M90,330L81,450L200,338Z" fill="#b5c7e1" stroke="#b5c7e1" stroke-width="1.51"/><path d="M206,684L204,793L320,791Z" fill="#80aab9" stroke="#80aab9" stroke-width="1.51"/><path d="M89,680L204,793L206,684Z" fill="#88afc1" stroke="#88afc1" stroke-width="1.51"/><path d="M90,330L-31,338L81,450Z" fill="#bbcae2" stroke="#bbcae2" stroke-width="1.51"/><path d="M90,107L89,224L205,224Z" fill="#d1d2e7" stroke="#d1d2e7" stroke-width="1.51"/><path d="M1126,-10L1121,-127L1008,-14Z" fill="#94b5c8" stroke="#94b5c8" stroke-width="1.51"/><path d="M1240,107L1233,-16L1124,101Z" fill="#83abb7" stroke="#83abb7" stroke-width="1.51"/><path d="M1355,-7L1233,-16L1240,107Z" fill="#84aaaf" stroke="#84aaaf" stroke-width="1.51"/><path d="M1356,675L1355,568L1237,567Z" fill="#268396" stroke="#268396" stroke-width="1.51"/><path d="M1011,906L1125,909L1120,794Z" fill="#167d85" stroke="#167d85" stroke-width="1.51"/><path d="M1120,1025L1125,909L1011,906Z" fill="#167779" stroke="#167779" stroke-width="1.51"/><path d="M1233,-16L1121,-127L1126,-10Z" fill="#8fb3bf" stroke="#8fb3bf" stroke-width="1.51"/><path d="M1003,-128L1121,-127L887,-130Z" fill="#9ebed5" stroke="#9ebed5" stroke-width="1.51"/><path d="M433,910L542,1024L547,910Z" fill="#5d9094" stroke="#5d9094" stroke-width="1.51"/><path d="M662,1022L894,1027L777,1022Z" fill="#347b84" stroke="#347b84" stroke-width="1.51"/><path d="M429,1021L542,1024L433,910Z" fill="#5f8d90" stroke="#5f8d90" stroke-width="1.51"/><path d="M81,450L88,564L203,449Z" fill="#a3bfdc" stroke="#a3bfdc" stroke-width="1.51"/><path d="M1354,335L1353,214L1243,330Z" fill="#6299a2" stroke="#6299a2" stroke-width="1.51"/><path d="M777,1022L894,1027L780,914Z" fill="#327d88" stroke="#327d88" stroke-width="1.51"/><path d="M542,1024L894,1027L662,1022Z" fill="#3d7f86" stroke="#3d7f86" stroke-width="1.51"/><path d="M1349,447L1469,336L1354,335Z" fill="#519097" stroke="#519097" stroke-width="1.51"/><path d="M1356,675L1237,567L1234,677Z" fill="#208395" stroke="#208395" stroke-width="1.51"/><path d="M1125,909L1239,800L1120,794Z" fill="#097d81" stroke="#097d81" stroke-width="1.51"/><path d="M198,99L90,107L205,224Z" fill="#d5d4e7" stroke="#d5d4e7" stroke-width="1.51"/><path d="M312,-127L198,-11L319,-15Z" fill="#dedaeb" stroke="#dedaeb" stroke-width="1.51"/><path d="M432,-130L312,-127L319,-15Z" fill="#dadaeb" stroke="#dadaeb" stroke-width="1.51"/><path d="M204,793L312,915L320,791Z" fill="#79a3ab" stroke="#79a3ab" stroke-width="1.51"/><path d="M1353,214L1349,106L1240,107Z" fill="#78a2a7" stroke="#78a2a7" stroke-width="1.51"/><path d="M312,915L429,1021L433,910Z" fill="#689597" stroke="#689597" stroke-width="1.51"/><path d="M88,-9L90,107L198,99Z" fill="#ded9eb" stroke="#ded9eb" stroke-width="1.51"/><path d="M-26,217L-31,338L90,330Z" fill="#c9d0e6" stroke="#c9d0e6" stroke-width="1.51"/><path d="M1348,800L1356,675L1234,677Z" fill="#137d84" stroke="#137d84" stroke-width="1.51"/><path d="M1472,451L1469,336L1349,447Z" fill="#478b92" stroke="#478b92" stroke-width="1.51"/><path d="M-29,569L89,680L88,564Z" fill="#9bb8d7" stroke="#9bb8d7" stroke-width="1.51"/><path d="M88,564L89,680L205,570Z" fill="#96b5d6" stroke="#96b5d6" stroke-width="1.51"/><path d="M204,793L205,912L312,915Z" fill="#7aa2a6" stroke="#7aa2a6" stroke-width="1.51"/><path d="M894,1027L1009,1026L1011,906Z" fill="#217681" stroke="#217681" stroke-width="1.51"/><path d="M1125,909L1241,911L1239,800Z" fill="#057977" stroke="#057977" stroke-width="1.51"/><path d="M83,800L205,912L204,793Z" fill="#81a8ae" stroke="#81a8ae" stroke-width="1.51"/><path d="M312,915L319,1023L429,1021Z" fill="#6a9293" stroke="#6a9293" stroke-width="1.51"/><path d="M1355,-123L1240,-125L1233,-16Z" fill="#8db0b2" stroke="#8db0b2" stroke-width="1.51"/><path d="M1233,-16L1240,-125L1121,-127Z" fill="#8fb4bb" stroke="#8fb4bb" stroke-width="1.51"/><path d="M1239,800L1348,800L1234,677Z" fill="#077d81" stroke="#077d81" stroke-width="1.51"/><path d="M1236,1021L1241,911L1125,909Z" fill="#05736d" stroke="#05736d" stroke-width="1.51"/><path d="M198,-11L88,-9L198,99Z" fill="#e0daeb" stroke="#e0daeb" stroke-width="1.51"/><path d="M312,-127L196,-124L198,-11Z" fill="#e3deed" stroke="#e3deed" stroke-width="1.51"/><path d="M1241,911L1348,800L1239,800Z" fill="#057874" stroke="#057874" stroke-width="1.51"/><path d="M1009,1026L1120,1025L1011,906Z" fill="#197379" stroke="#197379" stroke-width="1.51"/><path d="M429,1021L319,1023L542,1024Z" fill="#618a8d" stroke="#618a8d" stroke-width="1.51"/><path d="M542,1024L82,1029L894,1027Z" fill="#59868a" stroke="#59868a" stroke-width="1.51"/><path d="M199,1025L319,1023L312,915Z" fill="#719594" stroke="#719594" stroke-width="1.51"/><path d="M1349,106L1355,-7L1240,107Z" fill="#7fa6a9" stroke="#7fa6a9" stroke-width="1.51"/><path d="M1465,108L1355,-7L1349,106Z" fill="#7ca3a1" stroke="#7ca3a1" stroke-width="1.51"/><path d="M1465,108L1349,106L1353,214Z" fill="#769f9f" stroke="#769f9f" stroke-width="1.51"/><path d="M1471,222L1353,214L1354,335Z" fill="#66979b" stroke="#66979b" stroke-width="1.51"/><path d="M1472,451L1349,447L1355,568Z" fill="#398892" stroke="#398892" stroke-width="1.51"/><path d="M1472,451L1355,568L1473,566Z" fill="#32828d" stroke="#32828d" stroke-width="1.51"/><path d="M196,-124L88,-9L198,-11Z" fill="#e5deee" stroke="#e5deee" stroke-width="1.51"/><path d="M-26,217L90,330L89,224Z" fill="#ccd0e6" stroke="#ccd0e6" stroke-width="1.51"/><path d="M1473,566L1355,568L1465,679Z" fill="#257d8a" stroke="#257d8a" stroke-width="1.51"/><path d="M-26,217L89,224L90,107Z" fill="#d6d5e9" stroke="#d6d5e9" stroke-width="1.51"/><path d="M81,450L-29,569L88,564Z" fill="#a4bfdc" stroke="#a4bfdc" stroke-width="1.51"/><path d="M-31,338L-32,447L81,450Z" fill="#b6c9e2" stroke="#b6c9e2" stroke-width="1.51"/><path d="M89,680L83,800L204,793Z" fill="#87aebb" stroke="#87aebb" stroke-width="1.51"/><path d="M205,912L199,1025L312,915Z" fill="#769c9a" stroke="#769c9a" stroke-width="1.51"/><path d="M-25,683L83,800L89,680Z" fill="#90b2c3" stroke="#90b2c3" stroke-width="1.51"/><path d="M-24,106L-26,217L90,107Z" fill="#ddd9eb" stroke="#ddd9eb" stroke-width="1.51"/><path d="M1469,336L1471,222L1354,335Z" fill="#5f9296" stroke="#5f9296" stroke-width="1.51"/><path d="M1584,331L1471,222L1469,336Z" fill="#5c8b8f" stroke="#5c8b8f" stroke-width="1.51"/><path d="M-32,447L-29,569L81,450Z" fill="#aac3de" stroke="#aac3de" stroke-width="1.51"/><path d="M1472,451L1584,446L1469,336Z" fill="#44848b" stroke="#44848b" stroke-width="1.51"/><path d="M1465,679L1355,568L1356,675Z" fill="#207d88" stroke="#207d88" stroke-width="1.51"/><path d="M1471,222L1465,108L1353,214Z" fill="#6f9a9a" stroke="#6f9a9a" stroke-width="1.51"/><path d="M1465,791L1356,675L1348,800Z" fill="#087875" stroke="#087875" stroke-width="1.51"/><path d="M1465,791L1465,679L1356,675Z" fill="#137778" stroke="#137778" stroke-width="1.51"/><path d="M-145,330L-144,450L-31,338Z" fill="#c1d0e6" stroke="#c1d0e6" stroke-width="1.51"/><path d="M88,-9L-24,106L90,107Z" fill="#e3dcec" stroke="#e3dcec" stroke-width="1.51"/><path d="M-28,-9L-24,106L88,-9Z" fill="#e8e0ef" stroke="#e8e0ef" stroke-width="1.51"/><path d="M-29,569L-25,683L89,680Z" fill="#99b8d2" stroke="#99b8d2" stroke-width="1.51"/><path d="M1241,911L1353,913L1348,800Z" fill="#05746a" stroke="#05746a" stroke-width="1.51"/><path d="M1120,1025L1236,1021L1125,909Z" fill="#096f6c" stroke="#096f6c" stroke-width="1.51"/><path d="M1355,-7L1355,-123L1233,-16Z" fill="#89acad" stroke="#89acad" stroke-width="1.51"/><path d="M1467,-8L1355,-123L1355,-7Z" fill="#86a9a4" stroke="#86a9a4" stroke-width="1.51"/><path d="M1236,1021L1353,913L1241,911Z" fill="#046f64" stroke="#046f64" stroke-width="1.51"/><path d="M196,-124L91,-129L88,-9Z" fill="#e9e2f0" stroke="#e9e2f0" stroke-width="1.51"/><path d="M312,-127L91,-129L196,-124Z" fill="#e7e2f0" stroke="#e7e2f0" stroke-width="1.51"/><path d="M432,-130L91,-129L312,-127Z" fill="#e2dfee" stroke="#e2dfee" stroke-width="1.51"/><path d="M81,911L199,1025L205,912Z" fill="#7b9e9b" stroke="#7b9e9b" stroke-width="1.51"/><path d="M319,1023L82,1029L542,1024Z" fill="#6b8f8f" stroke="#6b8f8f" stroke-width="1.51"/><path d="M81,911L205,912L83,800Z" fill="#81a7a8" stroke="#81a7a8" stroke-width="1.51"/><path d="M-29,912L81,911L83,800Z" fill="#86aaa9" stroke="#86aaa9" stroke-width="1.51"/><path d="M1353,913L1465,791L1348,800Z" fill="#047369" stroke="#047369" stroke-width="1.51"/><path d="M1587,566L1472,451L1473,566Z" fill="#307b87" stroke="#307b87" stroke-width="1.51"/><path d="M1588,104L1467,-8L1465,108Z" fill="#789996" stroke="#789996" stroke-width="1.51"/><path d="M1465,108L1467,-8L1355,-7Z" fill="#7ea29e" stroke="#7ea29e" stroke-width="1.51"/><path d="M-29,-126L-28,-9L88,-9Z" fill="#eee4f1" stroke="#eee4f1" stroke-width="1.51"/><path d="M-145,330L-31,338L-26,217Z" fill="#cdd4e8" stroke="#cdd4e8" stroke-width="1.51"/><path d="M-31,338L-144,450L-32,447Z" fill="#b8cce4" stroke="#b8cce4" stroke-width="1.51"/><path d="M-147,676L-25,683L-29,569Z" fill="#9dbbd4" stroke="#9dbbd4" stroke-width="1.51"/><path d="M-142,796L-28,796L-25,683Z" fill="#91b6bf" stroke="#91b6bf" stroke-width="1.51"/><path d="M-25,683L-28,796L83,800Z" fill="#8eb3bd" stroke="#8eb3bd" stroke-width="1.51"/><path d="M1587,566L1473,566L1586,681Z" fill="#237280" stroke="#237280" stroke-width="1.51"/><path d="M1587,566L1584,446L1472,451Z" fill="#357b85" stroke="#357b85" stroke-width="1.51"/><path d="M1471,222L1586,219L1465,108Z" fill="#6c9393" stroke="#6c9393" stroke-width="1.51"/><path d="M1584,446L1584,331L1469,336Z" fill="#4c8389" stroke="#4c8389" stroke-width="1.51"/><path d="M-32,447L-144,450L-29,569Z" fill="#adc7e0" stroke="#adc7e0" stroke-width="1.51"/><path d="M-145,330L-26,217L-147,221Z" fill="#d4d7e9" stroke="#d4d7e9" stroke-width="1.51"/><path d="M-147,221L-26,217L-142,99Z" fill="#dedced" stroke="#dedced" stroke-width="1.51"/><path d="M1584,331L1586,219L1471,222Z" fill="#608a8d" stroke="#608a8d" stroke-width="1.51"/><path d="M1587,566L1586,219L1584,331Z" fill="#4a8086" stroke="#4a8086" stroke-width="1.51"/><path d="M1584,446L1587,566L1584,331Z" fill="#3a7b83" stroke="#3a7b83" stroke-width="1.51"/><path d="M1586,681L1473,566L1465,679Z" fill="#1e747d" stroke="#1e747d" stroke-width="1.51"/><path d="M-145,330L-149,567L-144,450Z" fill="#b5cde4" stroke="#b5cde4" stroke-width="1.51"/><path d="M-142,99L-26,217L-24,106Z" fill="#e1ddec" stroke="#e1ddec" stroke-width="1.51"/><path d="M-144,450L-149,567L-29,569Z" fill="#aac4df" stroke="#aac4df" stroke-width="1.51"/><path d="M-147,221L-149,567L-145,330Z" fill="#c2d2e7" stroke="#c2d2e7" stroke-width="1.51"/><path d="M1465,791L1586,681L1465,679Z" fill="#127171" stroke="#127171" stroke-width="1.51"/><path d="M1353,913L1473,915L1465,791Z" fill="#036e5f" stroke="#036e5f" stroke-width="1.51"/><path d="M1236,1021L1358,1024L1353,913Z" fill="#03695c" stroke="#03695c" stroke-width="1.51"/><path d="M1120,1025L1358,1024L1236,1021Z" fill="#046860" stroke="#046860" stroke-width="1.51"/><path d="M1581,1028L1358,1024L1120,1025Z" fill="#036253" stroke="#036253" stroke-width="1.51"/><path d="M1581,1028L1120,1025L1009,1026Z" fill="#04675f" stroke="#04675f" stroke-width="1.51"/><path d="M-25,1024L82,1029L81,911Z" fill="#7f9e99" stroke="#7f9e99" stroke-width="1.51"/><path d="M81,911L82,1029L199,1025Z" fill="#7b9b98" stroke="#7b9b98" stroke-width="1.51"/><path d="M199,1025L82,1029L319,1023Z" fill="#739391" stroke="#739391" stroke-width="1.51"/><path d="M-29,912L83,800L-28,796Z" fill="#8aaeb0" stroke="#8aaeb0" stroke-width="1.51"/><path d="M1467,-8L1464,-127L1355,-123Z" fill="#86a8a1" stroke="#86a8a1" stroke-width="1.51"/><path d="M1355,-123L1464,-127L1240,-125Z" fill="#8cafab" stroke="#8cafab" stroke-width="1.51"/><path d="M1240,-125L1464,-127L1121,-127Z" fill="#8fb3b4" stroke="#8fb3b4" stroke-width="1.51"/><path d="M1121,-127L1587,-131L887,-130Z" fill="#91b7bd" stroke="#91b7bd" stroke-width="1.51"/><path d="M1585,-16L1464,-127L1467,-8Z" fill="#819f9a" stroke="#819f9a" stroke-width="1.51"/><path d="M1578,799L1586,681L1465,791Z" fill="#076c68" stroke="#076c68" stroke-width="1.51"/><path d="M-142,-16L-142,99L-28,-9Z" fill="#ede5f1" stroke="#ede5f1" stroke-width="1.51"/><path d="M-28,-9L-142,99L-24,106Z" fill="#e8e1ef" stroke="#e8e1ef" stroke-width="1.51"/><path d="M91,-129L-29,-126L88,-9Z" fill="#eee5f2" stroke="#eee5f2" stroke-width="1.51"/><path d="M-140,911L-29,912L-28,796Z" fill="#8baeac" stroke="#8baeac" stroke-width="1.51"/><path d="M1586,219L1588,104L1465,108Z" fill="#6f9190" stroke="#6f9190" stroke-width="1.51"/><path d="M1587,566L1588,104L1586,219Z" fill="#598488" stroke="#598488" stroke-width="1.51"/><path d="M-149,567L-147,676L-29,569Z" fill="#a2bfdb" stroke="#a2bfdb" stroke-width="1.51"/><path d="M1358,1024L1473,915L1353,913Z" fill="#026957" stroke="#026957" stroke-width="1.51"/><path d="M1473,915L1578,799L1465,791Z" fill="#046a5f" stroke="#046a5f" stroke-width="1.51"/><path d="M-29,912L-25,1024L81,911Z" fill="#83a49f" stroke="#83a49f" stroke-width="1.51"/><path d="M-147,676L-142,796L-25,683Z" fill="#96b9c7" stroke="#96b9c7" stroke-width="1.51"/><path d="M1588,104L1585,-16L1467,-8Z" fill="#7a9794" stroke="#7a9794" stroke-width="1.51"/><path d="M-29,-126L-142,-16L-28,-9Z" fill="#f1e8f3" stroke="#f1e8f3" stroke-width="1.51"/><path d="M-142,99L-148,-130L-147,221Z" fill="#ebe5f1" stroke="#ebe5f1" stroke-width="1.51"/><path d="M-141,1024L-25,1024L-29,912Z" fill="#84a29b" stroke="#84a29b" stroke-width="1.51"/><path d="M1473,915L1588,906L1578,799Z" fill="#036456" stroke="#036456" stroke-width="1.51"/><path d="M1358,1024L1472,1021L1473,915Z" fill="#016250" stroke="#016250" stroke-width="1.51"/><path d="M-142,796L-140,911L-28,796Z" fill="#8eb2b3" stroke="#8eb2b3" stroke-width="1.51"/><path d="M-141,1024L-140,911L-142,796Z" fill="#8baea7" stroke="#8baea7" stroke-width="1.51"/><path d="M1581,1028L1588,906L1473,915Z" fill="#015d4b" stroke="#015d4b" stroke-width="1.51"/><path d="M1578,799L1588,906L1586,681Z" fill="#04665f" stroke="#04665f" stroke-width="1.51"/><path d="M1586,681L1588,906L1587,566Z" fill="#116a6a" stroke="#116a6a" stroke-width="1.51"/><path d="M1587,566L1588,906L1588,104Z" fill="#2f7580" stroke="#2f7580" stroke-width="1.51"/><path d="M1585,-16L1587,-131L1464,-127Z" fill="#829e98" stroke="#829e98" stroke-width="1.51"/><path d="M1464,-127L1587,-131L1121,-127Z" fill="#8aaea7" stroke="#8aaea7" stroke-width="1.51"/><path d="M887,-130L1587,-131L432,-130Z" fill="#a1bed9" stroke="#a1bed9" stroke-width="1.51"/><path d="M1588,104L1587,-131L1585,-16Z" fill="#7b9691" stroke="#7b9691" stroke-width="1.51"/><path d="M-29,-126L-148,-130L-142,-16Z" fill="#f6ecf6" stroke="#f6ecf6" stroke-width="1.51"/><path d="M-142,-16L-148,-130L-142,99Z" fill="#f2e9f3" stroke="#f2e9f3" stroke-width="1.51"/><path d="M-147,221L-148,-130L-149,567Z" fill="#dadcec" stroke="#dadcec" stroke-width="1.51"/><path d="M91,-129L-148,-130L-29,-126Z" fill="#f4ebf5" stroke="#f4ebf5" stroke-width="1.51"/><path d="M432,-130L-148,-130L91,-129Z" fill="#ece5f1" stroke="#ece5f1" stroke-width="1.51"/><path d="M1587,-131L-148,-130L432,-130Z" fill="#c0d0e6" stroke="#c0d0e6" stroke-width="1.51"/><path d="M1472,1021L1581,1028L1473,915Z" fill="#015c4a" stroke="#015c4a" stroke-width="1.51"/><path d="M1358,1024L1581,1028L1472,1021Z" fill="#015b49" stroke="#015b49" stroke-width="1.51"/><path d="M894,1027L1581,1028L1009,1026Z" fill="#086a67" stroke="#086a67" stroke-width="1.51"/><path d="M82,1029L1581,1028L894,1027Z" fill="#2d7681" stroke="#2d7681" stroke-width="1.51"/><path d="M-149,567L-141,1024L-147,676Z" fill="#94b9c2" stroke="#94b9c2" stroke-width="1.51"/><path d="M-147,676L-141,1024L-142,796Z" fill="#90b4b5" stroke="#90b4b5" stroke-width="1.51"/><path d="M-140,911L-141,1024L-29,912Z" fill="#88a9a1" stroke="#88a9a1" stroke-width="1.51"/><path d="M-25,1024L-141,1024L82,1029Z" fill="#809b96" stroke="#809b96" stroke-width="1.51"/></svg>