<?xml version="1.0" encoding="iso-8859-1"?>
<!-- Generator: Adobe Illustrator 19.0.0, SVG Export Plug-In . SVG Version: 6.00 Build 0)  -->
<svg version="1.1" id="Capa_1" xmlns="http://www.w3.org/2000/svg" xmlns:xlink="http://www.w3.org/1999/xlink" x="0px" y="0px"
	 viewBox="0 0 512 512" style="enable-background:new 0 0 512 512;" xml:space="preserve">
<path style="fill:#EAEAEA;" d="M507.413,89.256v315.467c0,18.153-14.726,32.889-32.899,32.889H37.476
	c-18.163,0-32.889-14.736-32.889-32.889V89.256c0-18.163,14.726-32.889,32.889-32.889h437.038
	C492.687,56.367,507.413,71.092,507.413,89.256z"/>
<path style="fill:#239999;" d="M507.409,89.256v315.467c0,18.153-14.726,32.889-32.899,32.889H255.996V56.367H474.51
	C492.683,56.367,507.409,71.092,507.409,89.256z"/>
<path style="fill:#FCC63D;" d="M507.413,89.256v51.637H4.597V89.256c0-18.174,14.715-32.889,32.879-32.889h437.038
	C492.687,56.367,507.413,71.082,507.413,89.256z"/>
<circle style="fill:#F9572B;" cx="56.984" cy="97.805" r="16.939"/>
<circle style="fill:#BCBCBC;" cx="114.018" cy="97.805" r="16.939"/>
<g>
	<circle style="fill:#FCC63D;" cx="386.93" cy="261.962" r="16.939"/>
	<circle style="fill:#FCC63D;" cx="386.93" cy="323.266" r="16.939"/>
	<circle style="fill:#FCC63D;" cx="313.045" cy="261.962" r="16.939"/>
	<circle style="fill:#FCC63D;" cx="313.045" cy="206.549" r="16.939"/>
	<circle style="fill:#FCC63D;" cx="419.244" cy="384.58" r="16.939"/>
	<circle style="fill:#FCC63D;" cx="463.893" cy="254.779" r="16.939"/>
</g>
<g>
	<circle style="fill:#45B8C4;" cx="171.043" cy="97.805" r="16.939"/>
	<path style="fill:#45B8C4;" d="M386.93,286.593c-13.583,0-24.635-11.052-24.635-24.635c0-13.583,11.052-24.635,24.635-24.635
		c13.585,0,24.636,11.052,24.636,24.635C411.566,275.542,400.514,286.593,386.93,286.593z M386.93,252.715
		c-5.097,0-9.243,4.147-9.243,9.243c0,5.097,4.146,9.243,9.243,9.243c5.097,0,9.244-4.147,9.244-9.243
		C396.174,256.862,392.027,252.715,386.93,252.715z"/>
	<path style="fill:#45B8C4;" d="M463.3,279.056c-6.308,0-12.617-2.401-17.42-7.205c-9.604-9.606-9.604-25.235,0-34.84
		c4.653-4.654,10.839-7.216,17.42-7.216c6.581,0,12.768,2.562,17.421,7.216l0,0l0,0c9.604,9.605,9.604,25.234,0,34.84
		C475.918,276.654,469.609,279.056,463.3,279.056z M463.3,245.188c-2.468,0-4.789,0.962-6.535,2.707
		c-3.604,3.604-3.604,9.467,0,13.071c3.605,3.605,9.469,3.602,13.07,0c3.604-3.604,3.604-9.469,0-13.071l0,0
		C468.09,246.15,465.769,245.188,463.3,245.188z"/>
	<path style="fill:#45B8C4;" d="M451.322,250.15c-1.969,0-3.939-0.751-5.443-2.255l-35.403-35.403
		c-1.443-1.443-2.254-3.401-2.254-5.442V140.9c0-4.25,3.445-7.696,7.696-7.696s7.696,3.446,7.696,7.696v62.963l33.15,33.149
		c3.006,3.006,3.006,7.879,0,10.884C455.262,249.399,453.291,250.15,451.322,250.15z"/>
	<path style="fill:#45B8C4;" d="M313.045,230.313c-6.308,0-12.617-2.401-17.42-7.205c-9.604-9.606-9.604-25.235,0-34.84l0,0l0,0
		c4.653-4.654,10.839-7.216,17.42-7.216c6.581,0,12.768,2.562,17.421,7.216c9.604,9.605,9.604,25.234,0,34.84
		C325.663,227.911,319.354,230.313,313.045,230.313z M313.045,196.445c-2.468,0-4.789,0.962-6.535,2.707l0,0
		c-3.604,3.604-3.604,9.467,0,13.071c3.605,3.605,9.469,3.602,13.07,0c3.604-3.604,3.604-9.469,0-13.071
		C317.835,197.406,315.514,196.445,313.045,196.445z M301.068,193.71h0.01H301.068z"/>
	<path style="fill:#45B8C4;" d="M325.024,201.406c-1.969,0-3.939-0.751-5.443-2.255c-3.006-3.006-3.006-7.879,0-10.884l33.15-33.149
		V140.9c0-4.25,3.445-7.696,7.696-7.696c4.251,0,7.696,3.446,7.696,7.696v17.407c0,2.041-0.811,3.999-2.254,5.442l-35.403,35.403
		C328.963,200.655,326.993,201.406,325.024,201.406z"/>
	<path style="fill:#45B8C4;" d="M507.409,163.438v15.393h-61.991c-4.248,0-7.696-3.448-7.696-7.696s3.448-7.696,7.696-7.696H507.409
		z"/>
	<path style="fill:#45B8C4;" d="M507.409,193.679v15.393h-41.468c-4.248,0-7.696-3.448-7.696-7.696s3.448-7.696,7.696-7.696H507.409
		z"/>
</g>
<circle style="fill:#FCC63D;" cx="463.298" cy="316.544" r="16.939"/>
<g>
	<path style="fill:#45B8C4;" d="M386.93,252.715c-4.251,0-7.696-3.446-7.696-7.696V140.9c0-4.25,3.445-7.696,7.696-7.696
		c4.251,0,7.696,3.446,7.696,7.696v104.119C394.626,249.269,391.181,252.715,386.93,252.715z"/>
	<path style="fill:#45B8C4;" d="M463.301,341.184c-13.585,0-24.636-11.052-24.636-24.635s11.052-24.635,24.636-24.635
		c13.583,0,24.635,11.052,24.635,24.635C487.936,330.133,476.884,341.184,463.301,341.184z M463.301,307.306
		c-5.097,0-9.244,4.147-9.244,9.243c0,5.097,4.147,9.243,9.244,9.243c5.097,0,9.243-4.147,9.243-9.243
		C472.544,311.452,468.398,307.306,463.301,307.306z"/>
	<path style="fill:#45B8C4;" d="M471,333.486v104.126h-15.393V333.486c0-4.248,3.438-7.696,7.696-7.696
		C467.552,325.789,471,329.237,471,333.486z"/>
	<path style="fill:#45B8C4;" d="M419.247,409.214c-13.583,0-24.635-11.052-24.635-24.635c0-13.585,11.052-24.635,24.635-24.635
		c13.583,0,24.635,11.052,24.635,24.635C443.882,398.162,432.831,409.214,419.247,409.214z M419.247,375.336
		c-5.097,0-9.243,4.147-9.243,9.243c0,5.096,4.146,9.243,9.243,9.243c5.097,0,9.243-4.147,9.243-9.243
		C428.49,379.482,424.344,375.336,419.247,375.336z"/>
	<rect x="256.01" y="376.883" style="fill:#45B8C4;" width="146.302" height="15.393"/>
	<path style="fill:#45B8C4;" d="M386.93,347.904c-13.583,0-24.635-11.052-24.635-24.635c0-13.583,11.052-24.635,24.635-24.635
		c13.585,0,24.636,11.052,24.636,24.635C411.566,336.852,400.514,347.904,386.93,347.904z M386.93,314.025
		c-5.097,0-9.243,4.147-9.243,9.243c0,5.096,4.146,9.243,9.243,9.243c5.097,0,9.244-4.147,9.244-9.243
		C396.174,318.172,392.027,314.025,386.93,314.025z"/>
	<rect x="256.01" y="315.569" style="fill:#45B8C4;" width="113.988" height="15.393"/>
	<path style="fill:#45B8C4;" d="M313.045,286.593c-13.583,0-24.635-11.052-24.635-24.635c0-13.583,11.052-24.635,24.635-24.635
		c13.585,0,24.636,11.052,24.636,24.635C337.682,275.542,326.63,286.593,313.045,286.593z M313.045,252.715
		c-5.097,0-9.243,4.147-9.243,9.243c0,5.097,4.146,9.243,9.243,9.243c5.097,0,9.244-4.147,9.244-9.243
		C322.289,256.862,318.142,252.715,313.045,252.715z"/>
	<path style="fill:#45B8C4;" d="M313.045,330.964c-4.251,0-7.696-3.446-7.696-7.696v-44.371c0-4.25,3.445-7.696,7.696-7.696
		c4.251,0,7.696,3.446,7.696,7.696v44.371C320.741,327.519,317.297,330.964,313.045,330.964z"/>
	<path style="fill:#45B8C4;" d="M308.942,392.275c-4.251,0-7.696-3.446-7.696-7.696v-22.576c0-4.25,3.445-7.696,7.696-7.696
		c4.251,0,7.696,3.446,7.696,7.696v22.576C316.639,388.829,313.193,392.275,308.942,392.275z"/>
	<path style="fill:#45B8C4;" d="M337.675,392.275c-4.251,0-7.696-3.446-7.696-7.696v-22.576c0-4.25,3.445-7.696,7.696-7.696
		c4.251,0,7.696,3.446,7.696,7.696v22.576C345.372,388.829,341.926,392.275,337.675,392.275z"/>
	<path style="fill:#45B8C4;" d="M367.434,392.275c-4.251,0-7.696-3.446-7.696-7.696v-22.576c0-4.25,3.445-7.696,7.696-7.696
		c4.251,0,7.696,3.446,7.696,7.696v22.576C375.131,388.829,371.685,392.275,367.434,392.275z"/>
	<path style="fill:#45B8C4;" d="M507.413,89.256v51.637H256V56.367h218.514C492.687,56.367,507.413,71.082,507.413,89.256z"/>
</g>
<g>
	<path style="fill:#239999;" d="M507.409,97.763v15.393h-69.174c-4.248,0-7.696-3.448-7.696-7.696V56.367h15.393v41.396H507.409z"/>
	<path style="fill:#239999;" d="M412.067,56.367v59.354c0,4.248-3.438,7.696-7.696,7.696H256.006v-15.393h140.668V56.367
		C396.674,56.367,412.067,56.367,412.067,56.367z"/>
	<path style="fill:#239999;" d="M366.919,92.632H256.006V77.239h110.913c4.25,0,7.696,3.446,7.696,7.696l0,0
		C374.616,89.186,371.17,92.632,366.919,92.632z"/>
</g>
<path style="fill:#424C59;" d="M256.003,512c-4.251,0-7.696-3.446-7.696-7.696V7.696c0-4.25,3.445-7.696,7.696-7.696
	c4.251,0,7.696,3.446,7.696,7.696v496.607C263.699,508.555,260.255,512,256.003,512z"/>
<g>
</g>
<g>
</g>
<g>
</g>
<g>
</g>
<g>
</g>
<g>
</g>
<g>
</g>
<g>
</g>
<g>
</g>
<g>
</g>
<g>
</g>
<g>
</g>
<g>
</g>
<g>
</g>
<g>
</g>
</svg>
