<?xml version="1.0"?>
<svg xmlns="http://www.w3.org/2000/svg" height="512px" viewBox="-30 0 512 512.001" width="512px"><path d="m206.453125 249.3125c-.097656-.480469-.21875-.960938-.367187-1.421875-.140626-.46875-.300782-.929687-.492188-1.390625-.1875-.449219-.398438-.890625-.628906-1.320312-.230469-.429688-.480469-.859376-.75-1.261719-.269532-.410157-.570313-.8125-.871094-1.191407-.320312-.378906-.648438-.75-1-1.089843-.339844-.347657-.710938-.679688-1.089844-.988281-.382812-.3125-.78125-.609376-1.183594-.882813-.410156-.269531-.828124-.519531-1.269531-.75-.429687-.226563-.871093-.4375-1.320312-.628906-.449219-.179688-.921875-.351563-1.390625-.492188-.460938-.148437-.941406-.269531-1.421875-.355469-.476563-.101562-.96875-.171874-1.460938-.222656-.96875-.101562-1.96875-.101562-2.949219 0-.480468.050782-.972656.121094-1.449218.222656-.480469.089844-.960938.207032-1.433594.355469-.460938.144531-.929688.3125-1.378906.492188-.449219.191406-.890625.398437-1.332032.628906-.429687.230469-.851562.480469-1.261718.75-.398438.273437-.796875.570313-1.179688.882813-.378906.308593-.75.640624-1.101562.988281-.339844.339843-.679688.710937-.988282 1.089843-.3125.382813-.601562.78125-.871093 1.191407-.269531.398437-.519531.832031-.75 1.261719-.230469.429687-.441407.871093-.628907 1.320312-.191406.460938-.351562.921875-.5 1.390625-.140624.460937-.261718.941406-.359374 1.421875-.089844.480469-.171876.96875-.222657 1.457031-.039062.492188-.070312.980469-.070312 1.472657 0 3.960937 1.601562 7.824218 4.394531 10.613281.347656.339843.71875.679687 1.101562.992187.378907.308594.777344.597656 1.179688.871094.410156.269531.828125.527344 1.257812.757812.441407.230469.882813.441407 1.332032.621094.449218.1875.921875.359375 1.378906.5.472656.140625.953125.261719 1.433594.359375.480468.101563.96875.171875 1.449218.222657.492188.046874.992188.066406 1.480469.066406.492188 0 .980469-.019532 1.472657-.066406.488281-.050782.980468-.121094 1.457031-.222657.480469-.101562.960937-.21875 1.421875-.359375.472656-.140625.941406-.3125 1.390625-.5.453125-.179687.890625-.390625 1.320312-.621094.441407-.230468.859375-.488281 1.273438-.757812.398437-.273438.800781-.5625 1.179687-.871094.378906-.3125.75-.652344 1.089844-.992187.351562-.347657.679688-.71875 1-1.101563.300781-.378906.601562-.769531.871094-1.179687.269531-.410157.519531-.832031.75-1.261719.230468-.429688.441406-.878906.632812-1.328125.1875-.453125.347656-.921875.488282-1.382813.148437-.46875.269531-.949218.371093-1.429687.089844-.480469.167969-.96875.207031-1.449219.050782-.492187.082032-.992187.082032-1.480468 0-.492188-.03125-.980469-.082032-1.472657-.039062-.488281-.121093-.976562-.210937-1.457031zm0 0" fill="#006DF0"/><path d="m233.816406 95.691406c.101563.476563.21875.957032.359375 1.417969.148438.472656.3125.941406.5 1.390625.191407.453125.398438.890625.628907 1.320312.230468.441407.480468.859376.75 1.273438.273437.398438.5625.800781.871093 1.179688.3125.378906.652344.75.992188 1.089843.347656.351563.71875.691407 1.097656 1 .382813.3125.78125.601563 1.183594.871094.410156.269531.828125.519531 1.261719.75.429687.230469.878906.441406 1.328124.632813.449219.1875.921876.347656 1.382813.5.46875.136718.949219.257812 1.429687.359374.480469.089844.96875.167969 1.449219.21875.492188.050782.992188.070313 1.480469.070313s.988281-.019531 1.472656-.070313c.488282-.050781.976563-.128906 1.460938-.21875.476562-.101562.957031-.222656 1.417968-.359374.472657-.152344.941407-.3125 1.390626-.5.449218-.191407.890624-.402344 1.320312-.632813s.863281-.480469 1.273438-.75c.398437-.269531.800781-.5625 1.179687-.871094.378906-.308593.75-.648437 1.101563-1 .339843-.339843.667968-.710937.988281-1.089843.3125-.378907.601562-.78125.871093-1.179688.269532-.410156.519532-.832031.75-1.273438.230469-.429687.441407-.867187.628907-1.320312.191406-.449219.351562-.917969.503906-1.390625.136719-.460937.257813-.9375.359375-1.417969.089844-.480468.167969-.972656.21875-1.460937.050781-.492188.070312-.980469.070312-1.472657 0-.488281-.019531-.988281-.070312-1.480468-.050781-.480469-.128906-.96875-.21875-1.449219-.101562-.480469-.222656-.960937-.359375-1.429687-.152344-.460938-.3125-.933594-.503906-1.382813-.1875-.449219-.398438-.898437-.628907-1.328125-.230468-.433594-.480468-.851562-.75-1.261719-.269531-.410156-.5625-.800781-.871093-1.183593-.320313-.378907-.648438-.75-.988281-1.097657-.351563-.339843-.722657-.683593-1.101563-.992187s-.78125-.597656-1.179687-.871094c-.410157-.269531-.84375-.519531-1.273438-.75-.429688-.226562-.871094-.4375-1.320312-.628906-.449219-.191406-.917969-.351563-1.390626-.5-.460937-.140625-.9375-.261719-1.417968-.359375-.480469-.089844-.972656-.171875-1.460938-.222657-.972656-.089843-1.972656-.089843-2.953125 0-.480469.050782-.96875.132813-1.449219.222657-.480468.101562-.960937.21875-1.429687.359375-.460937.148437-.933594.308594-1.382813.5-.449218.191406-.898437.398437-1.328124.628906-.433594.230469-.851563.480469-1.261719.75-.402344.273438-.800781.5625-1.183594.871094-.378906.308594-.75.652344-1.097656.992187-.339844.347657-.679688.71875-.992188 1.097657-.308593.382812-.597656.773437-.871093 1.183593-.269532.410157-.519532.828125-.75 1.261719-.226563.429688-.4375.878906-.628907 1.328125-.1875.449219-.351562.921875-.5 1.382813-.140625.46875-.261719.949218-.359375 1.429687-.089844.480469-.171875.96875-.222656 1.449219-.039062.492187-.066406.992187-.066406 1.480468 0 .488282.027344.980469.066406 1.472657.050781.488281.132812.980469.222656 1.460937zm0 0" fill="#006DF0"/><path d="m202.703125 72.351562c.089844.476563.210937.960938.359375 1.417969.140625.472657.3125.933594.492188 1.390625.1875.453125.398437.894532.628906 1.320313.230468.433593.480468.863281.75 1.261719.269531.410156.570312.8125.871094 1.191406.320312.378906.648437.75.988281 1.089844.351562.351562.722656.679687 1.101562.992187.378907.308594.78125.609375 1.191407.878906.398437.269531.828124.519531 1.261718.75.429688.230469.867188.4375 1.316406.628907.460938.183593.921876.351562 1.394532.492187.457031.148437.9375.269531 1.417968.359375.480469.101562.972657.167969 1.460938.21875s.980469.082031 1.472656.082031c.488282 0 .988282-.03125 1.476563-.082031.480469-.050781.972656-.117188 1.453125-.21875.480468-.089844.960937-.210938 1.429687-.359375.460938-.140625.929688-.3125 1.382813-.492187.449218-.1875.898437-.398438 1.328125-.628907.429687-.230469.851562-.480469 1.261719-.75.410156-.269531.808593-.570312 1.179687-.878906.378906-.3125.75-.644531 1.101563-.992187 2.792968-2.78125 4.390624-6.652344 4.390624-10.605469 0-.488281-.019531-.988281-.070312-1.480469-.046875-.480469-.117188-.96875-.21875-1.449219-.097656-.480469-.21875-.960937-.359375-1.429687-.140625-.460938-.308594-.929688-.5-1.382813-.179687-.449219-.390625-.898437-.621094-1.328125-.230469-.433594-.488281-.851562-.761719-1.261718-.269531-.410157-.558593-.800782-.867187-1.179688-.3125-.382812-.640625-.75-.992187-1.101562-3.140626-3.144532-7.652344-4.761719-12.082032-4.320313-.492187.046875-.980468.128906-1.460937.21875-.480469.101563-.960938.21875-1.421875.359375-.472656.140625-.929688.3125-1.390625.5-.449219.179688-.890625.390625-1.320313.621094-.429687.230468-.859375.488281-1.261718.761718-.410157.269532-.808594.558594-1.1875.867188-.382813.3125-.75.652344-1.101563.992188-.339844.351562-.671875.71875-.992187 1.101562-.300782.378906-.601563.769531-.867188 1.179688-.273438.410156-.523438.828124-.753906 1.261718-.226563.429688-.4375.878906-.628906 1.328125-.179688.453125-.351563.921875-.488282 1.382813-.152344.46875-.273437.949218-.363281 1.429687-.097656.480469-.167969.96875-.21875 1.449219-.050781.492188-.078125.992188-.078125 1.480469 0 .492187.027344.980469.078125 1.472656s.121094.980469.21875 1.460937zm0 0" fill="#006DF0"/><path d="m98.667969 155.980469c1.796875 4.042969 5.273437 7.164062 9.445312 8.546875l109.996094 38.472656.761719.179688c1.207031.285156 2.414062.421874 3.609375.421874 6.421875 0 12.394531-3.96875 14.726562-10.203124l1.65625-4.421876-17.042969-66.324218c-.609374-4.492188-3.140624-8.664063-7.152343-11.207032l-47.601563-30.144531c-3.652344-2.320312-8.148437-3.027343-12.335937-1.949219-3.40625.875-6.421875 2.890626-8.546875 5.652344l-46.25 55.796875-.691406 1.265625c-2.332032 4.269532-2.546876 9.46875-.574219 13.914063zm62.96875-42.59375 32.027343 20.28125 8.183594 31.847656-64.671875-22.617187zm0 0" fill="#006DF0"/><path d="m433.445312 317.929688h-40.710937c23.441406-33.675782 36.089844-73.660157 36.089844-115.429688 0-12.460938-1.140625-24.660156-3.304688-36.503906-.050781-.324219-.113281-.644532-.183593-.96875-12.054688-64.148438-54.449219-117.730469-111.667969-145.199219-.765625-.449219-1.578125-.828125-2.429688-1.136719-25.839843-11.988281-54.605469-18.691406-84.914062-18.691406-105.644531 0-192.640625 81.324219-201.707031 184.65625-.027344.277344-.058594.554688-.074219.832031-.46875 5.609375-.71875 11.28125-.71875 17.011719 0 41.769531 12.648437 81.757812 36.085937 115.433594h-40.707031c-10.589844 0-19.203125 8.613281-19.203125 19.199218v155.667969c0 10.585938 8.613281 19.199219 19.203125 19.199219h414.242187c10.585938 0 19.199219-8.613281 19.199219-19.199219v-155.667969c.003907-10.589843-8.613281-19.203124-19.199219-19.203124zm-39.859374-157.613282-49.832032 26.109375-35.5625-44.246093 10.164063-85.5c36.84375 23.335937 64.28125 60.238281 75.230469 103.636718zm-167.261719-130.304687c22.425781 0 43.863281 4.304687 63.535156 12.128906l-11.542969 97.085937c-2.011718 6.828126.378906 14.390626 4.59375 19.410157l43.375 53.960937.382813.457032c3.847656 4.414062 8.929687 6.753906 14 6.753906 2.648437 0 5.289062-.636719 7.75-1.949219l50.042969-26.21875c.222656 3.59375.351562 7.210937.351562 10.859375 0 42.953125-15.703125 83.695312-44.332031 115.429688h-7.878907l-24.183593-42.492188-.902344-1.0625c-4.757813-5.621094-11.609375-9.03125-18.933594-9.460938l-33.183593-4.542968-.898438-.015625c-6.894531-.117188-12.722656 2.089843-16.570312 6.136719l-59.105469 51.4375h-57.410157l21.402344-28.636719c3.527344-4.675781 5.023438-10.867188 4.105469-17.003907l-.105469-.695312-14.660156-59.289062c-1.425781-7.585938-6.417969-13.570313-13.195312-15.730469l-.269532-.085938-76.691406-21.25c13.105469-82.199219 84.488281-145.226562 170.324219-145.226562zm85.742187 287.917969h-73.523437l31.265625-27.210938 29.035156 3.976562zm-214.019531-.128907c-27.820313-30.902343-43.390625-70.328125-44.171875-112.007812l64.148438 17.777343 12.542968 50.710938zm324.589844 164.1875h-392.625v-134.046875h392.625zm0 0" fill="#006DF0"/><path d="m154.410156 378.128906c-3.859375-2.125-7.632812-3.1875-11.324218-3.1875-3.808594 0-6.15625 1.339844-7.050782 4.027344l-14.9375 42.625-10.742187-36.082031c-1.003907-3.355469-3.859375-5.03125-8.558594-5.03125s-7.550781 1.675781-8.558594 5.03125l-10.738281 36.085937-14.9375-42.628906c-.898438-2.683594-3.300781-4.027344-7.21875-4.027344-3.691406 0-7.46875 1.035156-11.328125 3.105469s-5.789063 4.503906-5.789063 7.300781c0 .894532.277344 2.070313.839844 3.523438l25.84375 64.613281c1.230469 3.023437 4.53125 4.53125 9.902344 4.53125 6.152344 0 9.789062-1.511719 10.910156-4.53125l11.074219-29.199219 11.078125 29.199219c1.117188 3.023437 4.695312 4.53125 10.738281 4.53125 5.480469 0 8.835938-1.511719 10.070313-4.53125l25.84375-64.613281c.445312-.894532.671875-1.957032.671875-3.1875.003906-2.910156-1.929688-5.429688-5.789063-7.554688zm0 0" fill="#006DF0"/><path d="m278.9375 378.128906c-3.859375-2.125-7.636719-3.1875-11.328125-3.1875-3.804687 0-6.152344 1.339844-7.046875 4.027344l-14.9375 42.625-10.742188-36.082031c-1.007812-3.355469-3.859374-5.03125-8.558593-5.03125s-7.554688 1.675781-8.558594 5.03125l-10.742187 36.082031-14.9375-42.625c-.894532-2.6875-3.300782-4.027344-7.214844-4.027344-3.691406 0-7.46875 1.035156-11.328125 3.105469s-5.789063 4.503906-5.789063 7.300781c0 .894532.277344 2.070313.835938 3.523438l25.847656 64.613281c1.230469 3.019531 4.53125 4.527344 9.902344 4.527344 6.148437 0 9.789062-1.507813 10.90625-4.527344l11.074218-29.203125 11.078126 29.203125c1.117187 3.019531 4.699218 4.527344 10.742187 4.527344 5.480469 0 8.835937-1.507813 10.066406-4.527344l25.847657-64.613281c.445312-.894532.671874-1.957032.671874-3.191406 0-2.90625-1.929687-5.425782-5.789062-7.550782zm0 0" fill="#006DF0"/><path d="m359.40625 385.515625c-1.003906-3.359375-3.859375-5.035156-8.558594-5.035156-4.699218 0-7.550781 1.675781-8.558594 5.035156l-10.738281 36.082031-14.9375-42.628906c-.898437-2.6875-3.300781-4.027344-7.21875-4.027344-3.691406 0-7.46875 1.035156-11.328125 3.105469s-5.789062 4.503906-5.789062 7.300781c0 .894532.277344 2.070313.839844 3.523438l25.84375 64.613281c1.230468 3.019531 4.53125 4.53125 9.902343 4.53125 6.152344 0 9.789063-1.511719 10.910157-4.53125l11.074218-29.203125 11.078125 29.203125c1.117188 3.019531 4.695313 4.53125 10.738281 4.53125 5.480469 0 8.835938-1.511719 10.070313-4.53125l25.84375-64.613281c.445313-.894532.671875-1.957032.671875-3.1875 0-2.910156-1.929688-5.429688-5.789062-7.554688-3.859376-2.125-7.636719-3.1875-11.328126-3.1875-3.804687 0-6.152343 1.339844-7.046874 4.027344l-14.9375 42.625zm0 0" fill="#006DF0"/></svg>
