<?xml version="1.0" encoding="iso-8859-1"?>
<!-- Generator: Adobe Illustrator 19.0.0, SVG Export Plug-In . SVG Version: 6.00 Build 0)  -->
<svg version="1.1" id="Capa_1" xmlns="http://www.w3.org/2000/svg" xmlns:xlink="http://www.w3.org/1999/xlink" x="0px" y="0px"
	 viewBox="0 0 463 463" style="enable-background:new 0 0 463 463;" xml:space="preserve">
<g>
	<path d="M423.5,36.128h-384c-21.78,0-39.5,17.72-39.5,39.5v253.935c0,21.78,17.72,39.5,39.5,39.5h131.813l-10.701,42.807H144.79
		c-4.142,0-7.5,3.358-7.5,7.5s3.358,7.5,7.5,7.5h21.652c0.01,0,0.021,0.002,0.032,0.002c0.008,0,0.015-0.002,0.023-0.002h130.006
		c0.008,0,0.015,0.002,0.023,0.002c0.01,0,0.021-0.002,0.032-0.002h21.652c4.142,0,7.5-3.358,7.5-7.5s-3.358-7.5-7.5-7.5h-15.822
		l-10.701-42.807H423.5c21.78,0,39.5-17.72,39.5-39.5V75.628C463,53.848,445.28,36.128,423.5,36.128z M231.774,296.257v-35.855
		c0-9.675-3.833-18.697-10.273-25.346c4.302-2.299,7.135-4.542,7.96-5.351c2.778-2.72,3.076-7.184,0.61-10.189
		c-6.164-7.512-12.75-24.443-12.75-49.436c0-34.018-27.675-61.693-61.692-61.693h0h0h0h0c-34.017,0-61.692,27.676-61.692,61.693
		c0,24.992-6.586,41.924-12.748,49.434c-2.467,3.003-2.172,7.465,0.603,10.187c0.825,0.809,3.658,3.055,7.965,5.356
		c-6.44,6.65-10.272,15.672-10.272,25.346v35.855H58.355V94.483h194.548v201.774H231.774z M94.484,296.257v-35.855
		c0-8.519,5.052-16.175,12.738-19.576c1.923,0.262,3.96,0.419,6.088,0.418c1.34,0,2.719-0.071,4.124-0.206
		c4.319,12.305,18.066,28.914,35.97,33.823c0.646,0.177,1.313,0.267,1.983,0.267h0.217c0.67,0,1.337-0.09,1.983-0.267
		c17.916-4.913,31.67-21.541,35.979-33.848c1.495,0.153,2.96,0.231,4.381,0.231c2.127,0,4.163-0.157,6.086-0.419
		c7.687,3.401,12.74,11.058,12.74,19.577v35.855H94.484z M155.629,123.386c21.599,0,39.813,14.744,45.123,34.694
		c-2.417-4.369-6.83-7.766-12.896-9.748c-20.908-6.831-64.791,2.841-77.989,20.887c-0.419,0.564-0.718,0.974-0.936,1.45
		c0-0.198,0.004-0.391,0.004-0.59C108.936,144.333,129.882,123.386,155.629,123.386z M203.776,225.67
		c-0.145,0.021-0.288,0.049-0.43,0.079c-5.737,1-12.519,0.579-19.448-3.396c11.356-8.51,18.774-22.002,18.969-37.208
		c0.002-0.081,0.004-0.163,0.004-0.245v-0.369c0-4.142-3.358-7.5-7.5-7.5c-0.398,0-0.79,0.031-1.171,0.091l8.029-9.866
		c0.056,0.935,0.093,1.875,0.093,2.824c0,26.457,6.52,43.141,11.54,52.059C211.236,223.497,207.769,224.919,203.776,225.67z
		 M155.629,216.773c-17.778,0-32.242-14.463-32.242-32.259c-0.007-2.868-0.011-5.969-0.011-8.081
		c10.626-10.958,44.06-18.99,59.822-13.841c4.673,1.527,4.673,3.233,4.673,3.875v18.064
		C187.871,202.31,173.407,216.773,155.629,216.773z M142.437,229.975c0.026-0.022,0.048-0.047,0.073-0.069
		c4.168,1.207,8.567,1.867,13.119,1.867s8.951-0.659,13.119-1.867c0.025,0.022,0.047,0.047,0.072,0.068
		c3.458,2.955,6.933,5.193,10.361,6.877c-2.681,6.829-11.748,18.769-23.685,22.958c-11.872-4.166-20.908-16.002-23.643-22.848
		C135.352,235.266,138.904,232.994,142.437,229.975z M108.384,182.977l0.003,1.554c0,15.455,7.46,29.199,18.968,37.824
		c-6.92,3.969-13.691,4.394-19.423,3.398c-0.153-0.032-0.306-0.062-0.462-0.084c-3.988-0.752-7.452-2.173-10.076-3.53
		C101.545,214.765,106.714,202.085,108.384,182.977z M15,94.483h28.355v201.774H15V94.483z M267.903,94.483H448v201.774H267.903
		V94.483z M39.5,51.128h384c13.509,0,24.5,10.991,24.5,24.5v3.855H15v-3.855C15,62.119,25.991,51.128,39.5,51.128z M286.926,411.87
		H176.073l10.701-42.807h89.45L286.926,411.87z M423.5,354.063h-384c-13.509,0-24.5-10.991-24.5-24.5v-18.306h433v18.306
		C448,343.072,437.009,354.063,423.5,354.063z"/>
	<path d="M231.5,318.837c-7.622,0-13.822,6.201-13.822,13.823c0,7.622,6.201,13.822,13.822,13.822
		c7.622,0,13.823-6.201,13.823-13.822C245.322,325.038,239.122,318.837,231.5,318.837z"/>
	<path d="M36.403,72.805h28.903c4.142,0,7.5-3.358,7.5-7.5s-3.358-7.5-7.5-7.5H36.403c-4.142,0-7.5,3.358-7.5,7.5
		S32.261,72.805,36.403,72.805z"/>
	<path d="M94.209,72.805h14.452c4.142,0,7.5-3.358,7.5-7.5s-3.358-7.5-7.5-7.5H94.209c-4.142,0-7.5,3.358-7.5,7.5
		S90.067,72.805,94.209,72.805z"/>
	<path d="M137.564,72.805h14.452c4.142,0,7.5-3.358,7.5-7.5s-3.358-7.5-7.5-7.5h-14.452c-4.142,0-7.5,3.358-7.5,7.5
		S133.422,72.805,137.564,72.805z"/>
	<path d="M180.919,72.805h14.452c4.142,0,7.5-3.358,7.5-7.5s-3.358-7.5-7.5-7.5h-14.452c-4.142,0-7.5,3.358-7.5,7.5
		S176.777,72.805,180.919,72.805z"/>
	<path d="M224.274,72.805h14.452c4.142,0,7.5-3.358,7.5-7.5s-3.358-7.5-7.5-7.5h-14.452c-4.142,0-7.5,3.358-7.5,7.5
		S220.132,72.805,224.274,72.805z"/>
	<path d="M426.6,72.809c1.97,0,3.9-0.8,5.3-2.2s2.2-3.33,2.2-5.3c0-1.98-0.8-3.91-2.2-5.31c-1.4-1.39-3.33-2.19-5.3-2.19
		c-1.98,0-3.91,0.8-5.31,2.19c-1.39,1.4-2.19,3.33-2.19,5.31c0,1.97,0.8,3.9,2.19,5.3C422.69,72.009,424.62,72.809,426.6,72.809z"/>
	<path d="M404.92,72.809c1.97,0,3.9-0.8,5.3-2.2c1.4-1.4,2.2-3.33,2.2-5.3c0-1.98-0.8-3.91-2.2-5.31c-1.39-1.39-3.33-2.19-5.3-2.19
		s-3.91,0.8-5.3,2.19c-1.4,1.4-2.2,3.33-2.2,5.31c0,1.97,0.8,3.9,2.2,5.3C401.01,72.009,402.95,72.809,404.92,72.809z"/>
	<path d="M383.24,72.809c1.98,0,3.91-0.8,5.31-2.2c1.39-1.4,2.19-3.33,2.19-5.3c0-1.98-0.8-3.91-2.19-5.31
		c-1.4-1.39-3.33-2.19-5.31-2.19c-1.97,0-3.91,0.8-5.3,2.19c-1.4,1.4-2.2,3.33-2.2,5.31c0,1.97,0.8,3.9,2.2,5.3
		C379.33,72.009,381.27,72.809,383.24,72.809z"/>
	<path d="M29.18,116.159c1.97,0,3.9-0.8,5.3-2.2c1.4-1.39,2.2-3.33,2.2-5.3c0-1.97-0.8-3.9-2.2-5.3s-3.33-2.2-5.3-2.2
		c-1.98,0-3.91,0.8-5.31,2.2c-1.39,1.39-2.19,3.33-2.19,5.3c0,1.98,0.8,3.91,2.19,5.3C25.27,115.359,27.2,116.159,29.18,116.159z"/>
	<path d="M29.18,122.839c-1.98,0-3.91,0.8-5.31,2.19c-1.39,1.4-2.19,3.33-2.19,5.31c0,1.97,0.8,3.9,2.19,5.3
		c1.4,1.4,3.33,2.2,5.31,2.2c1.97,0,3.9-0.8,5.3-2.2c1.4-1.4,2.2-3.33,2.2-5.3c0-1.98-0.8-3.91-2.2-5.31
		C33.08,123.639,31.15,122.839,29.18,122.839z"/>
	<path d="M29.18,144.519c-1.98,0-3.91,0.8-5.31,2.19c-1.39,1.4-2.19,3.33-2.19,5.31c0,1.97,0.8,3.9,2.19,5.3
		c1.4,1.4,3.33,2.2,5.31,2.2c1.97,0,3.91-0.8,5.3-2.2c1.4-1.4,2.2-3.33,2.2-5.3c0-1.98-0.8-3.91-2.2-5.31
		C33.09,145.319,31.15,144.519,29.18,144.519z"/>
	<path d="M29.18,166.189c-1.98,0-3.91,0.8-5.31,2.2c-1.39,1.39-2.19,3.33-2.19,5.3c0,1.98,0.8,3.91,2.19,5.31
		c1.4,1.39,3.33,2.19,5.31,2.19c1.97,0,3.91-0.8,5.3-2.19c1.4-1.4,2.2-3.33,2.2-5.31c0-1.97-0.8-3.91-2.2-5.3
		C33.09,166.989,31.15,166.189,29.18,166.189z"/>
	<path d="M29.18,187.869c-1.98,0-3.91,0.8-5.31,2.2c-1.39,1.39-2.19,3.33-2.19,5.3c0,1.97,0.8,3.91,2.19,5.3
		c1.4,1.4,3.33,2.2,5.31,2.2c1.97,0,3.9-0.8,5.3-2.2c1.4-1.39,2.2-3.33,2.2-5.3c0-1.97-0.8-3.91-2.2-5.3
		C33.08,188.669,31.15,187.869,29.18,187.869z"/>
	<path d="M289.306,137.837h14.191c0.146,4.014,3.437,7.226,7.486,7.226s7.341-3.212,7.486-7.226h108.126c4.142,0,7.5-3.358,7.5-7.5
		s-3.358-7.5-7.5-7.5H318.469c-0.146-4.014-3.437-7.226-7.486-7.226s-7.341,3.212-7.486,7.226h-14.191c-4.142,0-7.5,3.358-7.5,7.5
		S285.164,137.837,289.306,137.837z"/>
	<path d="M426.596,180.644H318.47c-0.146-4.014-3.437-7.226-7.486-7.226s-7.341,3.212-7.486,7.226h-14.191
		c-4.142,0-7.5,3.358-7.5,7.5s3.358,7.5,7.5,7.5h14.191c0.146,4.014,3.437,7.226,7.486,7.226s7.341-3.212,7.486-7.226h108.127
		c4.142,0,7.5-3.358,7.5-7.5S430.738,180.644,426.596,180.644z"/>
	<path d="M426.596,151.741H369.05c-0.146-4.014-3.437-7.226-7.486-7.226s-7.341,3.212-7.486,7.226h-64.772
		c-4.142,0-7.5,3.358-7.5,7.5s3.358,7.5,7.5,7.5h64.771c0.146,4.014,3.437,7.226,7.486,7.226s7.341-3.212,7.486-7.226h57.546
		c4.142,0,7.5-3.358,7.5-7.5S430.738,151.741,426.596,151.741z"/>
	<path d="M418.596,216.773h-121.29c-8.547,0-15.5,6.953-15.5,15.5v34.581c0,8.547,6.953,15.5,15.5,15.5h121.29
		c8.547,0,15.5-6.953,15.5-15.5v-34.581C434.096,223.726,427.143,216.773,418.596,216.773z M296.806,232.273
		c0-0.276,0.224-0.5,0.5-0.5h96.732l-32.474,32.474l-23.6-23.6c-1.406-1.407-3.314-2.197-5.303-2.197s-3.897,0.79-5.303,2.197
		l-26.707,26.707h-3.345c-0.276,0-0.5-0.224-0.5-0.5V232.273z M343.458,267.354h-21.594l10.797-10.797L343.458,267.354z
		 M419.096,266.854c0,0.276-0.224,0.5-0.5,0.5H379.67l35.581-35.581h3.345c0.276,0,0.5,0.224,0.5,0.5V266.854z"/>
</g>
<g>
</g>
<g>
</g>
<g>
</g>
<g>
</g>
<g>
</g>
<g>
</g>
<g>
</g>
<g>
</g>
<g>
</g>
<g>
</g>
<g>
</g>
<g>
</g>
<g>
</g>
<g>
</g>
<g>
</g>
</svg>
