<?xml version="1.0" encoding="iso-8859-1"?>
<!-- Generator: Adobe Illustrator 16.0.0, SVG Export Plug-In . SVG Version: 6.00 Build 0)  -->
<!DOCTYPE svg PUBLIC "-//W3C//DTD SVG 1.1//EN" "http://www.w3.org/Graphics/SVG/1.1/DTD/svg11.dtd">
<svg version="1.1" id="Capa_1" xmlns="http://www.w3.org/2000/svg" xmlns:xlink="http://www.w3.org/1999/xlink" x="0px" y="0px"
	 width="71.68px" height="71.68px" viewBox="0 0 71.68 71.68" style="enable-background:new 0 0 71.68 71.68;" xml:space="preserve"
	>
<g>
	<g>
		<g>
			<path d="M35.84,0C16.128,0,0,16.129,0,35.841S16.128,71.68,35.84,71.68s35.84-16.127,35.84-35.839S55.552,0,35.84,0z
				 M61.6,49.729l-2.463-1.344l-0.896,1.344l2.463,1.345c-2.463,4.03-5.6,7.168-9.631,9.633l-1.344-2.465l-1.346,0.896l1.346,2.465
				c-4.033,2.24-8.289,3.359-13.217,3.584v-2.912h-1.569v2.912c-4.704-0.225-9.184-1.344-13.216-3.584l1.344-2.465l-1.344-0.896
				l-1.344,2.465c-4.032-2.465-7.168-5.603-9.632-9.633l2.464-1.345l-0.896-1.344l-2.464,1.344c-2.24-4.033-3.36-8.289-3.584-13.217
				h2.912v-1.568H6.271c0.224-4.703,1.344-9.184,3.584-13.215l2.464,1.344l0.896-1.344l-2.464-1.345
				c2.464-4.032,5.6-7.168,9.632-9.633l1.344,2.465l1.344-0.896l-1.344-2.464c4.032-2.24,8.288-3.36,13.216-3.584v2.912h1.569V6.272
				c4.703,0.224,9.184,1.344,13.217,3.584l-1.346,2.464l1.346,0.896l1.344-2.465c4.031,2.465,7.168,5.601,9.631,9.633l-2.463,1.345
				l0.896,1.344l2.463-1.344c2.24,4.031,3.36,8.287,3.584,13.215h-2.912v1.568h2.912C64.96,41.439,63.615,45.92,61.6,49.729z"/>
			<path d="M35.84,13.44v22.4h22.4C58.24,23.52,48.159,13.44,35.84,13.44z"/>
		</g>
	</g>
</g>
<g>
</g>
<g>
</g>
<g>
</g>
<g>
</g>
<g>
</g>
<g>
</g>
<g>
</g>
<g>
</g>
<g>
</g>
<g>
</g>
<g>
</g>
<g>
</g>
<g>
</g>
<g>
</g>
<g>
</g>
</svg>
