<?xml version="1.0" standalone="no"?>
<!DOCTYPE svg PUBLIC "-//W3C//DTD SVG 1.1//EN" "http://www.w3.org/Graphics/SVG/1.1/DTD/svg11.dtd" >
<svg>
    <metadata>
        Created by FontForge 20120731 at Tue Oct 18 20:16:30 2016
        By ,,,
        (c) 2010 Klim Type Foundry. All rights reserved.
    </metadata>
    <defs>
        <font id="TiemposHeadline-Bold" horiz-adv-x="500">
            <font-face
                    font-family="Tiempos Headline Bold"
                    font-weight="700"
                    font-stretch="normal"
                    units-per-em="1000"
                    panose-1="2 2 8 3 6 3 3 6 4 3"
                    ascent="783"
                    descent="-217"
                    x-height="539"
                    cap-height="702"
                    bbox="-106 -245 1326 1047"
                    underline-thickness="30"
                    underline-position="-70"
                    unicode-range="U+0020-FB04"
            />
            <missing-glyph horiz-adv-x="960"
                           d="M90 0v780h780v-780h-780zM480 345l-279 -279h558zM201 714l279 -279l279 279h-558zM435 390l-275 275v-550zM525 390l275 -275v550z"/>
            <glyph glyph-name="ff" unicode="ff" horiz-adv-x="713"
                   d="M79 544v10q0 109 66.5 162.5t170.5 53.5q95 0 156 -49q63 62 176 62q155 0 155 -97q0 -44 -37 -63h-94q5 23 5 47q0 69 -36 69q-43 0 -43 -70v-130h117v-54h-117v-392q0 -30 16 -39t64 -15v-39h-318v39q32 2 43 9t11 30v407h-151v-407q0 -23 11 -30t43 -9v-39h-294v39
q33 2 44.5 9t11.5 30v407h-72v40zM414 563q0 47 14 86q-28 78 -95 78q-70 0 -70 -106v-82h151v24z"/>
            <glyph glyph-name="fi" unicode="fi" horiz-adv-x="670"
                   d="M598 549v-471q0 -23 11.5 -30t44.5 -9v-39h-294v39q32 2 43 9t11 30v407h-151v-407q0 -23 11 -30t43 -9v-39h-294v39q33 2 44.5 9t11.5 30v407h-72v40l72 19v13q0 112 73.5 169t188.5 57q88 0 134.5 -25.5t46.5 -72.5q0 -45 -38 -63h-105q4 28 4 46q0 72 -53 72
q-67 0 -67 -116v-85h257l38 10h40z"/>
            <glyph glyph-name="fl" unicode="fl" horiz-adv-x="670"
                   d="M598 783v-705q0 -23 11.5 -30t44.5 -9v-39h-294v39q32 2 43 9t11 30v591q-28 71 -85 71q-66 0 -66 -102v-99h92v-54h-92v-407q0 -23 11 -30t43 -9v-39h-294v39q33 2 44.5 9t11.5 30v407h-72v40l72 19v19q0 110 63 165t170 55q75 0 133 -29l122 29h31z"/>
            <glyph glyph-name="ffi" unicode="ffi" horiz-adv-x="1005"
                   d="M79 544v10q0 109 66.5 162.5t170.5 53.5q101 0 161 -53q72 66 199 66q88 0 134.5 -25.5t46.5 -72.5q0 -45 -38 -63h-106q5 23 5 46q0 72 -53 72q-67 0 -67 -116v-85h257l38 10h40v-471q0 -23 11.5 -30t44.5 -9v-39h-294v39q32 2 43 9t11 30v407h-151v-407q0 -23 11.5 -30
t44.5 -9v-39h-294v39q32 2 43 9t11 30v407h-151v-407q0 -23 11 -30t43 -9v-39h-294v39q33 2 44.5 9t11.5 30v407h-72v40zM414 557q0 49 15 88q-27 82 -96 82q-70 0 -70 -106v-82h151v18z"/>
            <glyph glyph-name="ffl" unicode="ffl" horiz-adv-x="1005"
                   d="M316 770q94 0 155 -48q61 61 176 61q75 0 133 -29l122 29h31v-705q0 -23 11.5 -30t44.5 -9v-39h-294v39q32 2 43 9t11 30v591q-28 71 -85 71q-66 0 -66 -102v-99h92v-54h-92v-407q0 -23 11 -30t43 -9v-39h-292v39q32 2 43 9t11 30v407h-151v-407q0 -23 11 -30t43 -9v-39
h-294v39q33 2 44.5 9t11.5 30v407h-72v40l72 19v10q0 109 66.5 162.5t170.5 53.5zM414 539v24q0 46 13 88q-27 76 -94 76q-70 0 -70 -106v-82h151z"/>
            <glyph glyph-name="f_b" unicode="fb" horiz-adv-x="989"
                   d="M414 59v610q-28 71 -85 71q-66 0 -66 -102v-99h92v-54h-92v-407q0 -23 11 -30t43 -9v-39h-294v39q33 2 44.5 9t11.5 30v407h-72v40l72 19v19q0 110 63 165t170 55q75 0 133 -29l122 29h31v-331q63 97 168 97q92 0 147 -63.5t55 -182.5q0 -149 -84 -231t-214 -82
q-169 0 -256 69zM669 37q53 0 82 59t29 151q0 97 -32 145t-90 48q-34 0 -60 -17v-282q0 -104 71 -104z"/>
            <glyph glyph-name="f_f_b" unicode="ffb" horiz-adv-x="1324"
                   d="M749 59v610q-28 71 -85 71q-66 0 -66 -102v-99h92v-54h-92v-407q0 -23 11 -30t43 -9v-39h-292v39q32 2 43 9t11 30v407h-151v-407q0 -23 11 -30t43 -9v-39h-294v39q33 2 44.5 9t11.5 30v407h-72v40l72 19v10q0 109 66.5 162.5t170.5 53.5q94 0 155 -48q61 61 176 61
q75 0 133 -29l122 29h31v-331q63 97 168 97q92 0 147 -63.5t55 -182.5q0 -149 -84 -231t-214 -82q-169 0 -256 69zM1004 37q53 0 82 59t29 151q0 97 -32 145t-90 48q-35 0 -60 -17v-282q0 -104 71 -104zM414 563q0 46 13 88q-27 76 -94 76q-70 0 -70 -106v-82h151v24z"/>
            <glyph glyph-name="f_h" unicode="fh" horiz-adv-x="1000"
                   d="M414 78v591q-28 71 -85 71q-66 0 -66 -102v-99h84v-54h-84v-407q0 -23 11 -30t43 -9v-39h-294v39q33 2 44.5 9t11.5 30v407h-72v40l72 19v19q0 110 63 165t170 55q75 0 133 -29l122 29h31v-334q79 100 186 100q73 0 112.5 -41.5t39.5 -122.5v-307q0 -23 11.5 -30t44.5 -9
v-39h-295v39q32 2 43 9t11 30v292q0 35 -15 52.5t-52 17.5q-42 0 -86 -22v-340q0 -23 11 -30t43 -9v-39h-294v39q33 2 44.5 9t11.5 30z"/>
            <glyph glyph-name="f_f_h" unicode="ffh" horiz-adv-x="1335"
                   d="M749 78v591q-28 71 -85 71q-66 0 -66 -102v-99h92v-54h-92v-407q0 -23 11 -30t43 -9v-39h-292v39q32 2 43 9t11 30v407h-151v-407q0 -23 11 -30t43 -9v-39h-294v39q33 2 44.5 9t11.5 30v407h-72v40l72 19v10q0 109 66.5 162.5t170.5 53.5q94 0 155 -48q61 61 176 61
q75 0 133 -29l122 29h31v-334q79 100 186 100q73 0 112.5 -41.5t39.5 -122.5v-307q0 -23 11.5 -30t43.5 -9v-39h-294v39q32 2 43 9t11 30v292q0 35 -15 52.5t-52 17.5q-42 0 -86 -22v-340q0 -23 11 -30t43 -9v-39h-294v39q33 2 44.5 9t11.5 30zM414 563q0 46 13 88
q-27 76 -94 76q-70 0 -70 -106v-82h151v24z"/>
            <glyph glyph-name="f_idieresis" unicode="f&#xef;" horiz-adv-x="670"
                   d="M598 549v-471q0 -23 11.5 -30t44.5 -9v-39h-294v39q32 2 43 9t11 30v407h-151v-407q0 -23 11 -30t43 -9v-39h-294v39q33 2 44.5 9t11.5 30v407h-72v40l72 19v13q0 111 72.5 168.5t184.5 57.5q79 0 120 -27.5t41 -75.5q0 -21 -10.5 -39t-27.5 -26h-104q5 23 5 49
q0 76 -40 76q-57 0 -57 -116v-85h257l38 10h40zM525 687q0 34 25 58.5t58 24.5q36 0 61 -24t25 -59q0 -34 -25 -58.5t-61 -24.5q-33 0 -58 24.5t-25 58.5z"/>
            <glyph glyph-name="f_f_idieresis" unicode="ff&#xef;" horiz-adv-x="1005"
                   d="M316 770q98 0 160 -53q70 66 195 66q79 0 120 -27.5t41 -75.5q0 -21 -10.5 -39t-27.5 -26h-104q5 23 5 49q0 76 -40 76q-57 0 -57 -116v-85h257l38 10h40v-471q0 -23 11.5 -30t44.5 -9v-39h-294v39q32 2 43 9t11 30v407h-151v-407q0 -23 11.5 -30t44.5 -9v-39h-294v39
q32 2 43 9t11 30v407h-151v-407q0 -23 11 -30t43 -9v-39h-294v39q33 2 44.5 9t11.5 30v407h-72v40l72 19v10q0 109 66.5 162.5t170.5 53.5zM414 539v18q0 51 15 88q-27 82 -96 82q-70 0 -70 -106v-82h151zM860 687q0 34 25 58.5t58 24.5q36 0 61 -24t25 -59q0 -34 -25 -58.5
t-61 -24.5q-33 0 -58 24.5t-25 58.5z"/>
            <glyph glyph-name="f_j" unicode="fj" horiz-adv-x="653"
                   d="M414 485h-151v-407q0 -23 11 -30t43 -9v-39h-294v39q33 2 44.5 9t11.5 30v407h-72v40l72 19v13q0 112 73.5 169t188.5 57q88 0 134.5 -25.5t46.5 -72.5q0 -45 -38 -63h-105q4 28 4 46q0 72 -53 72q-67 0 -67 -116v-85h257l38 10h40v-443q0 -80 -16.5 -125t-53.5 -82
q-39 -38 -76.5 -62t-95.5 -50l-16 20l41 64q22 35 27.5 77.5t5.5 114.5v422z"/>
            <glyph glyph-name="f_f_j" unicode="ffj" horiz-adv-x="988"
                   d="M749 485h-151v-407q0 -23 11.5 -30t44.5 -9v-39h-294v39q32 2 43 9t11 30v407h-151v-407q0 -23 11 -30t43 -9v-39h-294v39q33 2 44.5 9t11.5 30v407h-72v40l72 19v10q0 109 66.5 162.5t170.5 53.5q101 0 161 -53q72 66 199 66q88 0 134.5 -25.5t46.5 -72.5q0 -45 -38 -63
h-106q5 23 5 46q0 72 -53 72q-67 0 -67 -116v-85h257l38 10h40v-443q0 -80 -16.5 -125t-53.5 -82q-39 -38 -76.5 -62t-95.5 -50l-16 20l41 64q22 35 27.5 77.5t5.5 114.5v422zM414 557q0 49 15 88q-27 82 -96 82q-70 0 -70 -106v-82h151v18z"/>
            <glyph glyph-name="f_k" unicode="fk" horiz-adv-x="977"
                   d="M605 283l154 139q32 29 32 48q0 14 -12.5 20t-47.5 10v39h226v-39q-54 -8 -83 -37l-114 -108l217 -328v-27h-191zM414 78v591q-28 71 -85 71q-66 0 -66 -102v-99h92v-54h-92v-407q0 -23 11 -30t43 -9v-39h-294v39q33 2 44.5 9t11.5 30v407h-72v40l72 19v19q0 110 63 165
t170 55q75 0 133 -29l122 29h31v-705q0 -23 11.5 -30t44.5 -9v-39h-296v39q33 2 44.5 9t11.5 30z"/>
            <glyph glyph-name="f_f_k" unicode="ffk" horiz-adv-x="1312"
                   d="M749 78v591q-28 71 -85 71q-66 0 -66 -102v-99h92v-54h-92v-407q0 -23 11 -30t43 -9v-39h-292v39q32 2 43 9t11 30v407h-151v-407q0 -23 11 -30t43 -9v-39h-294v39q33 2 44.5 9t11.5 30v407h-72v40l72 19v10q0 109 66.5 162.5t170.5 53.5q94 0 155 -48q61 61 176 61
q75 0 133 -29l122 29h31v-705q0 -23 11.5 -30t44.5 -9v-39h-296v39q33 2 44.5 9t11.5 30zM940 283l154 139q32 29 32 48q0 14 -12.5 20t-47.5 10v39h226v-39q-54 -8 -83 -37l-114 -108l217 -328v-27h-191zM414 563q0 46 13 88q-27 76 -94 76q-70 0 -70 -106v-82h151v24z"/>
            <glyph glyph-name=".notdef" horiz-adv-x="960"
                   d="M90 0v780h780v-780h-780zM480 345l-279 -279h558zM201 714l279 -279l279 279h-558zM435 390l-275 275v-550zM525 390l275 -275v550z"/>
            <glyph glyph-name=".null" horiz-adv-x="0"
            />
            <glyph glyph-name="nonmarkingreturn" horiz-adv-x="333"
            />
            <glyph glyph-name="space" unicode=" " horiz-adv-x="173"
            />
            <glyph glyph-name="exclam" unicode="!" horiz-adv-x="293"
                   d="M51 87q0 41 28 70t67 29q40 0 68 -29t28 -70q0 -40 -28 -68.5t-68 -28.5q-39 0 -67 28.5t-28 68.5zM175 234h-58l-81 468h220z"/>
            <glyph glyph-name="quotedbl" unicode="&#x22;" horiz-adv-x="363"
                   d="M101 455h-15l-45 144q-20 67 -20 94q0 32 18.5 54t53.5 22q36 0 54.5 -22t18.5 -54q0 -31 -21 -94zM277 455h-14l-45 144q-21 70 -21 94q0 32 19 54t54 22t54 -22t19 -54q0 -24 -21 -94z"/>
            <glyph glyph-name="numbersign" unicode="#" horiz-adv-x="527"
                   d="M469 230h-122l-75 -240l-51 17l70 223h-132l-76 -240l-51 17l70 223h-78v47h93l49 153h-108v47h123l74 236l52 -17l-70 -219h133l74 236l51 -17l-69 -219h77v-47h-92l-49 -153h107v-47zM222 430l-48 -153h132l49 153h-133z"/>
            <glyph glyph-name="dollar" unicode="$" horiz-adv-x="576"
                   d="M272 -10q-6 0 -16 0.5t-16 0.5l-18 -104h-43l19 109q-104 15 -161 61l-11 174h54q14 -67 47 -114.5t81 -66.5l38 213l-10 3q-104 31 -155 82t-51 138q0 103 71 164.5t183 61.5q15 0 41 -2l19 103h43l-20 -108q79 -14 134 -53v-152h-46q-25 112 -98 148l-36 -203
q1 -1 4 -1q55 -17 91.5 -34t68 -43t46.5 -63.5t15 -88.5q0 -110 -77 -167.5t-197 -57.5zM392 134q0 44 -24 69t-82 46l-37 -210q7 -1 23 -1q54 0 87 25t33 71zM179 569q0 -44 23 -68t79 -43l36 204q-17 3 -33 3q-47 0 -76 -26t-29 -70z"/>
            <glyph glyph-name="percent" unicode="%" horiz-adv-x="791"
                   d="M34 539q0 82 50 127.5t123 45.5q72 0 122 -45.5t50 -127.5t-50 -128t-122 -46q-73 0 -123 46t-50 128zM146 539q0 -139 61 -139t61 139q0 138 -61 138t-61 -138zM149 -10l439 722h54l-439 -722h-54zM757 163q0 -82 -50 -127.5t-123 -45.5t-123 45.5t-50 127.5t50 128
t123 46t123 -46t50 -128zM645 163q0 139 -61 139t-61 -139q0 -138 61 -138t61 138z"/>
            <glyph glyph-name="ampersand" unicode="&#x26;" horiz-adv-x="736"
                   d="M11 183q0 138 166 184q-63 79 -63 159q0 85 60 135.5t161 50.5q95 0 153 -42.5t58 -113.5q0 -123 -164 -159l159 -190q18 43 18 84q0 48 -63 48v43h221v-43q-53 0 -75 -14.5t-32 -57.5q-12 -53 -39 -97l47 -55q24 -29 35.5 -41t28.5 -22t37 -10v-42h-213q-37 28 -56 46
q-88 -56 -192 -56q-107 0 -177 51.5t-70 141.5zM335 67q39 0 79 16q-20 22 -30 35l-182 218q-33 -37 -33 -106q0 -71 46 -117t120 -46zM268 590q0 -14 2 -27t8 -26t10 -21.5t14.5 -22.5t14.5 -19t17 -20t15 -17l7 -9q57 43 57 142q0 43 -18.5 71.5t-57.5 28.5q-33 0 -51 -22
t-18 -58z"/>
            <glyph glyph-name="quotesingle" unicode="'" horiz-adv-x="187"
                   d="M101 455h-15l-45 144q-20 67 -20 94q0 32 18.5 54t53.5 22q36 0 54.5 -22t18.5 -54q0 -31 -21 -94z"/>
            <glyph glyph-name="parenleft" unicode="(" horiz-adv-x="371"
                   d="M60 314q0 128 61.5 249t171.5 207h56q-153 -183 -153 -456t153 -456h-56q-110 86 -171.5 207t-61.5 249z"/>
            <glyph glyph-name="parenright" unicode=")" horiz-adv-x="371"
                   d="M311 314q0 -128 -62 -249t-172 -207h-55q153 184 153 456t-153 456h55q110 -86 172 -207t62 -249z"/>
            <glyph glyph-name="asterisk" unicode="*" horiz-adv-x="443"
                   d="M362 595l-127 -34l127 -33q32 -8 43.5 -29.5t-1.5 -43.5t-36.5 -22.5t-47.5 23.5l-92 93l35 -126q9 -32 -3.5 -52t-38.5 -20t-38 20t-3 52l35 126l-92 -93q-24 -24 -48 -23.5t-36 22.5q-13 22 -1.5 43.5t43.5 29.5l126 33l-126 34q-32 7 -43.5 28.5t1.5 43.5
q12 22 36 22.5t48 -23.5l92 -94l-35 127q-9 32 3 52t38 20t38.5 -20t3.5 -52l-35 -127l92 94q24 24 47.5 23.5t36.5 -22.5t1.5 -43.5t-43.5 -28.5z"/>
            <glyph glyph-name="plus" unicode="+" horiz-adv-x="574"
                   d="M253 591h67v-187h188v-69h-188v-187h-67v187h-188v69h188v187z"/>
            <glyph glyph-name="comma" unicode="," horiz-adv-x="266"
                   d="M149 6h-41q-72 17 -72 87q0 40 27.5 65t68.5 25q48 0 77 -34t29 -90q0 -82 -53 -129t-152 -50v41q55 8 83.5 27t32.5 58z"/>
            <glyph glyph-name="hyphen" unicode="-" horiz-adv-x="320"
                   d="M290 269h-260v78h260v-78z"/>
            <glyph glyph-name="period" unicode="." horiz-adv-x="266"
                   d="M30 93q0 45 30 74.5t73 29.5q44 0 73.5 -29.5t29.5 -74.5t-29.5 -74t-73.5 -29q-43 0 -73 29t-30 74z"/>
            <glyph glyph-name="slash" unicode="/" horiz-adv-x="362"
                   d="M353 770l-277 -911h-78l277 911h78z"/>
            <glyph glyph-name="zero" unicode="0" horiz-adv-x="670"
                   d="M335 32q58 0 80.5 84.5t22.5 234.5t-22.5 234.5t-80.5 84.5t-80.5 -84.5t-22.5 -234.5t22.5 -234.5t80.5 -84.5zM335 -10q-136 0 -222.5 96.5t-86.5 264.5t86.5 264.5t222.5 96.5t222.5 -96.5t86.5 -264.5t-86.5 -264.5t-222.5 -96.5z"/>
            <glyph glyph-name="one" unicode="1" horiz-adv-x="423"
                   d="M409 0h-384v42q67 3 81.5 14.5t14.5 58.5v421h-96v39l46 8q72 12 117.5 41.5t85.5 86.5h42v-596q0 -46 15 -57.5t78 -15.5v-42z"/>
            <glyph glyph-name="two" unicode="2" horiz-adv-x="555"
                   d="M179 156h175q53 0 78.5 16.5t61.5 83.5h31l-23 -256h-497v33l192 191q62 61 90.5 117t28.5 119q0 56 -31 90t-88 34q-79 0 -134 -65l-30 21q91 172 259 172q96 0 152 -50.5t56 -137.5q0 -51 -24.5 -99.5t-72.5 -94t-92 -79t-110 -80.5q-15 -10 -22 -15z"/>
            <glyph glyph-name="three" unicode="3" horiz-adv-x="544"
                   d="M303 403q100 -3 160 -56t60 -139q0 -103 -80.5 -160.5t-194.5 -57.5q-115 0 -179 40.5t-64 102.5q0 29 13.5 51.5t32.5 31.5h116q-11 -27 -11 -65q0 -53 25 -87t72 -34q43 0 66.5 35.5t23.5 100.5q0 75 -41 118t-116 43h-19l-11 29q78 32 109.5 64.5t31.5 79.5
q0 42 -24.5 66t-70.5 24q-76 0 -133 -68l-27 21q81 169 254 169q82 0 132 -39t50 -107t-52 -108t-123 -55z"/>
            <glyph glyph-name="four" unicode="4" horiz-adv-x="638"
                   d="M83 235h226v320zM309 108v74h-303v34l343 486h150v-467h115v-53h-115v-74q0 -40 13.5 -52.5t64.5 -15.5v-40h-347v40q51 3 65 15.5t14 52.5z"/>
            <glyph glyph-name="five" unicode="5" horiz-adv-x="541"
                   d="M466 542h-323l-14 -77q387 8 387 -245q0 -109 -74.5 -169.5t-189.5 -60.5t-178.5 38.5t-63.5 100.5q0 28 14.5 51t37.5 35h109q-9 -34 -9 -59q0 -58 25 -91.5t76 -33.5q47 0 74 30t27 83q0 157 -305 157l63 401h275q27 0 37 7t23 35h39z"/>
            <glyph glyph-name="six" unicode="6" horiz-adv-x="609"
                   d="M494 683q-228 -45 -264 -272q65 47 153 47q89 0 146 -57.5t57 -153.5q0 -119 -76.5 -188t-194.5 -69q-132 0 -209 87.5t-77 230.5q0 171 120 284.5t329 119.5zM274 384q-24 0 -49 -7q-3 -35 -3 -72q0 -122 26 -197t79 -75q42 0 63 43t21 114q0 85 -35 139.5t-102 54.5z
"/>
            <glyph glyph-name="seven" unicode="7" horiz-adv-x="516"
                   d="M404 518h-263q-34 0 -54.5 -20.5t-37.5 -70.5h-39l45 275h460v-39l-282 -663h-117z"/>
            <glyph glyph-name="eight" unicode="8" horiz-adv-x="587"
                   d="M527 550q0 -54 -41.5 -87.5t-106.5 -39.5l25 -11q81 -35 119.5 -83.5t38.5 -120.5q0 -102 -73.5 -160t-197.5 -58t-196.5 45.5t-72.5 127.5q0 57 43.5 94t112.5 46l-16 7q-55 25 -87.5 74t-32.5 115q0 97 70.5 155t179.5 58q111 0 173 -43t62 -119zM331 233l-127 58
q-47 -43 -47 -113q0 -67 37 -107t99 -40q54 0 87 27.5t33 76.5q0 37 -19.5 58t-62.5 40zM268 476l81 -40q53 44 53 116q0 53 -29 86t-82 33q-46 0 -74 -25t-28 -67q0 -37 19.5 -60.5t59.5 -42.5z"/>
            <glyph glyph-name="nine" unicode="9" horiz-adv-x="609"
                   d="M115 20q226 43 264 272q-64 -47 -153 -47t-146 57.5t-57 153.5q0 119 76.5 188t194.5 69q132 0 209 -87.5t77 -230.5q0 -171 -120 -284.5t-329 -119.5zM335 319q27 0 48 6q4 32 4 73q0 122 -26 197t-79 75q-42 0 -63 -43t-21 -114q0 -85 35 -139.5t102 -54.5z"/>
            <glyph glyph-name="colon" unicode=":" horiz-adv-x="266"
                   d="M30 93q0 45 30 74.5t73 29.5q44 0 73.5 -29.5t29.5 -74.5t-29.5 -74t-73.5 -29q-43 0 -73 29t-30 74zM30 402q0 45 30 74.5t73 29.5q44 0 73.5 -29.5t29.5 -74.5t-29.5 -74t-73.5 -29q-43 0 -73 29t-30 74z"/>
            <glyph glyph-name="semicolon" unicode=";" horiz-adv-x="266"
                   d="M149 6h-41q-72 17 -72 87q0 40 27.5 65t68.5 25q48 0 77 -34t29 -90q0 -82 -53 -129t-152 -50v41q55 8 83.5 27t32.5 58zM30 402q0 45 30 74.5t73 29.5q44 0 73.5 -29.5t29.5 -74.5t-29.5 -74t-73.5 -29q-43 0 -73 29t-30 74z"/>
            <glyph glyph-name="less" unicode="&#x3c;" horiz-adv-x="425"
                   d="M43 363v9l317 194v-81l-199 -117l199 -119v-80z"/>
            <glyph glyph-name="equal" unicode="=" horiz-adv-x="584"
                   d="M70 264v65h444v-65h-444zM70 409v67h444v-67h-444z"/>
            <glyph glyph-name="greater" unicode="&#x3e;" horiz-adv-x="425"
                   d="M382 372v-9l-317 -194v80l200 119l-200 117v81z"/>
            <glyph glyph-name="question" unicode="?" horiz-adv-x="467"
                   d="M306 596q0 36 -18 56.5t-52 20.5q-40 0 -57.5 -28t-17.5 -71q0 -18 5 -58h-110q-40 20 -40 65q0 60 59.5 95.5t158.5 35.5q106 0 163.5 -44t57.5 -126q0 -62 -34 -106t-104 -85q-44 -27 -61.5 -49.5t-17.5 -57.5v-13h-25q-78 30 -78 109q0 70 78 127q32 24 48.5 38.5
t30.5 39t14 51.5zM129 87q0 41 28 70t67 29q40 0 68 -29t28 -70q0 -40 -28 -68.5t-68 -28.5q-39 0 -67 28.5t-28 68.5z"/>
            <glyph glyph-name="at" unicode="@" horiz-adv-x="885"
                   d="M606 77q-74 0 -99.5 45.5t-12.5 116.5q-43 -80 -83 -121t-92 -41q-45 0 -74 34.5t-29 93.5q0 107 76 198t181 91q65 0 96 -41l75 33h41l-34 -92l-55 -200q-11 -31 -3.5 -55.5t32.5 -24.5q58 0 99 73t41 184q0 117 -76.5 199t-206.5 82q-161 0 -259.5 -116t-98.5 -285
q0 -159 94.5 -244.5t241.5 -85.5q81 0 142.5 17.5t127.5 57.5l14 -20q-117 -104 -304 -104q-171 0 -286.5 100t-115.5 277q0 184 127 313.5t317 129.5q167 0 266 -93t99 -228q0 -139 -74 -216.5t-167 -77.5zM381 165q41 0 85 78t67 184q-14 32 -45 32q-56 0 -98 -80
t-42 -159q0 -55 33 -55z"/>
            <glyph glyph-name="A" unicode="A" horiz-adv-x="759"
                   d="M471 125l-36 92h-255l-34 -91q-8 -24 -8 -37q0 -24 20 -34.5t62 -12.5v-42h-215v42q46 7 58 37l208 542l-34 83h209l249 -625q7 -18 21 -26t38 -11v-42h-353v42q40 2 59 12t19 34q0 13 -8 37zM304 548l-104 -277h213z"/>
            <glyph glyph-name="B" unicode="B" horiz-adv-x="700"
                   d="M339 335h-44v-220q0 -40 15 -54t55 -14h8q54 0 85.5 36.5t31.5 109.5q0 142 -151 142zM319 655h-24v-266h25q129 0 129 136q0 65 -34 97.5t-96 32.5zM399 0h-373v42q50 5 61.5 16t11.5 51v484q0 40 -11.5 51t-61.5 16v42h363q118 0 182 -44.5t64 -130.5q0 -71 -54 -112.5
t-134 -49.5q103 -3 168 -49t65 -126q0 -190 -281 -190z"/>
            <glyph glyph-name="C" unicode="C" horiz-adv-x="683"
                   d="M404 712q134 0 223 -59l3 -175h-49q-39 184 -171 184q-89 0 -133 -83.5t-44 -218.5q0 -142 48.5 -229.5t138.5 -87.5q131 0 187 211h50l-17 -199q-92 -65 -245 -65q-171 0 -270 92t-99 250q0 172 108.5 276t269.5 104z"/>
            <glyph glyph-name="D" unicode="D" horiz-adv-x="789"
                   d="M321 655h-26v-538q0 -42 16 -56t52 -14h9q85 0 136 80t51 213q0 146 -62.5 230.5t-175.5 84.5zM378 0h-352v42q50 5 61.5 16t11.5 51v484q0 40 -11.5 51t-61.5 16v42h329q200 0 303.5 -94.5t103.5 -248.5q0 -168 -103.5 -263.5t-280.5 -95.5z"/>
            <glyph glyph-name="E" unicode="E" horiz-adv-x="655"
                   d="M26 0v42q50 5 61.5 16t11.5 51v484q0 40 -11.5 51t-61.5 16v42h575l5 -193h-38q-42 88 -73.5 117t-96.5 29h-103v-265h97q33 0 46.5 19.5t20.5 72.5h43v-240h-43q-7 53 -20.5 73t-46.5 20h-97v-221q0 -39 19 -53t62 -14h35q27 0 47 6t34.5 15t32.5 34t30.5 46.5
t38.5 69.5h45l-32 -218h-581z"/>
            <glyph glyph-name="F" unicode="F" horiz-adv-x="614"
                   d="M295 327v-215q0 -39 24 -52.5t92 -17.5v-42h-385v42q50 5 61.5 16t11.5 51v484q0 40 -11.5 51t-61.5 16v42h565l5 -200h-35q-45 92 -76.5 122.5t-95.5 30.5h-94v-273h87q34 0 47 19.5t20 73.5h43v-241h-43q-7 54 -20 73.5t-47 19.5h-87z"/>
            <glyph glyph-name="G" unicode="G" horiz-adv-x="742"
                   d="M477 53v170q0 40 -11.5 51t-61.5 17v42h328v-42q-49 -6 -60.5 -17t-11.5 -51v-166q-105 -67 -272 -67q-172 0 -267 95.5t-95 247.5q0 171 109.5 275t272.5 104q136 0 226 -59l3 -175h-49q-39 184 -173 184q-91 0 -136.5 -83.5t-45.5 -218.5q0 -136 47 -227.5t135 -91.5
q39 0 62 12z"/>
            <glyph glyph-name="H" unicode="H" horiz-adv-x="844"
                   d="M295 593v-206h254v206q0 40 -11.5 51t-61.5 16v42h341v-42q-49 -5 -60.5 -16t-11.5 -51v-484q0 -40 11.5 -51t60.5 -16v-42h-341v42q50 5 61.5 16t11.5 51v216h-254v-216q0 -40 11.5 -51t60.5 -16v-42h-341v42q50 5 61.5 16t11.5 51v484q0 40 -11.5 51t-61.5 16v42h341
v-42q-49 -5 -60.5 -16t-11.5 -51z"/>
            <glyph glyph-name="I" unicode="I" horiz-adv-x="394"
                   d="M295 593v-484q0 -40 11.5 -51t60.5 -16v-42h-341v42q50 5 61.5 16t11.5 51v484q0 40 -11.5 51t-61.5 16v42h341v-42q-49 -5 -60.5 -16t-11.5 -51z"/>
            <glyph glyph-name="J" unicode="J" horiz-adv-x="583"
                   d="M298 168v425q0 40 -11.5 51t-61.5 16v42h341v-42q-49 -5 -60.5 -16t-11.5 -51v-368q0 -235 -268 -235q-112 0 -171.5 38.5t-59.5 111.5q0 60 50 89h126q-7 -42 -7 -77q0 -119 67 -119q40 0 53.5 33t13.5 102z"/>
            <glyph glyph-name="K" unicode="K" horiz-adv-x="768"
                   d="M469 429l208 -321q23 -34 41 -48t50 -18v-42h-233q-46 39 -91 115l-140 226l234 244q28 28 28 47q0 25 -69 28v42h237v-42q-31 -1 -48 -9t-37 -29zM295 593v-484q0 -40 11.5 -51t60.5 -16v-42h-341v42q50 5 61.5 16t11.5 51v484q0 40 -11.5 51t-61.5 16v42h341v-42
q-49 -5 -60.5 -16t-11.5 -51z"/>
            <glyph glyph-name="L" unicode="L" horiz-adv-x="644"
                   d="M295 593v-479q0 -39 17 -53t60 -14h28q50 0 87 37.5t105 152.5h43l-38 -237h-571v42q50 5 61.5 16t11.5 51v484q0 40 -11.5 51t-61.5 16v42h341v-42q-49 -5 -60.5 -16t-11.5 -51z"/>
            <glyph glyph-name="M" unicode="M" horiz-adv-x="981"
                   d="M694 130l-48 381l-179 -511h-76l-185 511l-50 -381q-2 -14 -2 -24q0 -36 18.5 -48t77.5 -16v-42h-247v42q44 2 62.5 14.5t22.5 45.5l63 485q0 40 -18 55.5t-67 17.5v42h278q2 -26 16 -64l136 -382l129 382q16 49 17 64h272v-42q-49 -2 -66.5 -17.5t-17.5 -55.5l63 -485
q5 -35 22.5 -46.5t61.5 -13.5v-42h-377v42q55 3 75.5 15.5t20.5 48.5q0 10 -2 24z"/>
            <glyph glyph-name="N" unicode="N" horiz-adv-x="754"
                   d="M597 306v286q0 38 -19.5 50.5t-81.5 17.5v42h240v-42q-49 -5 -60.5 -16.5t-11.5 -51.5v-593h-71l-427 528v-417q0 -38 19.5 -50.5t81.5 -17.5v-42h-240v42q49 5 60.5 16.5t11.5 51.5v486q-21 35 -35 49t-38 15v42h252z"/>
            <glyph glyph-name="O" unicode="O" horiz-adv-x="747"
                   d="M378 38q48 0 79.5 46t43.5 110.5t12 144.5q0 145 -35.5 235t-109.5 90q-48 0 -79.5 -46t-43.5 -110.5t-12 -144.5q0 -145 35.5 -235t109.5 -90zM364 -10q-160 0 -249 100t-89 247q0 170 99.5 272.5t256.5 102.5q160 0 249 -100t89 -247q0 -170 -99.5 -272.5
t-256.5 -102.5z"/>
            <glyph glyph-name="P" unicode="P" horiz-adv-x="667"
                   d="M295 271v-159q0 -39 24 -52.5t92 -17.5v-42h-385v42q50 5 61.5 16t11.5 51v484q0 40 -11.5 51t-61.5 16v42h346q141 0 213 -58.5t72 -153.5q0 -105 -73.5 -162t-219.5 -57h-69zM295 655v-332h23q71 0 109 44.5t38 122.5q0 77 -39.5 121t-107.5 44h-23z"/>
            <glyph glyph-name="Q" unicode="Q" horiz-adv-x="747"
                   d="M353 -69l-46 63q-134 17 -207.5 113.5t-73.5 229.5q0 170 99.5 272.5t256.5 102.5q160 0 249 -100t89 -247q0 -144 -72.5 -241t-193.5 -124l83 -61q42 -30 69 -42.5t66 -13.5v-17q-54 -52 -128 -52q-102 0 -191 117zM378 38q48 0 79.5 46t43.5 110.5t12 144.5
q0 145 -35.5 235t-109.5 90q-48 0 -79.5 -46t-43.5 -110.5t-12 -144.5q0 -145 35.5 -235t109.5 -90z"/>
            <glyph glyph-name="R" unicode="R" horiz-adv-x="759"
                   d="M324 653h-29v-310h30q68 0 105.5 41.5t37.5 117.5q0 71 -37.5 111t-106.5 40zM295 293v-184q0 -40 11.5 -51t60.5 -16v-42h-341v42q50 5 61.5 16t11.5 51v484q0 40 -11.5 51t-61.5 16v42h367q123 0 196.5 -53.5t73.5 -145.5q0 -70 -43 -115t-107 -66l139 -199
q32 -47 52.5 -63.5t54.5 -17.5v-42h-229q-39 30 -84 106l-114 187h-37z"/>
            <glyph glyph-name="S" unicode="S" horiz-adv-x="579"
                   d="M275 -10q-72 0 -135 19t-100 48l-11 174h53q20 -87 70 -140t123 -53q54 0 85.5 25t31.5 71q0 47 -33.5 74t-119.5 53q-103 30 -154.5 83.5t-51.5 141.5q0 103 71 164.5t183 61.5q134 0 216 -60v-152h-45q-38 165 -171 165q-47 0 -75 -25t-28 -68q0 -47 31.5 -73
t111.5 -50q111 -34 166 -85t55 -149q0 -110 -76.5 -167.5t-196.5 -57.5z"/>
            <glyph glyph-name="T" unicode="T" horiz-adv-x="708"
                   d="M30 702h648l15 -251h-41q-60 129 -90 169.5t-77 40.5h-33v-556q0 -37 15 -47t67 -16v-42h-360v42q52 6 67 16t15 47v556h-33q-47 0 -77 -40.5t-90 -169.5h-41z"/>
            <glyph glyph-name="U" unicode="U" horiz-adv-x="753"
                   d="M282 593v-332q0 -187 153 -187q75 0 120 46t45 146v326q0 39 -16.5 51.5t-76.5 16.5v42h232v-42q-49 -5 -60.5 -16.5t-11.5 -51.5v-345q0 -126 -78 -191.5t-201 -65.5q-146 0 -224 65t-78 192v346q0 40 -11.5 51t-60.5 16v42h341v-42q-50 -5 -61.5 -16t-11.5 -51z"/>
            <glyph glyph-name="V" unicode="V" horiz-adv-x="731"
                   d="M451 243l129 333q11 28 11 40q0 24 -14.5 33.5t-58.5 10.5v42h208v-42q-47 -6 -59 -37l-256 -627h-56l-292 627q-9 20 -21.5 27t-36.5 10v42h355v-42q-44 -1 -58.5 -10.5t-14.5 -32.5q0 -18 10 -41z"/>
            <glyph glyph-name="W" unicode="W" horiz-adv-x="1008"
                   d="M651 -4l-134 391l-144 -391h-71l-239 627q-12 30 -58 37v42h328v-42q-54 -4 -54 -39q0 -14 14 -54l117 -318l80 218l-53 156q-10 31 -51 37v42h327v-42q-39 -1 -54.5 -11t-15.5 -32q0 -15 13 -61l97 -302l104 305q13 39 13 55q0 43 -69 46v42h202v-42q-48 -7 -58 -37
l-222 -627h-72z"/>
            <glyph glyph-name="X" unicode="X" horiz-adv-x="747"
                   d="M432 117l-115 168l-140 -178q-14 -19 -14 -31q0 -32 81 -34v-42h-239v42q50 6 71 35l207 259l-196 289q-19 29 -62 35v42h348v-42q-30 0 -43 -6t-13 -23q0 -14 22 -47l84 -126l105 137q14 18 14 34q0 29 -64 31v42h221v-42q-49 -6 -72 -35l-171 -216l218 -324
q26 -37 68 -43v-42h-361v42q41 1 56.5 7t15.5 23q0 14 -21 45z"/>
            <glyph glyph-name="Y" unicode="Y" horiz-adv-x="707"
                   d="M457 263v-158q0 -37 15 -47t68 -16v-42h-356v42q53 6 67.5 16t14.5 47v153l-203 365q-11 20 -22.5 27t-35.5 10v42h345v-42q-40 -1 -54 -9t-14 -27q0 -23 23 -64l128 -220l112 218q23 48 23 66t-16.5 26t-53.5 10v42h204v-42q-42 -6 -58 -37z"/>
            <glyph glyph-name="Z" unicode="Z" horiz-adv-x="632"
                   d="M243 47h126q62 0 100 35t103 149h43l-36 -231h-563v35l351 620h-119q-23 0 -40 -2.5t-32.5 -14t-24 -19t-23 -34.5t-21.5 -42t-27 -58h-41l9 217h547v-35z"/>
            <glyph glyph-name="bracketleft" unicode="[" horiz-adv-x="336"
                   d="M199 671v-713q0 -37 20 -46.5t85 -13.5v-39h-219v911h219v-39q-65 -4 -85 -13.5t-20 -46.5z"/>
            <glyph glyph-name="backslash" unicode="\" horiz-adv-x="362"
                   d="M286 -141l-277 911h78l278 -911h-79z"/>
            <glyph glyph-name="bracketright" unicode="]" horiz-adv-x="336"
                   d="M138 -42v713q0 37 -20 46.5t-85 13.5v39h218v-911h-218v39q65 4 85 13.5t20 46.5z"/>
            <glyph glyph-name="asciicircum" unicode="^" horiz-adv-x="469"
                   d="M272 770l165 -290h-72l-131 236l-131 -236h-71l165 290h75z"/>
            <glyph glyph-name="underscore" unicode="_" horiz-adv-x="414"
                   d="M394 -141h-374v75h374v-75z"/>
            <glyph glyph-name="grave" unicode="`"
                   d="M124 765h179l50 -164h-51l-178 155v9z"/>
            <glyph glyph-name="a" unicode="a" horiz-adv-x="554"
                   d="M263 89q19 0 44 14v185l-55 -21q-29 -11 -43.5 -30t-14.5 -59q0 -89 69 -89zM489 375v-265q0 -45 27 -45q20 0 34 6l7 -27q-54 -54 -132 -54q-43 0 -73.5 22t-41.5 62q-56 -81 -151 -81q-64 0 -103.5 35.5t-39.5 98.5q0 60 35 93t97 55l159 56v102q0 77 -52 77
q-54 0 -54 -79q0 -27 9 -70l-111 -15q-49 17 -49 70q0 65 59.5 99t155.5 34q110 0 167 -40t57 -134z"/>
            <glyph glyph-name="b" unicode="b" horiz-adv-x="630"
                   d="M55 679l-55 28v30l209 46h31v-331q25 40 67.5 68.5t100.5 28.5q92 0 147 -63.5t55 -182.5q0 -149 -84 -231t-215 -82q-168 0 -256 69v620zM311 37q52 0 81.5 59t29.5 151q0 97 -32 145t-91 48q-33 0 -59 -17v-282q0 -104 71 -104z"/>
            <glyph glyph-name="c" unicode="c" horiz-adv-x="503"
                   d="M181 322q0 -97 41.5 -152t115.5 -55q87 0 133 66l22 -14q-48 -177 -226 -177q-107 0 -176.5 71.5t-69.5 191.5q0 129 75.5 212.5t198.5 83.5q81 0 132 -32t51 -95q0 -53 -44 -73h-95q4 29 4 57q0 98 -64 98q-45 0 -71.5 -51.5t-26.5 -130.5z"/>
            <glyph glyph-name="d" unicode="d" horiz-adv-x="641"
                   d="M314 489q-52 0 -80 -50.5t-28 -137.5q0 -94 32 -150.5t90 -56.5q32 0 57 14v278q0 52 -16.5 77.5t-54.5 25.5zM385 679l-55 28v30l209 46h31v-668q0 -28 6 -38.5t28 -11.5l24 -1v-39l-212 -35h-34l3 94q-63 -94 -162 -94q-91 0 -146.5 67.5t-55.5 187.5q0 141 75 220.5
t190 79.5q63 0 99 -30v164z"/>
            <glyph glyph-name="e" unicode="e" horiz-adv-x="526"
                   d="M288 549q106 0 162.5 -60t56.5 -159v-25h-319q-1 -88 42.5 -140.5t112.5 -52.5q94 0 149 73l19 -12q-21 -85 -79.5 -134t-150.5 -49q-114 0 -187 72t-73 195q0 130 78 211t189 81zM276 507q-79 0 -87 -156h160q0 156 -73 156z"/>
            <glyph glyph-name="f" unicode="f" horiz-adv-x="378"
                   d="M263 485v-392q0 -30 16 -39t64 -15v-39h-320v39q33 2 44.5 9t11.5 30v407h-72v40l72 19v19q0 109 65 164.5t169 55.5q155 0 155 -97q0 -44 -37 -63h-94q5 23 5 47q0 69 -36 69q-43 0 -43 -70v-130h117v-54h-117z"/>
            <glyph glyph-name="g" unicode="g" horiz-adv-x="557"
                   d="M259 188q-60 0 -110 17q-29 -25 -29 -50q0 -29 30 -29h217q192 0 192 -149q0 -95 -83 -147.5t-222 -52.5q-120 0 -188 31.5t-68 90.5q0 35 27 55t65 26q-31 12 -48.5 39.5t-17.5 60.5q0 82 98 135q-95 45 -95 144q0 88 66.5 139t172.5 51q50 0 95 -14l178 4v-67h-45
l-61 2q62 -41 62 -113q0 -81 -66 -127t-170 -46zM375 -42h-264q-9 -10 -9 -37q0 -45 43 -71t114 -26q75 0 124 21.5t49 67.5q0 45 -57 45zM266 227q32 0 45.5 33.5t13.5 102.5q0 62 -17 103t-50 41q-60 0 -60 -132q0 -64 17.5 -106t50.5 -42z"/>
            <glyph glyph-name="h" unicode="h" horiz-adv-x="661"
                   d="M74 78v601l-55 28v30l209 46h31v-334q79 100 186 100q73 0 112 -41.5t39 -122.5v-307q0 -23 11.5 -30t44.5 -9v-39h-294v39q32 2 42.5 9t10.5 30v292q0 35 -15 52.5t-52 17.5q-43 0 -85 -22v-340q0 -23 10.5 -30t42.5 -9v-39h-294v39q33 2 44.5 9t11.5 30z"/>
            <glyph glyph-name="i" unicode="i" horiz-adv-x="334"
                   d="M262 549v-471q0 -23 11.5 -30t44.5 -9v-39h-296v39q33 2 44.5 9t11.5 30v351l-55 34v28l208 58h31zM172 593q-45 0 -71.5 27t-26.5 66t26.5 65.5t71.5 26.5q44 0 71 -26.5t27 -65.5t-27 -66t-71 -27z"/>
            <glyph glyph-name="j" unicode="j" horiz-adv-x="302"
                   d="M63 429l-56 34v28l209 58h31v-443q0 -80 -16.5 -125t-53.5 -82q-39 -38 -76.5 -62t-95.5 -50l-16 20l41 64q22 35 27.5 77.5t5.5 114.5v366zM154 593q-44 0 -71 27t-27 66t27 65.5t71 26.5t71 -26.5t27 -65.5t-27 -66t-71 -27z"/>
            <glyph glyph-name="k" unicode="k" horiz-adv-x="638"
                   d="M266 283l153 139q33 29 33 48q0 14 -12.5 20t-48.5 10v39h227v-39q-54 -8 -83 -37l-115 -108l218 -328v-27h-192zM74 78v601l-55 28v30l209 46h31v-705q0 -23 11.5 -30t44.5 -9v-39h-297v39q33 2 44.5 9t11.5 30z"/>
            <glyph glyph-name="l" unicode="l" horiz-adv-x="330"
                   d="M259 783v-705q0 -23 11.5 -30t44.5 -9v-39h-297v39q33 2 44.5 9t11.5 30v601l-55 28v30l209 46h31z"/>
            <glyph glyph-name="m" unicode="m" horiz-adv-x="974"
                   d="M725 78v295q0 34 -13.5 51t-46.5 17q-31 0 -79 -23v-340q0 -23 9.5 -30t40.5 -9v-39h-285v39q31 2 40.5 9t9.5 30v295q0 34 -13.5 51t-45.5 17q-36 0 -80 -23v-340q0 -23 10 -30t41 -9v-39h-291v39q33 2 44.5 9t11.5 30v351l-55 34v28l209 58h34l-4 -102q70 102 181 102
q119 0 139 -104q69 104 183 104q70 0 107.5 -40.5t37.5 -118.5v-312q0 -23 11.5 -30t43.5 -9v-39h-290v39q31 2 40.5 9t9.5 30z"/>
            <glyph glyph-name="n" unicode="n" horiz-adv-x="664"
                   d="M415 78v292q0 35 -15 52.5t-52 17.5q-42 0 -86 -22v-340q0 -23 11 -30t43 -9v-39h-294v39q33 2 44.5 9t11.5 30v351l-55 34v28l209 58h34l-4 -100q79 100 186 100q74 0 113 -41t39 -123v-307q0 -23 11.5 -30t44.5 -9v-39h-294v39q32 2 42.5 9t10.5 30z"/>
            <glyph glyph-name="o" unicode="o" horiz-adv-x="601"
                   d="M305 32q43 0 61 51.5t18 152.5q0 271 -88 271q-43 0 -61 -51.5t-18 -152.5q0 -271 88 -271zM300 -10q-125 0 -202 73.5t-77 195.5q0 126 78.5 208t201.5 82q125 0 202 -73.5t77 -195.5q0 -126 -78.5 -208t-201.5 -82z"/>
            <glyph glyph-name="p" unicode="p" horiz-adv-x="645"
                   d="M326 37q52 0 81.5 59t29.5 151q0 97 -32 145t-91 48q-34 0 -59 -17v-281q0 -105 71 -105zM70 -134v563l-55 34v28l209 58h35l-4 -97q25 40 67.5 68.5t100.5 28.5q92 0 147 -63.5t55 -182.5q0 -149 -79.5 -231t-203.5 -82q-62 0 -87 21v-141q0 -25 14.5 -32t62.5 -11v-39
h-318v39q33 2 44.5 9t11.5 30z"/>
            <glyph glyph-name="q" unicode="q" horiz-adv-x="626"
                   d="M314 501q-52 0 -80 -52.5t-28 -139.5q0 -95 32.5 -155t89.5 -60q32 0 57 14v290q0 50 -18.5 76.5t-52.5 26.5zM385 -130v214q-61 -94 -162 -94q-91 0 -146.5 67.5t-55.5 187.5q0 142 76.5 223t195.5 81q107 0 171 -61l74 58h37l-5 -120v-560q0 -23 11.5 -30t44.5 -9v-39
h-318v39q48 4 62.5 11t14.5 32z"/>
            <glyph glyph-name="r" unicode="r" horiz-adv-x="457"
                   d="M262 357v-264q0 -30 16 -39t64 -15v-39h-320v39q33 2 44.5 9t11.5 30v351l-55 34v28l209 58h34l-4 -154q31 87 61 120.5t78 33.5q33 0 50 -17v-139h-24q-58 0 -96 -6.5t-69 -29.5z"/>
            <glyph glyph-name="s" unicode="s" horiz-adv-x="477"
                   d="M227 -10q-119 0 -190 51l-6 135h46q16 -64 55 -104t95 -40q37 0 61 18t24 50q0 35 -24.5 53t-82.5 37q-90 28 -132 69.5t-42 114.5q0 82 57 128.5t149 46.5q101 0 172 -46v-120h-43q-10 53 -43 88.5t-83 35.5q-32 0 -52 -17t-20 -45q0 -30 21.5 -46.5t74.5 -35.5
q98 -33 141.5 -73t43.5 -117q0 -87 -59.5 -135t-162.5 -48z"/>
            <glyph glyph-name="t" unicode="t" horiz-adv-x="391"
                   d="M247 675v-136h117v-54h-117v-331q0 -69 57 -69q34 0 72 25l15 -22q-60 -98 -174 -98q-73 0 -114.5 39.5t-41.5 124.5v331h-57v33q119 45 204 157h39z"/>
            <glyph glyph-name="u" unicode="u" horiz-adv-x="647"
                   d="M576 421v-306q0 -28 6 -38.5t28 -11.5l24 -1v-39l-211 -35h-35l3 97q-76 -97 -178 -97q-69 0 -110 42.5t-41 125.5v245q0 48 -39 58l-15 5v36l211 46h33l-6 -127v-245q0 -80 68 -80q32 0 77 20v287q0 48 -38 58l-15 5v36l210 46h33z"/>
            <glyph glyph-name="v" unicode="v" horiz-adv-x="600"
                   d="M595 539v-39q-25 -8 -34 -15.5t-17 -24.5l-206 -464h-53l-229 464q-9 18 -17.5 25t-33.5 15v39h320v-39q-40 -5 -53 -12t-13 -23q0 -9 8 -28l106 -233l97 233q8 19 8 28q0 16 -13 23t-53 12v39h183z"/>
            <glyph glyph-name="w" unicode="w" horiz-adv-x="896"
                   d="M679 214l89 223q7 17 7 31q0 15 -13 21.5t-44 10.5v39h173v-39q-26 -8 -35 -15.5t-16 -24.5l-197 -464h-60l-118 309l-140 -309h-59l-210 464q-8 17 -17 24.5t-34 15.5v39h300v-39q-47 -7 -47 -31q0 -11 8 -32l95 -233l75 167l-34 89q-11 30 -46 40v39h296v-39
q-35 -4 -48.5 -10.5t-13.5 -23.5q0 -11 6 -29z"/>
            <glyph glyph-name="x" unicode="x" horiz-adv-x="613"
                   d="M337 103l-88 120l-88 -117q-13 -19 -13 -32q0 -32 61 -35v-39h-204v39q46 12 69 42l142 188l-139 191q-18 26 -51 40v39h297v-39q-46 -3 -46 -28q0 -14 16 -36l68 -95l69 92q17 23 17 38q0 23 -48 29v39h182v-39q-44 -13 -65 -42l-123 -160l160 -220q19 -26 55 -39v-39
h-309v39q54 2 54 27q0 15 -16 37z"/>
            <glyph glyph-name="y" unicode="y" horiz-adv-x="599"
                   d="M371 182l99 254q8 21 8 29q0 16 -13 23t-53 12v39h182v-39q-25 -8 -34.5 -15.5t-16.5 -24.5l-228 -547q-29 -70 -61.5 -102t-82.5 -32q-61 0 -84 42v71q52 -10 78 -10q42 0 66 13.5t37 44.5l16 35l-228 485q-8 17 -17 24.5t-34 15.5v39h320v-39q-40 -5 -53 -12t-13 -23
q0 -7 7 -28z"/>
            <glyph glyph-name="z" unicode="z" horiz-adv-x="537"
                   d="M18 0v33l284 460h-92q-38 0 -67 -34.5t-66 -117.5h-39l14 230h37l20 -33h402v-33l-278 -459h102q48 0 78.5 33t71.5 120h37l-22 -199h-482z"/>
            <glyph glyph-name="braceleft" unicode="{" horiz-adv-x="367"
                   d="M50 305v18q83 17 83 100v219q0 128 205 128v-29q-86 -11 -86 -98v-209q0 -54 -30 -81t-87 -39q57 -12 87 -39t30 -81v-208q0 -87 86 -98v-29q-205 0 -205 128v218q0 83 -83 100z"/>
            <glyph glyph-name="bar" unicode="|" horiz-adv-x="205"
                   d="M139 770v-911h-73v911h73z"/>
            <glyph glyph-name="braceright" unicode="}" horiz-adv-x="375"
                   d="M325 323v-18q-83 -17 -83 -100v-218q0 -128 -205 -128v29q86 11 86 98v208q0 54 30 81t87 39q-57 12 -87 39t-30 81v209q0 87 -86 98v29q205 0 205 -128v-219q0 -83 83 -100z"/>
            <glyph glyph-name="asciitilde" unicode="~" horiz-adv-x="493"
                   d="M431 396l32 -15q-24 -81 -58.5 -120.5t-84.5 -39.5q-31 0 -86 37t-82 37q-48 0 -90 -69l-32 15q23 80 57.5 120t85.5 40q31 0 85.5 -37t81.5 -37q49 0 91 69z"/>
            <glyph glyph-name="uni00A0" unicode="&#xa0;" horiz-adv-x="173"
            />
            <glyph glyph-name="exclamdown" unicode="&#xa1;" horiz-adv-x="293"
                   d="M51 513q0 40 28 68.5t67 28.5q40 0 68 -28.5t28 -68.5q0 -41 -28 -70t-68 -29q-39 0 -67 29t-28 70zM117 366h58l81 -468h-220z"/>
            <glyph glyph-name="cent" unicode="&#xa2;" horiz-adv-x="533"
                   d="M186 -115l20 114q-83 21 -132.5 89.5t-49.5 171.5q0 132 77.5 218t205.5 87l19 106h41l-19 -108q69 -7 111 -39.5t42 -88.5q0 -55 -47 -75h-76q4 29 4 60q0 76 -43 94l-69 -387q31 -17 77 -17q90 0 145 76l22 -13q-24 -92 -86 -137.5t-151 -45.5q-11 0 -31 2l-19 -107
h-41zM178 327q0 -116 55 -173l66 367q-54 -1 -87.5 -55.5t-33.5 -138.5z"/>
            <glyph glyph-name="sterling" unicode="&#xa3;" horiz-adv-x="695"
                   d="M100 348v43h101l3 46q17 275 261 275q80 0 133.5 -30.5t53.5 -89.5q0 -28 -15 -49.5t-37 -29.5h-97q13 35 13 76q0 87 -44 87q-54 0 -67 -119l-18 -166h153v-43h-157l-1 -8q-12 -123 -45 -184q78 -32 189 -32q93 0 93 68q0 14 -7 35l28 9q31 -38 31 -94
q0 -73 -42.5 -112.5t-120.5 -39.5q-113 0 -218 87q-57 -87 -164 -87q-53 0 -84.5 28.5t-31.5 75.5q0 48 31 76t79 28q37 0 67 -11l11 161h-98zM114 40q63 0 68 96q-36 21 -65 21q-27 0 -42.5 -16.5t-15.5 -45.5q0 -26 15 -40.5t40 -14.5z"/>
            <glyph glyph-name="currency" unicode="&#xa4;" horiz-adv-x="582"
                   d="M66 543l30 30l73 -75q52 44 122 44t122 -44l73 75l30 -30l-74 -74q41 -54 41 -124q0 -72 -41 -124l74 -74l-30 -30l-73 74q-53 -43 -122 -43t-122 43l-73 -74l-30 30l74 74q-41 52 -41 124q0 70 41 124zM155 345q0 -63 39 -104t97 -41t97 41t39 104t-39 104.5t-97 41.5
t-97 -41.5t-39 -104.5z"/>
            <glyph glyph-name="yen" unicode="&#xa5;" horiz-adv-x="687"
                   d="M445 273v-9h160v-44h-160v-115q0 -37 15 -47t68 -16v-42h-352v42q53 6 67.5 16t14.5 47v115h-166v44h166v9l-39 70h-127v45h102l-131 235q-11 20 -22.5 27t-35.5 10v42h341v-42q-40 -1 -54 -9t-14 -28q0 -22 23 -63l116 -215l108 213q17 37 17 65q0 19 -15.5 27t-52.5 10
v42h208v-42q-43 -6 -58 -37l-120 -235h101v-45h-124z"/>
            <glyph glyph-name="brokenbar" unicode="&#xa6;" horiz-adv-x="205"
                   d="M139 770v-376h-73v376h73zM139 235v-376h-73v376h73z"/>
            <glyph glyph-name="section" unicode="&#xa7;" horiz-adv-x="529"
                   d="M156 630q-61 -62 -61 -157q0 -72 29.5 -137.5t85.5 -143.5q7 -10 38 -52t45.5 -64.5t36.5 -60.5t32 -71t11 -65q61 62 61 157q0 72 -29.5 137.5t-85.5 143.5q-5 8 -37.5 51.5t-46 64.5t-36 60t-32.5 72t-11 65zM231 -203q-73 0 -117 30.5t-44 80.5q0 43 43 59h88v-44
q0 -92 68 -92q59 0 59 64q0 29 -16.5 66t-33 61t-55 74.5t-51.5 68.5q-60 83 -91.5 155.5t-31.5 152.5q0 107 71.5 173t177.5 66q72 0 116.5 -30.5t44.5 -79.5q0 -45 -44 -60h-87v44q0 93 -68 93q-30 0 -45 -18t-15 -46q0 -30 16.5 -66.5t34 -61.5t54.5 -73.5t52 -69.5
q60 -84 91.5 -156t31.5 -152q0 -107 -71.5 -173t-177.5 -66z"/>
            <glyph glyph-name="dieresis" unicode="&#xa8;"
                   d="M68 687q0 35 24.5 59t59.5 24t59.5 -24.5t24.5 -58.5t-25 -58.5t-59 -24.5q-35 0 -59.5 24.5t-24.5 58.5zM272 687q0 34 25 58.5t58 24.5q37 0 61.5 -24t24.5 -59q0 -34 -25 -58.5t-61 -24.5q-33 0 -58 24.5t-25 58.5z"/>
            <glyph glyph-name="copyright" unicode="&#xa9;" horiz-adv-x="780"
                   d="M70 351q0 -136 90.5 -231t229.5 -95t229.5 95t90.5 231t-90.5 231t-229.5 95t-229.5 -95t-90.5 -231zM32 351q0 151 101.5 256t256.5 105t256.5 -105t101.5 -256t-101.5 -256t-256.5 -105t-256.5 105t-101.5 256zM418 177q38 0 63.5 29t43.5 87h36l-9 -114
q-59 -38 -144 -38q-99 0 -156 56.5t-57 146.5q0 99 61.5 159.5t152.5 60.5q88 0 138 -42v-104h-35q-22 110 -94 110q-50 0 -74.5 -49.5t-24.5 -123.5q0 -82 25.5 -130t73.5 -48z"/>
            <glyph glyph-name="ordfeminine" unicode="&#xaa;" horiz-adv-x="414"
                   d="M187 413q19 0 36 12v112l-35 -15q-21 -10 -29.5 -23.5t-8.5 -36.5q0 -49 37 -49zM341 580v-146q0 -36 22 -36q16 0 28 5l5 -19q-37 -39 -89 -39q-31 0 -53 17t-29 46q-36 -60 -105 -60q-40 0 -65 24t-25 64q0 39 23 60t65 35l105 35v50q0 36 -7.5 52t-27.5 16
q-36 0 -36 -47q0 -22 8 -49l-82 -11q-29 10 -29 46q0 43 40 66t107 23q76 0 110.5 -29.5t34.5 -102.5z"/>
            <glyph glyph-name="guillemotleft" unicode="&#xab;" horiz-adv-x="469"
                   d="M23 273v6l187 200h46l-90 -203l90 -204h-46zM213 273v6l187 200h46l-90 -203l90 -204h-46z"/>
            <glyph glyph-name="registered" unicode="&#xae;" horiz-adv-x="515"
                   d="M244 585h-9v-98h9q22 0 34.5 13.5t12.5 36.5q0 48 -47 48zM146 608h114q49 0 73.5 -20t24.5 -51q0 -25 -15.5 -41.5t-37.5 -23.5l44 -60q17 -23 34 -24v-18h-69q-16 10 -31 33l-41 63h-7v-53q0 -15 4.5 -20t19.5 -5v-18h-113v18q17 0 22 5t5 20v151q0 15 -4.5 19t-22.5 6
v19zM64 484q0 -80 55 -138t138 -58t138.5 58t55.5 138q0 81 -55.5 139t-138.5 58t-138 -58t-55 -139zM30 484q0 96 64.5 162t162.5 66q99 0 163.5 -66t64.5 -162q0 -95 -65 -161t-163 -66t-162.5 66t-64.5 161z"/>
            <glyph glyph-name="macron" unicode="&#xaf;"
                   d="M112 625v86h286v-86h-286z"/>
            <glyph glyph-name="degree" unicode="&#xb0;" horiz-adv-x="285"
                   d="M73 591q0 -34 19 -54t52 -20q31 0 49.5 20.5t18.5 53.5t-18.5 53.5t-49.5 20.5q-33 0 -52 -20.5t-19 -53.5zM20 591q0 51 36 86t88 35q50 0 85.5 -35t35.5 -86t-35.5 -86.5t-85.5 -35.5q-53 0 -88.5 35t-35.5 87z"/>
            <glyph glyph-name="plusminus" unicode="&#xb1;" horiz-adv-x="574"
                   d="M253 607h67v-143h188v-66h-188v-141h-67v141h-186v66h186v143zM67 137v67h441v-67h-441z"/>
            <glyph glyph-name="twosuperior" unicode="&#xb2;" horiz-adv-x="393"
                   d="M152 397h108q23 0 34.5 8t28.5 34h21l-11 -136h-303v25l114 107q69 66 69 124q0 31 -16.5 49t-48.5 18q-51 0 -89 -44l-21 18q23 47 65 78t99 31q58 0 91.5 -30.5t33.5 -84.5q0 -31 -12.5 -58t-41 -52t-53 -42.5t-68.5 -44.5z"/>
            <glyph glyph-name="threesuperior" unicode="&#xb3;" horiz-adv-x="387"
                   d="M218 528q58 -2 93.5 -30t35.5 -77q0 -56 -48 -87.5t-120 -31.5q-69 0 -104.5 23.5t-35.5 59.5q0 32 28 47h67q-4 -16 -4 -30q0 -33 14 -52t40 -19t41 19t15 56q0 39 -22 60.5t-64 21.5h-15l-6 22q43 16 61 33t18 41q0 22 -14.5 36t-41.5 14q-44 0 -77 -43l-24 18
q22 45 62 74t96 29q52 0 81.5 -24.5t29.5 -65.5q0 -39 -30.5 -62.5t-75.5 -31.5z"/>
            <glyph glyph-name="acute" unicode="&#xb4;"
                   d="M174 765h179v-9l-177 -155h-52z"/>
            <glyph glyph-name="mu" unicode="&#xb5;" horiz-adv-x="647"
                   d="M235 -5l13 -167v-15l-186 -10v600q0 48 -39 58l-15 5v36l211 46h33l-6 -127v-245q0 -80 68 -80q32 0 77 20v287q0 48 -38 58l-15 5v36l210 46h33l-5 -127v-306q0 -28 6 -38.5t28 -11.5l24 -1v-39l-211 -35h-35l3 97q-42 -97 -138 -97q-10 0 -18 5z"/>
            <glyph glyph-name="paragraph" unicode="&#xb6;" horiz-adv-x="616"
                   d="M315 -197v397q-128 0 -201.5 72.5t-73.5 179.5t73 178.5t202 71.5h275v-40q-60 -1 -81 -15t-21 -58v-786h-47v858h-79v-858h-47zM315 239v424q-56 -6 -86.5 -68.5t-30.5 -142.5q0 -81 30.5 -144.5t86.5 -68.5z"/>
            <glyph glyph-name="periodcentered" unicode="&#xb7;" horiz-adv-x="262"
                   d="M30 304q0 44 29.5 73t71.5 29t71.5 -29t29.5 -73q0 -43 -29.5 -71.5t-71.5 -28.5t-71.5 28.5t-29.5 71.5z"/>
            <glyph glyph-name="cedilla" unicode="&#xb8;"
                   d="M151 -231l-8 35q51 0 78 13.5t27 34.5q0 13 -10.5 21t-26 10.5t-42.5 3.5l49 121h37l-19 -48q48 0 76.5 -22t28.5 -60q0 -53 -54.5 -81t-135.5 -28z"/>
            <glyph glyph-name="onesuperior" unicode="&#xb9;" horiz-adv-x="342"
                   d="M198 712h32v-331q0 -25 12 -31.5t56 -9.5v-34h-258v34q49 3 59.5 9t10.5 32v217h-70v31l25 5q87 17 133 78z"/>
            <glyph glyph-name="ordmasculine" unicode="&#xba;" horiz-adv-x="420"
                   d="M215 376q53 0 53 139q0 74 -16 120t-47 46q-53 0 -53 -138q0 -75 16 -121t47 -46zM205 345q-81 0 -130 49t-49 128q0 86 52 138t137 52q81 0 130 -49t49 -128q0 -86 -52 -138t-137 -52z"/>
            <glyph glyph-name="guillemotright" unicode="&#xbb;" horiz-adv-x="469"
                   d="M446 279v-6l-187 -201h-46l90 204l-90 203h46zM256 279v-6l-187 -201h-46l90 204l-90 203h46z"/>
            <glyph glyph-name="onequarter" unicode="&#xbc;" horiz-adv-x="798"
                   d="M431 143h133v167zM198 712h32v-331q0 -25 12 -31.5t56 -9.5v-34h-258v34q49 3 59.5 9t10.5 32v217h-70v31l25 5q87 17 133 78zM150 -10l438 722h55l-439 -722h-54zM737 0h-227v34q35 2 44.5 9t9.5 32v30h-188v30l204 262h103v-254h78v-38h-78v-30q0 -25 9.5 -32t44.5 -9
v-34z"/>
            <glyph glyph-name="onehalf" unicode="&#xbd;" horiz-adv-x="810"
                   d="M198 712h32v-331q0 -25 12 -31.5t56 -9.5v-34h-258v34q49 3 59.5 9t10.5 32v217h-70v31l25 5q87 17 133 78zM150 -10l438 722h55l-439 -722h-54zM569 94h107q24 0 35 7.5t29 34.5h21l-12 -136h-302v25l114 107q69 65 69 124q0 31 -17 49t-49 18q-52 0 -88 -44l-21 18
q23 47 64.5 77.5t99.5 30.5t91 -30t33 -84q0 -31 -12.5 -58t-41 -52.5t-52.5 -42.5t-68 -44z"/>
            <glyph glyph-name="threequarters" unicode="&#xbe;" horiz-adv-x="821"
                   d="M219 529q58 -2 93 -30t35 -77q0 -56 -48 -88t-120 -32q-69 0 -104.5 23.5t-35.5 59.5q0 32 28 47h67q-4 -16 -4 -30q0 -33 14 -52t40 -19t41 19t15 56q0 39 -22 60.5t-64 21.5h-15l-6 22q43 16 61 33t18 41q0 22 -14.5 36t-41.5 14q-44 0 -77 -43l-24 18q22 45 62 74
t96 29q52 0 81.5 -24.5t29.5 -65.5q0 -39 -30 -62t-75 -31zM453 143h133v167zM173 -10l438 722h54l-439 -722h-53zM759 0h-226v34q34 2 43.5 9t9.5 32v30h-188v30l204 262h103v-254h79v-38h-79v-30q0 -25 9.5 -32t44.5 -9v-34z"/>
            <glyph glyph-name="questiondown" unicode="&#xbf;" horiz-adv-x="467"
                   d="M166 4q0 -36 18 -56.5t52 -20.5q40 0 57.5 28t17.5 71q0 18 -5 58h110q40 -20 40 -65q0 -60 -59.5 -95.5t-158.5 -35.5q-106 0 -163.5 44t-57.5 126q0 62 34 106t104 85q44 27 61.5 49.5t17.5 57.5v13h25q78 -30 78 -109q0 -70 -78 -127q-32 -24 -48.5 -38.5t-30.5 -39
t-14 -51.5zM343 513q0 -41 -28 -70t-67 -29q-40 0 -68 29t-28 70q0 40 28 68.5t68 28.5q39 0 67 -28.5t28 -68.5z"/>
            <glyph glyph-name="Agrave" unicode="&#xc0;" horiz-adv-x="759"
                   d="M471 125l-36 92h-255l-34 -91q-8 -24 -8 -37q0 -24 20 -34.5t62 -12.5v-42h-215v42q46 7 58 37l208 542l-34 83h209l249 -625q7 -18 21 -26t38 -11v-42h-353v42q40 2 59 12t19 34q0 13 -8 37zM304 548l-104 -277h213zM172 892h180l49 -149h-55l-174 140v9z"/>
            <glyph glyph-name="Aacute" unicode="&#xc1;" horiz-adv-x="759"
                   d="M471 125l-36 92h-255l-34 -91q-8 -24 -8 -37q0 -24 20 -34.5t62 -12.5v-42h-215v42q46 7 58 37l208 542l-34 83h209l249 -625q7 -18 21 -26t38 -11v-42h-353v42q40 2 59 12t19 34q0 13 -8 37zM304 548l-104 -277h213zM348 892h180v-9l-173 -140h-56z"/>
            <glyph glyph-name="Acircumflex" unicode="&#xc2;" horiz-adv-x="759"
                   d="M471 125l-36 92h-255l-34 -91q-8 -24 -8 -37q0 -24 20 -34.5t62 -12.5v-42h-215v42q46 7 58 37l208 542l-34 83h209l249 -625q7 -18 21 -26t38 -11v-42h-353v42q40 2 59 12t19 34q0 13 -8 37zM304 548l-104 -277h213zM416 896l120 -153h-57l-125 70l-125 -70h-57l120 153
h124z"/>
            <glyph glyph-name="Atilde" unicode="&#xc3;" horiz-adv-x="759"
                   d="M471 125l-36 92h-255l-34 -91q-8 -24 -8 -37q0 -24 20 -34.5t62 -12.5v-42h-215v42q46 7 58 37l208 542l-34 83h209l249 -625q7 -18 21 -26t38 -11v-42h-353v42q40 2 59 12t19 34q0 13 -8 37zM423 743q-34 0 -76 30t-62 30q-34 0 -66 -56l-36 20q28 70 54 102.5t64 32.5
q34 0 76 -30t62 -30q33 0 66 55l36 -19q-28 -71 -54 -103t-64 -32zM304 548l-104 -277h213z"/>
            <glyph glyph-name="Adieresis" unicode="&#xc4;" horiz-adv-x="759"
                   d="M471 125l-36 92h-255l-34 -91q-8 -24 -8 -37q0 -24 20 -34.5t62 -12.5v-42h-215v42q46 7 58 37l208 542l-34 83h209l249 -625q7 -18 21 -26t38 -11v-42h-353v42q40 2 59 12t19 34q0 13 -8 37zM304 548l-104 -277h213zM166 823q0 34 25 58.5t59 24.5q35 0 60 -24.5
t25 -58.5t-25 -58.5t-60 -24.5t-59.5 24.5t-24.5 58.5zM372 823q0 34 25 58.5t58 24.5q36 0 61 -24.5t25 -58.5q0 -35 -25 -59t-61 -24q-33 0 -58 24.5t-25 58.5z"/>
            <glyph glyph-name="Aring" unicode="&#xc5;" horiz-adv-x="759"
                   d="M471 125l-36 92h-255l-34 -91q-8 -24 -8 -37q0 -24 20 -34.5t62 -12.5v-42h-215v42q46 7 58 37l208 542l-34 83h209l249 -625q7 -18 21 -26t38 -11v-42h-353v42q40 2 59 12t19 34q0 13 -8 37zM248 827q0 43 29.5 72.5t74.5 29.5t74 -29.5t29 -72.5q0 -42 -29 -71t-74 -29
t-74.5 29t-29.5 71zM304 548l-104 -277h213zM302 827q0 -22 13.5 -36t36.5 -14t36.5 14t13.5 36q0 23 -13.5 37.5t-36.5 14.5t-36.5 -14.5t-13.5 -37.5z"/>
            <glyph glyph-name="AE" unicode="&#xc6;" horiz-adv-x="1040"
                   d="M63 79l344 549q-22 27 -94 32v42h673l5 -193h-38q-42 88 -73.5 117t-96.5 29h-103v-265h97q33 0 46.5 19.5t20.5 72.5h43v-240h-43q-7 53 -20.5 73t-46.5 20h-97v-221q0 -39 19 -53t62 -14h35q63 0 93.5 31t89.5 140h45l-32 -218h-580v42q49 5 60.5 16t11.5 51v139h-245
l-76 -122q-15 -25 -15 -41q0 -40 89 -43v-42h-232v42q39 6 58 37zM484 639l-211 -337h211v337z"/>
            <glyph glyph-name="Ccedilla" unicode="&#xc7;" horiz-adv-x="683"
                   d="M302 -231l-8 35q51 0 78 13.5t27 34.5q0 13 -10.5 21t-26 10.5t-42.5 3.5l42 104q-157 9 -246.5 99.5t-89.5 241.5q0 172 108.5 276t269.5 104q134 0 223 -59l3 -175h-49q-39 184 -171 184q-89 0 -133 -83.5t-44 -218.5q0 -142 48.5 -229.5t138.5 -87.5q131 0 187 211h50
l-17 -199q-88 -63 -241 -65l-12 -30q48 0 76.5 -22t28.5 -60q0 -53 -54.5 -81t-135.5 -28z"/>
            <glyph glyph-name="Egrave" unicode="&#xc8;" horiz-adv-x="655"
                   d="M167 892h180l49 -149h-55l-174 140v9zM26 0v42q50 5 61.5 16t11.5 51v484q0 40 -11.5 51t-61.5 16v42h575l5 -193h-38q-42 88 -73.5 117t-96.5 29h-103v-265h97q33 0 46.5 19.5t20.5 72.5h43v-240h-43q-7 53 -20.5 73t-46.5 20h-97v-221q0 -39 19 -53t62 -14h35
q27 0 47 6t34.5 15t32.5 34t30.5 46.5t38.5 69.5h45l-32 -218h-581z"/>
            <glyph glyph-name="Eacute" unicode="&#xc9;" horiz-adv-x="655"
                   d="M339 892h180v-9l-173 -140h-56zM26 0v42q50 5 61.5 16t11.5 51v484q0 40 -11.5 51t-61.5 16v42h575l5 -193h-38q-42 88 -73.5 117t-96.5 29h-103v-265h97q33 0 46.5 19.5t20.5 72.5h43v-240h-43q-7 53 -20.5 73t-46.5 20h-97v-221q0 -39 19 -53t62 -14h35q27 0 47 6
t34.5 15t32.5 34t30.5 46.5t38.5 69.5h45l-32 -218h-581z"/>
            <glyph glyph-name="Ecircumflex" unicode="&#xca;" horiz-adv-x="655"
                   d="M26 0v42q50 5 61.5 16t11.5 51v484q0 40 -11.5 51t-61.5 16v42h575l5 -193h-38q-42 88 -73.5 117t-96.5 29h-103v-265h97q33 0 46.5 19.5t20.5 72.5h43v-240h-43q-7 53 -20.5 73t-46.5 20h-97v-221q0 -39 19 -53t62 -14h35q27 0 47 6t34.5 15t32.5 34t30.5 46.5
t38.5 69.5h45l-32 -218h-581zM406 896l120 -153h-57l-125 70l-125 -70h-57l120 153h124z"/>
            <glyph glyph-name="Edieresis" unicode="&#xcb;" horiz-adv-x="655"
                   d="M157 823q0 34 25 58.5t59 24.5q35 0 60 -24.5t25 -58.5t-25 -58.5t-60 -24.5t-59.5 24.5t-24.5 58.5zM363 823q0 34 25 58.5t58 24.5q36 0 61 -24.5t25 -58.5q0 -35 -25 -59t-61 -24q-33 0 -58 24.5t-25 58.5zM26 0v42q50 5 61.5 16t11.5 51v484q0 40 -11.5 51t-61.5 16
v42h575l5 -193h-38q-42 88 -73.5 117t-96.5 29h-103v-265h97q33 0 46.5 19.5t20.5 72.5h43v-240h-43q-7 53 -20.5 73t-46.5 20h-97v-221q0 -39 19 -53t62 -14h35q27 0 47 6t34.5 15t32.5 34t30.5 46.5t38.5 69.5h45l-32 -218h-581z"/>
            <glyph glyph-name="Igrave" unicode="&#xcc;" horiz-adv-x="394"
                   d="M295 593v-484q0 -40 11.5 -51t60.5 -16v-42h-341v42q50 5 61.5 16t11.5 51v484q0 40 -11.5 51t-61.5 16v42h341v-42q-49 -5 -60.5 -16t-11.5 -51zM19 892h180l49 -149h-55l-174 140v9z"/>
            <glyph glyph-name="Iacute" unicode="&#xcd;" horiz-adv-x="394"
                   d="M295 593v-484q0 -40 11.5 -51t60.5 -16v-42h-341v42q50 5 61.5 16t11.5 51v484q0 40 -11.5 51t-61.5 16v42h341v-42q-49 -5 -60.5 -16t-11.5 -51zM191 892h180v-9l-173 -140h-56z"/>
            <glyph glyph-name="Icircumflex" unicode="&#xce;" horiz-adv-x="394"
                   d="M295 593v-484q0 -40 11.5 -51t60.5 -16v-42h-341v42q50 5 61.5 16t11.5 51v484q0 40 -11.5 51t-61.5 16v42h341v-42q-49 -5 -60.5 -16t-11.5 -51zM258 896l118 -153h-56l-123 70l-123 -70h-56l118 153h122z"/>
            <glyph glyph-name="Idieresis" unicode="&#xcf;" horiz-adv-x="394"
                   d="M295 593v-484q0 -40 11.5 -51t60.5 -16v-42h-341v42q50 5 61.5 16t11.5 51v484q0 40 -11.5 51t-61.5 16v42h341v-42q-49 -5 -60.5 -16t-11.5 -51zM9 823q0 34 25 58.5t59 24.5q35 0 60 -24.5t25 -58.5t-25 -58.5t-60 -24.5t-59.5 24.5t-24.5 58.5zM215 823q0 34 25 58.5
t58 24.5q36 0 61 -24.5t25 -58.5q0 -35 -25 -59t-61 -24q-33 0 -58 24.5t-25 58.5z"/>
            <glyph glyph-name="Eth" unicode="&#xd0;" horiz-adv-x="799"
                   d="M36 325v62h73v206q0 40 -11.5 51t-61.5 16v42h329q200 0 303.5 -94.5t103.5 -248.5q0 -168 -103.5 -263.5t-280.5 -95.5h-352v42q50 5 61.5 16t11.5 51v216h-73zM331 655h-26v-268h129v-62h-129v-208q0 -42 16 -56t52 -14h9q85 0 136 80t51 213q0 146 -62.5 230.5
t-175.5 84.5z"/>
            <glyph glyph-name="Ntilde" unicode="&#xd1;" horiz-adv-x="754"
                   d="M460 743q-34 0 -76 30t-62 30q-34 0 -66 -56l-36 20q28 70 54 102.5t64 32.5q34 0 76 -30t62 -30q33 0 66 55l36 -19q-28 -71 -54 -103t-64 -32zM597 306v286q0 38 -19.5 50.5t-81.5 17.5v42h240v-42q-49 -5 -60.5 -16.5t-11.5 -51.5v-593h-71l-427 528v-417
q0 -38 19.5 -50.5t81.5 -17.5v-42h-240v42q49 5 60.5 16.5t11.5 51.5v486q-21 35 -35 49t-38 15v42h252z"/>
            <glyph glyph-name="Ograve" unicode="&#xd2;" horiz-adv-x="747"
                   d="M199 892h180l49 -149h-55l-174 140v9zM378 38q48 0 79.5 46t43.5 110.5t12 144.5q0 145 -35.5 235t-109.5 90q-48 0 -79.5 -46t-43.5 -110.5t-12 -144.5q0 -145 35.5 -235t109.5 -90zM364 -10q-160 0 -249 100t-89 247q0 170 99.5 272.5t256.5 102.5q160 0 249 -100
t89 -247q0 -170 -99.5 -272.5t-256.5 -102.5z"/>
            <glyph glyph-name="Oacute" unicode="&#xd3;" horiz-adv-x="747"
                   d="M371 892h180v-9l-173 -140h-56zM378 38q48 0 79.5 46t43.5 110.5t12 144.5q0 145 -35.5 235t-109.5 90q-48 0 -79.5 -46t-43.5 -110.5t-12 -144.5q0 -145 35.5 -235t109.5 -90zM364 -10q-160 0 -249 100t-89 247q0 170 99.5 272.5t256.5 102.5q160 0 249 -100t89 -247
q0 -170 -99.5 -272.5t-256.5 -102.5z"/>
            <glyph glyph-name="Ocircumflex" unicode="&#xd4;" horiz-adv-x="747"
                   d="M378 38q48 0 79.5 46t43.5 110.5t12 144.5q0 145 -35.5 235t-109.5 90q-48 0 -79.5 -46t-43.5 -110.5t-12 -144.5q0 -145 35.5 -235t109.5 -90zM364 -10q-160 0 -249 100t-89 247q0 170 99.5 272.5t256.5 102.5q160 0 249 -100t89 -247q0 -170 -99.5 -272.5
t-256.5 -102.5zM439 896l120 -153h-57l-125 70l-125 -70h-57l120 153h124z"/>
            <glyph glyph-name="Otilde" unicode="&#xd5;" horiz-adv-x="747"
                   d="M454 743q-34 0 -76 30t-62 30q-34 0 -66 -56l-36 20q28 70 54 102.5t64 32.5q34 0 76 -30t62 -30q33 0 66 55l36 -19q-28 -71 -54 -103t-64 -32zM378 38q48 0 79.5 46t43.5 110.5t12 144.5q0 145 -35.5 235t-109.5 90q-48 0 -79.5 -46t-43.5 -110.5t-12 -144.5
q0 -145 35.5 -235t109.5 -90zM364 -10q-160 0 -249 100t-89 247q0 170 99.5 272.5t256.5 102.5q160 0 249 -100t89 -247q0 -170 -99.5 -272.5t-256.5 -102.5z"/>
            <glyph glyph-name="Odieresis" unicode="&#xd6;" horiz-adv-x="747"
                   d="M189 823q0 34 25 58.5t59 24.5q35 0 60 -24.5t25 -58.5t-25 -58.5t-60 -24.5t-59.5 24.5t-24.5 58.5zM395 823q0 34 25 58.5t58 24.5q36 0 61 -24.5t25 -58.5q0 -35 -25 -59t-61 -24q-33 0 -58 24.5t-25 58.5zM378 38q48 0 79.5 46t43.5 110.5t12 144.5q0 145 -35.5 235
t-109.5 90q-48 0 -79.5 -46t-43.5 -110.5t-12 -144.5q0 -145 35.5 -235t109.5 -90zM364 -10q-160 0 -249 100t-89 247q0 170 99.5 272.5t256.5 102.5q160 0 249 -100t89 -247q0 -170 -99.5 -272.5t-256.5 -102.5z"/>
            <glyph glyph-name="multiply" unicode="&#xd7;" horiz-adv-x="497"
                   d="M202 365l-137 137l47 48l136 -139l137 139l48 -48l-138 -137l138 -137l-48 -46l-137 137l-136 -137l-47 46z"/>
            <glyph glyph-name="Oslash" unicode="&#xd8;" horiz-adv-x="747"
                   d="M364 -10q-107 0 -184 47l-72 -96l-39 30l71 95q-114 96 -114 271q0 170 99.5 272.5t256.5 102.5q117 0 199 -57l67 90l39 -29l-69 -92q102 -97 102 -259q0 -170 -99.5 -272.5t-256.5 -102.5zM233 363q0 -88 13 -156l245 328q-36 129 -123 129q-48 0 -79.5 -46
t-43.5 -110.5t-12 -144.5zM378 38q48 0 79.5 46t43.5 110.5t12 144.5q0 72 -9 132l-243 -325q38 -108 117 -108z"/>
            <glyph glyph-name="Ugrave" unicode="&#xd9;" horiz-adv-x="753"
                   d="M239 892h180l49 -149h-55l-174 140v9zM282 593v-332q0 -187 153 -187q75 0 120 46t45 146v326q0 39 -16.5 51.5t-76.5 16.5v42h232v-42q-49 -5 -60.5 -16.5t-11.5 -51.5v-345q0 -126 -78 -191.5t-201 -65.5q-146 0 -224 65t-78 192v346q0 40 -11.5 51t-60.5 16v42h341
v-42q-50 -5 -61.5 -16t-11.5 -51z"/>
            <glyph glyph-name="Uacute" unicode="&#xda;" horiz-adv-x="753"
                   d="M410 892h180v-9l-173 -140h-56zM282 593v-332q0 -187 153 -187q75 0 120 46t45 146v326q0 39 -16.5 51.5t-76.5 16.5v42h232v-42q-49 -5 -60.5 -16.5t-11.5 -51.5v-345q0 -126 -78 -191.5t-201 -65.5q-146 0 -224 65t-78 192v346q0 40 -11.5 51t-60.5 16v42h341v-42
q-50 -5 -61.5 -16t-11.5 -51z"/>
            <glyph glyph-name="Ucircumflex" unicode="&#xdb;" horiz-adv-x="753"
                   d="M282 593v-332q0 -187 153 -187q75 0 120 46t45 146v326q0 39 -16.5 51.5t-76.5 16.5v42h232v-42q-49 -5 -60.5 -16.5t-11.5 -51.5v-345q0 -126 -78 -191.5t-201 -65.5q-146 0 -224 65t-78 192v346q0 40 -11.5 51t-60.5 16v42h341v-42q-50 -5 -61.5 -16t-11.5 -51z
M478 896l120 -153h-57l-125 70l-125 -70h-57l120 153h124z"/>
            <glyph glyph-name="Udieresis" unicode="&#xdc;" horiz-adv-x="753"
                   d="M229 823q0 34 25 58.5t59 24.5q35 0 60 -24.5t25 -58.5t-25 -58.5t-60 -24.5t-59.5 24.5t-24.5 58.5zM435 823q0 34 25 58.5t58 24.5q36 0 61 -24.5t25 -58.5q0 -35 -25 -59t-61 -24q-33 0 -58 24.5t-25 58.5zM282 593v-332q0 -187 153 -187q75 0 120 46t45 146v326
q0 39 -16.5 51.5t-76.5 16.5v42h232v-42q-49 -5 -60.5 -16.5t-11.5 -51.5v-345q0 -126 -78 -191.5t-201 -65.5q-146 0 -224 65t-78 192v346q0 40 -11.5 51t-60.5 16v42h341v-42q-50 -5 -61.5 -16t-11.5 -51z"/>
            <glyph glyph-name="Yacute" unicode="&#xdd;" horiz-adv-x="707"
                   d="M457 263v-158q0 -37 15 -47t68 -16v-42h-356v42q53 6 67.5 16t14.5 47v153l-203 365q-11 20 -22.5 27t-35.5 10v42h345v-42q-40 -1 -54 -9t-14 -27q0 -23 23 -64l128 -220l112 218q23 48 23 66t-16.5 26t-53.5 10v42h204v-42q-42 -6 -58 -37zM392 892h180v-9l-173 -140
h-56z"/>
            <glyph glyph-name="Thorn" unicode="&#xde;" horiz-adv-x="667"
                   d="M295 593v-19h77q140 0 212.5 -58.5t72.5 -153.5q0 -106 -73.5 -163t-219.5 -57h-69v-30q0 -39 24 -52.5t92 -17.5v-42h-385v42q50 5 61.5 16t11.5 51v484q0 40 -11.5 51t-61.5 16v42h341v-42q-49 -5 -60.5 -16t-11.5 -51zM295 527v-332h23q71 0 109 44.5t38 122.5
q0 77 -39.5 121t-107.5 44h-23z"/>
            <glyph glyph-name="germandbls" unicode="&#xdf;" horiz-adv-x="720"
                   d="M367 783q102 0 162 -39t60 -106q0 -38 -21.5 -67t-48 -43.5t-48 -32.5t-21.5 -36q0 -5 2 -10t8 -11t11 -10t16.5 -11t18.5 -11.5t23.5 -14t25.5 -14.5q75 -44 111.5 -88t36.5 -116q0 -84 -59.5 -133.5t-153.5 -49.5q-101 0 -166 52l-6 130h47q15 -62 48.5 -101t80.5 -39
q35 0 55.5 18.5t20.5 50.5q0 36 -23.5 61t-82.5 60q-64 38 -92 72t-28 80q0 29 13 55.5t31.5 47.5t37 43.5t31.5 53t13 66.5q0 47 -25 75t-72 28q-110 0 -110 -157v-586h-240v39q33 2 44.5 9t11.5 30v407h-72v40l72 19l1 12q11 108 87 167.5t200 59.5z"/>
            <glyph glyph-name="agrave" unicode="&#xe0;" horiz-adv-x="554"
                   d="M263 89q19 0 44 14v185l-55 -21q-29 -11 -43.5 -30t-14.5 -59q0 -89 69 -89zM489 375v-265q0 -45 27 -45q20 0 34 6l7 -27q-54 -54 -132 -54q-43 0 -73.5 22t-41.5 62q-56 -81 -151 -81q-64 0 -103.5 35.5t-39.5 98.5q0 60 35 93t97 55l159 56v102q0 77 -52 77
q-54 0 -54 -79q0 -27 9 -70l-111 -15q-49 17 -49 70q0 65 59.5 99t155.5 34q110 0 167 -40t57 -134zM99 765h179l50 -164h-51l-178 155v9z"/>
            <glyph glyph-name="aacute" unicode="&#xe1;" horiz-adv-x="554"
                   d="M263 89q19 0 44 14v185l-55 -21q-29 -11 -43.5 -30t-14.5 -59q0 -89 69 -89zM489 375v-265q0 -45 27 -45q20 0 34 6l7 -27q-54 -54 -132 -54q-43 0 -73.5 22t-41.5 62q-56 -81 -151 -81q-64 0 -103.5 35.5t-39.5 98.5q0 60 35 93t97 55l159 56v102q0 77 -52 77
q-54 0 -54 -79q0 -27 9 -70l-111 -15q-49 17 -49 70q0 65 59.5 99t155.5 34q110 0 167 -40t57 -134zM267 765h179v-9l-177 -155h-52z"/>
            <glyph glyph-name="acircumflex" unicode="&#xe2;" horiz-adv-x="554"
                   d="M263 89q19 0 44 14v185l-55 -21q-29 -11 -43.5 -30t-14.5 -59q0 -89 69 -89zM489 375v-265q0 -45 27 -45q20 0 34 6l7 -27q-54 -54 -132 -54q-43 0 -73.5 22t-41.5 62q-56 -81 -151 -81q-64 0 -103.5 35.5t-39.5 98.5q0 60 35 93t97 55l159 56v102q0 77 -52 77
q-54 0 -54 -79q0 -27 9 -70l-111 -15q-49 17 -49 70q0 65 59.5 99t155.5 34q110 0 167 -40t57 -134zM335 766l116 -170h-58l-120 85l-120 -85h-58l116 170h124z"/>
            <glyph glyph-name="atilde" unicode="&#xe3;" horiz-adv-x="554"
                   d="M263 89q19 0 44 14v185l-55 -21q-29 -11 -43.5 -30t-14.5 -59q0 -89 69 -89zM489 375v-265q0 -45 27 -45q20 0 34 6l7 -27q-54 -54 -132 -54q-43 0 -73.5 22t-41.5 62q-56 -81 -151 -81q-64 0 -103.5 35.5t-39.5 98.5q0 60 35 93t97 55l159 56v102q0 77 -52 77
q-54 0 -54 -79q0 -27 9 -70l-111 -15q-49 17 -49 70q0 65 59.5 99t155.5 34q110 0 167 -40t57 -134zM338 602q-34 0 -75.5 30t-60.5 30q-33 0 -65 -56l-36 20q27 70 53 102.5t64 32.5q34 0 75 -30t61 -30q32 0 65 55l36 -19q-28 -71 -53.5 -103t-63.5 -32z"/>
            <glyph glyph-name="adieresis" unicode="&#xe4;" horiz-adv-x="554"
                   d="M263 89q19 0 44 14v185l-55 -21q-29 -11 -43.5 -30t-14.5 -59q0 -89 69 -89zM489 375v-265q0 -45 27 -45q20 0 34 6l7 -27q-54 -54 -132 -54q-43 0 -73.5 22t-41.5 62q-56 -81 -151 -81q-64 0 -103.5 35.5t-39.5 98.5q0 60 35 93t97 55l159 56v102q0 77 -52 77
q-54 0 -54 -79q0 -27 9 -70l-111 -15q-49 17 -49 70q0 65 59.5 99t155.5 34q110 0 167 -40t57 -134zM87 687q0 35 24.5 59t59.5 24t59.5 -24.5t24.5 -58.5t-25 -58.5t-59 -24.5q-35 0 -59.5 24.5t-24.5 58.5zM291 687q0 34 25 58.5t58 24.5q37 0 61.5 -24t24.5 -59
q0 -34 -25 -58.5t-61 -24.5q-33 0 -58 24.5t-25 58.5z"/>
            <glyph glyph-name="aring" unicode="&#xe5;" horiz-adv-x="554"
                   d="M263 89q19 0 44 14v185l-55 -21q-29 -11 -43.5 -30t-14.5 -59q0 -89 69 -89zM489 375v-265q0 -45 27 -45q20 0 34 6l7 -27q-54 -54 -132 -54q-43 0 -73.5 22t-41.5 62q-56 -81 -151 -81q-64 0 -103.5 35.5t-39.5 98.5q0 60 35 93t97 55l159 56v102q0 77 -52 77
q-54 0 -54 -79q0 -27 9 -70l-111 -15q-49 17 -49 70q0 65 59.5 99t155.5 34q110 0 167 -40t57 -134zM223 678q0 -22 13.5 -36.5t36.5 -14.5t36.5 14.5t13.5 36.5q0 23 -13.5 37.5t-36.5 14.5t-36.5 -14.5t-13.5 -37.5zM169 678q0 43 29.5 72.5t74.5 29.5t74 -29.5t29 -72.5
q0 -42 -29 -71.5t-74 -29.5t-74.5 29.5t-29.5 71.5z"/>
            <glyph glyph-name="ae" unicode="&#xe6;" horiz-adv-x="794"
                   d="M559 549q103 0 159.5 -60.5t56.5 -159.5v-24h-312q-1 -87 40 -140t113 -53q89 0 143 73l19 -12q-21 -85 -79.5 -134t-150.5 -49q-131 0 -200 91q-39 -46 -78.5 -67t-105.5 -21q-68 0 -108 35t-40 99q0 60 35 93t97 55l154 54q1 3 12 43q2 66 -14.5 102t-48.5 36
q-50 0 -50 -79q0 -27 9 -70l-111 -15q-49 17 -49 70q0 65 59.5 99t153.5 34q100 0 143 -49q68 49 153 49zM544 507q-72 0 -80 -157h152q0 157 -72 157zM273 89q27 0 58 18q-35 61 -35 150q0 18 1 26l-35 -13q-36 -13 -52 -32.5t-16 -59.5q0 -89 79 -89z"/>
            <glyph glyph-name="ccedilla" unicode="&#xe7;" horiz-adv-x="503"
                   d="M156 -231l-8 35q51 0 78 13.5t27 34.5q0 13 -10.5 21t-26 10.5t-42.5 3.5l43 108q-88 15 -142 83.5t-54 174.5q0 129 75.5 212.5t198.5 83.5q81 0 132 -32t51 -95q0 -53 -44 -73h-95q4 29 4 57q0 98 -64 98q-45 0 -71.5 -51.5t-26.5 -130.5q0 -97 41.5 -152t115.5 -55
q87 0 133 66l22 -14q-48 -177 -226 -177h-14l-12 -30q48 0 76.5 -22t28.5 -60q0 -53 -54.5 -81t-135.5 -28z"/>
            <glyph glyph-name="egrave" unicode="&#xe8;" horiz-adv-x="526"
                   d="M288 549q106 0 162.5 -60t56.5 -159v-25h-319q-1 -88 42.5 -140.5t112.5 -52.5q94 0 149 73l19 -12q-21 -85 -79.5 -134t-150.5 -49q-114 0 -187 72t-73 195q0 130 78 211t189 81zM276 507q-79 0 -87 -156h160q0 156 -73 156zM116 765h179l50 -164h-51l-178 155v9z"/>
            <glyph glyph-name="eacute" unicode="&#xe9;" horiz-adv-x="526"
                   d="M284 765h179v-9l-177 -155h-52zM288 549q106 0 162.5 -60t56.5 -159v-25h-319q-1 -88 42.5 -140.5t112.5 -52.5q94 0 149 73l19 -12q-21 -85 -79.5 -134t-150.5 -49q-114 0 -187 72t-73 195q0 130 78 211t189 81zM276 507q-79 0 -87 -156h160q0 156 -73 156z"/>
            <glyph glyph-name="ecircumflex" unicode="&#xea;" horiz-adv-x="526"
                   d="M351 766l116 -170h-58l-120 85l-120 -85h-58l116 170h124zM288 549q106 0 162.5 -60t56.5 -159v-25h-319q-1 -88 42.5 -140.5t112.5 -52.5q94 0 149 73l19 -12q-21 -85 -79.5 -134t-150.5 -49q-114 0 -187 72t-73 195q0 130 78 211t189 81zM276 507q-79 0 -87 -156h160
q0 156 -73 156z"/>
            <glyph glyph-name="edieresis" unicode="&#xeb;" horiz-adv-x="526"
                   d="M103 687q0 35 24.5 59t59.5 24t59.5 -24.5t24.5 -58.5t-25 -58.5t-59 -24.5q-35 0 -59.5 24.5t-24.5 58.5zM307 687q0 34 25 58.5t58 24.5q37 0 61.5 -24t24.5 -59q0 -34 -25 -58.5t-61 -24.5q-33 0 -58 24.5t-25 58.5zM288 549q106 0 162.5 -60t56.5 -159v-25h-319
q-1 -88 42.5 -140.5t112.5 -52.5q94 0 149 73l19 -12q-21 -85 -79.5 -134t-150.5 -49q-114 0 -187 72t-73 195q0 130 78 211t189 81zM276 507q-79 0 -87 -156h160q0 156 -73 156z"/>
            <glyph glyph-name="igrave" unicode="&#xec;" horiz-adv-x="334"
                   d="M262 549v-471q0 -23 11.5 -30t44.5 -9v-39h-296v39q33 2 44.5 9t11.5 30v351l-55 34v28l208 58h31zM-1 765h179l50 -164h-51l-178 155v9z"/>
            <glyph glyph-name="iacute" unicode="&#xed;" horiz-adv-x="334"
                   d="M167 765h179v-9l-177 -155h-52zM262 549v-471q0 -23 11.5 -30t44.5 -9v-39h-296v39q33 2 44.5 9t11.5 30v351l-55 34v28l208 58h31z"/>
            <glyph glyph-name="icircumflex" unicode="&#xee;" horiz-adv-x="334"
                   d="M224 766l105 -168h-52l-110 84l-109 -84h-53l106 168h113zM262 549v-471q0 -23 11.5 -30t44.5 -9v-39h-296v39q33 2 44.5 9t11.5 30v351l-55 34v28l208 58h31z"/>
            <glyph glyph-name="idieresis" unicode="&#xef;" horiz-adv-x="334"
                   d="M-18 687q0 34 24.5 58.5t59.5 24.5t60 -24.5t25 -58.5t-25 -58.5t-60 -24.5q-34 0 -59 24.5t-25 58.5zM185 687q0 34 24.5 58.5t58.5 24.5q36 0 60.5 -24t24.5 -59q0 -34 -24.5 -58.5t-60.5 -24.5q-34 0 -58.5 24.5t-24.5 58.5zM262 549v-471q0 -23 11.5 -30t44.5 -9v-39
h-296v39q33 2 44.5 9t11.5 30v351l-55 34v28l208 58h31z"/>
            <glyph glyph-name="eth" unicode="&#xf0;" horiz-adv-x="600"
                   d="M121 588l-13 43l151 48q-61 51 -149 74l19 34q132 -17 232 -76l129 41l13 -42l-96 -31q86 -65 129 -158t43 -195q0 -154 -74 -245t-209 -91q-123 0 -199 77t-76 196q0 127 77 206t183 79q59 0 87 -33q-25 72 -73 128zM305 32q80 0 80 204q0 271 -89 271q-79 0 -79 -204
q0 -271 88 -271z"/>
            <glyph glyph-name="ntilde" unicode="&#xf1;" horiz-adv-x="664"
                   d="M415 78v292q0 35 -15 52.5t-52 17.5q-42 0 -86 -22v-340q0 -23 11 -30t43 -9v-39h-294v39q33 2 44.5 9t11.5 30v351l-55 34v28l209 58h34l-4 -100q79 100 186 100q74 0 113 -41t39 -123v-307q0 -23 11.5 -30t44.5 -9v-39h-294v39q32 2 42.5 9t10.5 30zM415 602
q-34 0 -75.5 30t-60.5 30q-33 0 -65 -56l-36 20q27 70 53 102.5t64 32.5q34 0 75 -30t61 -30q32 0 65 55l36 -19q-28 -71 -53.5 -103t-63.5 -32z"/>
            <glyph glyph-name="ograve" unicode="&#xf2;" horiz-adv-x="601"
                   d="M305 32q43 0 61 51.5t18 152.5q0 271 -88 271q-43 0 -61 -51.5t-18 -152.5q0 -271 88 -271zM300 -10q-125 0 -202 73.5t-77 195.5q0 126 78.5 208t201.5 82q125 0 202 -73.5t77 -195.5q0 -126 -78.5 -208t-201.5 -82zM130 765h179l50 -164h-51l-178 155v9z"/>
            <glyph glyph-name="oacute" unicode="&#xf3;" horiz-adv-x="601"
                   d="M297 765h179v-9l-177 -155h-52zM305 32q43 0 61 51.5t18 152.5q0 271 -88 271q-43 0 -61 -51.5t-18 -152.5q0 -271 88 -271zM300 -10q-125 0 -202 73.5t-77 195.5q0 126 78.5 208t201.5 82q125 0 202 -73.5t77 -195.5q0 -126 -78.5 -208t-201.5 -82z"/>
            <glyph glyph-name="ocircumflex" unicode="&#xf4;" horiz-adv-x="601"
                   d="M366 766l116 -170h-58l-120 85l-120 -85h-58l116 170h124zM305 32q43 0 61 51.5t18 152.5q0 271 -88 271q-43 0 -61 -51.5t-18 -152.5q0 -271 88 -271zM300 -10q-125 0 -202 73.5t-77 195.5q0 126 78.5 208t201.5 82q125 0 202 -73.5t77 -195.5q0 -126 -78.5 -208
t-201.5 -82z"/>
            <glyph glyph-name="otilde" unicode="&#xf5;" horiz-adv-x="601"
                   d="M305 32q43 0 61 51.5t18 152.5q0 271 -88 271q-43 0 -61 -51.5t-18 -152.5q0 -271 88 -271zM300 -10q-125 0 -202 73.5t-77 195.5q0 126 78.5 208t201.5 82q125 0 202 -73.5t77 -195.5q0 -126 -78.5 -208t-201.5 -82zM370 602q-34 0 -75.5 30t-60.5 30q-33 0 -65 -56
l-36 20q27 70 53 102.5t64 32.5q34 0 75 -30t61 -30q32 0 65 55l36 -19q-28 -71 -53.5 -103t-63.5 -32z"/>
            <glyph glyph-name="odieresis" unicode="&#xf6;" horiz-adv-x="601"
                   d="M118 687q0 35 24.5 59t59.5 24t59.5 -24.5t24.5 -58.5t-25 -58.5t-59 -24.5q-35 0 -59.5 24.5t-24.5 58.5zM322 687q0 34 25 58.5t58 24.5q37 0 61.5 -24t24.5 -59q0 -34 -25 -58.5t-61 -24.5q-33 0 -58 24.5t-25 58.5zM305 32q43 0 61 51.5t18 152.5q0 271 -88 271
q-43 0 -61 -51.5t-18 -152.5q0 -271 88 -271zM300 -10q-125 0 -202 73.5t-77 195.5q0 126 78.5 208t201.5 82q125 0 202 -73.5t77 -195.5q0 -126 -78.5 -208t-201.5 -82z"/>
            <glyph glyph-name="divide" unicode="&#xf7;" horiz-adv-x="574"
                   d="M65 335v69h443v-69h-443zM227 197q0 25 17.5 43t41.5 18t42 -18t18 -43q0 -24 -18 -41.5t-42 -17.5t-41.5 17.5t-17.5 41.5zM227 541q0 25 17.5 42t41.5 17t42 -17.5t18 -41.5t-18 -42t-42 -18t-41.5 18t-17.5 42z"/>
            <glyph glyph-name="oslash" unicode="&#xf8;" horiz-adv-x="601"
                   d="M300 -10q-83 0 -148 34l-58 -82l-35 25l57 80q-95 74 -95 212q0 126 78.5 208t201.5 82q82 0 149 -35l55 77l36 -25l-55 -76q94 -75 94 -210q0 -126 -78.5 -208t-201.5 -82zM217 303q0 -65 4 -109l150 210q-21 103 -75 103q-43 0 -61 -51.5t-18 -152.5zM305 32
q43 0 61 51.5t18 152.5q0 64 -4 105l-150 -209q21 -100 75 -100z"/>
            <glyph glyph-name="ugrave" unicode="&#xf9;" horiz-adv-x="647"
                   d="M576 421v-306q0 -28 6 -38.5t28 -11.5l24 -1v-39l-211 -35h-35l3 97q-76 -97 -178 -97q-69 0 -110 42.5t-41 125.5v245q0 48 -39 58l-15 5v36l211 46h33l-6 -127v-245q0 -80 68 -80q32 0 77 20v287q0 48 -38 58l-15 5v36l210 46h33zM149 765h179l50 -164h-51l-178 155v9z
"/>
            <glyph glyph-name="uacute" unicode="&#xfa;" horiz-adv-x="647"
                   d="M316 765h179v-9l-177 -155h-52zM576 421v-306q0 -28 6 -38.5t28 -11.5l24 -1v-39l-211 -35h-35l3 97q-76 -97 -178 -97q-69 0 -110 42.5t-41 125.5v245q0 48 -39 58l-15 5v36l211 46h33l-6 -127v-245q0 -80 68 -80q32 0 77 20v287q0 48 -38 58l-15 5v36l210 46h33z"/>
            <glyph glyph-name="ucircumflex" unicode="&#xfb;" horiz-adv-x="647"
                   d="M385 766l116 -170h-58l-120 85l-120 -85h-58l116 170h124zM576 421v-306q0 -28 6 -38.5t28 -11.5l24 -1v-39l-211 -35h-35l3 97q-76 -97 -178 -97q-69 0 -110 42.5t-41 125.5v245q0 48 -39 58l-15 5v36l211 46h33l-6 -127v-245q0 -80 68 -80q32 0 77 20v287q0 48 -38 58
l-15 5v36l210 46h33z"/>
            <glyph glyph-name="udieresis" unicode="&#xfc;" horiz-adv-x="647"
                   d="M137 687q0 35 24.5 59t59.5 24t59.5 -24.5t24.5 -58.5t-25 -58.5t-59 -24.5q-35 0 -59.5 24.5t-24.5 58.5zM341 687q0 34 25 58.5t58 24.5q37 0 61.5 -24t24.5 -59q0 -34 -25 -58.5t-61 -24.5q-33 0 -58 24.5t-25 58.5zM576 421v-306q0 -28 6 -38.5t28 -11.5l24 -1v-39
l-211 -35h-35l3 97q-76 -97 -178 -97q-69 0 -110 42.5t-41 125.5v245q0 48 -39 58l-15 5v36l211 46h33l-6 -127v-245q0 -80 68 -80q32 0 77 20v287q0 48 -38 58l-15 5v36l210 46h33z"/>
            <glyph glyph-name="yacute" unicode="&#xfd;" horiz-adv-x="599"
                   d="M371 182l99 254q8 21 8 29q0 16 -13 23t-53 12v39h182v-39q-25 -8 -34.5 -15.5t-16.5 -24.5l-228 -547q-29 -70 -61.5 -102t-82.5 -32q-61 0 -84 42v71q52 -10 78 -10q42 0 66 13.5t37 44.5l16 35l-228 485q-8 17 -17 24.5t-34 15.5v39h320v-39q-40 -5 -53 -12t-13 -23
q0 -7 7 -28zM335 765h179v-9l-177 -155h-52z"/>
            <glyph glyph-name="thorn" unicode="&#xfe;" horiz-adv-x="637"
                   d="M428 247q0 97 -32 145t-91 48q-33 0 -59 -17v-281q0 -105 71 -105q52 0 81.5 59t29.5 151zM61 -134v813l-55 28v30l209 46h31v-331q25 40 67.5 68.5t100.5 28.5q92 0 147 -63.5t55 -182.5q0 -149 -79.5 -231t-203.5 -82q-61 0 -87 21v-141q0 -25 14.5 -32t62.5 -11v-39
h-318v39q33 2 44.5 9t11.5 30z"/>
            <glyph glyph-name="ydieresis" unicode="&#xff;" horiz-adv-x="599"
                   d="M371 182l99 254q8 21 8 29q0 16 -13 23t-53 12v39h182v-39q-25 -8 -34.5 -15.5t-16.5 -24.5l-228 -547q-29 -70 -61.5 -102t-82.5 -32q-61 0 -84 42v71q52 -10 78 -10q42 0 66 13.5t37 44.5l16 35l-228 485q-8 17 -17 24.5t-34 15.5v39h320v-39q-40 -5 -53 -12t-13 -23
q0 -7 7 -28zM155 687q0 35 24.5 59t59.5 24t59.5 -24.5t24.5 -58.5t-25 -58.5t-59 -24.5q-35 0 -59.5 24.5t-24.5 58.5zM359 687q0 34 25 58.5t58 24.5q37 0 61.5 -24t24.5 -59q0 -34 -25 -58.5t-61 -24.5q-33 0 -58 24.5t-25 58.5z"/>
            <glyph glyph-name="Amacron" unicode="&#x100;" horiz-adv-x="759"
                   d="M471 125l-36 92h-255l-34 -91q-8 -24 -8 -37q0 -24 20 -34.5t62 -12.5v-42h-215v42q46 7 58 37l208 542l-34 83h209l249 -625q7 -18 21 -26t38 -11v-42h-353v42q40 2 59 12t19 34q0 13 -8 37zM304 548l-104 -277h213zM208 751v86h292v-86h-292z"/>
            <glyph glyph-name="amacron" unicode="&#x101;" horiz-adv-x="554"
                   d="M263 89q19 0 44 14v185l-55 -21q-29 -11 -43.5 -30t-14.5 -59q0 -89 69 -89zM489 375v-265q0 -45 27 -45q20 0 34 6l7 -27q-54 -54 -132 -54q-43 0 -73.5 22t-41.5 62q-56 -81 -151 -81q-64 0 -103.5 35.5t-39.5 98.5q0 60 35 93t97 55l159 56v102q0 77 -52 77
q-54 0 -54 -79q0 -27 9 -70l-111 -15q-49 17 -49 70q0 65 59.5 99t155.5 34q110 0 167 -40t57 -134zM131 625v86h286v-86h-286z"/>
            <glyph glyph-name="Abreve" unicode="&#x102;" horiz-adv-x="759"
                   d="M471 125l-36 92h-255l-34 -91q-8 -24 -8 -37q0 -24 20 -34.5t62 -12.5v-42h-215v42q46 7 58 37l208 542l-34 83h209l249 -625q7 -18 21 -26t38 -11v-42h-353v42q40 2 59 12t19 34q0 13 -8 37zM304 548l-104 -277h213zM353 740q-70 0 -109 41t-39 115h46q13 -65 102 -65
q91 0 102 65h47q0 -74 -39 -115t-110 -41z"/>
            <glyph glyph-name="abreve" unicode="&#x103;" horiz-adv-x="554"
                   d="M263 89q19 0 44 14v185l-55 -21q-29 -11 -43.5 -30t-14.5 -59q0 -89 69 -89zM489 375v-265q0 -45 27 -45q20 0 34 6l7 -27q-54 -54 -132 -54q-43 0 -73.5 22t-41.5 62q-56 -81 -151 -81q-64 0 -103.5 35.5t-39.5 98.5q0 60 35 93t97 55l159 56v102q0 77 -52 77
q-54 0 -54 -79q0 -27 9 -70l-111 -15q-49 17 -49 70q0 65 59.5 99t155.5 34q110 0 167 -40t57 -134zM274 598q-70 0 -107.5 43.5t-37.5 124.5h46q9 -75 99 -75q89 0 98 75h46q0 -81 -37 -124.5t-107 -43.5z"/>
            <glyph glyph-name="Aogonek" unicode="&#x104;" horiz-adv-x="759"
                   d="M304 548l-104 -277h213zM405 26q54 19 65 30t11 28q0 13 -8 37l-38 96h-254l-35 -91q-8 -24 -8 -37q0 -24 20 -34.5t62 -12.5v-42h-215v42q46 7 58 37l208 542l-34 83h209l249 -625q7 -18 21 -26t38 -11v-42h-319q-71 -19 -71 -90q0 -25 12.5 -40t36.5 -15q28 0 60 24
l16 -20q-58 -74 -131 -74q-42 0 -70 25t-28 72q0 93 145 144z"/>
            <glyph glyph-name="aogonek" unicode="&#x105;" horiz-adv-x="554"
                   d="M489 375v-265q0 -45 27 -45q20 0 34 6l7 -27q-17 -15 -58.5 -36.5t-65 -44.5t-23.5 -58q0 -22 12 -36t34 -14q32 0 64 24l16 -20q-58 -74 -136 -74q-40 0 -67 22.5t-27 60.5q0 73 97 123q-34 6 -58.5 28t-34.5 55q-56 -81 -151 -81q-64 0 -103.5 35.5t-39.5 98.5
q0 60 35 93t97 55l159 56v102q0 77 -52 77q-54 0 -54 -79q0 -27 9 -70l-111 -15q-49 17 -49 70q0 65 59.5 99t155.5 34q110 0 167 -40t57 -134zM263 89q19 0 44 14v185l-55 -21q-29 -11 -43.5 -30t-14.5 -59q0 -89 69 -89z"/>
            <glyph glyph-name="Cacute" unicode="&#x106;" horiz-adv-x="683"
                   d="M404 712q134 0 223 -59l3 -175h-49q-39 184 -171 184q-89 0 -133 -83.5t-44 -218.5q0 -142 48.5 -229.5t138.5 -87.5q131 0 187 211h50l-17 -199q-92 -65 -245 -65q-171 0 -270 92t-99 250q0 172 108.5 276t269.5 104zM403 892h180v-9l-173 -140h-56z"/>
            <glyph glyph-name="cacute" unicode="&#x107;" horiz-adv-x="503"
                   d="M287 765h179v-9l-177 -155h-52zM181 322q0 -97 41.5 -152t115.5 -55q87 0 133 66l22 -14q-48 -177 -226 -177q-107 0 -176.5 71.5t-69.5 191.5q0 129 75.5 212.5t198.5 83.5q81 0 132 -32t51 -95q0 -53 -44 -73h-95q4 29 4 57q0 98 -64 98q-45 0 -71.5 -51.5
t-26.5 -130.5z"/>
            <glyph glyph-name="Ccircumflex" unicode="&#x108;" horiz-adv-x="683"
                   d="M404 712q134 0 223 -59l3 -175h-49q-39 184 -171 184q-89 0 -133 -83.5t-44 -218.5q0 -142 48.5 -229.5t138.5 -87.5q131 0 187 211h50l-17 -199q-92 -65 -245 -65q-171 0 -270 92t-99 250q0 172 108.5 276t269.5 104zM471 896l120 -153h-57l-125 70l-125 -70h-57
l120 153h124z"/>
            <glyph glyph-name="ccircumflex" unicode="&#x109;" horiz-adv-x="503"
                   d="M347 766l116 -170h-58l-120 85l-120 -85h-58l116 170h124zM181 322q0 -97 41.5 -152t115.5 -55q87 0 133 66l22 -14q-48 -177 -226 -177q-107 0 -176.5 71.5t-69.5 191.5q0 129 75.5 212.5t198.5 83.5q81 0 132 -32t51 -95q0 -53 -44 -73h-95q4 29 4 57q0 98 -64 98
q-45 0 -71.5 -51.5t-26.5 -130.5z"/>
            <glyph glyph-name="Cdotaccent" unicode="&#x10a;" horiz-adv-x="683"
                   d="M409 741q-44 0 -71 27t-27 65q0 39 27 66t71 27t71 -27t27 -66q0 -38 -27 -65t-71 -27zM404 712q134 0 223 -59l3 -175h-49q-39 184 -171 184q-89 0 -133 -83.5t-44 -218.5q0 -142 48.5 -229.5t138.5 -87.5q131 0 187 211h50l-17 -199q-92 -65 -245 -65q-171 0 -270 92
t-99 250q0 172 108.5 276t269.5 104z"/>
            <glyph glyph-name="cdotaccent" unicode="&#x10b;" horiz-adv-x="503"
                   d="M181 322q0 -97 41.5 -152t115.5 -55q87 0 133 66l22 -14q-48 -177 -226 -177q-107 0 -176.5 71.5t-69.5 191.5q0 129 75.5 212.5t198.5 83.5q81 0 132 -32t51 -95q0 -53 -44 -73h-95q4 29 4 57q0 98 -64 98q-45 0 -71.5 -51.5t-26.5 -130.5zM290 597q-44 0 -71 26.5
t-27 65.5t27 66t71 27t71 -27t27 -66t-27 -65.5t-71 -26.5z"/>
            <glyph glyph-name="Ccaron" unicode="&#x10c;" horiz-adv-x="683"
                   d="M404 712q134 0 223 -59l3 -175h-49q-39 184 -171 184q-89 0 -133 -83.5t-44 -218.5q0 -142 48.5 -229.5t138.5 -87.5q131 0 187 211h50l-17 -199q-92 -65 -245 -65q-171 0 -270 92t-99 250q0 172 108.5 276t269.5 104zM591 897l-120 -153h-124l-120 153h57l125 -70
l125 70h57z"/>
            <glyph glyph-name="ccaron" unicode="&#x10d;" horiz-adv-x="503"
                   d="M468 770l-116 -170h-124l-116 170h58l120 -85l120 85h58zM181 322q0 -97 41.5 -152t115.5 -55q87 0 133 66l22 -14q-48 -177 -226 -177q-107 0 -176.5 71.5t-69.5 191.5q0 129 75.5 212.5t198.5 83.5q81 0 132 -32t51 -95q0 -53 -44 -73h-95q4 29 4 57q0 98 -64 98
q-45 0 -71.5 -51.5t-26.5 -130.5z"/>
            <glyph glyph-name="Dcaron" unicode="&#x10e;" horiz-adv-x="789"
                   d="M546 897l-120 -153h-124l-120 153h57l125 -70l125 70h57zM321 655h-26v-538q0 -42 16 -56t52 -14h9q85 0 136 80t51 213q0 146 -62.5 230.5t-175.5 84.5zM378 0h-352v42q50 5 61.5 16t11.5 51v484q0 40 -11.5 51t-61.5 16v42h329q200 0 303.5 -94.5t103.5 -248.5
q0 -168 -103.5 -263.5t-280.5 -95.5z"/>
            <glyph glyph-name="dcaron" unicode="&#x10f;" horiz-adv-x="641"
                   d="M766 772l-116 -194h-41l13 205h144v-11zM314 489q-52 0 -80 -50.5t-28 -137.5q0 -94 32 -150.5t90 -56.5q32 0 57 14v278q0 52 -16.5 77.5t-54.5 25.5zM385 679l-55 28v30l209 46h31v-668q0 -28 6 -38.5t28 -11.5l24 -1v-39l-212 -35h-34l3 94q-63 -94 -162 -94
q-91 0 -146.5 67.5t-55.5 187.5q0 141 75 220.5t190 79.5q63 0 99 -30v164z"/>
            <glyph glyph-name="Dcroat" unicode="&#x110;" horiz-adv-x="799"
                   d="M36 325v62h73v206q0 40 -11.5 51t-61.5 16v42h329q200 0 303.5 -94.5t103.5 -248.5q0 -168 -103.5 -263.5t-280.5 -95.5h-352v42q50 5 61.5 16t11.5 51v216h-73zM331 655h-26v-268h129v-62h-129v-208q0 -42 16 -56t52 -14h9q85 0 136 80t51 213q0 146 -62.5 230.5
t-175.5 84.5z"/>
            <glyph glyph-name="dcroat" unicode="&#x111;" horiz-adv-x="641"
                   d="M385 679l-55 28v30l209 46h31v-143h58v-51h-58v-474q0 -28 6 -38.5t28 -11.5l24 -1v-39l-212 -35h-34l3 94q-63 -94 -162 -94q-91 0 -146.5 67.5t-55.5 187.5q0 141 75 220.5t190 79.5q63 0 99 -30v74h-118v51h118v39zM314 489q-52 0 -80 -50.5t-28 -137.5
q0 -94 32 -150.5t90 -56.5q32 0 57 14v278q0 52 -16.5 77.5t-54.5 25.5z"/>
            <glyph glyph-name="Emacron" unicode="&#x112;" horiz-adv-x="655"
                   d="M199 751v86h292v-86h-292zM26 0v42q50 5 61.5 16t11.5 51v484q0 40 -11.5 51t-61.5 16v42h575l5 -193h-38q-42 88 -73.5 117t-96.5 29h-103v-265h97q33 0 46.5 19.5t20.5 72.5h43v-240h-43q-7 53 -20.5 73t-46.5 20h-97v-221q0 -39 19 -53t62 -14h35q27 0 47 6t34.5 15
t32.5 34t30.5 46.5t38.5 69.5h45l-32 -218h-581z"/>
            <glyph glyph-name="emacron" unicode="&#x113;" horiz-adv-x="526"
                   d="M288 549q106 0 162.5 -60t56.5 -159v-25h-319q-1 -88 42.5 -140.5t112.5 -52.5q94 0 149 73l19 -12q-21 -85 -79.5 -134t-150.5 -49q-114 0 -187 72t-73 195q0 130 78 211t189 81zM276 507q-79 0 -87 -156h160q0 156 -73 156zM146 625v86h286v-86h-286z"/>
            <glyph glyph-name="Ebreve" unicode="&#x114;" horiz-adv-x="655"
                   d="M344 740q-70 0 -109 41t-39 115h46q12 -65 102 -65q91 0 102 65h47q0 -74 -39 -115t-110 -41zM26 0v42q50 5 61.5 16t11.5 51v484q0 40 -11.5 51t-61.5 16v42h575l5 -193h-38q-42 88 -73.5 117t-96.5 29h-103v-265h97q33 0 46.5 19.5t20.5 72.5h43v-240h-43
q-7 53 -20.5 73t-46.5 20h-97v-221q0 -39 19 -53t62 -14h35q27 0 47 6t34.5 15t32.5 34t30.5 46.5t38.5 69.5h45l-32 -218h-581z"/>
            <glyph glyph-name="ebreve" unicode="&#x115;" horiz-adv-x="526"
                   d="M288 549q106 0 162.5 -60t56.5 -159v-25h-319q-1 -88 42.5 -140.5t112.5 -52.5q94 0 149 73l19 -12q-21 -85 -79.5 -134t-150.5 -49q-114 0 -187 72t-73 195q0 130 78 211t189 81zM276 507q-79 0 -87 -156h160q0 156 -73 156zM291 598q-70 0 -107.5 43.5t-37.5 124.5h46
q9 -75 99 -75q89 0 98 75h46q0 -81 -37 -124.5t-107 -43.5z"/>
            <glyph glyph-name="Edotaccent" unicode="&#x116;" horiz-adv-x="655"
                   d="M345 741q-44 0 -71 27t-27 65q0 39 27 66t71 27t71 -27t27 -66q0 -38 -27 -65t-71 -27zM26 0v42q50 5 61.5 16t11.5 51v484q0 40 -11.5 51t-61.5 16v42h575l5 -193h-38q-42 88 -73.5 117t-96.5 29h-103v-265h97q33 0 46.5 19.5t20.5 72.5h43v-240h-43q-7 53 -20.5 73
t-46.5 20h-97v-221q0 -39 19 -53t62 -14h35q27 0 47 6t34.5 15t32.5 34t30.5 46.5t38.5 69.5h45l-32 -218h-581z"/>
            <glyph glyph-name="edotaccent" unicode="&#x117;" horiz-adv-x="526"
                   d="M288 549q106 0 162.5 -60t56.5 -159v-25h-319q-1 -88 42.5 -140.5t112.5 -52.5q94 0 149 73l19 -12q-21 -85 -79.5 -134t-150.5 -49q-114 0 -187 72t-73 195q0 130 78 211t189 81zM276 507q-79 0 -87 -156h160q0 156 -73 156zM289 597q-44 0 -71 26.5t-27 65.5t27 66
t71 27t71 -27t27 -66t-27 -65.5t-71 -26.5z"/>
            <glyph glyph-name="Eogonek" unicode="&#x118;" horiz-adv-x="655"
                   d="M26 0v42q50 5 61.5 16t11.5 51v484q0 40 -11.5 51t-61.5 16v42h575l5 -193h-38q-42 88 -73.5 117t-96.5 29h-103v-265h97q33 0 46.5 19.5t20.5 72.5h43v-240h-43q-7 53 -20.5 73t-46.5 20h-97v-221q0 -39 19 -53t62 -14h35q27 0 47 6t34.5 15t32.5 34t30.5 46.5
t38.5 69.5h45l-32 -218h-107q-59 -39 -59 -95q0 -22 12 -36t34 -14q32 0 63 24l16 -20q-58 -74 -135 -74q-40 0 -67 22.5t-27 60.5q0 79 106 132h-417z"/>
            <glyph glyph-name="eogonek" unicode="&#x119;" horiz-adv-x="526"
                   d="M292 549q103 0 159 -60.5t56 -158.5v-25h-319q-1 -88 42.5 -140.5t112.5 -52.5q94 0 149 73l19 -12q-30 -116 -128 -164q-78 -37 -78 -97q0 -27 12.5 -42t34.5 -15q32 0 64 24l16 -20q-58 -74 -136 -74q-40 0 -67 22.5t-27 60.5q0 72 90 122h-11q-114 0 -187 72t-73 195
q0 130 78.5 211t192.5 81zM276 507q-79 0 -87 -156h160q0 156 -73 156z"/>
            <glyph glyph-name="Ecaron" unicode="&#x11a;" horiz-adv-x="655"
                   d="M526 897l-120 -153h-124l-120 153h57l125 -70l125 70h57zM26 0v42q50 5 61.5 16t11.5 51v484q0 40 -11.5 51t-61.5 16v42h575l5 -193h-38q-42 88 -73.5 117t-96.5 29h-103v-265h97q33 0 46.5 19.5t20.5 72.5h43v-240h-43q-7 53 -20.5 73t-46.5 20h-97v-221q0 -39 19 -53
t62 -14h35q27 0 47 6t34.5 15t32.5 34t30.5 46.5t38.5 69.5h45l-32 -218h-581z"/>
            <glyph glyph-name="ecaron" unicode="&#x11b;" horiz-adv-x="526"
                   d="M467 770l-116 -170h-124l-116 170h58l120 -85l120 85h58zM288 549q106 0 162.5 -60t56.5 -159v-25h-319q-1 -88 42.5 -140.5t112.5 -52.5q94 0 149 73l19 -12q-21 -85 -79.5 -134t-150.5 -49q-114 0 -187 72t-73 195q0 130 78 211t189 81zM276 507q-79 0 -87 -156h160
q0 156 -73 156z"/>
            <glyph glyph-name="Gcircumflex" unicode="&#x11c;" horiz-adv-x="742"
                   d="M477 53v170q0 40 -11.5 51t-61.5 17v42h328v-42q-49 -6 -60.5 -17t-11.5 -51v-166q-105 -67 -272 -67q-172 0 -267 95.5t-95 247.5q0 171 109.5 275t272.5 104q136 0 226 -59l3 -175h-49q-39 184 -173 184q-91 0 -136.5 -83.5t-45.5 -218.5q0 -136 47 -227.5t135 -91.5
q39 0 62 12zM479 896l120 -153h-57l-125 70l-125 -70h-57l120 153h124z"/>
            <glyph glyph-name="gcircumflex" unicode="&#x11d;" horiz-adv-x="557"
                   d="M259 188q-60 0 -110 17q-29 -25 -29 -50q0 -29 30 -29h217q192 0 192 -149q0 -95 -83 -147.5t-222 -52.5q-120 0 -188 31.5t-68 90.5q0 35 27 55t65 26q-31 12 -48.5 39.5t-17.5 60.5q0 82 98 135q-95 45 -95 144q0 88 66.5 139t172.5 51q50 0 95 -14l178 4v-67h-45
l-61 2q62 -41 62 -113q0 -81 -66 -127t-170 -46zM375 -42h-264q-9 -10 -9 -37q0 -45 43 -71t114 -26q75 0 124 21.5t49 67.5q0 45 -57 45zM340 766l116 -170h-58l-120 85l-120 -85h-58l116 170h124zM266 227q32 0 45.5 33.5t13.5 102.5q0 62 -17 103t-50 41q-60 0 -60 -132
q0 -64 17.5 -106t50.5 -42z"/>
            <glyph glyph-name="Gbreve" unicode="&#x11e;" horiz-adv-x="742"
                   d="M416 740q-70 0 -109 41t-39 115h46q12 -65 102 -65q91 0 102 65h47q0 -74 -39 -115t-110 -41zM477 53v170q0 40 -11.5 51t-61.5 17v42h328v-42q-49 -6 -60.5 -17t-11.5 -51v-166q-105 -67 -272 -67q-172 0 -267 95.5t-95 247.5q0 171 109.5 275t272.5 104q136 0 226 -59
l3 -175h-49q-39 184 -173 184q-91 0 -136.5 -83.5t-45.5 -218.5q0 -136 47 -227.5t135 -91.5q39 0 62 12z"/>
            <glyph glyph-name="gbreve" unicode="&#x11f;" horiz-adv-x="557"
                   d="M259 188q-60 0 -110 17q-29 -25 -29 -50q0 -29 30 -29h217q192 0 192 -149q0 -95 -83 -147.5t-222 -52.5q-120 0 -188 31.5t-68 90.5q0 35 27 55t65 26q-31 12 -48.5 39.5t-17.5 60.5q0 82 98 135q-95 45 -95 144q0 88 66.5 139t172.5 51q50 0 95 -14l178 4v-67h-45
l-61 2q62 -41 62 -113q0 -81 -66 -127t-170 -46zM375 -42h-264q-9 -10 -9 -37q0 -45 43 -71t114 -26q75 0 124 21.5t49 67.5q0 45 -57 45zM266 227q32 0 45.5 33.5t13.5 102.5q0 62 -17 103t-50 41q-60 0 -60 -132q0 -64 17.5 -106t50.5 -42zM278 598q-70 0 -107.5 43.5
t-37.5 124.5h46q9 -75 99 -75q89 0 98 75h46q0 -81 -37 -124.5t-107 -43.5z"/>
            <glyph glyph-name="Gdotaccent" unicode="&#x120;" horiz-adv-x="742"
                   d="M417 741q-44 0 -71 27t-27 65q0 39 27 66t71 27t71 -27t27 -66q0 -38 -27 -65t-71 -27zM477 53v170q0 40 -11.5 51t-61.5 17v42h328v-42q-49 -6 -60.5 -17t-11.5 -51v-166q-105 -67 -272 -67q-172 0 -267 95.5t-95 247.5q0 171 109.5 275t272.5 104q136 0 226 -59l3 -175
h-49q-39 184 -173 184q-91 0 -136.5 -83.5t-45.5 -218.5q0 -136 47 -227.5t135 -91.5q39 0 62 12z"/>
            <glyph glyph-name="gdotaccent" unicode="&#x121;" horiz-adv-x="557"
                   d="M259 188q-60 0 -110 17q-29 -25 -29 -50q0 -29 30 -29h217q192 0 192 -149q0 -95 -83 -147.5t-222 -52.5q-120 0 -188 31.5t-68 90.5q0 35 27 55t65 26q-31 12 -48.5 39.5t-17.5 60.5q0 82 98 135q-95 45 -95 144q0 88 66.5 139t172.5 51q50 0 95 -14l178 4v-67h-45
l-61 2q62 -41 62 -113q0 -81 -66 -127t-170 -46zM375 -42h-264q-9 -10 -9 -37q0 -45 43 -71t114 -26q75 0 124 21.5t49 67.5q0 45 -57 45zM266 227q32 0 45.5 33.5t13.5 102.5q0 62 -17 103t-50 41q-60 0 -60 -132q0 -64 17.5 -106t50.5 -42zM278 597q-44 0 -71 26.5
t-27 65.5t27 66t71 27t71 -27t27 -66t-27 -65.5t-71 -26.5z"/>
            <glyph glyph-name="Gcommaaccent" unicode="&#x122;" horiz-adv-x="742"
                   d="M432 -156h-54q-48 12 -48 59q0 28 21.5 45t59.5 17q43 0 68 -25.5t25 -66.5q0 -53 -41.5 -85.5t-125.5 -32.5v36q45 0 69.5 15.5t25.5 37.5zM477 53v170q0 40 -11.5 51t-61.5 17v42h328v-42q-49 -6 -60.5 -17t-11.5 -51v-166q-105 -67 -272 -67q-172 0 -267 95.5
t-95 247.5q0 171 109.5 275t272.5 104q136 0 226 -59l3 -175h-49q-39 184 -173 184q-91 0 -136.5 -83.5t-45.5 -218.5q0 -136 47 -227.5t135 -91.5q39 0 62 12z"/>
            <glyph glyph-name="gcommaaccent" unicode="&#x123;" horiz-adv-x="557"
                   d="M259 188q-60 0 -110 17q-29 -25 -29 -50q0 -29 30 -29h217q192 0 192 -149q0 -95 -83 -147.5t-222 -52.5q-120 0 -188 31.5t-68 90.5q0 35 27 55t65 26q-31 12 -48.5 39.5t-17.5 60.5q0 82 98 135q-95 45 -95 144q0 88 66.5 139t172.5 51q50 0 95 -14l178 4v-67h-45
l-61 2q62 -41 62 -113q0 -81 -66 -127t-170 -46zM375 -42h-264q-9 -10 -9 -37q0 -45 43 -71t114 -26q75 0 124 21.5t49 67.5q0 45 -57 45zM266 227q32 0 45.5 33.5t13.5 102.5q0 62 -17 103t-50 41q-60 0 -60 -132q0 -64 17.5 -106t50.5 -42zM262 714h55q48 -13 48 -60
q0 -27 -22 -44.5t-59 -17.5q-43 0 -68 26t-25 67q0 53 41.5 85.5t125.5 32.5v-37q-45 0 -69.5 -15t-26.5 -37z"/>
            <glyph glyph-name="Hcircumflex" unicode="&#x124;" horiz-adv-x="844"
                   d="M295 593v-206h254v206q0 40 -11.5 51t-61.5 16v42h341v-42q-49 -5 -60.5 -16t-11.5 -51v-484q0 -40 11.5 -51t60.5 -16v-42h-341v42q50 5 61.5 16t11.5 51v216h-254v-216q0 -40 11.5 -51t60.5 -16v-42h-341v42q50 5 61.5 16t11.5 51v484q0 40 -11.5 51t-61.5 16v42h341
v-42q-49 -5 -60.5 -16t-11.5 -51zM484 896l120 -153h-57l-125 70l-125 -70h-57l120 153h124z"/>
            <glyph glyph-name="hcircumflex" unicode="&#x125;" horiz-adv-x="661"
                   d="M74 78v601l-55 28v30l209 46h31v-334q79 100 186 100q73 0 112 -41.5t39 -122.5v-307q0 -23 11.5 -30t44.5 -9v-39h-294v39q32 2 42.5 9t10.5 30v292q0 35 -15 52.5t-52 17.5q-43 0 -85 -22v-340q0 -23 10.5 -30t42.5 -9v-39h-294v39q33 2 44.5 9t11.5 30zM395 956
l120 -153h-57l-125 70l-125 -70h-57l120 153h124z"/>
            <glyph glyph-name="Hbar" unicode="&#x126;" horiz-adv-x="864"
                   d="M305 593v-42h254v42q0 40 -11.5 51t-61.5 16v42h341v-42q-49 -5 -60.5 -16t-11.5 -51v-42h72v-62h-72v-380q0 -40 11.5 -51t60.5 -16v-42h-341v42q50 5 61.5 16t11.5 51v216h-254v-216q0 -40 11.5 -51t60.5 -16v-42h-341v42q50 5 61.5 16t11.5 51v380h-72v62h72v42
q0 40 -11.5 51t-61.5 16v42h341v-42q-49 -5 -60.5 -16t-11.5 -51zM305 387h254v102h-254v-102z"/>
            <glyph glyph-name="hbar" unicode="&#x127;" horiz-adv-x="661"
                   d="M74 78v511h-55v51h55v39l-55 28v30l209 46h31v-143h121v-51h-121v-140q79 100 186 100q73 0 112 -41.5t39 -122.5v-307q0 -23 11.5 -30t44.5 -9v-39h-294v39q32 2 42.5 9t10.5 30v292q0 35 -15 52.5t-52 17.5q-43 0 -85 -22v-340q0 -23 10.5 -30t42.5 -9v-39h-294v39
q33 2 44.5 9t11.5 30z"/>
            <glyph glyph-name="Itilde" unicode="&#x128;" horiz-adv-x="394"
                   d="M295 593v-484q0 -40 11.5 -51t60.5 -16v-42h-341v42q50 5 61.5 16t11.5 51v484q0 40 -11.5 51t-61.5 16v42h341v-42q-49 -5 -60.5 -16t-11.5 -51zM266 742q-33 0 -75 30t-61 30q-33 0 -65 -56l-35 20q27 70 53 103t63 33q33 0 74.5 -30.5t61.5 -30.5q33 0 64 56l36 -19
q-28 -71 -53 -103.5t-63 -32.5z"/>
            <glyph glyph-name="itilde" unicode="&#x129;" horiz-adv-x="334"
                   d="M226 603q-31 0 -69.5 29.5t-56.5 29.5q-19 0 -32.5 -13.5t-29.5 -41.5l-35 20q26 71 50 102.5t61 31.5q32 0 70 -29.5t56 -29.5q19 0 32 13t30 41l35 -19q-26 -71 -50 -102.5t-61 -31.5zM262 549v-471q0 -23 11.5 -30t44.5 -9v-39h-296v39q33 2 44.5 9t11.5 30v351
l-55 34v28l208 58h31z"/>
            <glyph glyph-name="Imacron" unicode="&#x12a;" horiz-adv-x="394"
                   d="M295 593v-484q0 -40 11.5 -51t60.5 -16v-42h-341v42q50 5 61.5 16t11.5 51v484q0 40 -11.5 51t-61.5 16v42h341v-42q-49 -5 -60.5 -16t-11.5 -51zM51 751v86h292v-86h-292z"/>
            <glyph glyph-name="imacron" unicode="&#x12b;" horiz-adv-x="334"
                   d="M262 549v-471q0 -23 11.5 -30t44.5 -9v-39h-296v39q33 2 44.5 9t11.5 30v351l-55 34v28l208 58h31zM34 626v85h277v-85h-277z"/>
            <glyph glyph-name="Ibreve" unicode="&#x12c;" horiz-adv-x="394"
                   d="M295 593v-484q0 -40 11.5 -51t60.5 -16v-42h-341v42q50 5 61.5 16t11.5 51v484q0 40 -11.5 51t-61.5 16v42h341v-42q-49 -5 -60.5 -16t-11.5 -51zM197 740q-70 0 -108 41t-38 115h45q12 -65 101 -65t100 65h46q0 -74 -38.5 -115t-107.5 -41z"/>
            <glyph glyph-name="ibreve" unicode="&#x12d;" horiz-adv-x="334"
                   d="M262 549v-471q0 -23 11.5 -30t44.5 -9v-39h-296v39q33 2 44.5 9t11.5 30v351l-55 34v28l208 58h31zM174 598q-69 0 -106 43.5t-37 124.5h45q9 -75 98 -75q87 0 96 75h46q0 -80 -37 -124t-105 -44z"/>
            <glyph glyph-name="Iogonek" unicode="&#x12e;" horiz-adv-x="394"
                   d="M295 593v-484q0 -40 11.5 -51t60.5 -16v-42h-122q-59 -39 -59 -95q0 -22 12 -36t34 -14q32 0 63 24l16 -20q-58 -74 -135 -74q-40 0 -67 22.5t-27 60.5q0 79 106 132h-162v42q50 5 61.5 16t11.5 51v484q0 40 -11.5 51t-61.5 16v42h341v-42q-49 -5 -60.5 -16t-11.5 -51z
"/>
            <glyph glyph-name="iogonek" unicode="&#x12f;" horiz-adv-x="334"
                   d="M262 549v-471q0 -23 11.5 -30t44.5 -9v-39h-101q-59 -39 -59 -95q0 -22 12 -36t34 -14q32 0 63 24l16 -20q-58 -74 -135 -74q-40 0 -67 22.5t-27 60.5q0 79 106 132h-138v39q33 2 44.5 9t11.5 30v351l-55 34v28l208 58h31zM172 593q-45 0 -71.5 27t-26.5 66t26.5 65.5
t71.5 26.5q44 0 71 -26.5t27 -65.5t-27 -66t-71 -27z"/>
            <glyph glyph-name="Idotaccent" unicode="&#x130;" horiz-adv-x="394"
                   d="M295 593v-484q0 -40 11.5 -51t60.5 -16v-42h-341v42q50 5 61.5 16t11.5 51v484q0 40 -11.5 51t-61.5 16v42h341v-42q-49 -5 -60.5 -16t-11.5 -51zM197 741q-44 0 -71 27t-27 65q0 39 27 66t71 27t71 -27t27 -66q0 -38 -27 -65t-71 -27z"/>
            <glyph glyph-name="dotlessi" unicode="&#x131;" horiz-adv-x="334"
                   d="M262 549v-471q0 -23 11.5 -30t44.5 -9v-39h-296v39q33 2 44.5 9t11.5 30v351l-55 34v28l208 58h31z"/>
            <glyph glyph-name="IJ" unicode="&#x132;" horiz-adv-x="960"
                   d="M295 593v-484q0 -40 11.5 -51t60.5 -16v-42h-341v42q50 5 61.5 16t11.5 51v484q0 40 -11.5 51t-61.5 16v42h341v-42q-49 -5 -60.5 -16t-11.5 -51zM676 168v425q0 40 -11.5 51t-61.5 16v42h341v-42q-49 -5 -60.5 -16t-11.5 -51v-368q0 -235 -268 -235q-112 0 -171.5 38.5
t-59.5 111.5q0 60 50 89h126q-7 -42 -7 -77q0 -119 67 -119q40 0 53.5 33t13.5 102z"/>
            <glyph glyph-name="ij" unicode="&#x133;" horiz-adv-x="636"
                   d="M262 549v-471q0 -23 11.5 -30t44.5 -9v-39h-296v39q33 2 44.5 9t11.5 30v351l-55 34v28l208 58h31zM172 593q-45 0 -71.5 27t-26.5 66t26.5 65.5t71.5 26.5q44 0 71 -26.5t27 -65.5t-27 -66t-71 -27zM397 429l-56 34v28l209 58h31v-443q0 -80 -16.5 -125t-53.5 -82
q-39 -38 -76.5 -62t-95.5 -50l-16 20l41 64q22 35 27.5 77.5t5.5 114.5v366zM488 593q-44 0 -71 27t-27 66t27 65.5t71 26.5t71 -26.5t27 -65.5t-27 -66t-71 -27z"/>
            <glyph glyph-name="Jcircumflex" unicode="&#x134;" horiz-adv-x="583"
                   d="M298 168v425q0 40 -11.5 51t-61.5 16v42h341v-42q-49 -5 -60.5 -16t-11.5 -51v-368q0 -235 -268 -235q-112 0 -171.5 38.5t-59.5 111.5q0 60 50 89h126q-7 -42 -7 -77q0 -119 67 -119q40 0 53.5 33t13.5 102zM458 896l120 -153h-57l-125 70l-125 -70h-57l120 153h124z
"/>
            <glyph glyph-name="jcircumflex" unicode="&#x135;" horiz-adv-x="302"
                   d="M63 429l-56 34v28l209 58h31v-443q0 -80 -16.5 -125t-53.5 -82q-39 -38 -76.5 -62t-95.5 -50l-16 20l41 64q22 35 27.5 77.5t5.5 114.5v366zM205 766l105 -168h-52l-110 84l-109 -84h-53l106 168h113z"/>
            <glyph glyph-name="Kcommaaccent" unicode="&#x136;" horiz-adv-x="768"
                   d="M412 -156h-54q-48 12 -48 59q0 28 21.5 45t59.5 17q43 0 68 -25.5t25 -66.5q0 -53 -41.5 -85.5t-125.5 -32.5v36q45 0 69.5 15.5t25.5 37.5zM469 429l208 -321q23 -34 41 -48t50 -18v-42h-233q-46 39 -91 115l-140 226l234 244q28 28 28 47q0 25 -69 28v42h237v-42
q-31 -1 -48 -9t-37 -29zM295 593v-484q0 -40 11.5 -51t60.5 -16v-42h-341v42q50 5 61.5 16t11.5 51v484q0 40 -11.5 51t-61.5 16v42h341v-42q-49 -5 -60.5 -16t-11.5 -51z"/>
            <glyph glyph-name="kcommaaccent" unicode="&#x137;" horiz-adv-x="638"
                   d="M346 -156h-54q-48 12 -48 59q0 28 21.5 45t59.5 17q43 0 68 -25.5t25 -66.5q0 -53 -41.5 -85.5t-125.5 -32.5v36q45 0 69.5 15.5t25.5 37.5zM266 283l153 139q33 29 33 48q0 14 -12.5 20t-48.5 10v39h227v-39q-54 -8 -83 -37l-115 -108l218 -328v-27h-192zM74 78v601
l-55 28v30l209 46h31v-705q0 -23 11.5 -30t44.5 -9v-39h-297v39q33 2 44.5 9t11.5 30z"/>
            <glyph glyph-name="kgreenlandic" unicode="&#x138;" horiz-adv-x="641"
                   d="M269 283l154 139q32 29 32 48q0 14 -12.5 20t-47.5 10v39h227v-39q-54 -8 -84 -37l-114 -108l217 -328v-27h-191zM78 78v350l-55 36v27l209 58h30v-471q0 -23 11.5 -30t44.5 -9v-39h-296v39q33 2 44.5 9t11.5 30z"/>
            <glyph glyph-name="Lacute" unicode="&#x139;" horiz-adv-x="644"
                   d="M222 892h180v-9l-173 -140h-56zM295 593v-479q0 -39 17 -53t60 -14h28q50 0 87 37.5t105 152.5h43l-38 -237h-571v42q50 5 61.5 16t11.5 51v484q0 40 -11.5 51t-61.5 16v42h341v-42q-49 -5 -60.5 -16t-11.5 -51z"/>
            <glyph glyph-name="lacute" unicode="&#x13a;" horiz-adv-x="330"
                   d="M161 951h180v-9l-173 -140h-56zM259 783v-705q0 -23 11.5 -30t44.5 -9v-39h-297v39q33 2 44.5 9t11.5 30v601l-55 28v30l209 46h31z"/>
            <glyph glyph-name="Lcommaaccent" unicode="&#x13b;" horiz-adv-x="644"
                   d="M346 -156h-54q-48 12 -48 59q0 28 21.5 45t59.5 17q43 0 68 -25.5t25 -66.5q0 -53 -41.5 -85.5t-125.5 -32.5v36q45 0 69.5 15.5t25.5 37.5zM295 593v-479q0 -39 17 -53t60 -14h28q50 0 87 37.5t105 152.5h43l-38 -237h-571v42q50 5 61.5 16t11.5 51v484q0 40 -11.5 51
t-61.5 16v42h341v-42q-49 -5 -60.5 -16t-11.5 -51z"/>
            <glyph glyph-name="lcommaaccent" unicode="&#x13c;" horiz-adv-x="330"
                   d="M182 -156h-54q-48 12 -48 59q0 28 21.5 45t59.5 17q43 0 68 -25.5t25 -66.5q0 -53 -41.5 -85.5t-125.5 -32.5v36q45 0 69.5 15.5t25.5 37.5zM259 783v-705q0 -23 11.5 -30t44.5 -9v-39h-297v39q33 2 44.5 9t11.5 30v601l-55 28v30l209 46h31z"/>
            <glyph glyph-name="Lcaron" unicode="&#x13d;" horiz-adv-x="644"
                   d="M582 691l-116 -194h-41l13 205h144v-11zM295 593v-479q0 -39 17 -53t60 -14h28q50 0 87 37.5t105 152.5h43l-38 -237h-571v42q50 5 61.5 16t11.5 51v484q0 40 -11.5 51t-61.5 16v42h341v-42q-49 -5 -60.5 -16t-11.5 -51z"/>
            <glyph glyph-name="lcaron" unicode="&#x13e;" horiz-adv-x="330"
                   d="M455 772l-116 -194h-41l13 205h144v-11zM259 783v-705q0 -23 11.5 -30t44.5 -9v-39h-297v39q33 2 44.5 9t11.5 30v601l-55 28v30l209 46h31z"/>
            <glyph glyph-name="Ldot" unicode="&#x13f;" horiz-adv-x="644"
                   d="M295 593v-479q0 -39 17 -53t60 -14h28q50 0 87 37.5t105 152.5h43l-38 -237h-571v42q50 5 61.5 16t11.5 51v484q0 40 -11.5 51t-61.5 16v42h341v-42q-49 -5 -60.5 -16t-11.5 -51zM434 405q0 43 28.5 71t69.5 28q42 0 70 -28t28 -71t-28 -70t-70 -27q-41 0 -69.5 27
t-28.5 70z"/>
            <glyph glyph-name="ldot" unicode="&#x140;" horiz-adv-x="455"
                   d="M259 783v-705q0 -23 11.5 -30t44.5 -9v-39h-297v39q33 2 44.5 9t11.5 30v601l-55 28v30l209 46h31zM293 386q0 42 28 70t69 28t68.5 -28t27.5 -70t-27.5 -69t-68.5 -27t-69 27t-28 69z"/>
            <glyph glyph-name="Lslash" unicode="&#x141;" horiz-adv-x="644"
                   d="M295 593v-196l139 48v-60l-139 -49v-222q0 -39 17 -53t60 -14h28q50 0 87 37.5t105 152.5h43l-38 -237h-571v42q50 5 61.5 16t11.5 51v168l-70 -24v60l70 25v255q0 40 -11.5 51t-61.5 16v42h341v-42q-49 -5 -60.5 -16t-11.5 -51z"/>
            <glyph glyph-name="lslash" unicode="&#x142;" horiz-adv-x="351"
                   d="M266 783v-282l79 38v-58l-79 -39v-364q0 -23 11.5 -30t44.5 -9v-39h-297v39q33 2 44.5 9t11.5 30v292l-74 -35v58l74 36v250l-55 28v30l209 46h31z"/>
            <glyph glyph-name="Nacute" unicode="&#x143;" horiz-adv-x="754"
                   d="M383 892h180v-9l-173 -140h-56zM597 306v286q0 38 -19.5 50.5t-81.5 17.5v42h240v-42q-49 -5 -60.5 -16.5t-11.5 -51.5v-593h-71l-427 528v-417q0 -38 19.5 -50.5t81.5 -17.5v-42h-240v42q49 5 60.5 16.5t11.5 51.5v486q-21 35 -35 49t-38 15v42h252z"/>
            <glyph glyph-name="nacute" unicode="&#x144;" horiz-adv-x="664"
                   d="M343 765h179v-9l-177 -155h-52zM415 78v292q0 35 -15 52.5t-52 17.5q-42 0 -86 -22v-340q0 -23 11 -30t43 -9v-39h-294v39q33 2 44.5 9t11.5 30v351l-55 34v28l209 58h34l-4 -100q79 100 186 100q74 0 113 -41t39 -123v-307q0 -23 11.5 -30t44.5 -9v-39h-294v39
q32 2 42.5 9t10.5 30z"/>
            <glyph glyph-name="Ncommaaccent" unicode="&#x145;" horiz-adv-x="754"
                   d="M406 -156h-54q-48 12 -48 59q0 28 21.5 45t59.5 17q43 0 68 -25.5t25 -66.5q0 -53 -41.5 -85.5t-125.5 -32.5v36q45 0 69.5 15.5t25.5 37.5zM597 306v286q0 38 -19.5 50.5t-81.5 17.5v42h240v-42q-49 -5 -60.5 -16.5t-11.5 -51.5v-593h-71l-427 528v-417
q0 -38 19.5 -50.5t81.5 -17.5v-42h-240v42q49 5 60.5 16.5t11.5 51.5v486q-21 35 -35 49t-38 15v42h252z"/>
            <glyph glyph-name="ncommaaccent" unicode="&#x146;" horiz-adv-x="664"
                   d="M365 -156h-54q-48 12 -48 59q0 28 21.5 45t59.5 17q43 0 68 -25.5t25 -66.5q0 -53 -41.5 -85.5t-125.5 -32.5v36q45 0 69.5 15.5t25.5 37.5zM415 78v292q0 35 -15 52.5t-52 17.5q-42 0 -86 -22v-340q0 -23 11 -30t43 -9v-39h-294v39q33 2 44.5 9t11.5 30v351l-55 34v28
l209 58h34l-4 -100q79 100 186 100q74 0 113 -41t39 -123v-307q0 -23 11.5 -30t44.5 -9v-39h-294v39q32 2 42.5 9t10.5 30z"/>
            <glyph glyph-name="Ncaron" unicode="&#x147;" horiz-adv-x="754"
                   d="M572 897l-120 -153h-124l-120 153h57l125 -70l125 70h57zM597 306v286q0 38 -19.5 50.5t-81.5 17.5v42h240v-42q-49 -5 -60.5 -16.5t-11.5 -51.5v-593h-71l-427 528v-417q0 -38 19.5 -50.5t81.5 -17.5v-42h-240v42q49 5 60.5 16.5t11.5 51.5v486q-21 35 -35 49t-38 15v42
h252z"/>
            <glyph glyph-name="ncaron" unicode="&#x148;" horiz-adv-x="664"
                   d="M527 770l-116 -170h-124l-116 170h58l120 -85l120 85h58zM415 78v292q0 35 -15 52.5t-52 17.5q-42 0 -86 -22v-340q0 -23 11 -30t43 -9v-39h-294v39q33 2 44.5 9t11.5 30v351l-55 34v28l209 58h34l-4 -100q79 100 186 100q74 0 113 -41t39 -123v-307q0 -23 11.5 -30
t44.5 -9v-39h-294v39q32 2 42.5 9t10.5 30z"/>
            <glyph glyph-name="Eng" unicode="&#x14a;" horiz-adv-x="754"
                   d="M526 83l-360 444v-417q0 -38 19.5 -50.5t81.5 -17.5v-42h-240v42q49 5 60.5 16.5t11.5 51.5v486q-21 35 -35 49t-38 15v42h253l318 -396v286q0 38 -19.5 50.5t-81.5 17.5v42h240v-42q-49 -5 -60.5 -16.5t-11.5 -51.5v-486q0 -79 -14 -123t-48 -81q-38 -41 -72 -63.5
t-89 -47.5l-17 20l43 57q34 45 46.5 95.5t12.5 119.5z"/>
            <glyph glyph-name="eng" unicode="&#x14b;" horiz-adv-x="654"
                   d="M415 63v307q0 35 -15 52.5t-52 17.5q-42 0 -86 -22v-340q0 -23 11 -30t43 -9v-39h-294v39q33 2 44.5 9t11.5 30v351l-55 34v28l209 58h34l-4 -100q79 100 186 100q74 0 113 -41t39 -123v-279q0 -80 -16.5 -125t-53.5 -82q-39 -38 -76.5 -62t-95.5 -50l-17 20l41 64
q22 35 27.5 77.5t5.5 114.5z"/>
            <glyph glyph-name="Omacron" unicode="&#x14c;" horiz-adv-x="747"
                   d="M231 751v86h292v-86h-292zM378 38q48 0 79.5 46t43.5 110.5t12 144.5q0 145 -35.5 235t-109.5 90q-48 0 -79.5 -46t-43.5 -110.5t-12 -144.5q0 -145 35.5 -235t109.5 -90zM364 -10q-160 0 -249 100t-89 247q0 170 99.5 272.5t256.5 102.5q160 0 249 -100t89 -247
q0 -170 -99.5 -272.5t-256.5 -102.5z"/>
            <glyph glyph-name="omacron" unicode="&#x14d;" horiz-adv-x="601"
                   d="M161 625v86h286v-86h-286zM305 32q43 0 61 51.5t18 152.5q0 271 -88 271q-43 0 -61 -51.5t-18 -152.5q0 -271 88 -271zM300 -10q-125 0 -202 73.5t-77 195.5q0 126 78.5 208t201.5 82q125 0 202 -73.5t77 -195.5q0 -126 -78.5 -208t-201.5 -82z"/>
            <glyph glyph-name="Obreve" unicode="&#x14e;" horiz-adv-x="747"
                   d="M376 740q-70 0 -109 41t-39 115h46q12 -65 102 -65q91 0 102 65h47q0 -74 -39 -115t-110 -41zM378 38q48 0 79.5 46t43.5 110.5t12 144.5q0 145 -35.5 235t-109.5 90q-48 0 -79.5 -46t-43.5 -110.5t-12 -144.5q0 -145 35.5 -235t109.5 -90zM364 -10q-160 0 -249 100
t-89 247q0 170 99.5 272.5t256.5 102.5q160 0 249 -100t89 -247q0 -170 -99.5 -272.5t-256.5 -102.5z"/>
            <glyph glyph-name="obreve" unicode="&#x14f;" horiz-adv-x="601"
                   d="M305 32q43 0 61 51.5t18 152.5q0 271 -88 271q-43 0 -61 -51.5t-18 -152.5q0 -271 88 -271zM300 -10q-125 0 -202 73.5t-77 195.5q0 126 78.5 208t201.5 82q125 0 202 -73.5t77 -195.5q0 -126 -78.5 -208t-201.5 -82zM304 598q-70 0 -107.5 43.5t-37.5 124.5h46
q9 -75 99 -75q89 0 98 75h46q0 -81 -37 -124.5t-107 -43.5z"/>
            <glyph glyph-name="Ohungarumlaut" unicode="&#x150;" horiz-adv-x="747"
                   d="M378 38q48 0 79.5 46t43.5 110.5t12 144.5q0 145 -35.5 235t-109.5 90q-48 0 -79.5 -46t-43.5 -110.5t-12 -144.5q0 -145 35.5 -235t109.5 -90zM364 -10q-160 0 -249 100t-89 247q0 170 99.5 272.5t256.5 102.5q160 0 249 -100t89 -247q0 -170 -99.5 -272.5
t-256.5 -102.5zM309 892h150v-9l-147 -140h-53zM489 892h150v-9l-147 -140h-54z"/>
            <glyph glyph-name="ohungarumlaut" unicode="&#x151;" horiz-adv-x="601"
                   d="M225 765h150v-9l-147 -155h-53zM405 765h150v-9l-148 -155h-53zM305 32q43 0 61 51.5t18 152.5q0 271 -88 271q-43 0 -61 -51.5t-18 -152.5q0 -271 88 -271zM300 -10q-125 0 -202 73.5t-77 195.5q0 126 78.5 208t201.5 82q125 0 202 -73.5t77 -195.5q0 -126 -78.5 -208
t-201.5 -82z"/>
            <glyph glyph-name="OE" unicode="&#x152;" horiz-adv-x="1049"
                   d="M493 655h-40q-103 0 -163 -79.5t-60 -213.5q0 -146 64 -230.5t179 -84.5h20v608zM1001 0h-562q-202 0 -307.5 95t-105.5 248q0 168 111.5 263.5t301.5 95.5h561v-193h-38q-41 88 -72 117t-97 29h-104v-265h97q34 0 47.5 19.5t19.5 72.5h44v-240h-44q-6 53 -19.5 73
t-47.5 20h-97v-221q0 -39 19 -53t62 -14h35q34 0 55.5 6.5t44 31t37.5 49t47 84.5h45z"/>
            <glyph glyph-name="oe" unicode="&#x153;" horiz-adv-x="894"
                   d="M301 549q109 0 186 -75q75 75 172 75q104 0 160 -60.5t56 -158.5v-25h-320q-1 -88 42.5 -140.5t112.5 -52.5q95 0 149 73l19 -12q-21 -85 -79.5 -134t-150.5 -49q-99 0 -173 72q-79 -72 -175 -72q-125 0 -202 73.5t-77 195.5q0 126 78.5 208t201.5 82zM305 32
q80 0 80 204q0 271 -89 271q-79 0 -79 -204q0 -271 88 -271zM644 507q-40 0 -62 -41.5t-26 -114.5h160q0 156 -72 156z"/>
            <glyph glyph-name="Racute" unicode="&#x154;" horiz-adv-x="759"
                   d="M324 653h-29v-310h30q68 0 105.5 41.5t37.5 117.5q0 71 -37.5 111t-106.5 40zM295 293v-184q0 -40 11.5 -51t60.5 -16v-42h-341v42q50 5 61.5 16t11.5 51v484q0 40 -11.5 51t-61.5 16v42h367q123 0 196.5 -53.5t73.5 -145.5q0 -70 -43 -115t-107 -66l139 -199
q32 -47 52.5 -63.5t54.5 -17.5v-42h-229q-39 30 -84 106l-114 187h-37zM356 892h180v-9l-173 -140h-56z"/>
            <glyph glyph-name="racute" unicode="&#x155;" horiz-adv-x="457"
                   d="M255 765h179v-9l-177 -155h-52zM262 357v-264q0 -30 16 -39t64 -15v-39h-320v39q33 2 44.5 9t11.5 30v351l-55 34v28l209 58h34l-4 -154q31 87 61 120.5t78 33.5q33 0 50 -17v-139h-24q-58 0 -96 -6.5t-69 -29.5z"/>
            <glyph glyph-name="Rcommaaccent" unicode="&#x156;" horiz-adv-x="759"
                   d="M401 -156h-54q-48 12 -48 59q0 28 21.5 45t59.5 17q43 0 68 -25.5t25 -66.5q0 -53 -41.5 -85.5t-125.5 -32.5v36q45 0 69.5 15.5t25.5 37.5zM324 653h-29v-310h30q68 0 105.5 41.5t37.5 117.5q0 71 -37.5 111t-106.5 40zM295 293v-184q0 -40 11.5 -51t60.5 -16v-42h-341
v42q50 5 61.5 16t11.5 51v484q0 40 -11.5 51t-61.5 16v42h367q123 0 196.5 -53.5t73.5 -145.5q0 -70 -43 -115t-107 -66l139 -199q32 -47 52.5 -63.5t54.5 -17.5v-42h-229q-39 30 -84 106l-114 187h-37z"/>
            <glyph glyph-name="rcommaaccent" unicode="&#x157;" horiz-adv-x="457"
                   d="M194 -156h-54q-48 12 -48 59q0 28 21.5 45t59.5 17q43 0 68 -25.5t25 -66.5q0 -53 -41.5 -85.5t-125.5 -32.5v36q45 0 69.5 15.5t25.5 37.5zM262 357v-264q0 -30 16 -39t64 -15v-39h-320v39q33 2 44.5 9t11.5 30v351l-55 34v28l209 58h34l-4 -154q31 87 61 120.5t78 33.5
q33 0 50 -17v-139h-24q-58 0 -96 -6.5t-69 -29.5z"/>
            <glyph glyph-name="Rcaron" unicode="&#x158;" horiz-adv-x="759"
                   d="M544 897l-120 -153h-124l-120 153h57l125 -70l125 70h57zM324 653h-29v-310h30q68 0 105.5 41.5t37.5 117.5q0 71 -37.5 111t-106.5 40zM295 293v-184q0 -40 11.5 -51t60.5 -16v-42h-341v42q50 5 61.5 16t11.5 51v484q0 40 -11.5 51t-61.5 16v42h367q123 0 196.5 -53.5
t73.5 -145.5q0 -70 -43 -115t-107 -66l139 -199q32 -47 52.5 -63.5t54.5 -17.5v-42h-229q-39 30 -84 106l-114 187h-37z"/>
            <glyph glyph-name="rcaron" unicode="&#x159;" horiz-adv-x="457"
                   d="M439 770l-116 -170h-124l-116 170h58l120 -85l120 85h58zM262 357v-264q0 -30 16 -39t64 -15v-39h-320v39q33 2 44.5 9t11.5 30v351l-55 34v28l209 58h34l-4 -154q31 87 61 120.5t78 33.5q33 0 50 -17v-139h-24q-58 0 -96 -6.5t-69 -29.5z"/>
            <glyph glyph-name="Sacute" unicode="&#x15a;" horiz-adv-x="579"
                   d="M275 -10q-72 0 -135 19t-100 48l-11 174h53q20 -87 70 -140t123 -53q54 0 85.5 25t31.5 71q0 47 -33.5 74t-119.5 53q-103 30 -154.5 83.5t-51.5 141.5q0 103 71 164.5t183 61.5q134 0 216 -60v-152h-45q-38 165 -171 165q-47 0 -75 -25t-28 -68q0 -47 31.5 -73
t111.5 -50q111 -34 166 -85t55 -149q0 -110 -76.5 -167.5t-196.5 -57.5zM300 892h180v-9l-173 -140h-56z"/>
            <glyph glyph-name="sacute" unicode="&#x15b;" horiz-adv-x="477"
                   d="M241 765h179v-9l-177 -155h-52zM227 -10q-119 0 -190 51l-6 135h46q16 -64 55 -104t95 -40q37 0 61 18t24 50q0 35 -24.5 53t-82.5 37q-90 28 -132 69.5t-42 114.5q0 82 57 128.5t149 46.5q101 0 172 -46v-120h-43q-10 53 -43 88.5t-83 35.5q-32 0 -52 -17t-20 -45
q0 -30 21.5 -46.5t74.5 -35.5q98 -33 141.5 -73t43.5 -117q0 -87 -59.5 -135t-162.5 -48z"/>
            <glyph glyph-name="Scircumflex" unicode="&#x15c;" horiz-adv-x="579"
                   d="M275 -10q-72 0 -135 19t-100 48l-11 174h53q20 -87 70 -140t123 -53q54 0 85.5 25t31.5 71q0 47 -33.5 74t-119.5 53q-103 30 -154.5 83.5t-51.5 141.5q0 103 71 164.5t183 61.5q134 0 216 -60v-152h-45q-38 165 -171 165q-47 0 -75 -25t-28 -68q0 -47 31.5 -73
t111.5 -50q111 -34 166 -85t55 -149q0 -110 -76.5 -167.5t-196.5 -57.5zM360 896l120 -153h-57l-125 70l-125 -70h-57l120 153h124z"/>
            <glyph glyph-name="scircumflex" unicode="&#x15d;" horiz-adv-x="477"
                   d="M309 766l116 -170h-58l-120 85l-120 -85h-58l116 170h124zM227 -10q-119 0 -190 51l-6 135h46q16 -64 55 -104t95 -40q37 0 61 18t24 50q0 35 -24.5 53t-82.5 37q-90 28 -132 69.5t-42 114.5q0 82 57 128.5t149 46.5q101 0 172 -46v-120h-43q-10 53 -43 88.5t-83 35.5
q-32 0 -52 -17t-20 -45q0 -30 21.5 -46.5t74.5 -35.5q98 -33 141.5 -73t43.5 -117q0 -87 -59.5 -135t-162.5 -48z"/>
            <glyph glyph-name="Scedilla" unicode="&#x15e;" horiz-adv-x="579"
                   d="M177 -231l-8 35q51 0 78 13.5t27 34.5q0 13 -10.5 21t-26 10.5t-42.5 3.5l42 105q-128 9 -197 65l-11 174h53q20 -87 70 -140t123 -53q54 0 85.5 25t31.5 71q0 47 -33.5 74t-119.5 53q-103 30 -154.5 83.5t-51.5 141.5q0 103 71 164.5t183 61.5q134 0 216 -60v-152h-45
q-38 165 -171 165q-47 0 -75 -25t-28 -68q0 -47 31.5 -73t111.5 -50q111 -34 166 -85t55 -149q0 -110 -76.5 -167.5t-196.5 -57.5h-1l-12 -30q48 0 76.5 -22t28.5 -60q0 -53 -54.5 -81t-135.5 -28z"/>
            <glyph glyph-name="scedilla" unicode="&#x15f;" horiz-adv-x="477"
                   d="M126 -231l-8 35q51 0 78 13.5t27 34.5q0 13 -10.5 21t-26 10.5t-42.5 3.5l42 105q-95 9 -149 49l-6 135h46q16 -64 55 -104t95 -40q37 0 61 18t24 50q0 35 -24.5 53t-82.5 37q-90 28 -132 69.5t-42 114.5q0 82 57 128.5t149 46.5q101 0 172 -46v-120h-43q-10 53 -43 88.5
t-83 35.5q-32 0 -52 -17t-20 -45q0 -30 21.5 -46.5t74.5 -35.5q98 -33 141.5 -73t43.5 -117q0 -87 -59.5 -135t-162.5 -48h-4l-12 -30q48 0 76.5 -22t28.5 -60q0 -53 -54.5 -81t-135.5 -28z"/>
            <glyph glyph-name="Scaron" unicode="&#x160;" horiz-adv-x="579"
                   d="M275 -10q-72 0 -135 19t-100 48l-11 174h53q20 -87 70 -140t123 -53q54 0 85.5 25t31.5 71q0 47 -33.5 74t-119.5 53q-103 30 -154.5 83.5t-51.5 141.5q0 103 71 164.5t183 61.5q134 0 216 -60v-152h-45q-38 165 -171 165q-47 0 -75 -25t-28 -68q0 -47 31.5 -73
t111.5 -50q111 -34 166 -85t55 -149q0 -110 -76.5 -167.5t-196.5 -57.5zM479 897l-120 -153h-124l-120 153h57l125 -70l125 70h57z"/>
            <glyph glyph-name="scaron" unicode="&#x161;" horiz-adv-x="477"
                   d="M425 770l-116 -170h-124l-116 170h58l120 -85l120 85h58zM227 -10q-119 0 -190 51l-6 135h46q16 -64 55 -104t95 -40q37 0 61 18t24 50q0 35 -24.5 53t-82.5 37q-90 28 -132 69.5t-42 114.5q0 82 57 128.5t149 46.5q101 0 172 -46v-120h-43q-10 53 -43 88.5t-83 35.5
q-32 0 -52 -17t-20 -45q0 -30 21.5 -46.5t74.5 -35.5q98 -33 141.5 -73t43.5 -117q0 -87 -59.5 -135t-162.5 -48z"/>
            <glyph glyph-name="Tcedilla" unicode="&#x162;" horiz-adv-x="708"
                   d="M369 -156h-54q-48 12 -48 59q0 28 21.5 45t59.5 17q43 0 68 -25.5t25 -66.5q0 -53 -41.5 -85.5t-125.5 -32.5v36q45 0 69.5 15.5t25.5 37.5zM30 702h648l15 -251h-41q-60 129 -90 169.5t-77 40.5h-33v-556q0 -37 15 -47t67 -16v-42h-360v42q52 6 67 16t15 47v556h-33
q-47 0 -77 -40.5t-90 -169.5h-41z"/>
            <glyph glyph-name="tcedilla" unicode="&#x163;" horiz-adv-x="391"
                   d="M218 -156h-54q-48 12 -48 59q0 28 21.5 45t59.5 17q43 0 68 -25.5t25 -66.5q0 -53 -41.5 -85.5t-125.5 -32.5v36q45 0 69.5 15.5t25.5 37.5zM247 675v-136h117v-54h-117v-331q0 -69 57 -69q34 0 72 25l15 -22q-60 -98 -174 -98q-73 0 -114.5 39.5t-41.5 124.5v331h-57v33
q119 45 204 157h39z"/>
            <glyph glyph-name="Tcaron" unicode="&#x164;" horiz-adv-x="708"
                   d="M535 897l-120 -153h-124l-120 153h57l125 -70l125 70h57zM30 702h648l15 -251h-41q-60 129 -90 169.5t-77 40.5h-33v-556q0 -37 15 -47t67 -16v-42h-360v42q52 6 67 16t15 47v556h-33q-47 0 -77 -40.5t-90 -169.5h-41z"/>
            <glyph glyph-name="tcaron" unicode="&#x165;" horiz-adv-x="391"
                   d="M441 772l-116 -194h-41l13 205h144v-11zM247 675v-136h117v-54h-117v-331q0 -69 57 -69q34 0 72 25l15 -22q-60 -98 -174 -98q-73 0 -114.5 39.5t-41.5 124.5v331h-57v33q119 45 204 157h39z"/>
            <glyph glyph-name="Tbar" unicode="&#x166;" horiz-adv-x="708"
                   d="M30 702h648l15 -251h-41q-60 129 -90 169.5t-77 40.5h-33v-274h105v-62h-105v-220q0 -37 15 -47t67 -16v-42h-360v42q52 6 67 16t15 47v220h-105v62h105v274h-33q-47 0 -77 -40.5t-90 -169.5h-41z"/>
            <glyph glyph-name="tbar" unicode="&#x167;" horiz-adv-x="402"
                   d="M252 675v-136h117v-54h-117v-104h118v-54h-118v-173q0 -69 57 -69q35 0 72 25l15 -22q-60 -98 -174 -98q-73 0 -114.5 39.5t-41.5 124.5v173h-57v54h57v104h-57v33q119 45 204 157h39z"/>
            <glyph glyph-name="Utilde" unicode="&#x168;" horiz-adv-x="753"
                   d="M485 743q-34 0 -76 30t-62 30q-34 0 -66 -56l-36 20q28 70 54 102.5t64 32.5q34 0 76 -30t62 -30q33 0 66 55l36 -19q-28 -71 -54 -103t-64 -32zM282 593v-332q0 -187 153 -187q75 0 120 46t45 146v326q0 39 -16.5 51.5t-76.5 16.5v42h232v-42q-49 -5 -60.5 -16.5
t-11.5 -51.5v-345q0 -126 -78 -191.5t-201 -65.5q-146 0 -224 65t-78 192v346q0 40 -11.5 51t-60.5 16v42h341v-42q-50 -5 -61.5 -16t-11.5 -51z"/>
            <glyph glyph-name="utilde" unicode="&#x169;" horiz-adv-x="647"
                   d="M576 421v-306q0 -28 6 -38.5t28 -11.5l24 -1v-39l-211 -35h-35l3 97q-76 -97 -178 -97q-69 0 -110 42.5t-41 125.5v245q0 48 -39 58l-15 5v36l211 46h33l-6 -127v-245q0 -80 68 -80q32 0 77 20v287q0 48 -38 58l-15 5v36l210 46h33zM388 602q-34 0 -75.5 30t-60.5 30
q-33 0 -65 -56l-36 20q27 70 53 102.5t64 32.5q34 0 75 -30t61 -30q32 0 65 55l36 -19q-28 -71 -53.5 -103t-63.5 -32z"/>
            <glyph glyph-name="Umacron" unicode="&#x16a;" horiz-adv-x="753"
                   d="M270 751v86h292v-86h-292zM282 593v-332q0 -187 153 -187q75 0 120 46t45 146v326q0 39 -16.5 51.5t-76.5 16.5v42h232v-42q-49 -5 -60.5 -16.5t-11.5 -51.5v-345q0 -126 -78 -191.5t-201 -65.5q-146 0 -224 65t-78 192v346q0 40 -11.5 51t-60.5 16v42h341v-42
q-50 -5 -61.5 -16t-11.5 -51z"/>
            <glyph glyph-name="umacron" unicode="&#x16b;" horiz-adv-x="647"
                   d="M576 421v-306q0 -28 6 -38.5t28 -11.5l24 -1v-39l-211 -35h-35l3 97q-76 -97 -178 -97q-69 0 -110 42.5t-41 125.5v245q0 48 -39 58l-15 5v36l211 46h33l-6 -127v-245q0 -80 68 -80q32 0 77 20v287q0 48 -38 58l-15 5v36l210 46h33zM180 625v86h286v-86h-286z"/>
            <glyph glyph-name="Ubreve" unicode="&#x16c;" horiz-adv-x="753"
                   d="M416 740q-70 0 -109 41t-39 115h46q12 -65 102 -65q91 0 102 65h47q0 -74 -39 -115t-110 -41zM282 593v-332q0 -187 153 -187q75 0 120 46t45 146v326q0 39 -16.5 51.5t-76.5 16.5v42h232v-42q-49 -5 -60.5 -16.5t-11.5 -51.5v-345q0 -126 -78 -191.5t-201 -65.5
q-146 0 -224 65t-78 192v346q0 40 -11.5 51t-60.5 16v42h341v-42q-50 -5 -61.5 -16t-11.5 -51z"/>
            <glyph glyph-name="ubreve" unicode="&#x16d;" horiz-adv-x="647"
                   d="M576 421v-306q0 -28 6 -38.5t28 -11.5l24 -1v-39l-211 -35h-35l3 97q-76 -97 -178 -97q-69 0 -110 42.5t-41 125.5v245q0 48 -39 58l-15 5v36l211 46h33l-6 -127v-245q0 -80 68 -80q32 0 77 20v287q0 48 -38 58l-15 5v36l210 46h33zM323 598q-70 0 -107.5 43.5
t-37.5 124.5h46q9 -75 99 -75q89 0 98 75h46q0 -81 -37 -124.5t-107 -43.5z"/>
            <glyph glyph-name="Uring" unicode="&#x16e;" horiz-adv-x="753"
                   d="M282 593v-332q0 -187 153 -187q75 0 120 46t45 146v326q0 39 -16.5 51.5t-76.5 16.5v42h232v-42q-49 -5 -60.5 -16.5t-11.5 -51.5v-345q0 -126 -78 -191.5t-201 -65.5q-146 0 -224 65t-78 192v346q0 40 -11.5 51t-60.5 16v42h341v-42q-50 -5 -61.5 -16t-11.5 -51z
M366 827q0 -22 13.5 -36t36.5 -14t36.5 14t13.5 36q0 23 -13.5 37.5t-36.5 14.5t-36.5 -14.5t-13.5 -37.5zM312 827q0 43 29.5 72.5t74.5 29.5t74 -29.5t29 -72.5q0 -42 -29 -71t-74 -29t-74.5 29t-29.5 71z"/>
            <glyph glyph-name="uring" unicode="&#x16f;" horiz-adv-x="647"
                   d="M273 678q0 -22 13.5 -36.5t36.5 -14.5t36.5 14.5t13.5 36.5q0 23 -13.5 37.5t-36.5 14.5t-36.5 -14.5t-13.5 -37.5zM219 678q0 43 29.5 72.5t74.5 29.5t74 -29.5t29 -72.5q0 -42 -29 -71.5t-74 -29.5t-74.5 29.5t-29.5 71.5zM576 421v-306q0 -28 6 -38.5t28 -11.5l24 -1
v-39l-211 -35h-35l3 97q-76 -97 -178 -97q-69 0 -110 42.5t-41 125.5v245q0 48 -39 58l-15 5v36l211 46h33l-6 -127v-245q0 -80 68 -80q32 0 77 20v287q0 48 -38 58l-15 5v36l210 46h33z"/>
            <glyph glyph-name="Uhungarumlaut" unicode="&#x170;" horiz-adv-x="753"
                   d="M282 593v-332q0 -187 153 -187q75 0 120 46t45 146v326q0 39 -16.5 51.5t-76.5 16.5v42h232v-42q-49 -5 -60.5 -16.5t-11.5 -51.5v-345q0 -126 -78 -191.5t-201 -65.5q-146 0 -224 65t-78 192v346q0 40 -11.5 51t-60.5 16v42h341v-42q-50 -5 -61.5 -16t-11.5 -51z
M348 892h150v-9l-147 -140h-53zM528 892h150v-9l-147 -140h-54z"/>
            <glyph glyph-name="uhungarumlaut" unicode="&#x171;" horiz-adv-x="647"
                   d="M576 421v-306q0 -28 6 -38.5t28 -11.5l24 -1v-39l-211 -35h-35l3 97q-76 -97 -178 -97q-69 0 -110 42.5t-41 125.5v245q0 48 -39 58l-15 5v36l211 46h33l-6 -127v-245q0 -80 68 -80q32 0 77 20v287q0 48 -38 58l-15 5v36l210 46h33zM244 765h150v-9l-147 -155h-53z
M424 765h150v-9l-148 -155h-53z"/>
            <glyph glyph-name="Uogonek" unicode="&#x172;" horiz-adv-x="753"
                   d="M282 593v-332q0 -187 153 -187q75 0 120 46t45 146v326q0 39 -16.5 51.5t-76.5 16.5v42h232v-42q-49 -5 -60.5 -16.5t-11.5 -51.5v-345q0 -95 -45 -156t-123 -85q-69 -41 -69 -101q0 -22 12 -36t34 -14q32 0 63 24l16 -20q-58 -74 -135 -74q-40 0 -67 22.5t-27 60.5
q0 73 90 123q-4 0 -14 -0.5t-14 -0.5q-146 0 -224 65t-78 192v346q0 40 -11.5 51t-60.5 16v42h341v-42q-50 -5 -61.5 -16t-11.5 -51z"/>
            <glyph glyph-name="uogonek" unicode="&#x173;" horiz-adv-x="647"
                   d="M576 421v-306q0 -28 6 -38.5t28 -11.5l24 -1v-39q-141 -21 -188.5 -45t-47.5 -77q0 -21 12 -34.5t34 -13.5q32 0 63 24l16 -20q-58 -74 -134 -74q-41 0 -68 23t-27 64q0 71 94 118l3 97q-76 -97 -178 -97q-69 0 -110 42.5t-41 125.5v245q0 48 -39 58l-15 5v36l211 46h33
l-6 -127v-245q0 -80 68 -80q32 0 77 20v287q0 48 -38 58l-15 5v36l210 46h33z"/>
            <glyph glyph-name="Wcircumflex" unicode="&#x174;" horiz-adv-x="1008"
                   d="M651 -4l-134 391l-144 -391h-71l-239 627q-12 30 -58 37v42h328v-42q-54 -4 -54 -39q0 -14 14 -54l117 -318l80 218l-53 156q-10 31 -51 37v42h327v-42q-39 -1 -54.5 -11t-15.5 -32q0 -15 13 -61l97 -302l104 305q13 39 13 55q0 43 -69 46v42h202v-42q-48 -7 -58 -37
l-222 -627h-72zM605 896l120 -153h-57l-125 70l-125 -70h-57l120 153h124z"/>
            <glyph glyph-name="wcircumflex" unicode="&#x175;" horiz-adv-x="896"
                   d="M537 766l116 -170h-58l-120 85l-120 -85h-58l116 170h124zM679 214l89 223q7 17 7 31q0 15 -13 21.5t-44 10.5v39h173v-39q-26 -8 -35 -15.5t-16 -24.5l-197 -464h-60l-118 309l-140 -309h-59l-210 464q-8 17 -17 24.5t-34 15.5v39h300v-39q-47 -7 -47 -31q0 -11 8 -32
l95 -233l75 167l-34 89q-11 30 -46 40v39h296v-39q-35 -4 -48.5 -10.5t-13.5 -23.5q0 -11 6 -29z"/>
            <glyph glyph-name="Ycircumflex" unicode="&#x176;" horiz-adv-x="707"
                   d="M457 263v-158q0 -37 15 -47t68 -16v-42h-356v42q53 6 67.5 16t14.5 47v153l-203 365q-11 20 -22.5 27t-35.5 10v42h345v-42q-40 -1 -54 -9t-14 -27q0 -23 23 -64l128 -220l112 218q23 48 23 66t-16.5 26t-53.5 10v42h204v-42q-42 -6 -58 -37zM460 896l120 -153h-57
l-125 70l-125 -70h-57l120 153h124z"/>
            <glyph glyph-name="ycircumflex" unicode="&#x177;" horiz-adv-x="599"
                   d="M371 182l99 254q8 21 8 29q0 16 -13 23t-53 12v39h182v-39q-25 -8 -34.5 -15.5t-16.5 -24.5l-228 -547q-29 -70 -61.5 -102t-82.5 -32q-61 0 -84 42v71q52 -10 78 -10q42 0 66 13.5t37 44.5l16 35l-228 485q-8 17 -17 24.5t-34 15.5v39h320v-39q-40 -5 -53 -12t-13 -23
q0 -7 7 -28zM403 766l116 -170h-58l-120 85l-120 -85h-58l116 170h124z"/>
            <glyph glyph-name="Ydieresis" unicode="&#x178;" horiz-adv-x="707"
                   d="M457 263v-158q0 -37 15 -47t68 -16v-42h-356v42q53 6 67.5 16t14.5 47v153l-203 365q-11 20 -22.5 27t-35.5 10v42h345v-42q-40 -1 -54 -9t-14 -27q0 -23 23 -64l128 -220l112 218q23 48 23 66t-16.5 26t-53.5 10v42h204v-42q-42 -6 -58 -37zM211 823q0 34 25 58.5
t59 24.5q35 0 60 -24.5t25 -58.5t-25 -58.5t-60 -24.5t-59.5 24.5t-24.5 58.5zM417 823q0 34 25 58.5t58 24.5q36 0 61 -24.5t25 -58.5q0 -35 -25 -59t-61 -24q-33 0 -58 24.5t-25 58.5z"/>
            <glyph glyph-name="Zacute" unicode="&#x179;" horiz-adv-x="632"
                   d="M243 47h126q62 0 100 35t103 149h43l-36 -231h-563v35l351 620h-119q-23 0 -40 -2.5t-32.5 -14t-24 -19t-23 -34.5t-21.5 -42t-27 -58h-41l9 217h547v-35zM319 892h180v-9l-173 -140h-56z"/>
            <glyph glyph-name="zacute" unicode="&#x17a;" horiz-adv-x="537"
                   d="M285 765h179v-9l-177 -155h-52zM18 0v33l284 460h-92q-38 0 -67 -34.5t-66 -117.5h-39l14 230h37l20 -33h402v-33l-278 -459h102q48 0 78.5 33t71.5 120h37l-22 -199h-482z"/>
            <glyph glyph-name="Zdotaccent" unicode="&#x17b;" horiz-adv-x="632"
                   d="M325 741q-44 0 -71 27t-27 65q0 39 27 66t71 27t71 -27t27 -66q0 -38 -27 -65t-71 -27zM243 47h126q62 0 100 35t103 149h43l-36 -231h-563v35l351 620h-119q-23 0 -40 -2.5t-32.5 -14t-24 -19t-23 -34.5t-21.5 -42t-27 -58h-41l9 217h547v-35z"/>
            <glyph glyph-name="zdotaccent" unicode="&#x17c;" horiz-adv-x="537"
                   d="M18 0v33l284 460h-92q-38 0 -67 -34.5t-66 -117.5h-39l14 230h37l20 -33h402v-33l-278 -459h102q48 0 78.5 33t71.5 120h37l-22 -199h-482zM292 597q-44 0 -71 26.5t-27 65.5t27 66t71 27t71 -27t27 -66t-27 -65.5t-71 -26.5z"/>
            <glyph glyph-name="Zcaron" unicode="&#x17d;" horiz-adv-x="632"
                   d="M507 897l-120 -153h-124l-120 153h57l125 -70l125 70h57zM243 47h126q62 0 100 35t103 149h43l-36 -231h-563v35l351 620h-119q-23 0 -40 -2.5t-32.5 -14t-24 -19t-23 -34.5t-21.5 -42t-27 -58h-41l9 217h547v-35z"/>
            <glyph glyph-name="zcaron" unicode="&#x17e;" horiz-adv-x="537"
                   d="M470 770l-116 -170h-124l-116 170h58l120 -85l120 85h58zM18 0v33l284 460h-92q-38 0 -67 -34.5t-66 -117.5h-39l14 230h37l20 -33h402v-33l-278 -459h102q48 0 78.5 33t71.5 120h37l-22 -199h-482z"/>
            <glyph glyph-name="florin" unicode="&#x192;" horiz-adv-x="544"
                   d="M64 343l4 42h89l2 16q18 156 77.5 233.5t170.5 77.5q59 0 97 -21.5t38 -67.5q0 -49 -51 -66h-52q0 27 -1 44t-5 37.5t-13 30.5t-24 10q-36 0 -43 -59l-27 -235h114l-4 -42h-115l-23 -207q-18 -156 -77.5 -233t-170.5 -77q-59 0 -97 21.5t-38 67.5q0 49 52 65h52
q0 -26 1 -43t5 -37.5t13 -30.5t24 -10q36 0 42 59l48 425h-88z"/>
            <glyph glyph-name="Aringacute" unicode="&#x1fa;" horiz-adv-x="759"
                   d="M471 125l-36 92h-255l-34 -91q-8 -24 -8 -37q0 -24 20 -34.5t62 -12.5v-42h-215v42q46 7 58 37l208 542l-34 83h209l249 -625q7 -18 21 -26t38 -11v-42h-353v42q40 2 59 12t19 34q0 13 -8 37zM241 816q0 39 30.5 65t77.5 26t77.5 -26t30.5 -65t-30.5 -65t-77.5 -26
t-77.5 26t-30.5 65zM304 548l-104 -277h213zM355 1047h180v-9l-167 -111h-55zM294 816q0 -21 15 -34.5t40 -13.5t40.5 13.5t15.5 34.5t-15.5 34.5t-40.5 13.5t-40 -13.5t-15 -34.5z"/>
            <glyph glyph-name="aringacute" unicode="&#x1fb;" horiz-adv-x="554"
                   d="M167 658q0 39 30.5 65t77.5 26t77.5 -26t30.5 -65t-30.5 -65t-77.5 -26t-77.5 26t-30.5 65zM279 892h180v-9l-167 -111h-55zM219 658q0 -21 15.5 -34t40.5 -13t40.5 13t15.5 34t-15.5 34.5t-40.5 13.5t-40.5 -13.5t-15.5 -34.5zM263 89q19 0 44 14v185l-55 -21
q-29 -11 -43.5 -30t-14.5 -59q0 -89 69 -89zM489 375v-265q0 -45 27 -45q20 0 34 6l7 -27q-54 -54 -132 -54q-43 0 -73.5 22t-41.5 62q-56 -81 -151 -81q-64 0 -103.5 35.5t-39.5 98.5q0 60 35 93t97 55l159 56v102q0 77 -52 77q-54 0 -54 -79q0 -27 9 -70l-111 -15
q-49 17 -49 70q0 65 59.5 99t155.5 34q110 0 167 -40t57 -134z"/>
            <glyph glyph-name="AEacute" unicode="&#x1fc;" horiz-adv-x="1040"
                   d="M63 79l344 549q-22 27 -94 32v42h673l5 -193h-38q-42 88 -73.5 117t-96.5 29h-103v-265h97q33 0 46.5 19.5t20.5 72.5h43v-240h-43q-7 53 -20.5 73t-46.5 20h-97v-221q0 -39 19 -53t62 -14h35q63 0 93.5 31t89.5 140h45l-32 -218h-580v42q49 5 60.5 16t11.5 51v139h-245
l-76 -122q-15 -25 -15 -41q0 -40 89 -43v-42h-232v42q39 6 58 37zM484 639l-211 -337h211v337zM634 892h180v-9l-173 -140h-56z"/>
            <glyph glyph-name="aeacute" unicode="&#x1fd;" horiz-adv-x="794"
                   d="M559 549q103 0 159.5 -60.5t56.5 -159.5v-24h-312q-1 -87 40 -140t113 -53q89 0 143 73l19 -12q-21 -85 -79.5 -134t-150.5 -49q-131 0 -200 91q-39 -46 -78.5 -67t-105.5 -21q-68 0 -108 35t-40 99q0 60 35 93t97 55l154 54q1 3 12 43q2 66 -14.5 102t-48.5 36
q-50 0 -50 -79q0 -27 9 -70l-111 -15q-49 17 -49 70q0 65 59.5 99t153.5 34q100 0 143 -49q68 49 153 49zM408 765h179v-9l-177 -155h-52zM544 507q-72 0 -80 -157h152q0 157 -72 157zM273 89q27 0 58 18q-35 61 -35 150q0 18 1 26l-35 -13q-36 -13 -52 -32.5t-16 -59.5
q0 -89 79 -89z"/>
            <glyph glyph-name="Oslashacute" unicode="&#x1fe;" horiz-adv-x="747"
                   d="M364 -10q-107 0 -184 47l-72 -96l-39 30l71 95q-114 96 -114 271q0 170 99.5 272.5t256.5 102.5q117 0 199 -57l67 90l39 -29l-69 -92q102 -97 102 -259q0 -170 -99.5 -272.5t-256.5 -102.5zM233 363q0 -88 13 -156l245 328q-36 129 -123 129q-48 0 -79.5 -46
t-43.5 -110.5t-12 -144.5zM378 38q48 0 79.5 46t43.5 110.5t12 144.5q0 72 -9 132l-243 -325q38 -108 117 -108zM376 892h180v-9l-173 -140h-56z"/>
            <glyph glyph-name="oslashacute" unicode="&#x1ff;" horiz-adv-x="601"
                   d="M300 -10q-83 0 -148 34l-58 -82l-35 25l57 80q-95 74 -95 212q0 126 78.5 208t201.5 82q82 0 149 -35l55 77l36 -25l-55 -76q94 -75 94 -210q0 -126 -78.5 -208t-201.5 -82zM217 303q0 -65 4 -109l150 210q-21 103 -75 103q-43 0 -61 -51.5t-18 -152.5zM305 32
q43 0 61 51.5t18 152.5q0 64 -4 105l-150 -209q21 -100 75 -100zM294 765h179v-9l-177 -155h-52z"/>
            <glyph glyph-name="Scommaaccent" unicode="&#x218;" horiz-adv-x="579"
                   d="M299 -156h-54q-48 12 -48 59q0 28 21.5 45t59.5 17q43 0 68 -25.5t25 -66.5q0 -53 -41.5 -85.5t-125.5 -32.5v36q45 0 69.5 15.5t25.5 37.5zM275 -10q-72 0 -135 19t-100 48l-11 174h53q20 -87 70 -140t123 -53q54 0 85.5 25t31.5 71q0 47 -33.5 74t-119.5 53
q-103 30 -154.5 83.5t-51.5 141.5q0 103 71 164.5t183 61.5q134 0 216 -60v-152h-45q-38 165 -171 165q-47 0 -75 -25t-28 -68q0 -47 31.5 -73t111.5 -50q111 -34 166 -85t55 -149q0 -110 -76.5 -167.5t-196.5 -57.5z"/>
            <glyph glyph-name="scommaaccent" unicode="&#x219;" horiz-adv-x="477"
                   d="M253 -156h-54q-48 12 -48 59q0 28 21.5 45t59.5 17q43 0 68 -25.5t25 -66.5q0 -53 -41.5 -85.5t-125.5 -32.5v36q45 0 69.5 15.5t25.5 37.5zM227 -10q-119 0 -190 51l-6 135h46q16 -64 55 -104t95 -40q37 0 61 18t24 50q0 35 -24.5 53t-82.5 37q-90 28 -132 69.5
t-42 114.5q0 82 57 128.5t149 46.5q101 0 172 -46v-120h-43q-10 53 -43 88.5t-83 35.5q-32 0 -52 -17t-20 -45q0 -30 21.5 -46.5t74.5 -35.5q98 -33 141.5 -73t43.5 -117q0 -87 -59.5 -135t-162.5 -48z"/>
            <glyph glyph-name="uni0237" unicode="&#x237;" horiz-adv-x="302"
                   d="M63 429l-56 34v28l209 58h31v-443q0 -80 -16.5 -125t-53.5 -82q-39 -38 -76.5 -62t-95.5 -50l-16 20l41 64q22 35 27.5 77.5t5.5 114.5v366z"/>
            <glyph glyph-name="circumflex" unicode="&#x2c6;"
                   d="M312 766l116 -170h-58l-120 85l-120 -85h-58l116 170h124z"/>
            <glyph glyph-name="caron" unicode="&#x2c7;"
                   d="M428 770l-116 -170h-124l-116 170h58l120 -85l120 85h58z"/>
            <glyph glyph-name="breve" unicode="&#x2d8;"
                   d="M257 598q-70 0 -107.5 43.5t-37.5 124.5h46q9 -75 99 -75q89 0 98 75h46q0 -81 -37 -124.5t-107 -43.5z"/>
            <glyph glyph-name="dotaccent" unicode="&#x2d9;"
                   d="M251 597q-44 0 -71 26.5t-27 65.5t27 66t71 27t71 -27t27 -66t-27 -65.5t-71 -26.5z"/>
            <glyph glyph-name="ring" unicode="&#x2da;"
                   d="M209 678q0 -22 13.5 -36.5t36.5 -14.5t36.5 14.5t13.5 36.5q0 23 -13.5 37.5t-36.5 14.5t-36.5 -14.5t-13.5 -37.5zM155 678q0 43 29.5 72.5t74.5 29.5t74 -29.5t29 -72.5q0 -42 -29 -71.5t-74 -29.5t-74.5 29.5t-29.5 71.5z"/>
            <glyph glyph-name="ogonek" unicode="&#x2db;"
                   d="M327 35l8 -16q-93 -46 -93 -114q0 -22 12 -36t34 -14q32 0 63 24l16 -20q-58 -74 -135 -74q-40 0 -67 22.5t-27 60.5q0 41 30 75t67 53t92 39z"/>
            <glyph glyph-name="tilde" unicode="&#x2dc;"
                   d="M311 602q-34 0 -75.5 30t-60.5 30q-33 0 -65 -56l-36 20q27 70 53 102.5t64 32.5q34 0 75 -30t61 -30q32 0 65 55l36 -19q-28 -71 -53.5 -103t-63.5 -32z"/>
            <glyph glyph-name="hungarumlaut" unicode="&#x2dd;"
                   d="M121 765h150v-9l-147 -155h-53zM301 765h150v-9l-148 -155h-53z"/>
            <glyph glyph-name="pi" unicode="&#x3c0;" horiz-adv-x="631"
                   d="M348 174l31 254h-134q0 -150 -8.5 -239t-31.5 -189h-174v40q54 84 85.5 172.5t31.5 215.5h-120v118h572l-17 -118h-80v-304q0 -55 45 -55q22 0 43 6l8 -27q-60 -58 -137 -58q-118 0 -118 123q0 28 4 61z"/>
            <glyph glyph-name="Wgrave" unicode="&#x1e80;" horiz-adv-x="1008"
                   d="M651 -4l-134 391l-144 -391h-71l-239 627q-12 30 -58 37v42h328v-42q-54 -4 -54 -39q0 -14 14 -54l117 -318l80 218l-53 156q-10 31 -51 37v42h327v-42q-39 -1 -54.5 -11t-15.5 -32q0 -15 13 -61l97 -302l104 305q13 39 13 55q0 43 -69 46v42h202v-42q-48 -7 -58 -37
l-222 -627h-72zM365 892h180l49 -149h-55l-174 140v9z"/>
            <glyph glyph-name="wgrave" unicode="&#x1e81;" horiz-adv-x="896"
                   d="M679 214l89 223q7 17 7 31q0 15 -13 21.5t-44 10.5v39h173v-39q-26 -8 -35 -15.5t-16 -24.5l-197 -464h-60l-118 309l-140 -309h-59l-210 464q-8 17 -17 24.5t-34 15.5v39h300v-39q-47 -7 -47 -31q0 -11 8 -32l95 -233l75 167l-34 89q-11 30 -46 40v39h296v-39
q-35 -4 -48.5 -10.5t-13.5 -23.5q0 -11 6 -29zM300 765h179l50 -164h-51l-178 155v9z"/>
            <glyph glyph-name="Wacute" unicode="&#x1e82;" horiz-adv-x="1008"
                   d="M651 -4l-134 391l-144 -391h-71l-239 627q-12 30 -58 37v42h328v-42q-54 -4 -54 -39q0 -14 14 -54l117 -318l80 218l-53 156q-10 31 -51 37v42h327v-42q-39 -1 -54.5 -11t-15.5 -32q0 -15 13 -61l97 -302l104 305q13 39 13 55q0 43 -69 46v42h202v-42q-48 -7 -58 -37
l-222 -627h-72zM537 892h180v-9l-173 -140h-56z"/>
            <glyph glyph-name="wacute" unicode="&#x1e83;" horiz-adv-x="896"
                   d="M468 765h179v-9l-177 -155h-52zM679 214l89 223q7 17 7 31q0 15 -13 21.5t-44 10.5v39h173v-39q-26 -8 -35 -15.5t-16 -24.5l-197 -464h-60l-118 309l-140 -309h-59l-210 464q-8 17 -17 24.5t-34 15.5v39h300v-39q-47 -7 -47 -31q0 -11 8 -32l95 -233l75 167l-34 89
q-11 30 -46 40v39h296v-39q-35 -4 -48.5 -10.5t-13.5 -23.5q0 -11 6 -29z"/>
            <glyph glyph-name="Wdieresis" unicode="&#x1e84;" horiz-adv-x="1008"
                   d="M651 -4l-134 391l-144 -391h-71l-239 627q-12 30 -58 37v42h328v-42q-54 -4 -54 -39q0 -14 14 -54l117 -318l80 218l-53 156q-10 31 -51 37v42h327v-42q-39 -1 -54.5 -11t-15.5 -32q0 -15 13 -61l97 -302l104 305q13 39 13 55q0 43 -69 46v42h202v-42q-48 -7 -58 -37
l-222 -627h-72zM356 823q0 34 25 58.5t59 24.5q35 0 60 -24.5t25 -58.5t-25 -58.5t-60 -24.5t-59.5 24.5t-24.5 58.5zM562 823q0 34 25 58.5t58 24.5q36 0 61 -24.5t25 -58.5q0 -35 -25 -59t-61 -24q-33 0 -58 24.5t-25 58.5z"/>
            <glyph glyph-name="wdieresis" unicode="&#x1e85;" horiz-adv-x="896"
                   d="M288 687q0 35 24.5 59t59.5 24t59.5 -24.5t24.5 -58.5t-25 -58.5t-59 -24.5q-35 0 -59.5 24.5t-24.5 58.5zM492 687q0 34 25 58.5t58 24.5q37 0 61.5 -24t24.5 -59q0 -34 -25 -58.5t-61 -24.5q-33 0 -58 24.5t-25 58.5zM679 214l89 223q7 17 7 31q0 15 -13 21.5t-44 10.5
v39h173v-39q-26 -8 -35 -15.5t-16 -24.5l-197 -464h-60l-118 309l-140 -309h-59l-210 464q-8 17 -17 24.5t-34 15.5v39h300v-39q-47 -7 -47 -31q0 -11 8 -32l95 -233l75 167l-34 89q-11 30 -46 40v39h296v-39q-35 -4 -48.5 -10.5t-13.5 -23.5q0 -11 6 -29z"/>
            <glyph glyph-name="Ygrave" unicode="&#x1ef2;" horiz-adv-x="707"
                   d="M457 263v-158q0 -37 15 -47t68 -16v-42h-356v42q53 6 67.5 16t14.5 47v153l-203 365q-11 20 -22.5 27t-35.5 10v42h345v-42q-40 -1 -54 -9t-14 -27q0 -23 23 -64l128 -220l112 218q23 48 23 66t-16.5 26t-53.5 10v42h204v-42q-42 -6 -58 -37zM221 892h180l49 -149h-55
l-174 140v9z"/>
            <glyph glyph-name="ygrave" unicode="&#x1ef3;" horiz-adv-x="599"
                   d="M371 182l99 254q8 21 8 29q0 16 -13 23t-53 12v39h182v-39q-25 -8 -34.5 -15.5t-16.5 -24.5l-228 -547q-29 -70 -61.5 -102t-82.5 -32q-61 0 -84 42v71q52 -10 78 -10q42 0 66 13.5t37 44.5l16 35l-228 485q-8 17 -17 24.5t-34 15.5v39h320v-39q-40 -5 -53 -12t-13 -23
q0 -7 7 -28zM167 765h179l50 -164h-51l-178 155v9z"/>
            <glyph glyph-name="endash" unicode="&#x2013;" horiz-adv-x="540"
                   d="M510 274h-480v60h480v-60z"/>
            <glyph glyph-name="emdash" unicode="&#x2014;" horiz-adv-x="960"
                   d="M930 334v-60h-900v60h900z"/>
            <glyph glyph-name="quoteleft" unicode="&#x2018;" horiz-adv-x="280"
                   d="M129 633h41q73 -17 73 -87q0 -41 -27.5 -65.5t-69.5 -24.5q-48 0 -77 34t-29 89q0 82 52.5 128t150.5 49v-41q-53 -7 -81.5 -26t-32.5 -56z"/>
            <glyph glyph-name="quoteright" unicode="&#x2019;" horiz-adv-x="280"
                   d="M153 574h-41q-73 17 -73 87q0 41 27.5 65.5t68.5 24.5q48 0 77 -34t29 -90q0 -81 -52.5 -127t-150.5 -49v40q54 8 82 26.5t33 56.5z"/>
            <glyph glyph-name="quotesinglbase" unicode="&#x201a;" horiz-adv-x="280"
                   d="M153 0h-41q-73 17 -73 87q0 41 27.5 65.5t68.5 24.5q48 0 77 -34t29 -89q0 -82 -52.5 -128t-150.5 -49v41q54 7 82 25.5t33 56.5z"/>
            <glyph glyph-name="quotedblleft" unicode="&#x201c;" horiz-adv-x="510"
                   d="M359 633h41q73 -17 73 -87q0 -41 -27.5 -65.5t-69.5 -24.5q-48 0 -77 34t-29 89q0 82 52.5 128t150.5 49v-41q-53 -7 -81.5 -26t-32.5 -56zM129 633h41q73 -17 73 -87q0 -41 -27.5 -65.5t-69.5 -24.5q-48 0 -77 34t-29 89q0 82 52.5 128t150.5 49v-41q-53 -7 -81.5 -26
t-32.5 -56z"/>
            <glyph glyph-name="quotedblright" unicode="&#x201d;" horiz-adv-x="510"
                   d="M153 574h-41q-73 17 -73 87q0 41 27.5 65.5t68.5 24.5q48 0 77 -34t29 -90q0 -81 -52.5 -127t-150.5 -49v40q54 8 82 26.5t33 56.5zM383 574h-41q-73 17 -73 87q0 41 27.5 65.5t68.5 24.5q48 0 77 -34t29 -90q0 -81 -52.5 -127t-150.5 -49v40q54 8 82 26.5t33 56.5z"/>
            <glyph glyph-name="quotedblbase" unicode="&#x201e;" horiz-adv-x="510"
                   d="M153 0h-41q-73 17 -73 87q0 41 27.5 65.5t68.5 24.5q48 0 77 -34t29 -89q0 -82 -52.5 -128t-150.5 -49v41q54 7 82 25.5t33 56.5zM383 0h-41q-73 17 -73 87q0 41 27.5 65.5t68.5 24.5q48 0 77 -34t29 -89q0 -82 -52.5 -128t-150.5 -49v41q54 7 82 25.5t33 56.5z"/>
            <glyph glyph-name="dagger" unicode="&#x2020;" horiz-adv-x="378"
                   d="M200 579q0 -31 17 -56.5t39 -38.5v-9q-21 -30 -39 -124.5t-21 -201.5h-14q-3 107 -21 201.5t-39 124.5v9q22 13 39 38.5t17 56.5q-25 0 -58.5 -21t-53.5 -21q-19 0 -32.5 14t-13.5 38t13.5 38t32.5 14q20 0 53.5 -21t58.5 -21q0 25 -20.5 59t-20.5 54q0 19 14 32.5
t38 13.5t38 -13.5t14 -32.5q0 -20 -20.5 -54t-20.5 -59q25 0 58.5 21t53.5 21q19 0 32.5 -14t13.5 -38t-13.5 -38t-32.5 -14q-20 0 -53.5 21t-58.5 21z"/>
            <glyph glyph-name="daggerdbl" unicode="&#x2021;" horiz-adv-x="394"
                   d="M187 455q0 21 -15 35.5t-42 17.5v9q56 32 56 83q-25 0 -58.5 -20.5t-53.5 -20.5q-19 0 -32.5 13.5t-13.5 37.5t13.5 38t32.5 14q20 0 53.5 -20.5t58.5 -20.5q0 25 -20.5 48t-20.5 43q0 19 14 32.5t38 13.5t38 -13.5t14 -32.5q0 -20 -20.5 -43t-20.5 -48q26 0 59 20.5
t53 20.5q19 0 32.5 -14t13.5 -38t-13.5 -37.5t-32.5 -13.5q-20 0 -53 20.5t-59 20.5q0 -51 57 -83v-9q-27 -3 -42.5 -17.5t-15.5 -35.5t15.5 -35.5t42.5 -17.5v-9q-57 -32 -57 -83q26 0 59 20.5t53 20.5q19 0 32.5 -14t13.5 -38t-13.5 -37.5t-32.5 -13.5q-20 0 -53 20.5
t-59 20.5q0 -25 20.5 -48t20.5 -43q0 -19 -14 -32.5t-38 -13.5t-38 13.5t-14 32.5q0 20 20.5 43t20.5 48q-25 0 -58.5 -20.5t-53.5 -20.5q-19 0 -32.5 13.5t-13.5 37.5t13.5 38t32.5 14q20 0 53.5 -20.5t58.5 -20.5q0 51 -56 83v9q27 3 42 17.5t15 35.5z"/>
            <glyph glyph-name="bullet" unicode="&#x2022;" horiz-adv-x="368"
                   d="M30 308q0 64 45.5 110.5t108.5 46.5q64 0 109 -46t45 -111q0 -64 -45.5 -110.5t-108.5 -46.5t-108.5 46.5t-45.5 110.5z"/>
            <glyph glyph-name="ellipsis" unicode="&#x2026;" horiz-adv-x="799"
                   d="M30 93q0 45 30 74.5t73 29.5q44 0 73.5 -29.5t29.5 -74.5t-29.5 -74t-73.5 -29q-43 0 -73 29t-30 74zM296 93q0 45 30 74.5t74 29.5q43 0 73 -29.5t30 -74.5t-30 -74t-73 -29q-44 0 -74 29t-30 74zM563 93q0 45 30 74.5t73 29.5q44 0 73.5 -29.5t29.5 -74.5t-29.5 -74
t-73.5 -29q-43 0 -73 29t-30 74z"/>
            <glyph glyph-name="perthousand" unicode="&#x2030;" horiz-adv-x="1167"
                   d="M757 163q0 -82 -50 -127.5t-123 -45.5t-123 45.5t-50 127.5t50 128t123 46t123 -46t50 -128zM149 -10l439 722h54l-439 -722h-54zM34 539q0 82 50 127.5t123 45.5q72 0 122 -45.5t50 -127.5t-50 -128t-122 -46q-73 0 -123 46t-50 128zM645 163q0 139 -61 139t-61 -139
q0 -138 61 -138t61 138zM146 539q0 -139 61 -139t61 139q0 138 -61 138t-61 -138zM1021 163q0 139 -61 139q-60 0 -60 -139q0 -138 60 -138q61 0 61 138zM1133 163q0 -82 -50 -127.5t-123 -45.5q-72 0 -122 45.5t-50 127.5t50 128t122 46q73 0 123 -46t50 -128z"/>
            <glyph glyph-name="guilsinglleft" unicode="&#x2039;" horiz-adv-x="279"
                   d="M23 273v6l187 200h46l-90 -203l90 -204h-46z"/>
            <glyph glyph-name="guilsinglright" unicode="&#x203a;" horiz-adv-x="279"
                   d="M256 279v-6l-187 -201h-46l90 204l-90 203h46z"/>
            <glyph glyph-name="fraction" unicode="&#x2044;" horiz-adv-x="283"
                   d="M-106 -10l438 722h54l-439 -722h-53z"/>
            <glyph glyph-name="Euro" unicode="&#x20ac;" horiz-adv-x="679"
                   d="M21 394v44h87q26 126 112.5 200t206.5 74q126 0 202 -62v-164h-50q-30 181 -142 181q-62 0 -97.5 -64.5t-44.5 -164.5h189l-9 -44h-183v-29q0 -32 1 -47h163l-9 -46h-152q19 -233 148 -233q62 0 97.5 45t68.5 149h48l-14 -188q-84 -55 -214 -55q-139 0 -224.5 75
t-102.5 207h-81v46h77v20q0 29 3 56h-80z"/>
            <glyph glyph-name="uni2117" unicode="&#x2117;" horiz-adv-x="780"
                   d="M432 307h-51v-83q0 -23 11.5 -30t47.5 -8v-32h-211v32q28 1 35.5 7.5t7.5 30.5v258q0 23 -7.5 29.5t-35.5 7.5v32h202q77 0 117 -35t40 -85q0 -58 -39.5 -91t-116.5 -33zM381 516v-178h20q41 0 61 24.5t20 66.5q0 38 -21 62.5t-61 24.5h-19zM70 351q0 -136 90.5 -231
t229.5 -95t229.5 95t90.5 231t-90.5 231t-229.5 95t-229.5 -95t-90.5 -231zM32 351q0 151 101.5 256t256.5 105t256.5 -105t101.5 -256t-101.5 -256t-256.5 -105t-256.5 105t-101.5 256z"/>
            <glyph glyph-name="trademark" unicode="&#x2122;" horiz-adv-x="883"
                   d="M357 702l6 -113h-27q-10 25 -15.5 36.5t-14.5 25.5t-20 19.5t-26 5.5h-11v-246q0 -19 9.5 -25t34.5 -8v-27h-183v27q24 2 32.5 8t8.5 25v246h-9q-28 0 -43.5 -20.5t-33.5 -66.5h-28l7 113h313zM603 499l60 170q7 20 7 33h134v-30q-23 0 -32 -9.5t-9 -29.5l30 -206
q3 -17 11.5 -22.5t29.5 -7.5v-27h-179v27q27 2 36.5 8t9.5 23q0 2 -0.5 7.5t-1.5 14.5t-1 16l-23 141l-82 -238h-42l-85 238l-20 -140q-4 -24 -4 -39q0 -18 9.5 -23.5t36.5 -7.5v-27h-125v27q22 2 30 7.5t11 22.5l29 206q0 39 -39 39v30h138q1 -13 7 -32z"/>
            <glyph glyph-name="Omega" unicode="&#x2126;" horiz-adv-x="729"
                   d="M364 671q-127 0 -127 -271q0 -186 93 -314v-86h-265l-25 194h32q19 -35 28.5 -49.5t26 -26t34.5 -13.5t54 -2h71q-92 30 -160 112t-68 185q0 134 83.5 223t222.5 89q140 0 223.5 -89t83.5 -223q0 -103 -68 -185t-160 -112h70q66 0 88 14t56 77h32l-25 -194h-266v86
q94 127 94 314q0 271 -128 271z"/>
            <glyph glyph-name="uni2153" unicode="&#x2153;" horiz-adv-x="792"
                   d="M198 712h32v-331q0 -25 12 -31.5t56 -9.5v-34h-258v34q49 3 59.5 9t10.5 32v217h-70v31l25 5q87 17 133 78zM150 -10l438 722h55l-439 -722h-54zM624 218q58 -1 93 -29t35 -77q0 -57 -48 -88.5t-120 -31.5q-69 0 -104.5 23.5t-35.5 59.5q0 33 28 46h67q-5 -14 -5 -29
q0 -33 14.5 -52t40.5 -19q52 0 52 75q0 82 -82 82h-15l-6 21q43 17 59 34t16 42q0 21 -13 35t-39 14q-44 0 -77 -43l-24 18q22 45 62 74t96 29q52 0 81.5 -24.5t29.5 -65.5q0 -39 -30 -62.5t-75 -31.5z"/>
            <glyph glyph-name="uni2154" unicode="&#x2154;" horiz-adv-x="843"
                   d="M201 -10l438 722h54l-438 -722h-54zM674 218q59 -1 94 -29t35 -77q0 -57 -48 -88.5t-120 -31.5q-69 0 -104.5 23.5t-35.5 59.5q0 33 28 46h67q-5 -14 -5 -29q0 -71 55 -71q52 0 52 75q0 82 -83 82h-14l-7 21q43 17 59 33.5t16 42.5q0 21 -12.5 35t-38.5 14q-44 0 -77 -43
l-25 18q52 103 159 103q52 0 81.5 -24.5t29.5 -65.5q0 -39 -30 -62.5t-76 -31.5zM152 397h108q23 0 34.5 8t28.5 34h21l-11 -136h-303v25l114 107q69 66 69 124q0 31 -16.5 49t-48.5 18q-51 0 -89 -44l-21 18q23 47 65 78t99 31q58 0 91.5 -30.5t33.5 -84.5q0 -31 -12.5 -58
t-41 -52t-53 -42.5t-68.5 -44.5z"/>
            <glyph glyph-name="uni215B" unicode="&#x215b;" horiz-adv-x="831"
                   d="M198 712h37v-331q0 -25 11.5 -31.5t55.5 -9.5v-34h-262v34q49 3 59.5 9t10.5 32v217h-70v31l25 5q87 17 133 78zM150 -10l438 722h55l-439 -722h-54zM774 313q0 -33 -26 -52.5t-64 -22.5q51 -18 78.5 -50t27.5 -72q0 -62 -47 -94t-116 -32q-70 0 -118.5 26t-48.5 72
q0 34 25.5 54.5t66.5 26.5q-79 36 -79 109q0 59 42.5 93.5t111.5 34.5q67 0 107 -25.5t40 -67.5zM648 131l-76 30q-25 -27 -25 -63q0 -35 23.5 -55t59.5 -20q30 0 48.5 14.5t18.5 37.5q0 22 -11 33t-38 23zM609 268l53 -21q26 23 26 59q0 31 -17.5 49t-47.5 18
q-26 0 -42 -15.5t-16 -37.5q0 -35 44 -52z"/>
            <glyph glyph-name="uni215C" unicode="&#x215c;" horiz-adv-x="854"
                   d="M796 313q0 -33 -25.5 -52.5t-64.5 -22.5q51 -18 79 -50t28 -72q0 -62 -47 -94t-116 -32q-71 0 -119 26t-48 72q0 67 92 81q-80 36 -80 109q0 59 42.5 93.5t111.5 34.5q67 0 107 -25.5t40 -67.5zM670 131l-76 30q-24 -27 -24 -63q0 -35 23 -55t59 -20q30 0 48.5 14.5
t18.5 37.5q0 22 -11 33t-38 23zM632 268l52 -21q26 22 26 59q0 31 -17 49t-47 18q-27 0 -42.5 -15t-15.5 -38q0 -36 44 -52zM173 -10l438 722h54l-439 -722h-53zM219 529q58 -2 93 -30t35 -77q0 -56 -48 -88t-120 -32q-69 0 -104.5 23.5t-35.5 59.5q0 32 28 47h67
q-4 -16 -4 -30q0 -33 14 -52t40 -19t41 19t15 56q0 39 -22 60.5t-64 21.5h-15l-6 22q43 16 61 33t18 41q0 22 -14.5 36t-41.5 14q-44 0 -77 -43l-24 18q22 45 62 74t96 29q52 0 81.5 -24.5t29.5 -65.5q0 -39 -30 -62t-75 -31z"/>
            <glyph glyph-name="uni215D" unicode="&#x215d;" horiz-adv-x="848"
                   d="M168 -10l438 722h54l-439 -722h-53zM334 726l-22 -124h-181l-7 -40q104 0 159.5 -30.5t55.5 -104.5q0 -58 -40 -92t-106 -34q-68 0 -109 23t-41 60q0 16 10 29.5t22 18.5h63q-5 -15 -5 -30q0 -71 61 -71q28 0 43.5 16t15.5 43q0 89 -175 89l37 223h151q18 0 25 4t15 20
h28zM791 313q0 -33 -26 -52.5t-64 -22.5q51 -18 78.5 -50t27.5 -72q0 -62 -47 -94t-116 -32q-70 0 -118.5 26t-48.5 72q0 34 25.5 54.5t67.5 26.5q-80 36 -80 109q0 59 42.5 93.5t111.5 34.5q67 0 107 -25.5t40 -67.5zM665 131l-76 30q-24 -27 -24 -63q0 -35 23 -55t59 -20
q30 0 48.5 14.5t18.5 37.5q0 22 -11 33t-38 23zM626 268l53 -21q26 23 26 59q0 31 -17 49t-47 18q-27 0 -42.5 -15t-15.5 -38q0 -35 43 -52z"/>
            <glyph glyph-name="uni215E" unicode="&#x215e;" horiz-adv-x="770"
                   d="M273 593h-142q-42 0 -63 -61h-36l32 170h298v-30l-199 -368h-77zM89 -10l438 722h54l-439 -722h-53zM712 313q0 -33 -25.5 -52.5t-63.5 -22.5q51 -18 78.5 -50t27.5 -72q0 -62 -47 -94t-116 -32q-71 0 -119 26t-48 72q0 34 25.5 54.5t66.5 26.5q-79 35 -79 109
q0 59 42 93.5t111 34.5q67 0 107 -25.5t40 -67.5zM586 131l-75 30q-25 -27 -25 -63q0 -35 23 -55t59 -20q30 0 48.5 14.5t18.5 37.5q0 22 -11 33t-38 23zM548 268l53 -21q25 22 25 59q0 31 -17 49t-47 18q-26 0 -42 -15.5t-16 -37.5q0 -36 44 -52z"/>
            <glyph glyph-name="partialdiff" unicode="&#x2202;" horiz-adv-x="600"
                   d="M281 548q59 0 87 -33q-67 189 -259 238l20 34q120 -15 209.5 -59t140.5 -108t75.5 -137.5t24.5 -156.5q0 -154 -74 -245t-209 -91q-123 0 -199 77t-76 196q0 127 77 206t183 79zM305 32q43 0 61 51.5t18 152.5q0 271 -88 271q-43 0 -61 -51.5t-18 -152.5q0 -271 88 -271z
"/>
            <glyph glyph-name="Delta" unicode="&#x2206;" horiz-adv-x="671"
                   d="M653 0h-635v39l291 663h46l298 -663v-39zM268 471l-183 -417h366z"/>
            <glyph glyph-name="product" unicode="&#x220f;" horiz-adv-x="810"
                   d="M517 654h-224v-742q0 -40 11.5 -51t61.5 -16v-42h-341v42q49 5 60.5 16t11.5 51v681q0 40 -11.5 51t-60.5 16v42h760v-42q-49 -5 -60.5 -16t-11.5 -51v-681q0 -40 11.5 -51t60.5 -16v-42h-341v42q50 5 61.5 16t11.5 51v742z"/>
            <glyph glyph-name="summation" unicode="&#x2211;" horiz-adv-x="607"
                   d="M143 -48h226q71 0 105 15.5t74 81.5h41l-44 -246h-537v47l274 371l-261 427v54h541v-187h-40q-20 44 -31.5 64t-30 41t-41.5 28.5t-57 7.5h-143l199 -326v-12z"/>
            <glyph glyph-name="minus" unicode="&#x2212;" horiz-adv-x="574"
                   d="M65 335v69h443v-69h-443z"/>
            <glyph glyph-name="radical" unicode="&#x221a;" horiz-adv-x="600"
                   d="M360 241l180 471h57l-277 -712h-72l-142 444q-10 30 -22.5 42t-38.5 15l-25 2v43h251z"/>
            <glyph glyph-name="infinity" unicode="&#x221e;" horiz-adv-x="757"
                   d="M348 349l-45 53q-43 51 -99 51q-41 0 -69 -28.5t-28 -75.5q0 -48 28 -76.5t69 -28.5q58 0 99 50zM378 295l-33 -39q-62 -72 -145 -72q-68 0 -113.5 44.5t-45.5 120.5q0 75 46 120t113 45q83 0 145 -73l33 -39l34 39q60 73 145 73q67 0 113 -45t46 -120
q0 -76 -45.5 -120.5t-113.5 -44.5q-84 0 -145 72zM458 402l-45 -53l45 -55q43 -50 99 -50q41 0 69 28.5t28 76.5q0 47 -28 75.5t-69 28.5q-56 0 -99 -51z"/>
            <glyph glyph-name="integral" unicode="&#x222b;" horiz-adv-x="445"
                   d="M277 612v-566q0 -242 -216 -242q-65 0 -104 24.5t-39 68.5q0 38 34 61h85v-59q0 -57 31 -57q34 0 34 62v566q0 242 215 242q65 0 104 -24.5t39 -68.5q0 -40 -34 -61h-84v59q0 57 -32 57q-33 0 -33 -62z"/>
            <glyph glyph-name="approxequal" unicode="&#x2248;" horiz-adv-x="584"
                   d="M70 386v69q62 41 120 41q39 0 102 -20t101 -20q60 0 121 41v-69q-61 -41 -121 -41q-38 0 -101 20t-102 20q-58 0 -120 -41zM70 248v68q60 41 120 41q39 0 102 -19.5t101 -19.5q61 0 121 40v-69q-60 -40 -121 -40q-38 0 -101 19t-102 19q-59 0 -120 -39z"/>
            <glyph glyph-name="notequal" unicode="&#x2260;" horiz-adv-x="584"
                   d="M70 409v66h263l76 105h72l-76 -105h109v-66h-157l-59 -81h216v-64h-262l-76 -105h-71l76 105h-111v64h157l58 81h-215z"/>
            <glyph glyph-name="lessequal" unicode="&#x2264;" horiz-adv-x="445"
                   d="M53 401v9l317 171v-78l-188 -97l188 -99v-77zM53 131v67h317v-67h-317z"/>
            <glyph glyph-name="greaterequal" unicode="&#x2265;" horiz-adv-x="445"
                   d="M392 410v-9l-317 -171v77l189 99l-189 97v78zM392 198v-67h-317v67h317z"/>
            <glyph glyph-name="lozenge" unicode="&#x25ca;" horiz-adv-x="568"
                   d="M35 351l204 351h89l205 -351l-205 -351h-89zM456 351l-172 299l-172 -299l172 -298z"/>
            <glyph glyph-name="i.dot" horiz-adv-x="334"
                   d="M262 549v-471q0 -23 11.5 -30t44.5 -9v-39h-296v39q33 2 44.5 9t11.5 30v351l-55 34v28l208 58h31zM174 597q-44 0 -71 26.5t-27 65.5t27 66t71 27t71 -27t27 -66t-27 -65.5t-71 -26.5z"/>
            <glyph glyph-name="space_uni0326"
                   d="M260 -156h-54q-48 12 -48 59q0 28 21.5 45t59.5 17q43 0 68 -25.5t25 -66.5q0 -53 -41.5 -85.5t-125.5 -32.5v36q45 0 69.5 15.5t25.5 37.5z"/>
            <glyph glyph-name="space_uni0326.alt"
                   d="M229 714h55q48 -13 48 -60q0 -27 -22 -44.5t-59 -17.5q-43 0 -68 26t-25 67q0 53 41.5 85.5t125.5 32.5v-37q-45 0 -69.5 -15t-26.5 -37z"/>
            <glyph glyph-name="space_dotbelowcomb"
                   d="M251 -205q-43 0 -69.5 26t-26.5 63t26.5 63t69.5 26q42 0 68.5 -26t26.5 -63t-26.5 -63t-68.5 -26z"/>
            <glyph glyph-name="caron.Slovak"
                   d="M350 772l-116 -194h-41l13 205h144v-11z"/>
            <glyph glyph-name="cedilla.alt"
                   d="M151 -231l-8 35q51 0 78 13.5t27 34.5q0 13 -10.5 21t-26 10.5t-42.5 3.5l30 73h32q51 0 80.5 -21.5t29.5 -60.5q0 -53 -54.5 -81t-135.5 -28z"/>
            <glyph glyph-name="grave.cap"
                   d="M124 892h180l49 -149h-55l-174 140v9z"/>
            <glyph glyph-name="acute.cap"
                   d="M173 892h180v-9l-173 -140h-56z"/>
            <glyph glyph-name="circumflex.cap"
                   d="M312 896l120 -153h-57l-125 70l-125 -70h-57l120 153h124z"/>
            <glyph glyph-name="tilde.cap"
                   d="M310 743q-34 0 -76 30t-62 30q-34 0 -66 -56l-36 20q28 70 54 102.5t64 32.5q34 0 76 -30t62 -30q33 0 66 55l36 -19q-28 -71 -54 -103t-64 -32z"/>
            <glyph glyph-name="macron.cap"
                   d="M110 751v86h292v-86h-292z"/>
            <glyph glyph-name="breve.cap"
                   d="M257 740q-70 0 -109 41t-39 115h46q13 -65 102 -65q91 0 102 65h47q0 -74 -39 -115t-110 -41z"/>
            <glyph glyph-name="dotaccent.cap"
                   d="M251 741q-44 0 -71 27t-27 65q0 39 27 66t71 27t71 -27t27 -66q0 -38 -27 -65t-71 -27z"/>
            <glyph glyph-name="dieresis.cap"
                   d="M67 823q0 34 25 58.5t59 24.5q35 0 60 -24.5t25 -58.5t-25 -58.5t-60 -24.5t-59.5 24.5t-24.5 58.5zM273 823q0 34 25 58.5t58 24.5q36 0 61 -24.5t25 -58.5q0 -35 -25 -59t-61 -24q-33 0 -58 24.5t-25 58.5z"/>
            <glyph glyph-name="ring.cap"
                   d="M209 827q0 -22 13.5 -36t36.5 -14t36.5 14t13.5 36q0 23 -13.5 37.5t-36.5 14.5t-36.5 -14.5t-13.5 -37.5zM155 827q0 43 29.5 72.5t74.5 29.5t74 -29.5t29 -72.5q0 -42 -29 -71t-74 -29t-74.5 29t-29.5 71z"/>
            <glyph glyph-name="hungarumlaut.cap"
                   d="M121 892h150v-9l-147 -140h-53zM301 892h150v-9l-147 -140h-54z"/>
            <glyph glyph-name="caron.cap"
                   d="M432 897l-120 -153h-124l-120 153h57l125 -70l125 70h57z"/>
            <glyph glyph-name="exclamdown.cap" horiz-adv-x="293"
                   d="M51 615q0 40 28 68.5t67 28.5q40 0 68 -28.5t28 -68.5q0 -41 -28 -70t-68 -29q-39 0 -67 29t-28 70zM117 468h58l81 -468h-220z"/>
            <glyph glyph-name="questiondown.cap" horiz-adv-x="467"
                   d="M161 106q0 -36 18 -56.5t52 -20.5q40 0 57.5 28t17.5 71q0 18 -5 58h110q40 -20 40 -65q0 -60 -59.5 -95.5t-158.5 -35.5q-106 0 -163.5 44t-57.5 126q0 62 34 106t104 85q44 27 61.5 49.5t17.5 57.5v13h25q78 -30 78 -109q0 -70 -78 -127q-32 -24 -48.5 -38.5t-30.5 -39
t-14 -51.5zM338 615q0 -41 -28 -70t-67 -29q-40 0 -68 29t-28 70q0 40 28 68.5t68 28.5q39 0 67 -28.5t28 -68.5z"/>
            <glyph glyph-name="guilsinglleft.cap" horiz-adv-x="279"
                   d="M23 349v6l187 201h46l-90 -204l90 -203h-46z"/>
            <glyph glyph-name="guilsinglright.cap" horiz-adv-x="279"
                   d="M256 355v-6l-187 -200h-46l90 203l-90 204h46z"/>
            <glyph glyph-name="guillemotleft.cap" horiz-adv-x="469"
                   d="M23 349v6l187 201h46l-90 -204l90 -203h-46zM213 349v6l187 201h46l-90 -204l90 -203h-46z"/>
            <glyph glyph-name="guillemotright.cap" horiz-adv-x="469"
                   d="M446 355v-6l-187 -200h-46l90 203l-90 204h46zM256 355v-6l-187 -200h-46l90 203l-90 204h46z"/>
            <glyph glyph-name="slash.cap" horiz-adv-x="361"
                   d="M352 770l-265 -871h-78l265 871h78z"/>
            <glyph glyph-name="backslash.cap" horiz-adv-x="361"
                   d="M274 -101l-265 871h78l265 -871h-78z"/>
            <glyph glyph-name="bar.cap" horiz-adv-x="205"
                   d="M139 770v-871h-73v871h73z"/>
            <glyph glyph-name="brokenbar.cap" horiz-adv-x="205"
                   d="M139 770v-371h-73v371h73zM139 270v-371h-73v371h73z"/>
            <glyph glyph-name="periodcentered.cap" horiz-adv-x="262"
                   d="M30 348q0 44 29 72.5t72 28.5t72 -28.5t29 -72.5t-29 -72.5t-72 -28.5t-72 28.5t-29 72.5z"/>
            <glyph glyph-name="bullet.cap" horiz-adv-x="368"
                   d="M30 351q0 65 45.5 111t108.5 46q64 0 109 -46t45 -111q0 -64 -45 -110t-109 -46q-63 0 -108.5 46t-45.5 110z"/>
            <glyph glyph-name="hyphen.cap" horiz-adv-x="320"
                   d="M290 313h-260v78h260v-78z"/>
            <glyph glyph-name="endash.cap" horiz-adv-x="540"
                   d="M510 318h-480v60h480v-60z"/>
            <glyph glyph-name="emdash.cap" horiz-adv-x="960"
                   d="M930 378v-60h-900v60h900z"/>
            <glyph glyph-name="parenleft.cap" horiz-adv-x="371"
                   d="M195 334q0 -257 154 -436h-56q-108 81 -170.5 197.5t-62.5 238.5t62.5 238.5t170.5 197.5h56q-154 -179 -154 -436z"/>
            <glyph glyph-name="parenright.cap" horiz-adv-x="371"
                   d="M175 334q0 257 -153 436h55q108 -81 170.5 -197.5t62.5 -238.5t-62.5 -238.5t-170.5 -197.5h-55q153 179 153 436z"/>
            <glyph glyph-name="bracketleft.cap" horiz-adv-x="336"
                   d="M199 671v-673q0 -37 20 -46.5t85 -13.5v-39h-219v871h219v-39q-65 -4 -85 -13.5t-20 -46.5z"/>
            <glyph glyph-name="bracketright.cap" horiz-adv-x="336"
                   d="M138 -2v673q0 37 -20 46.5t-85 13.5v39h218v-871h-218v39q65 4 85 13.5t20 46.5z"/>
            <glyph glyph-name="braceleft.cap" horiz-adv-x="367"
                   d="M50 325v18q83 17 83 100v199q0 128 205 128v-29q-86 -11 -86 -98v-189q0 -54 -30 -81t-87 -39q57 -12 87 -39t30 -81v-187q0 -87 86 -98v-29q-205 0 -205 128v197q0 83 -83 100z"/>
            <glyph glyph-name="braceright.cap" horiz-adv-x="375"
                   d="M325 343v-18q-83 -17 -83 -100v-197q0 -128 -205 -128v29q86 11 86 98v187q0 54 30 81t87 39q-57 12 -87 39t-30 81v189q0 87 -86 98v29q205 0 205 -128v-199q0 -83 83 -100z"/>
            <glyph glyph-name="at.cap" horiz-adv-x="885"
                   d="M606 138q-74 0 -99.5 45.5t-12.5 116.5q-43 -80 -83 -121t-92 -41q-45 0 -74 34.5t-29 93.5q0 107 76 198t181 91q65 0 96 -41l75 33h41l-34 -92l-55 -200q-11 -31 -3.5 -55.5t32.5 -24.5q58 0 99 73t41 184q0 117 -76.5 199t-206.5 82q-161 0 -259.5 -116t-98.5 -285
q0 -159 94.5 -244.5t241.5 -85.5q81 0 142.5 17.5t127.5 57.5l14 -20q-117 -104 -304 -104q-171 0 -286.5 100t-115.5 277q0 184 127 313.5t317 129.5q167 0 266 -93t99 -228q0 -139 -74 -216.5t-167 -77.5zM381 226q41 0 85 78t67 184q-14 32 -45 32q-56 0 -98 -80
t-42 -159q0 -55 33 -55z"/>
            </font>
</defs>
</svg>
