<svg xmlns="http://www.w3.org/2000/svg" xmlns:xlink="http://www.w3.org/1999/xlink" xmlns:fi="http://pattern.flaticon.com/" x="0" y="0" width="700" height="350" viewBox="0 0 700 350"><rect x="0px" y="0px" width="100%" height="100%" opacity="1" fill="#ffffff"/><defs><g transform="matrix(0.9375 0 0 0.9375 8 95)" id="L1_0"><path d="M13,21a1,1,0,0,1,2,0v1h2V21a3,3,0,0,0-6,0v1h2Z"/><path d="M23,21a1,1,0,0,1,2,0v1h2V21a3,3,0,0,0-6,0v1h2Z"/><path d="M17,25H15v1a4,4,0,0,0,8,0V25H21v1a2,2,0,0,1-4,0Z"/><path d="M60,41a5.006,5.006,0,0,0-5-5H33.886A7,7,0,0,0,29,34H24V32.9a12.065,12.065,0,0,0,1.619-.9H35V18A16,16,0,0,0,3,18V32h9.381A12.065,12.065,0,0,0,14,32.9V34H9a7.008,7.008,0,0,0-7,7V61a1,1,0,0,0,1,1H59a3,3,0,0,0,3-3V56H60Zm-2,0V56H30V41a3,3,0,0,1,3-3H55A3,3,0,0,1,58,41ZM9,16H29v6A10,10,0,0,1,9,22Zm22,4h1a1,1,0,0,1,0,2H31ZM27.919,30a11.942,11.942,0,0,0,2.9-6H32a2.966,2.966,0,0,0,1-.184V30ZM19,4A14.015,14.015,0,0,1,33,18v.184A2.966,2.966,0,0,0,32,18H31V15a1,1,0,0,0-1-1H8a1,1,0,0,0-1,1v3H6a2.966,2.966,0,0,0-1,.184V18A14.015,14.015,0,0,1,19,4ZM7,22H6a1,1,0,0,1,0-2H7ZM5,23.816A2.966,2.966,0,0,0,6,24H7.181a11.942,11.942,0,0,0,2.9,6H5ZM19,34a11.932,11.932,0,0,0,3-.4V35a3,3,0,0,1-6,0V33.6A11.932,11.932,0,0,0,19,34ZM4,41a5.006,5.006,0,0,1,5-5h5.1a5,5,0,0,0,9.8,0H29a5,5,0,0,1,2,.422A5,5,0,0,0,28,41V56H26v3a2.966,2.966,0,0,0,.184,1H12V47H10V60H4ZM60,59a1,1,0,0,1-1,1H29a1,1,0,0,1-1-1V58H60Z"/><path d="M40.707 49.293 38.414 47 40.707 44.707 39.293 43.293 35.586 47 39.293 50.707 40.707 49.293z"/><path d="M48.707 50.707 52.414 47 48.707 43.293 47.293 44.707 49.586 47 47.293 49.293 48.707 50.707z"/><rect x="40px" y="46px" width="6px" height="2px" transform="matrix(0.3163776323085823 -0.9486333294665624 0.9486333294665624 0.3163776323085823 -14.505999565124512 73.87000274658203)"/></g><g transform="matrix(0.12096773833036423 0 0 0.12096773833036423 239 44)" id="L1_1"><path d="m224.5 0c-83.945312 0-152 68.054688-152 152v56l-40 104v24c0 4.414062 3.585938 8 8 8h49.097656l14.710938 73.566406c.75 3.746094 4.03125 6.433594 7.847656 6.433594h56.34375v64c0 4.414062 3.585938 8 8 8h160c4.414062 0 8-3.585938 8-8v-64l30.929688-34.359375c26.4375-29.382813 41.070312-67.511719 41.070312-107.039063v-130.601562c0-83.945312-68.054688-152-152-152zm0 0" fill="#f5e3fe"/><path d="m352.5 176c0 61.855469-50.144531 112-112 112s-112-50.144531-112-112 50.144531-112 112-112 112 50.144531 112 112zm0 0" fill="#fddf81"/><path d="m232.050781 112h16.898438l31.78125 72.425781-14.894531 79.574219h-50.671876l-14.894531-79.574219zm0 0" fill="#f96437"/><path d="m256.5 176h-32v16h8v72h16v-72h8zm0 0" fill="#fba287"/><path d="m271.660156 264h-62.320312c-4.734375 0-8.433594 4.089844-7.960938 8.800781l3.121094 31.199219h72l3.121094-31.199219c.472656-4.710937-3.226563-8.800781-7.960938-8.800781zm0 0" fill="#e2aafd"/><g fill="#cf71fb"><path d="m204.5 304 3.28125 32.800781c.40625 4.085938 3.847656 7.199219 7.957031 7.199219h49.523438c4.109375 0 7.550781-3.113281 7.957031-7.199219l3.28125-32.800781zm0 0"/><path d="m16.5 104h16v16h-16zm0 0"/><path d="m16.5 136h16v16h-16zm0 0"/><path d="m32.5 120h16v16h-16zm0 0"/><path d="m.5 120h16v16h-16zm0 0"/><path d="m432.5 352h16v16h-16zm0 0"/><path d="m432.5 384h16v16h-16zm0 0"/><path d="m448.5 368h16v16h-16zm0 0"/><path d="m416.5 368h16v16h-16zm0 0"/></g></g><g transform="matrix(0.12096773833036423 0 0 0.12096773833036423 155 135)" id="L1_2"><path d="m24 392c-4.414062 0-8-3.585938-8-8v-272c0-4.414062 3.585938-8 8-8h448c4.414062 0 8 3.585938 8 8v272c0 4.414062-3.585938 8-8 8" fill="#e2aafd"/><path d="m48 136h400v216h-400zm0 0" fill="#fdf8ff"/><path d="m485.214844 424h-474.429688l-10.785156-13.496094v-26.503906h165.960938l22.238281 8h118.9375l20.886719-8h167.976562v30zm0 0" fill="#cf71fb"/><path d="m440 384h16v16h-16zm0 0" fill="#fbf2ff"/><path d="m408 384h16v16h-16zm0 0" fill="#fbf2ff"/><path d="m40 384h16v16h-16zm0 0" fill="#fbf2ff"/><path d="m408 320h-320c-4.414062 0-8-3.585938-8-8v-304c0-4.414062 3.585938-8 8-8h320c4.414062 0 8 3.585938 8 8v304c0 4.414062-3.585938 8-8 8zm0 0" fill="#fff8f1"/><path d="m416 48h-336v-40c0-4.414062 3.585938-8 8-8h320c4.414062 0 8 3.585938 8 8zm0 0" fill="#fddf81"/><g fill="#fff8f1"><path d="m104 16h16v16h-16zm0 0"/><path d="m136 16h16v16h-16zm0 0"/><path d="m168 16h16v16h-16zm0 0"/><path d="m344 16h48v16h-48zm0 0"/></g><path d="m208 96h80l-40 64zm0 0" fill="#f96437"/><path d="m288 96-40 64-40-64-40 64 80 96 80-96zm0 0" fill="#fba287"/><path d="m216 160 32 96 32-96zm0 0" fill="#f96437"/></g><g transform="matrix(0.12096773833036423 0 0 0.12096773833036423 47 196)" id="L1_3"><path d="m408.5 272h-352c-4.414062 0-8-3.585938-8-8v-256c0-4.414062 3.585938-8 8-8h352c4.414062 0 8 3.585938 8 8v256c0 4.414062-3.585938 8-8 8zm0 0" fill="#fbf2ff"/><path d="m416.5 48h-368v-40c0-4.414062 3.585938-8 8-8h352c4.414062 0 8 3.585938 8 8zm0 0" fill="#cf71fb"/><path d="m72.5 16h16v16h-16zm0 0" fill="#fbf2ff"/><path d="m104.5 16h16v16h-16zm0 0" fill="#fbf2ff"/><path d="m136.5 16h16v16h-16zm0 0" fill="#fbf2ff"/><path d="m344.5 16h48v16h-48zm0 0" fill="#fbf2ff"/><g fill="#ecc6fd"><path d="m358.15625 117.65625-11.3125-11.3125 10.34375-10.34375-10.34375-10.34375 11.3125-11.3125 16 16c3.128906 3.128906 3.128906 8.183594 0 11.3125zm0 0"/><path d="m282.84375 117.65625-16-16c-3.128906-3.128906-3.128906-8.183594 0-11.3125l16-16 11.3125 11.3125-10.34375 10.34375 10.34375 10.34375zm0 0"/><path d="m304.898438 117.457031 16.015624-48 15.171876 5.0625-16.015626 48zm0 0"/><path d="m88.5 200h16v16h-16zm0 0"/><path d="m120.5 200h16v16h-16zm0 0"/><path d="m152.5 200h16v16h-16zm0 0"/><path d="m184.5 200h32v16h-32zm0 0"/><path d="m264.5 200h16v16h-16zm0 0"/><path d="m232.5 200h16v16h-16zm0 0"/><path d="m88.5 168h48v16h-48zm0 0"/><path d="m152.5 168h16v16h-16zm0 0"/><path d="m184.5 168h32v16h-32zm0 0"/><path d="m264.5 168h16v16h-16zm0 0"/><path d="m232.5 168h16v16h-16zm0 0"/><path d="m232.5 136h48v16h-48zm0 0"/><path d="m200.5 136h16v16h-16zm0 0"/><path d="m152.5 136h32v16h-32zm0 0"/><path d="m88.5 136h48v16h-48zm0 0"/><path d="m312.5 200h32v16h-32zm0 0"/><path d="m360.5 200h16v16h-16zm0 0"/><path d="m120.5 88h32v16h-32zm0 0"/><path d="m88.5 88h16v16h-16zm0 0"/></g><path d="m456.5 496h-448c-4.414062 0-8-3.585938-8-8v-176c0-4.414062 3.585938-8 8-8h448c4.414062 0 8 3.585938 8 8v176c0 4.414062-3.585938 8-8 8zm0 0" fill="#fddf81"/><path d="m352.5 464h-240c-4.414062 0-8-3.585938-8-8v-16c0-4.414062 3.585938-8 8-8h240c4.414062 0 8 3.585938 8 8v16c0 4.414062-3.585938 8-8 8zm0 0" fill="#f96437"/><path d="m424.5 464h-24c-4.414062 0-8-3.585938-8-8v-16c0-4.414062 3.585938-8 8-8h24c4.414062 0 8 3.585938 8 8v16c0 4.414062-3.585938 8-8 8zm0 0" fill="#f96437"/><path d="m64.5 464h-24c-4.414062 0-8-3.585938-8-8v-16c0-4.414062 3.585938-8 8-8h24c4.414062 0 8 3.585938 8 8v16c0 4.414062-3.585938 8-8 8zm0 0" fill="#f96437"/><path d="m360.5 400h64c4.414062 0 8-3.585938 8-8v-16c0-4.414062-3.585938-8-8-8h-64c-4.414062 0-8 3.585938-8 8v16c0 4.414062 3.585938 8 8 8zm0 0" fill="#f96437"/><path d="m296.5 400h16c4.414062 0 8-3.585938 8-8v-16c0-4.414062-3.585938-8-8-8h-16c-4.414062 0-8 3.585938-8 8v16c0 4.414062 3.585938 8 8 8zm0 0" fill="#f96437"/><path d="m232.5 400h16c4.414062 0 8-3.585938 8-8v-16c0-4.414062-3.585938-8-8-8h-16c-4.414062 0-8 3.585938-8 8v16c0 4.414062 3.585938 8 8 8zm0 0" fill="#f96437"/><path d="m168.5 400h16c4.414062 0 8-3.585938 8-8v-16c0-4.414062-3.585938-8-8-8h-16c-4.414062 0-8 3.585938-8 8v16c0 4.414062 3.585938 8 8 8zm0 0" fill="#f96437"/><path d="m104.5 400h16c4.414062 0 8-3.585938 8-8v-16c0-4.414062-3.585938-8-8-8h-16c-4.414062 0-8 3.585938-8 8v16c0 4.414062 3.585938 8 8 8zm0 0" fill="#f96437"/><path d="m40.5 400h16c4.414062 0 8-3.585938 8-8v-16c0-4.414062-3.585938-8-8-8h-16c-4.414062 0-8 3.585938-8 8v16c0 4.414062 3.585938 8 8 8zm0 0" fill="#f96437"/><path d="m24.5 328h32v16h-32zm0 0" fill="#f96437"/><path d="m72.5 328h32v16h-32zm0 0" fill="#f96437"/><path d="m120.5 328h32v16h-32zm0 0" fill="#f96437"/><path d="m168.5 328h32v16h-32zm0 0" fill="#f96437"/><path d="m216.5 328h32v16h-32zm0 0" fill="#f96437"/><path d="m264.5 328h32v16h-32zm0 0" fill="#f96437"/><path d="m312.5 328h32v16h-32zm0 0" fill="#f96437"/><path d="m360.5 328h32v16h-32zm0 0" fill="#f96437"/><path d="m408.5 328h32v16h-32zm0 0" fill="#f96437"/><path d="m104.5 304h-16v-32c0-4.425781 3.585938-8 8-8h264v-32h16v40c0 4.425781-3.574219 8-8 8h-264zm0 0" fill="#ecc6fd"/></g><g transform="matrix(0.12096773833036423 0 0 0.12096773833036423 231 203)" id="L1_4"><path d="m352 496h-336c-8.839844 0-16-7.160156-16-16v-464c0-8.839844 7.160156-16 16-16h336c8.839844 0 16 7.160156 16 16v464c0 8.839844-7.160156 16-16 16zm0 0" fill="#cf71fb"/><path d="m32 40h304v368h-304zm0 0" fill="#fdf8ff"/><path d="m200 456c0 8.835938-7.164062 16-16 16s-16-7.164062-16-16 7.164062-16 16-16 16 7.164062 16 16zm0 0" fill="#fdf8ff"/><path d="m400 88h40v336h-40zm0 0" fill="#cf71fb"/><g fill="#fddf81"><path d="m432 464h-24c-4.414062 0-8-3.585938-8-8v-40h40v40c0 4.414062-3.585938 8-8 8zm0 0"/><path d="m440 96h-40v-8l16-56h8l16 56zm0 0"/><path d="m432 136h16v72h-16zm0 0"/><path d="m296 184h-224c-4.414062 0-8-3.585938-8-8v-96c0-4.414062 3.585938-8 8-8h224c4.414062 0 8 3.585938 8 8v96c0 4.414062-3.585938 8-8 8zm0 0"/><path d="m160 312h-88c-4.414062 0-8-3.585938-8-8v-80c0-4.414062 3.585938-8 8-8h88c4.414062 0 8 3.585938 8 8v80c0 4.414062-3.585938 8-8 8zm0 0"/><path d="m296 312h-88c-4.414062 0-8-3.585938-8-8v-80c0-4.414062 3.585938-8 8-8h88c4.414062 0 8 3.585938 8 8v80c0 4.414062-3.585938 8-8 8zm0 0"/><path d="m56 336h40v16h-40zm0 0"/><path d="m112 336h64v16h-64zm0 0"/><path d="m136 368h40v16h-40zm0 0"/><path d="m56 368h64v16h-64zm0 0"/><path d="m192 336h40v16h-40zm0 0"/><path d="m248 336h64v16h-64zm0 0"/><path d="m272 368h40v16h-40zm0 0"/><path d="m192 368h64v16h-64zm0 0"/></g><path d="m146.34375 157.65625-24-24c-3.128906-3.128906-3.128906-8.183594 0-11.3125l24-24 11.3125 11.3125-18.34375 18.34375 18.34375 18.34375zm0 0" fill="#fdf8ff"/><path d="m221.65625 157.65625-11.3125-11.3125 18.34375-18.34375-18.34375-18.34375 11.3125-11.3125 24 24c3.128906 3.128906 3.128906 8.183594 0 11.3125zm0 0" fill="#fdf8ff"/><path d="m168.410156 149.476562 16.007813-48 15.179687 5.0625-16.011718 48zm0 0" fill="#fdf8ff"/></g><g transform="matrix(0.12096773833036423 0 0 0.12096773833036423 268 83)" id="L1_5"><path d="m304 424h-112l16-104h80zm0 0" fill="#c34efa"/><path d="m488 328h-480c-4.414062 0-8-3.585938-8-8v-312c0-4.414062 3.585938-8 8-8h480c4.414062 0 8 3.585938 8 8v312c0 4.414062-3.585938 8-8 8zm0 0" fill="#fbf2ff"/><path d="m456 184v-144c0-4.414062-3.585938-8-8-8h-168c-4.414062 0-8 3.585938-8 8v144c0 4.414062 3.585938 8 8 8h168c4.414062 0 8-3.585938 8-8zm0 0" fill="#fff7e0"/><path d="m496 264h-496v56c0 4.414062 3.585938 8 8 8h480c4.414062 0 8-3.585938 8-8zm0 0" fill="#cf71fb"/><path d="m352 448h-208v-16l16-16h176l16 16zm0 0" fill="#cf71fb"/><path d="m224 288h48v16h-48zm0 0" fill="#fdf8ff"/><path d="m256 368 .007812-40h-16.007812v40h-8v16h32v-16zm0 0" fill="#af46e0"/><path d="m488 448h-176c-4.414062 0-8-3.585938-8-8v-296c0-4.414062 3.585938-8 8-8h176c4.414062 0 8 3.585938 8 8v296c0 4.414062-3.585938 8-8 8zm0 0" fill="#fddf81"/><path d="m336 168h128v216h-128zm0 0" fill="#fff8f1"/><path d="m472 320h-144c-4.414062 0-8-3.585938-8-8v-104c0-4.414062 3.585938-8 8-8h144c4.414062 0 8 3.585938 8 8v104c0 4.414062-3.585938 8-8 8zm0 0" fill="#f96437"/><path d="m376 408h48v16h-48zm0 0" fill="#fff8f1"/><path d="m384 240v48l40-24zm0 0" fill="#fff3ef"/><path d="m360 344h16v16h-16zm0 0" fill="#fddf81"/><path d="m424 344h16v16h-16zm0 0" fill="#fddf81"/><path d="m392 344h16v16h-16zm0 0" fill="#fddf81"/><path d="m24 208h32v16h-32zm0 0" fill="#ebc6fd"/><path d="m104 208h144v16h-144zm0 0" fill="#ebc6fd"/><path d="m72 200h16v32h-16zm0 0" fill="#ebc6fd"/><path d="m232 184h-192c-4.414062 0-8-3.585938-8-8v-136c0-4.414062 3.585938-8 8-8h192c4.414062 0 8 3.585938 8 8v136c0 4.414062-3.585938 8-8 8zm0 0" fill="#fff7e0"/><g fill="#fddf81"><path d="m296 56h32v16h-32zm0 0"/><path d="m344 56h88v16h-88zm0 0"/><path d="m296 88h88v16h-88zm0 0"/><path d="m400 88h32v16h-32zm0 0"/><path d="m104 72v72l64-36zm0 0"/></g></g></defs><g fi:class="KUsePattern"><pattern id="pattern_L1_0" width="350" height="350" patternUnits="userSpaceOnUse"><use xlink:href="#L1_0" x="-350" y="-350"/><use xlink:href="#L1_0" x="0" y="-350"/><use xlink:href="#L1_0" x="350" y="-350"/><use xlink:href="#L1_0" x="-350" y="0"/><use xlink:href="#L1_0" x="0" y="0"/><use xlink:href="#L1_0" x="350" y="0"/><use xlink:href="#L1_0" x="-350" y="350"/><use xlink:href="#L1_0" x="0" y="350"/><use xlink:href="#L1_0" x="350" y="350"/></pattern><rect x="0" y="0" width="100%" height="100%" fill="url(#pattern_L1_0)"/></g><g fi:class="KUsePattern"><pattern id="pattern_L1_1" width="350" height="350" patternUnits="userSpaceOnUse"><use xlink:href="#L1_1" x="-350" y="-350"/><use xlink:href="#L1_1" x="0" y="-350"/><use xlink:href="#L1_1" x="350" y="-350"/><use xlink:href="#L1_1" x="-350" y="0"/><use xlink:href="#L1_1" x="0" y="0"/><use xlink:href="#L1_1" x="350" y="0"/><use xlink:href="#L1_1" x="-350" y="350"/><use xlink:href="#L1_1" x="0" y="350"/><use xlink:href="#L1_1" x="350" y="350"/></pattern><rect x="0" y="0" width="100%" height="100%" fill="url(#pattern_L1_1)"/></g><g fi:class="KUsePattern"><pattern id="pattern_L1_2" width="350" height="350" patternUnits="userSpaceOnUse"><use xlink:href="#L1_2" x="-350" y="-350"/><use xlink:href="#L1_2" x="0" y="-350"/><use xlink:href="#L1_2" x="350" y="-350"/><use xlink:href="#L1_2" x="-350" y="0"/><use xlink:href="#L1_2" x="0" y="0"/><use xlink:href="#L1_2" x="350" y="0"/><use xlink:href="#L1_2" x="-350" y="350"/><use xlink:href="#L1_2" x="0" y="350"/><use xlink:href="#L1_2" x="350" y="350"/></pattern><rect x="0" y="0" width="100%" height="100%" fill="url(#pattern_L1_2)"/></g><g fi:class="KUsePattern"><pattern id="pattern_L1_3" width="350" height="350" patternUnits="userSpaceOnUse"><use xlink:href="#L1_3" x="-350" y="-350"/><use xlink:href="#L1_3" x="0" y="-350"/><use xlink:href="#L1_3" x="350" y="-350"/><use xlink:href="#L1_3" x="-350" y="0"/><use xlink:href="#L1_3" x="0" y="0"/><use xlink:href="#L1_3" x="350" y="0"/><use xlink:href="#L1_3" x="-350" y="350"/><use xlink:href="#L1_3" x="0" y="350"/><use xlink:href="#L1_3" x="350" y="350"/></pattern><rect x="0" y="0" width="100%" height="100%" fill="url(#pattern_L1_3)"/></g><g fi:class="KUsePattern"><pattern id="pattern_L1_4" width="350" height="350" patternUnits="userSpaceOnUse"><use xlink:href="#L1_4" x="-350" y="-350"/><use xlink:href="#L1_4" x="0" y="-350"/><use xlink:href="#L1_4" x="350" y="-350"/><use xlink:href="#L1_4" x="-350" y="0"/><use xlink:href="#L1_4" x="0" y="0"/><use xlink:href="#L1_4" x="350" y="0"/><use xlink:href="#L1_4" x="-350" y="350"/><use xlink:href="#L1_4" x="0" y="350"/><use xlink:href="#L1_4" x="350" y="350"/></pattern><rect x="0" y="0" width="100%" height="100%" fill="url(#pattern_L1_4)"/></g><g fi:class="KUsePattern"><pattern id="pattern_L1_5" width="350" height="350" patternUnits="userSpaceOnUse"><use xlink:href="#L1_5" x="-350" y="-350"/><use xlink:href="#L1_5" x="0" y="-350"/><use xlink:href="#L1_5" x="350" y="-350"/><use xlink:href="#L1_5" x="-350" y="0"/><use xlink:href="#L1_5" x="0" y="0"/><use xlink:href="#L1_5" x="350" y="0"/><use xlink:href="#L1_5" x="-350" y="350"/><use xlink:href="#L1_5" x="0" y="350"/><use xlink:href="#L1_5" x="350" y="350"/></pattern><rect x="0" y="0" width="100%" height="100%" fill="url(#pattern_L1_5)"/></g></svg>